<?xml version="1.0" encoding="UTF-8"?>
<svg width="41px" height="36px" viewBox="0 0 41 36" version="1.1" xmlns="http://www.w3.org/2000/svg" xmlns:xlink="http://www.w3.org/1999/xlink">
    <!-- Generator: Sketch 62 (91390) - https://sketch.com -->
    <title>Group 3</title>
    <desc>Created with Sketch.</desc>
    <defs>
        <linearGradient x1="50%" y1="0%" x2="50%" y2="100%" id="linearGradient-1">
            <stop stop-color="#735BC0" offset="0%"></stop>
            <stop stop-color="#3F2E8C" offset="100%"></stop>
        </linearGradient>
    </defs>
    <g id="GetCarbon-Main-Website-V2" stroke="none" stroke-width="1" fill="none" fill-rule="evenodd">
        <g id="GetCarbon-Instant-loan-(v2)" transform="translate(-78.000000, -843.000000)">
            <g id="Group-5" transform="translate(78.000000, 843.000000)">
                <g id="Group-4-Copy-2">
                    <g id="Group-3">
                        <circle id="Oval" fill-opacity="0.237980769" fill="#FFFFFF" cx="13.7647059" cy="13.7647059" r="13.7647059"></circle>
                        <g id="Group" transform="translate(8.470588, 8.470588)">
                            <path d="M2.25,27 L29.5147059,27 C30.7573466,27 31.7647059,25.9926407 31.7647059,24.75 L31.7647059,7.01470588 C31.7647059,5.7720652 30.7573466,4.76470588 29.5147059,4.76470588 L12.7058824,4.76470588 L12.7058824,4.76470588 L8.60018621,0.659009742 C8.17822936,0.237052891 7.60593306,-5.53708037e-16 7.00919596,0 L2.25,0 C1.00735931,2.28269391e-16 2.91909616e-16,1.00735931 0,2.25 L0,24.75 C5.96268804e-16,25.9926407 1.00735931,27 2.25,27 Z" id="Combined-Shape" fill="#FFFFFF"></path>
                            <path d="M20.5635531,14.0252094 L17.3610534,14.0252094 L17.3610534,14.0252094 L17.3610534,10.7924373 C17.3610534,10.3782237 17.0252669,10.0424373 16.6110534,10.0424373 L14.897579,10.0424373 C14.4833654,10.0424373 14.147579,10.3782237 14.147579,10.7924373 L14.147579,14.0252094 L14.147579,14.0252094 L10.9450792,14.0252094 C10.5308656,14.0252094 10.1950792,14.3609958 10.1950792,14.7752094 C10.1950792,14.9526768 10.2580098,15.1243947 10.3726839,15.2598367 L15.1819209,20.9400447 C15.4495732,21.2561699 15.9228184,21.2954649 16.2389435,21.0278126 C16.2705743,21.0010319 16.2999307,20.9716755 16.3267114,20.9400447 L21.1359484,15.2598367 C21.4036007,14.9437116 21.3643057,14.4704664 21.0481805,14.2028141 C20.9127385,14.08814 20.7410206,14.0252094 20.5635531,14.0252094 Z" id="Shape" fill="url(#linearGradient-1)"></path>
                        </g>
                    </g>
                </g>
            </g>
        </g>
    </g>
</svg>