<?xml version="1.0" encoding="UTF-8"?>
<svg width="51px" height="36px" viewBox="0 0 51 36" version="1.1" xmlns="http://www.w3.org/2000/svg" xmlns:xlink="http://www.w3.org/1999/xlink">
    <!-- Generator: Sketch 62 (91390) - https://sketch.com -->
    <title>Group 3</title>
    <desc>Created with Sketch.</desc>
    <g id="GetCarbon-Main-Website-V2" stroke="none" stroke-width="1" fill="none" fill-rule="evenodd">
        <g id="GetCarbon-Instant-loan-(v2)" transform="translate(-786.000000, -843.000000)" fill="#FFFFFF">
            <g id="Group-5" transform="translate(78.000000, 843.000000)">
                <g id="Group-4-Copy" transform="translate(708.000000, 0.000000)">
                    <g id="Group-3">
                        <circle id="Oval" fill-opacity="0.237980769" cx="13.7647059" cy="13.7647059" r="13.7647059"></circle>
                        <g id="Money" transform="translate(29.600000, 22.500000) rotate(-1.000000) translate(-29.600000, -22.500000) translate(8.000000, 9.000000)">
                            <rect id="Combined-Shape-Copy" opacity="0.439999998" transform="translate(22.767771, 14.772305) rotate(-360.000000) translate(-22.767771, -14.772305) " x="2.80937121" y="3.36750504" width="39.9168" height="22.8096" rx="1.76"></rect>
                            <path d="M38.632,0.9504 C39.6040212,0.9504 40.392,1.73837884 40.392,2.7104 L40.392,22 C40.392,22.9720212 39.6040212,23.76 38.632,23.76 L2.2352,23.76 C1.26317884,23.76 0.4752,22.9720212 0.4752,22 L0.4752,2.7104 C0.4752,1.73837884 1.26317884,0.9504 2.2352,0.9504 L38.632,0.9504 Z M20.4336,4.752 C16.2344686,4.752 12.8304,8.15606859 12.8304,12.3552 C12.8304,16.5543314 16.2344686,19.9584 20.4336,19.9584 C24.6327314,19.9584 28.0368,16.5543314 28.0368,12.3552 C28.0368,8.15606859 24.6327314,4.752 20.4336,4.752 Z M20.4336,16.1568 C22.5331657,16.1568 24.2352,14.4547657 24.2352,12.3552 C24.2352,10.2556343 22.5331657,8.5536 20.4336,8.5536 C18.3340343,8.5536 16.632,10.2556343 16.632,12.3552 C16.632,14.4547657 18.3340343,16.1568 20.4336,16.1568 Z" id="Combined-Shape"></path>
                        </g>
                    </g>
                </g>
            </g>
        </g>
    </g>
</svg>