<?xml version="1.0" encoding="UTF-8"?>
<svg width="83px" height="83px" viewBox="0 0 83 83" version="1.1" xmlns="http://www.w3.org/2000/svg" xmlns:xlink="http://www.w3.org/1999/xlink">
    <!-- Generator: Sketch 62 (91390) - https://sketch.com -->
    <title>Group</title>
    <desc>Created with Sketch.</desc>
    <g id="GetCarbon-Main-Website-V2" stroke="none" stroke-width="1" fill="none" fill-rule="evenodd">
        <g id="GetCarbon-Instant-loan-(v2)" transform="translate(-968.000000, -1795.000000)">
            <g id="Features" transform="translate(179.000000, 1795.000000)">
                <g id="Feature-1-Copy-2" transform="translate(789.000000, 0.000000)">
                    <g id="Group">
                        <ellipse id="Oval" fill="#FF9841" cx="41.4417745" cy="41.4705882" rx="41.4417745" ry="41.4705882"></ellipse>
                        <g id="Icons-/-Mask-1" transform="translate(23.829020, 23.845588)" fill="#FFFFFF">
                            <path d="M5.95677525,4.55717291 C8.11776055,3.49296584 11.2270061,2.95895124 16.884514,2.9375 C22.595693,2.95913729 25.7009971,3.48436618 27.8674509,4.56306982 C29.9498282,5.59991074 30.7954047,10.1114815 30.8223687,15.4143911 C30.8419753,19.2703587 30.0053669,23.4709384 28.2525155,26.7771434 C25.9075141,31.2002537 22.1033944,33.7836255 16.8782875,33.7812393 C11.6532419,33.7788532 7.85334852,31.2011285 5.51162231,26.7858879 C3.7619291,23.4869043 2.9265353,19.2993074 2.93553089,15.4184576 C2.94732521,10.330194 3.89387954,5.57307441 5.95677525,4.55717291 Z M26.5597933,7.19300501 C24.8679202,6.35060085 22.1746506,5.89506318 16.8845295,5.87497889 C11.64463,5.89488581 8.94803135,6.35802808 7.2529262,7.19280604 C6.71695284,7.45675353 5.87969915,11.6645584 5.87098202,15.4252713 C5.85116677,23.9738994 9.49295826,30.8403663 16.8796271,30.8437396 C24.2638607,30.8471118 27.9301803,23.9317486 27.8869477,15.4293378 C27.8670715,11.5203622 27.1070956,7.46551349 26.5597933,7.19300501 Z M9.54030975,13.2187395 C9.54030975,12.4075712 10.1910323,11.7499895 11.0066459,11.7499895 L13.9448916,11.7499895 C14.7547267,11.7499895 15.4112278,12.4019159 15.4112278,13.2187395 C15.4112278,14.0299077 14.7605053,14.6874895 13.9448916,14.6874895 L11.0066459,14.6874895 C10.1968108,14.6874895 9.54030975,14.035563 9.54030975,13.2187395 Z M18.3466868,13.2187395 C18.3466868,12.4075712 18.9974094,11.7499895 19.813023,11.7499895 L22.7512687,11.7499895 C23.5611038,11.7499895 24.2176049,12.4019159 24.2176049,13.2187395 C24.2176049,14.0299077 23.5668823,14.6874895 22.7512687,14.6874895 L19.813023,14.6874895 C19.0031879,14.6874895 18.3466868,14.035563 18.3466868,13.2187395 Z M9.7607239,21.339607 C9.33851109,20.6471605 9.55718883,19.7433125 10.2491543,19.3208062 C10.9411198,18.8982998 11.8443397,19.1171296 12.2665525,19.8095762 C12.2849808,19.8397993 12.9775071,20.6183359 13.3070309,20.8703901 C14.2566312,21.5967438 15.4308891,22.0312395 16.8789573,22.0312395 C18.3275496,22.0312395 19.5044101,21.5963524 20.4576064,20.8692238 C20.7884905,20.6168149 21.4850156,19.836859 21.5037351,19.8063362 C21.927736,19.1149846 22.8315185,18.8984931 23.5223897,19.3227888 C24.2132609,19.7470846 24.429602,20.6514955 24.0056011,21.342847 C23.6933152,21.8520424 23.1150428,22.5357168 22.2372079,23.2053572 C20.7935804,24.3066024 19.0017521,24.9687395 16.8789573,24.9687395 C14.7556385,24.9687395 12.9651045,24.306211 11.5243757,23.2041909 C10.6480868,22.5339135 10.0716419,21.8495256 9.7607239,21.339607 Z" id="Combined-Shape"></path>
                        </g>
                    </g>
                </g>
            </g>
        </g>
    </g>
</svg>