<?xml version="1.0" encoding="UTF-8"?>
<svg width="498px" height="378px" viewBox="0 0 498 378" version="1.1" xmlns="http://www.w3.org/2000/svg" xmlns:xlink="http://www.w3.org/1999/xlink">
    <!-- Generator: Sketch 62 (91390) - https://sketch.com -->
    <title>Online salary administration for SMEs Get started yourself Employes-2</title>
    <desc>Created with Sketch.</desc>
    <defs>
        <rect id="path-1" x="0" y="0" width="516.6" height="377.1"></rect>
        <linearGradient x1="47.661%" y1="92.136%" x2="25.488%" y2="11.458%" id="linearGradient-3">
            <stop stop-color="#F5F8FC" offset="0%"></stop>
            <stop stop-color="#FFFFFF" offset="100%"></stop>
        </linearGradient>
        <radialGradient cx="50.7%" cy="0%" fx="50.7%" fy="0%" r="3730.29706%" gradientTransform="translate(0.507000,0.000000),scale(0.013402,1.000000),rotate(180.000000),translate(-0.507000,-0.000000)" id="radialGradient-4">
            <stop stop-color="#DAE6F0" offset="0%"></stop>
            <stop stop-color="#DAE6F0" stop-opacity="0" offset="100%"></stop>
        </radialGradient>
        <radialGradient cx="50.8%" cy="0%" fx="50.8%" fy="0%" r="2997.89682%" gradientTransform="translate(0.508000,0.000000),scale(0.016674,1.000000),rotate(180.000000),translate(-0.508000,-0.000000)" id="radialGradient-5">
            <stop stop-color="#DAE6F0" offset="0%"></stop>
            <stop stop-color="#DAE6F0" stop-opacity="0" offset="100%"></stop>
        </radialGradient>
        <radialGradient cx="51.3%" cy="0%" fx="51.3%" fy="0%" r="1938.20225%" gradientTransform="translate(0.513000,0.000000),scale(0.025799,1.000000),rotate(180.000000),translate(-0.513000,-0.000000)" id="radialGradient-6">
            <stop stop-color="#DAE6F0" offset="0%"></stop>
            <stop stop-color="#DAE6F0" stop-opacity="0" offset="100%"></stop>
        </radialGradient>
        <linearGradient x1="102.446%" y1="37.5200544%" x2="17.415%" y2="53.1366112%" id="linearGradient-7">
            <stop stop-color="#FAFBFC" offset="0%"></stop>
            <stop stop-color="#F2F6FC" offset="100%"></stop>
        </linearGradient>
        <linearGradient x1="102.446%" y1="22.037%" x2="17.415%" y2="57.028%" id="linearGradient-8">
            <stop stop-color="#FAFBFC" offset="0%"></stop>
            <stop stop-color="#F2F6FC" offset="100%"></stop>
        </linearGradient>
        <path d="M2.7,0 L476.164641,0 C477.655809,0 478.864641,1.20883117 478.864641,2.7 L478.864641,317.143636 C478.864641,318.634805 477.655809,319.843636 476.164641,319.843636 L2.7,319.843636 C1.20883117,319.843636 -3.99680289e-16,318.634805 -3.99680289e-16,317.143636 L-3.99680289e-16,2.7 C-3.99680289e-16,1.20883117 1.20883117,0 2.7,0 Z" id="path-9"></path>
        <path d="M2.7,0 L476.164641,0 C477.655809,0 478.864641,1.20883117 478.864641,2.7 L478.864641,317.143636 C478.864641,318.634805 477.655809,319.843636 476.164641,319.843636 L2.7,319.843636 C1.20883117,319.843636 -3.99680289e-16,318.634805 -3.99680289e-16,317.143636 L-3.99680289e-16,2.7 C-3.99680289e-16,1.20883117 1.20883117,0 2.7,0 Z" id="path-11"></path>
        <path d="M2.7,0 L476.164641,0 C477.655809,0 478.864641,1.20883117 478.864641,2.7 L478.864641,317.143636 C478.864641,318.634805 477.655809,319.843636 476.164641,319.843636 L2.7,319.843636 C1.20883117,319.843636 -3.99680289e-16,318.634805 -3.99680289e-16,317.143636 L-3.99680289e-16,2.7 C-3.99680289e-16,1.20883117 1.20883117,0 2.7,0 Z" id="path-13"></path>
        <linearGradient x1="50%" y1="0%" x2="50%" y2="100%" id="linearGradient-15">
            <stop stop-color="#80A6F1" stop-opacity="0.528" offset="0%"></stop>
            <stop stop-color="#80A6F1" stop-opacity="0" offset="100%"></stop>
        </linearGradient>
        <linearGradient x1="46.034%" y1="0%" x2="46.034%" y2="100%" id="linearGradient-16">
            <stop stop-color="#A0EBDC" offset="0%"></stop>
            <stop stop-color="#1CD4AF" offset="100%"></stop>
        </linearGradient>
        <linearGradient x1="50%" y1="0%" x2="50%" y2="100%" id="linearGradient-17">
            <stop stop-color="#CFDCF6" stop-opacity="0.594" offset="0%"></stop>
            <stop stop-color="#D3E0F8" stop-opacity="0" offset="100%"></stop>
        </linearGradient>
        <linearGradient x1="50%" y1="100%" x2="50%" y2="0%" id="linearGradient-18">
            <stop stop-color="#D5E1F8" offset="0%"></stop>
            <stop stop-color="#E9F0FF" offset="100%"></stop>
        </linearGradient>
        <linearGradient x1="44.164%" y1="-58.724%" x2="44.164%" y2="146.947%" id="linearGradient-19">
            <stop stop-color="#F5F7FC" offset="0%"></stop>
            <stop stop-color="#E6ECF7" offset="100%"></stop>
        </linearGradient>
        <linearGradient x1="50%" y1="37.966%" x2="50%" y2="115.749%" id="linearGradient-20">
            <stop stop-color="#FFFFFF" offset="0%"></stop>
            <stop stop-color="#FAFBFF" offset="100%"></stop>
        </linearGradient>
        <linearGradient x1="50%" y1="100%" x2="50%" y2="0%" id="linearGradient-21">
            <stop stop-color="#BCCBE9" offset="0%"></stop>
            <stop stop-color="#CDDBF6" offset="100%"></stop>
        </linearGradient>
        <linearGradient x1="50%" y1="12.515%" x2="50%" y2="100%" id="linearGradient-22">
            <stop stop-color="#EBF2FF" offset="0%"></stop>
            <stop stop-color="#CDDBF6" offset="100%"></stop>
        </linearGradient>
        <linearGradient x1="50%" y1="100%" x2="50%" y2="0%" id="linearGradient-23">
            <stop stop-color="#BCCBE9" offset="0%"></stop>
            <stop stop-color="#CDDBF6" offset="100%"></stop>
        </linearGradient>
        <linearGradient x1="50%" y1="100%" x2="50%" y2="0%" id="linearGradient-24">
            <stop stop-color="#BCCBE9" offset="0%"></stop>
            <stop stop-color="#CDDBF6" offset="100%"></stop>
        </linearGradient>
        <linearGradient x1="85.3355344%" y1="50%" x2="-7.77694794%" y2="24.9531436%" id="linearGradient-25">
            <stop stop-color="#F1F3F7" offset="1.78152095%"></stop>
            <stop stop-color="#8DADE0" offset="97.3378793%"></stop>
        </linearGradient>
        <linearGradient x1="50%" y1="0%" x2="50%" y2="100%" id="linearGradient-26">
            <stop stop-color="#FFDB78" offset="0%"></stop>
            <stop stop-color="#FFC62B" offset="100%"></stop>
        </linearGradient>
        <linearGradient x1="46.034%" y1="4.973%" x2="46.034%" y2="100%" id="linearGradient-27">
            <stop stop-color="#FFBB27" offset="0%"></stop>
            <stop stop-color="#E68A00" offset="100%"></stop>
        </linearGradient>
        <linearGradient x1="50%" y1="0%" x2="50%" y2="100%" id="linearGradient-28">
            <stop stop-color="#735BC0" offset="0%"></stop>
            <stop stop-color="#3F2E8C" offset="100%"></stop>
        </linearGradient>
        <path d="M141.231731,21.7647402 C143.856663,23.4490119 145.55662,27.4550443 145.55662,29.6681017 C145.55662,29.6731528 145.556584,29.6781974 145.556513,29.6832356 L145.566149,29.6816645 C145.8204,33.8808578 145.945625,38.2400578 145.941822,42.7592646 C145.935356,50.4448789 140.060384,56.8530558 132.404241,57.5254997 L122.770499,58.3716374 C116.243173,58.9449365 110.48698,54.1182446 109.913681,47.5909194 C109.883363,47.2457333 109.868182,46.8993846 109.868182,46.5528696 C109.868182,39.2899564 115.422607,33.233275 122.658391,32.6061094 C128.033826,32.1401916 132.600913,31.6703355 136.359652,31.1965411 L136.31534,31.1678573 C145.55662,28.9264358 142.724884,22.9655085 141.231731,21.7647402 Z" id="path-29"></path>
        <filter x="-19.4%" y="-13.6%" width="138.8%" height="138.2%" filterUnits="objectBoundingBox" id="filter-30">
            <feOffset dx="0" dy="2" in="SourceAlpha" result="shadowOffsetOuter1"></feOffset>
            <feGaussianBlur stdDeviation="2" in="shadowOffsetOuter1" result="shadowBlurOuter1"></feGaussianBlur>
            <feColorMatrix values="0 0 0 0 0.17768504   0 0 0 0 0.207227566   0 0 0 0 0.265545281  0 0 0 0.0478940217 0" type="matrix" in="shadowBlurOuter1"></feColorMatrix>
        </filter>
        <linearGradient x1="64.6504567%" y1="61.3776654%" x2="79.0684593%" y2="79.0842573%" id="linearGradient-31">
            <stop stop-color="#F7C537" offset="0%"></stop>
            <stop stop-color="#F7AF37" offset="100%"></stop>
        </linearGradient>
        <linearGradient x1="50%" y1="0%" x2="50%" y2="100%" id="linearGradient-32">
            <stop stop-color="#FFDB78" offset="0%"></stop>
            <stop stop-color="#FFC62B" offset="100%"></stop>
        </linearGradient>
        <linearGradient x1="46.034%" y1="4.973%" x2="46.034%" y2="100%" id="linearGradient-33">
            <stop stop-color="#FFBB27" offset="0%"></stop>
            <stop stop-color="#E68A00" offset="100%"></stop>
        </linearGradient>
        <circle id="path-34" cx="21.96" cy="21.96" r="21.96"></circle>
    </defs>
    <g id="GetCarbon-Main-Website-V2" stroke="none" stroke-width="1" fill="none" fill-rule="evenodd">
        <g id="GetCarbon-Instant-loan-(v2)" transform="translate(-750.000000, -2745.000000)">
            <g id="Group-10" transform="translate(184.000000, 2745.000000)">
                <g id="Online-salary-administration-for-SMEs-Get-started-yourself-Employes-2" transform="translate(547.000000, 0.000000)">
                    <mask id="mask-2" fill="white">
                        <use xlink:href="#path-1"></use>
                    </mask>
                    <g id="Mask"></g>
                    <g mask="url(#mask-2)">
                        <g transform="translate(19.800000, -35.100000)">
                            <path d="M39.6629374,97.4184152 C-24.3036205,170.992256 -7.2101885,341.213235 65.4847276,376.119502 C138.179644,411.025768 228.607164,398.119049 279.994812,370.195418 C331.382461,342.271787 377.429888,345.292133 466.491621,360.790943 C555.553352,376.289752 603.957327,338.731516 621.594793,267.951971 C639.232258,197.172428 623.709253,81.9015552 509.589815,70.0298408 C395.470377,58.1581264 412.314074,9.79543752 299.947518,1.6272019 C187.580961,-6.54103376 103.629495,23.8445741 39.6629374,97.4184152 Z" id="Path" fill="url(#linearGradient-3)" fill-rule="nonzero" transform="translate(313.899250, 198.784733) scale(-1, 1) translate(-313.899250, -198.784733) "></path>
                            <ellipse id="Oval" fill="url(#radialGradient-4)" fill-rule="nonzero" opacity="0.2" cx="330.0849" cy="384.3162" rx="283.2651" ry="3.7962"></ellipse>
                            <ellipse id="Oval" fill="url(#radialGradient-5)" fill-rule="nonzero" opacity="0.5" cx="199.908" cy="384.7419" rx="82.4202" ry="1.3743"></ellipse>
                            <ellipse id="Oval" fill="url(#radialGradient-6)" fill-rule="nonzero" opacity="0.5" cx="554.175" cy="384.2667" rx="108.4563" ry="2.7981"></ellipse>
                            <g id="Group" stroke-width="1" fill="none" fill-rule="evenodd" transform="translate(72.581400, 63.523800)">
                                <g id="e-link" fill="url(#linearGradient-8)" fill-rule="nonzero">
                                    <path d="M2.7,0 L476.164641,0 C477.655809,0 478.864641,1.20883117 478.864641,2.7 L478.864641,317.143636 C478.864641,318.634805 477.655809,319.843636 476.164641,319.843636 L2.7,319.843636 C1.20883117,319.843636 -3.99680289e-16,318.634805 -3.99680289e-16,317.143636 L-3.99680289e-16,2.7 C-3.99680289e-16,1.20883117 1.20883117,0 2.7,0 Z" id="e"></path>
                                </g>
                                <g id="Clipped">
                                    <mask id="mask-10" fill="white">
                                        <use xlink:href="#path-9"></use>
                                    </mask>
                                    <g id="e"></g>
                                    <g id="Group" mask="url(#mask-10)">
                                        <g transform="translate(139.500000, 37.800000)">
                                            <g transform="translate(0.362700, 0.163800)">
                                                <rect id="Rectangle" fill="#EDF1FA" fill-rule="nonzero" x="0" y="0" width="154.3527" height="13.2876" rx="0.9"></rect>
                                                <rect id="Rectangle" fill="#EDF1FA" fill-rule="nonzero" x="0" y="18.9819" width="79.9659" height="6.6438" rx="0.9"></rect>
                                            </g>
                                        </g>
                                    </g>
                                </g>
                                <g id="Clipped">
                                    <mask id="mask-12" fill="white">
                                        <use xlink:href="#path-11"></use>
                                    </mask>
                                    <g id="e"></g>
                                    <g id="Group" mask="url(#mask-12)">
                                        <g transform="translate(0.000000, 18.032400)">
                                            <polygon id="Path" fill="#FFFFFF" fill-rule="nonzero" points="0 0 113.4396 0 113.4396 301.8105 0 301.8105"></polygon>
                                            <g id="Group" opacity="0.6" stroke-width="1" fill="none" fill-rule="evenodd" transform="translate(14.877000, 38.912400)">
                                                <g transform="translate(0.000000, 79.723800)" fill="#E5EAF3" fill-rule="nonzero">
                                                    <ellipse id="Oval" cx="6.9741" cy="7.1181" rx="6.9741" ry="7.1181"></ellipse>
                                                    <rect id="Rectangle" x="22.3164" y="3.7962" width="55.7901" height="6.6438" rx="0.9"></rect>
                                                </g>
                                                <g transform="translate(0.000000, 53.149500)" fill="#E5EAF3" fill-rule="nonzero">
                                                    <ellipse id="Oval" cx="6.9741" cy="7.1181" rx="6.9741" ry="7.1181"></ellipse>
                                                    <rect id="Rectangle" x="22.3164" y="3.7962" width="48.3516" height="6.6438" rx="0.9"></rect>
                                                </g>
                                                <g transform="translate(0.000000, 26.574300)" fill="#E5EAF3" fill-rule="nonzero">
                                                    <ellipse id="Oval" cx="6.9741" cy="7.1181" rx="6.9741" ry="7.1181"></ellipse>
                                                    <rect id="Rectangle" x="22.3164" y="3.7962" width="40.9131" height="6.6438" rx="0.9"></rect>
                                                </g>
                                                <g fill="#E5EAF3" fill-rule="nonzero">
                                                    <ellipse id="Oval" cx="6.9741" cy="7.1181" rx="6.9741" ry="7.1181"></ellipse>
                                                    <rect id="Rectangle" x="22.3164" y="3.7962" width="55.7901" height="6.6438" rx="0.9"></rect>
                                                </g>
                                            </g>
                                        </g>
                                    </g>
                                </g>
                                <g id="Clipped">
                                    <mask id="mask-14" fill="white">
                                        <use xlink:href="#path-13"></use>
                                    </mask>
                                    <g id="e"></g>
                                    <g id="Group" mask="url(#mask-14)">
                                        <g transform="translate(28.218600, 129.076200)">
                                            <g id="rect-1" opacity="0">
                                                <g id="F-link" fill="#000000" fill-rule="nonzero">
                                                    <rect id="F" x="0" y="0" width="91.1241" height="51.2505" rx="5.4"></rect>
                                                </g>
                                                <g id="F-link" fill="#FFFFFF" fill-rule="nonzero">
                                                    <rect id="F" x="0" y="0" width="91.1241" height="51.2505" rx="5.4"></rect>
                                                </g>
                                                <rect id="Rectangle" fill="#EDF1FA" fill-rule="nonzero" x="7.4385" y="7.5924" width="47.4219" height="5.6943" rx="0.9"></rect>
                                                <g id="Group" transform="translate(4.679100, 12.387600)" fill-rule="nonzero">
                                                    <path d="M2.90932231,26.0810237 L8.54167632,19.2693037 L16.3525802,13.9168651 L23.992047,12.1153233 L31.3907927,12.7728806 L37.8316198,15.3433123 L42.3438403,18.1712003 L47.002196,20.054067 L53.2912126,20.4154627 L59.8254432,18.6534959 L65.969034,15.3433123 L74.5562516,8.32349624 L80.0349035,2.77861785 L80.0349035,29.0158067 C80.0349035,29.6838502 79.4933473,30.2254065 78.8253037,30.2254065 L4.11892214,30.2254065 C3.45087859,30.2254065 2.90932231,29.6838502 2.90932231,29.0158067 L2.90932231,26.0810237 Z" id="Path" fill="url(#linearGradient-15)"></path>
                                                    <path d="M3.56573462,26.7064008 C3.27666559,27.1107571 2.71453326,27.2042159 2.31017694,26.9151469 C1.90582062,26.6260779 1.81236181,26.0639455 2.10143084,25.6595892 C9.31296047,15.571938 17.481921,10.7582675 26.5635457,11.3352294 C31.9499543,11.6774316 35.2096028,12.9185071 39.626367,15.6763815 C39.8565847,15.8201319 40.7577541,16.3878227 40.9801253,16.5266501 C44.8171107,18.9220997 47.2901853,19.8193623 51.4681656,19.8193623 C58.6180043,19.8193623 67.890187,14.0016645 79.1831128,2.29871471 C79.5282628,1.94103284 80.0980208,1.93087387 80.4557027,2.27602401 C80.8133845,2.62117415 80.8235435,3.19093207 80.4783934,3.54861394 C68.8750409,15.5732615 59.238832,21.6193623 51.4681656,21.6193623 C46.901671,21.6193623 44.1248338,20.6118908 40.0268903,18.0535238 C39.8004148,17.912134 38.8991684,17.3443945 38.6730162,17.2031827 C34.4888972,14.5905745 31.4996531,13.4524525 26.4494206,13.1316079 C18.0572808,12.5984495 10.4443077,17.0844967 3.56573462,26.7064008 Z" id="Path" fill="#80A6F1"></path>
                                                    <ellipse id="Oval" stroke="#FFFFFF" stroke-width="0.8064" fill="#80A6F1" cx="3.0789" cy="25.6689" rx="2.5821" ry="2.4066"></ellipse>
                                                    <ellipse id="Oval" stroke="#FFFFFF" stroke-width="0.8064" fill="#80A6F1" cx="79.7931" cy="2.9034" rx="2.5821" ry="2.4066"></ellipse>
                                                    <ellipse id="Oval" stroke="#FFFFFF" stroke-width="0.8064" fill="#80A6F1" cx="25.0848" cy="12.1788" rx="2.5821" ry="2.4066"></ellipse>
                                                    <ellipse id="Oval" stroke="#FFFFFF" stroke-width="0.8064" fill="#80A6F1" cx="51.9804" cy="20.61" rx="2.5821" ry="2.4066"></ellipse>
                                                </g>
                                            </g>
                                            <g id="rect-2" transform="translate(104.141700, 0.000000)">
                                                <g id="I-link" fill="#FFFFFF" fill-rule="nonzero">
                                                    <rect id="I" x="0" y="0" width="91.1241" height="51.2505" rx="5.4"></rect>
                                                </g>
                                                <rect id="Rectangle" fill="#EDF1FA" fill-rule="nonzero" x="9.2979" y="20.88" width="27.8946" height="20.88" rx="0.9"></rect>
                                                <polygon id="Path" fill="url(#linearGradient-16)" fill-rule="nonzero" points="50.8545 22.7781 56.1474 31.041 45.5616 31.041"></polygon>
                                                <rect id="Rectangle" fill="#EDF1FA" fill-rule="nonzero" x="7.4385" y="7.5924" width="47.4219" height="5.6943" rx="0.9"></rect>
                                            </g>
                                            <g id="rect-3" opacity="0.483375186" transform="translate(208.282500, 0.000000)">
                                                <g id="L-link" fill="#000000" fill-rule="nonzero">
                                                    <rect id="L" x="0" y="0" width="91.1241" height="51.2505" rx="5.4"></rect>
                                                </g>
                                                <g id="L-link" fill="#FFFFFF" fill-rule="nonzero">
                                                    <rect id="L" x="0" y="0" width="91.1241" height="51.2505" rx="5.4"></rect>
                                                </g>
                                                <rect id="Rectangle" fill="#EDF1FA" fill-rule="nonzero" x="7.4385" y="7.5924" width="47.4219" height="5.6943" rx="0.9"></rect>
                                                <g id="Group" transform="translate(4.679100, 12.387600)" fill-rule="nonzero">
                                                    <path d="M2.90932231,26.0810237 L8.54167632,19.2693037 L16.3525802,13.9168651 L23.992047,12.1153233 L31.3907927,12.7728806 L37.8316198,15.3433123 L42.3438403,18.1712003 L47.002196,20.054067 L53.2912126,20.4154627 L59.8254432,18.6534959 L65.969034,15.3433123 L74.5562516,8.32349624 L80.0349035,2.77861785 L80.0349035,29.0158067 C80.0349035,29.6838502 79.4933473,30.2254065 78.8253037,30.2254065 L4.11892214,30.2254065 C3.45087859,30.2254065 2.90932231,29.6838502 2.90932231,29.0158067 L2.90932231,26.0810237 Z" id="Path" fill="url(#linearGradient-17)"></path>
                                                    <path d="M3.56573462,26.7064008 C3.27666559,27.1107571 2.71453326,27.2042159 2.31017694,26.9151469 C1.90582062,26.6260779 1.81236181,26.0639455 2.10143084,25.6595892 C9.31296047,15.571938 17.481921,10.7582675 26.5635457,11.3352294 C31.9499543,11.6774316 35.2096028,12.9185071 39.626367,15.6763815 C39.8565847,15.8201319 40.7577541,16.3878227 40.9801253,16.5266501 C44.8171107,18.9220997 47.2901853,19.8193623 51.4681656,19.8193623 C58.6180043,19.8193623 67.890187,14.0016645 79.1831128,2.29871471 C79.5282628,1.94103284 80.0980208,1.93087387 80.4557027,2.27602401 C80.8133845,2.62117415 80.8235435,3.19093207 80.4783934,3.54861394 C68.8750409,15.5732615 59.238832,21.6193623 51.4681656,21.6193623 C46.901671,21.6193623 44.1248338,20.6118908 40.0268903,18.0535238 C39.8004148,17.912134 38.8991684,17.3443945 38.6730162,17.2031827 C34.4888972,14.5905745 31.4996531,13.4524525 26.4494206,13.1316079 C18.0572808,12.5984495 10.4443077,17.0844967 3.56573462,26.7064008 Z" id="Path" fill="url(#linearGradient-18)"></path>
                                                    <ellipse id="Oval" stroke="#FFFFFF" stroke-width="0.8064" fill="#D1DEF7" cx="3.0789" cy="25.6689" rx="2.5821" ry="2.4066"></ellipse>
                                                    <ellipse id="Oval" stroke="#FFFFFF" stroke-width="0.8064" fill="#4ADCBF" cx="79.7931" cy="2.9034" rx="2.5821" ry="2.4066"></ellipse>
                                                    <ellipse id="Oval" stroke="#FFFFFF" stroke-width="0.8064" fill="#D1DEF7" cx="25.0848" cy="12.1788" rx="2.5821" ry="2.4066"></ellipse>
                                                    <ellipse id="Oval" stroke="#FFFFFF" stroke-width="0.8064" fill="#D1DEF7" cx="51.9804" cy="20.61" rx="2.5821" ry="2.4066"></ellipse>
                                                </g>
                                            </g>
                                        </g>
                                    </g>
                                </g>
                                <g fill-rule="nonzero">
                                    <path d="M2.7,0 L476.164641,0 C477.655809,0 478.864641,1.20883117 478.864641,2.7 L478.864641,18.0327272 L0,18.0327272 L0,2.7 C0,1.20883117 1.20883117,0 2.7,0 Z" id="Path" fill="url(#linearGradient-19)"></path>
                                    <path d="M9.29830276,11.3888455 C7.75770293,11.3888455 6.5088,10.114078 6.5088,8.54157272 C6.5088,6.96906742 7.75770293,5.6943 9.29830276,5.6943 C10.8389026,5.6943 12.0878055,6.96906742 12.0878055,8.54157272 C12.0878055,10.114078 10.8389026,11.3888455 9.29830276,11.3888455 Z M18.5966453,11.3888455 C17.0560454,11.3888455 15.8071425,10.114078 15.8071425,8.54157272 C15.8071425,6.96906742 17.0560454,5.6943 18.5966453,5.6943 C20.1372451,5.6943 21.386148,6.96906742 21.386148,8.54157272 C21.386148,10.114078 20.1372451,11.3888455 18.5966453,11.3888455 Z M27.8949878,11.3888455 C26.354388,11.3888455 25.1054851,10.114078 25.1054851,8.54157272 C25.1054851,6.96906742 26.354388,5.6943 27.8949878,5.6943 C29.4355877,5.6943 30.6844907,6.96906742 30.6844907,8.54157272 C30.6844907,10.114078 29.4355877,11.3888455 27.8949878,11.3888455 Z" id="Shape" fill="url(#linearGradient-20)"></path>
                                </g>
                            </g>
                            <rect id="Rectangle-Copy-14" fill="#3B2F85" fill-rule="nonzero" opacity="0.0735677083" x="113.4" y="145.8" width="295.2" height="49.5" rx="24.75"></rect>
                            <rect id="Rectangle" fill="#3B2F85" fill-rule="nonzero" x="119.7" y="139.5" width="295.2" height="49.5" rx="24.75"></rect>
                            <text id="REQUEST-PAYROLL-LOAN-Copy" fill="none" opacity="0.0994001116" font-family="Graphik-Medium, Graphik" font-size="12.6" font-weight="400">
                                <tspan x="170.4123" y="168.4" fill="#FFFFFF">REQUEST PAYROLL LOAN</tspan>
                            </text>
                            <text id="REQUEST-PAYROLL-LOAN" fill="none" font-family="Graphik-Semibold, Graphik" font-size="12.6" font-weight="500">
                                <tspan x="170.6598" y="167.5" fill="#FFFFFF">REQUEST PAYROLL LOAN</tspan>
                            </text>
                            <g id="Cursor" stroke-width="1" fill="none" fill-rule="evenodd" transform="translate(375.600000, 178.800000) scale(-1, 1) translate(-375.600000, -178.800000) translate(342.600000, 145.800000)">
                                <circle id="Oval" fill="#2CD5C4" fill-rule="nonzero" opacity="0.2" cx="33.0624" cy="32.972688" r="32.873904"></circle>
                                <circle id="Oval" fill="#2CD5C4" fill-rule="nonzero" opacity="0.42" cx="33.0624" cy="32.972688" r="21.59136"></circle>
                                <circle id="Oval" fill="#2CD5C4" fill-rule="nonzero" cx="33.0624" cy="32.972688" r="12.951288"></circle>
                            </g>
                            <g id="Group-63" stroke-width="1" fill="none" fill-rule="evenodd" transform="translate(296.000000, 177.300000)">
                                <g id="Path-88" transform="translate(119.200000, 119.500000) scale(-1, 1) translate(-119.200000, -119.500000) translate(0.700000, 0.000000)" fill="#E5E9F3">
                                    <path d="M111.008686,228.807236 L93.2212615,174.562147 C91.2738227,168.623177 88.6302226,162.935605 85.3456386,157.618144 L61.6600805,119.273246 C58.6111343,114.337262 60.1408806,107.864197 65.0768645,104.815251 C65.5132669,104.545686 65.9688271,104.308447 66.439889,104.105437 L66.439889,104.105437 L66.439889,104.105437 L63.6939233,95.815016 L63.6939233,92.3463922 C63.6939233,87.801508 67.3782799,84.1171515 71.923164,84.1171515 C73.5926965,84.1171515 75.2227405,84.6249586 76.596882,85.5731535 L76.596882,85.5731535 L76.596882,85.5731535 L74.6003843,79.1065536 C73.4670515,75.4357209 74.8590551,71.4548778 78.0329333,69.2901716 C81.1870173,67.1389657 85.3893644,67.3589141 88.3016444,69.82763 L94.2939233,74.9072356 L94.2939233,74.9072356 L75.6166148,17.287161 C74.7230013,14.5303358 76.0578126,11.5441106 78.7079333,10.3712974 C81.3030859,9.22281025 84.3407346,10.3517137 85.5559762,12.9162853 L118.803054,83.0788838 L118.803054,83.0788838 C124.810752,81.6750326 131.007106,84.5143902 133.866385,89.9813606 L134.586385,91.3580073 C138.250146,98.3631558 140.163763,106.151072 140.163763,114.056466 L140.163763,156.252915 L140.163763,156.252915 L177.093923,228.807236 L111.008686,228.807236 Z" style="mix-blend-mode: multiply;" transform="translate(118.592491, 119.364805) rotate(44.000000) translate(-118.592491, -119.364805) "></path>
                                </g>
                                <g id="Group" transform="translate(75.700000, 4.500000)">
                                    <path d="M89.1026489,253.8 L65.4562728,171.636803 C62.5660225,161.594156 57.7168732,152.222785 51.1882855,144.062769 L33.875172,122.423285 C27.8202039,114.855242 25.5862938,104.921121 27.81851,95.4895182 L31.3694012,80.4862248 L31.3694012,80.4862248 L0.5634108,9.41979213 C-0.768125804,6.3480663 0.327777052,2.76406694 3.14950929,0.962313206 C5.89412004,-0.790196339 9.53044779,-0.0864150694 11.4229906,2.56357733 L47.1219045,52.5502151 L47.1219045,52.5502151 C49.770186,46.5385422 56.790466,43.8119748 62.8021389,46.4602563 C64.5104186,47.2127932 66.0175984,48.3568305 67.2017731,49.799835 L72.3739156,56.1024734 L72.3739156,56.1024734 C75.1790888,51.2021151 81.4256563,49.503632 86.3260146,52.3088052 C87.4542631,52.9546626 88.4489816,53.8097733 89.2568579,54.8283077 L96.5091302,63.9716482 L96.5091302,63.9716482 C102.516829,62.567797 108.713182,65.4071546 111.572461,70.874125 L112.292461,72.2507717 C115.956223,79.2559202 117.86984,87.0438361 117.86984,94.9492301 L117.86984,156.423848 L117.86984,156.423848 L171,253.8 L89.1026489,253.8 Z" id="Path-88" fill="#DA8A66"></path>
                                    <path d="M40.8542482,103.092425 L46.8,113.4 L40.4905874,110.027396 C36.8809009,108.097891 34.4333608,104.535263 33.9271362,100.473667 L31.5,81 L31.5,81 L40.8542482,103.092425 Z" id="Path-95" fill="#DA8A66"></path>
                                    <line x1="31.5" y1="81" x2="41.4" y2="103.5" id="Path-89" stroke="#18233D" stroke-width="0.9" stroke-linecap="round"></line>
                                    <path d="M37.8,93.6 L37.8,98.150175 C37.8,100.265973 38.7306236,102.274677 40.344661,103.642699 L42.3,105.3 L42.3,105.3 L37.8,93.6 Z" id="Path-90" fill="#18233D"></path>
                                    <line x1="46.8" y1="52.2" x2="56.7" y2="70.2" id="Path-91" stroke="#18233D" stroke-width="0.9" stroke-linecap="round"></line>
                                    <line x1="72" y1="55.8" x2="76.8662904" y2="64.5316353" id="Path-92" stroke="#18233D" stroke-width="0.9" stroke-linecap="round"></line>
                                    <line x1="95.4" y1="63" x2="100.26629" y2="71.7316353" id="Path-92" stroke="#18233D" stroke-width="0.9" stroke-linecap="round"></line>
                                </g>
                            </g>
                            <g id="Group-71" stroke-width="1" fill="none" fill-rule="evenodd" transform="translate(68.400000, 182.700000)">
                                <path d="M59.4436189,0.071626133 C59.9012455,-0.122391367 60.4295076,0.091305533 60.6235252,0.548932133 C60.8175429,1.00655873 60.6038457,1.53482093 60.1462191,1.72883843 C59.8702966,1.84581953 59.5953522,1.96304813 59.3213856,2.08052333 C58.8645557,2.27640923 58.3354248,2.06487323 58.1395388,1.60804313 C57.9436528,1.15121303 58.1551896,0.622082333 58.6120195,0.426196433 C58.8882424,0.307752833 59.1654423,0.189563033 59.4436189,0.071626133 Z M54.4765188,2.25151973 C54.9290411,2.04587783 55.4625884,2.24601443 55.6682298,2.69853713 C55.8738713,3.15105983 55.6737348,3.68460683 55.2212124,3.89024783 C54.9480554,4.01437943 54.6759455,4.13877563 54.4048827,4.26343553 C53.9532934,4.47111773 53.418848,4.27339223 53.2111655,3.82180283 C53.003483,3.37021343 53.2012085,2.83576823 53.6527978,2.62808603 C53.9263253,2.50229213 54.2008989,2.37677003 54.4765188,2.25151973 Z M49.5681727,4.56473213 C50.0147104,4.34640023 50.5536941,4.53139703 50.7720265,4.97793473 C50.990359,5.42447153 50.8053622,5.96345543 50.3588245,6.18178823 C50.0893571,6.31354283 49.821011,6.44558003 49.5537863,6.57789983 C49.1083469,6.79846373 48.5684442,6.61616603 48.3478798,6.17072723 C48.1273154,5.72528753 48.3096127,5.18538473 48.7550522,4.96482083 C49.0249716,4.83116723 49.2960118,4.69780433 49.5681727,4.56473213 Z M44.7238414,7.02655973 C45.163309,6.79432463 45.7078316,6.96231953 45.9400666,7.40178773 C46.1723017,7.84125503 46.0043064,8.38577753 45.5648386,8.61801263 C45.3005329,8.75768363 45.0374246,8.89765613 44.7755137,9.03792923 C44.3373432,9.27260243 43.7918955,9.10763513 43.5572223,8.66946473 C43.3225491,8.23129433 43.4875163,7.68584663 43.9256868,7.45117343 C44.1905411,7.30932353 44.4565925,7.16778593 44.7238414,7.02655973 Z M39.9696781,9.64414313 C40.4007635,9.39669533 40.9508232,9.54556343 41.1982709,9.97664903 C41.4457186,10.4077337 41.2968509,10.9577939 40.8657656,11.2052417 C40.6066878,11.353955 40.3488994,11.5029914 40.0924004,11.6523518 C39.6628611,11.9024735 39.111887,11.7570263 38.8617652,11.3274869 C38.6116435,10.8979475 38.7570902,10.3469738 39.1866295,10.0968521 C39.4463557,9.94561253 39.7073719,9.79471043 39.9696781,9.64414313 Z M35.3081208,12.4404206 C35.729176,12.1762661 36.284648,12.3034595 36.5488022,12.7245146 C36.8129563,13.1455697 36.6857628,13.7010416 36.2647075,13.9651961 C36.0120185,14.1237239 35.7607204,14.2825991 35.5108133,14.4418226 C35.0916115,14.7089084 34.5352655,14.585594 34.2681798,14.166392 C34.0010941,13.74719 34.1244085,13.1908442 34.5436103,12.9237584 C34.7970541,12.7622813 35.051891,12.6011687 35.3081208,12.4404206 Z M30.7548148,15.4364252 C31.1637795,15.1539134 31.7243318,15.2564243 32.0068435,15.6653888 C32.2893553,16.0743533 32.1868449,16.6349057 31.7778802,16.9174175 C31.532286,17.0870729 31.288203,17.2571063 31.0456313,17.4275159 C30.6389076,17.7132443 30.0775642,17.6151578 29.7918357,17.2084343 C29.5061072,16.8017108 29.6041932,16.2403673 30.010917,15.9546389 C30.2573676,15.7815041 30.5053336,15.6087662 30.7548148,15.4364252 Z M26.3478223,18.6427463 C26.7421753,18.3401735 27.3071458,18.4145756 27.6097191,18.8089286 C27.9122925,19.2032816 27.8378903,19.7682521 27.4435373,20.0708249 C27.2069993,20.2523126 26.9721009,20.434208 26.7388421,20.6165102 C26.3472061,20.922593 25.7815939,20.8532372 25.4755119,20.4616013 C25.1694299,20.0699654 25.238785,19.5043532 25.6304209,19.1982713 C25.8679079,19.0126643 26.1070417,18.8274893 26.3478223,18.6427463 Z M22.1268883,22.0705241 C22.5035622,21.7462064 23.0718279,21.7886495 23.3961452,22.1653238 C23.7204625,22.5419972 23.6780191,23.1102635 23.3013452,23.4345803 C23.0758139,23.6287634 22.852061,23.8233875 22.6300864,24.0184535 C22.2567125,24.3465638 21.6880466,24.3098717 21.3599356,23.9364977 C21.0318246,23.5631237 21.0685174,22.9944578 21.4418913,22.6663466 C21.6684331,22.4672675 21.8967655,22.26866 22.1268883,22.0705241 Z M18.098103,25.7661131 C18.453189,25.4182928 19.023007,25.4241833 19.3708272,25.7792693 C19.7186473,26.1343553 19.7127571,26.7041732 19.3576711,27.0519935 C19.1450242,27.2602895 18.934314,27.4690643 18.7255404,27.6783188 C18.3744729,28.0301945 17.8046248,28.0308497 17.4527491,27.6797822 C17.1008733,27.3287147 17.1002181,26.7588662 17.4512856,26.4069905 C17.6649352,26.192849 17.8805411,25.9792232 18.098103,25.7661131 Z M14.3282249,29.7314213 C14.6571277,29.3587448 15.2258701,29.3232587 15.5985469,29.652161 C15.9712236,29.9810642 16.0067094,30.5498066 15.6778067,30.9224831 C15.4809432,31.1455472 15.2861799,31.3691315 15.0935166,31.5932342 C14.7694793,31.9701488 14.2012453,32.0130149 13.8243305,31.6889771 C13.4474157,31.3649402 13.4045499,30.7967063 13.7285871,30.4197917 C13.9263365,30.1897724 14.1262158,29.9603156 14.3282249,29.7314213 Z M10.8637339,33.9903563 C11.1610446,33.5920208 11.7249773,33.5101235 12.123313,33.8074349 C12.5216487,34.1047454 12.6035456,34.6686782 12.306235,35.0670137 C12.1287244,35.3048414 11.9534691,35.543228 11.7804685,35.7821717 C11.4889712,36.1847813 10.9262866,36.2748551 10.5236773,35.9833577 C10.1210681,35.6918603 10.030994,35.1291758 10.3224914,34.7265662 C10.5006071,34.4805575 10.6810213,34.2351536 10.8637339,33.9903563 Z M7.77550464,38.5397744 C8.03534445,38.1160427 8.58948831,37.9831829 9.01321965,38.2430228 C9.4369509,38.5028618 9.56981124,39.0570062 9.30997143,39.480737 C9.15518214,39.7331582 9.00279072,39.9861752 8.85279654,40.239788 C8.59976442,40.6676192 8.04781548,40.8093224 7.6199841,40.5562901 C7.19215281,40.3032578 7.05045006,39.7513085 7.30348218,39.3234773 C7.45836561,39.061598 7.61570658,38.8003631 7.77550464,38.5397744 Z M5.15711556,43.3154579 C5.37409368,42.8682605 5.91251418,42.6816311 6.35971158,42.8986085 C6.80690889,43.1155868 6.99353847,43.6540073 6.77656044,44.1012047 C6.64774794,44.3666903 6.52143933,44.6328032 6.39763416,44.8995425 C6.1883712,45.350402 5.65323651,45.5462537 5.20237737,45.3369911 C4.75151823,45.1277285 4.55566581,44.5925939 4.76492877,44.1417344 C4.8930777,43.865636 5.02380675,43.5902108 5.15711556,43.3154579 Z M3.01794543,48.3842939 C3.18658059,47.9167178 3.70233144,47.6743784 4.16990727,47.8430141 C4.63748301,48.0116489 4.87982232,48.5274002 4.71118716,48.9949754 C4.61120013,49.2722105 4.51378953,49.5500972 4.418955,49.8286355 C4.2587523,50.2991672 3.74744115,50.5507388 3.27690945,50.3905361 C2.80637784,50.2303334 2.55480642,49.7190218 2.71500912,49.2484901 C2.81332152,48.9597368 2.91430035,48.6716711 3.01794543,48.3842939 Z M1.4337567,53.6585531 C1.55055501,53.1754151 2.03690007,52.8784367 2.52003888,52.9952351 C3.00317769,53.1120335 3.30015537,53.5983791 3.18335706,54.081518 C3.11413266,54.3678656 3.04750404,54.6548792 2.98347111,54.9425579 C2.87547669,55.4277398 2.39461173,55.7335112 1.90942911,55.6255175 C1.42424658,55.5175229 1.11847509,55.0366583 1.22646942,54.5514755 C1.29287259,54.253148 1.36196838,53.9555072 1.4337567,53.6585531 Z M0.432623879,59.0759294 C0.496403909,58.5829814 0.947720519,58.2350729 1.44066789,58.2988532 C1.93361517,58.3626326 2.28152403,58.8139493 2.217744,59.3068973 C2.17999269,59.5986719 2.14479081,59.8911071 2.11213836,60.1842047 C2.05710435,60.6782048 1.61202411,61.0340567 1.11802392,60.9790226 C0.624023729,60.9239885 0.268171379,60.4789088 0.323205389,59.9849087 C0.357034499,59.6812496 0.393507359,59.3782556 0.432623879,59.0759294 Z M0.0144431991,64.5725156 C0.0264420891,64.075604 0.438995339,63.6825047 0.935906849,63.6945044 C1.43281827,63.7065032 1.82591757,64.119056 1.81391868,64.6159676 C1.80681228,64.9102649 1.80216459,65.2052057 1.79997588,65.5007909 C1.79629542,65.9978339 1.39037904,66.3977822 0.893336399,66.3941273 C0.396293759,66.3904211 -0.00365526091,65.9845049 2.51990896e-05,65.4874628 C0.00228824909,65.1818453 0.00709415909,64.8768632 0.0144431991,64.5725156 Z M0.153370979,70.0733039 C0.116957879,69.577583 0.489300209,69.146204 0.985020929,69.1097909 C1.48074165,69.0733778 1.91212137,69.4457195 1.94853447,69.9414404 C1.97011818,70.235276 1.99403127,70.5297236 2.0202741,70.8247859 C2.06430849,71.3198876 1.69864605,71.7569438 1.20354408,71.8009781 C0.708442199,71.8450133 0.271385819,71.4793505 0.227351429,70.9842488 C0.200291939,70.6800047 0.175631759,70.3763564 0.153370979,70.0733039 Z M0.802623779,75.5281688 C0.722330819,75.03764 1.05489234,74.5748978 1.5454206,74.4946052 C2.03594886,74.4143126 2.49869088,74.7468743 2.57898375,75.2374022 C2.626866,75.5299256 2.67668883,75.8210657 2.72844666,76.1108216 C2.81585034,76.6001327 2.49003972,77.0676521 2.00072844,77.1550556 C1.51141716,77.2424591 1.04389731,76.9166492 0.956493719,76.4273381 C0.903202919,76.1289998 0.851911109,75.8292764 0.802623779,75.5281688 Z M1.93131972,80.8999268 C1.8066519,80.418758 2.09565252,79.9276307 2.57682078,79.8029636 C3.05798895,79.6782956 3.54911616,79.9672964 3.67378407,80.4484643 C3.74806836,80.7351719 3.82441149,81.0203648 3.90280653,81.3040412 C4.03520679,81.78314 3.75415263,82.2788573 3.27505437,82.4112572 C2.79595611,82.543658 2.30023863,82.2626033 2.16783837,81.7835054 C2.08686726,81.4905068 2.00802546,81.19598 1.93131972,80.8999268 Z M3.57403275,86.1526319 C3.40166835,85.6864184 3.63988053,85.1687483 4.10609448,84.9963839 C4.57230843,84.8240195 5.08997853,85.0622315 5.26234284,85.528445 C5.36484501,85.8056945 5.46949566,86.0813051 5.57628669,86.355275 C5.75680536,86.8183925 5.5277136,87.340163 5.06459592,87.5206814 C4.60147833,87.7012007 4.07970801,87.4721084 3.89918934,87.0089909 C3.78857232,86.7252047 3.68018397,86.4397517 3.57403275,86.1526319 Z M5.75135226,91.1944085 C5.52964275,90.7495385 5.71055049,90.2091686 6.15542112,89.987459 C6.60029166,89.7657494 7.14066156,89.9466575 7.36237116,90.3915275 C7.49404494,90.6557378 7.62792093,90.9181967 7.76398896,91.178906 C7.99397154,91.6195568 7.82319132,92.1632117 7.3825407,92.393195 C6.94189008,92.6231774 6.39823446,92.452397 6.16825197,92.0117462 C6.02699589,91.7410973 5.88802581,91.4686511 5.75135226,91.1944085 Z M8.49435759,95.9935811 C8.22327867,95.5769504 8.34127173,95.0194517 8.75790243,94.7483726 C9.17453313,94.4772935 9.73203192,94.5952871 10.0031108,95.0119178 C10.1640738,95.2593071 10.3272444,95.504855 10.4926111,95.7485615 C10.7717026,96.1598678 10.6645212,96.7195463 10.2532149,96.9986372 C9.84190851,97.277729 9.28223055,97.170548 9.00313911,96.7592408 C8.83125369,96.5059277 8.66165562,96.2507075 8.49435759,95.9935811 Z M11.74243,100.404815 C11.4250198,100.022302 11.4777955,99.4549028 11.8603078,99.1374935 C12.2428202,98.8200833 12.8102196,98.8728584 13.1276298,99.255371 C13.3155597,99.4818461 13.5056307,99.7064312 13.697829,99.9291254 C14.0225908,100.305416 13.9808183,100.873731 13.6045276,101.198493 C13.2282369,101.523255 12.6599215,101.481482 12.3351597,101.105191 C12.1353709,100.873703 11.9377894,100.640243 11.74243,100.404815 Z M15.502962,104.436372 C15.1435828,104.09299 15.1306149,103.523289 15.4739974,103.16391 C15.8173798,102.80453 16.3870807,102.791563 16.7464599,103.134945 C16.9590714,103.338092 17.1737058,103.539326 17.3903469,103.738643 C17.7561402,104.075184 17.7798534,104.64454 17.4433118,105.010333 C17.1067702,105.376126 16.5374154,105.399839 16.1716221,105.063298 C15.9466597,104.856325 15.7237672,104.647349 15.502962,104.436372 Z M19.7065777,108.022998 C19.3111747,107.721799 19.2348079,107.15709 19.5360077,106.761688 C19.8372075,106.366285 20.4019158,106.289918 20.7973189,106.591117 C21.0311799,106.769262 21.2668951,106.945494 21.5044461,107.11981 C21.905184,107.413876 21.9916596,107.977124 21.6975948,108.377862 C21.40353,108.7786 20.8402811,108.865076 20.4395432,108.571011 C20.1933343,108.39034 19.949006,108.207669 19.7065777,108.022998 Z M24.2676326,111.128437 C23.8427661,110.870457 23.7074775,110.316901 23.965457,109.892035 C24.2234365,109.467168 24.7769925,109.33188 25.201859,109.589859 C25.4536942,109.742774 25.7071839,109.893789 25.9623073,110.042902 C26.3914409,110.293719 26.5359947,110.844928 26.2851773,111.274062 C26.03436,111.703195 25.4831509,111.847749 25.0540174,111.596932 C24.7902194,111.442749 24.5280838,111.286583 24.2676326,111.128437 Z M29.0978064,113.743804 C28.6498132,113.528474 28.4612026,112.990744 28.6765329,112.542751 C28.891863,112.094758 29.4295928,111.906147 29.877586,112.121478 C30.1432327,112.249162 30.410302,112.374978 30.6787699,112.498924 C31.1300527,112.707271 31.3269908,113.242007 31.1186434,113.693291 C30.9102959,114.144573 30.3755597,114.341511 29.9242768,114.133164 C29.6473635,114.005319 29.3718651,113.875532 29.0978064,113.743804 Z M34.1325211,115.886746 C33.6669626,115.71262 33.4307104,115.194052 33.6048372,114.728493 C33.778964,114.262935 34.2975314,114.026683 34.76309,114.20081 C35.0396073,114.304231 35.3173009,114.405816 35.5961435,114.505561 C36.0641582,114.672974 36.3078437,115.18809 36.1404304,115.656105 C35.9730171,116.12412 35.4579009,116.367805 34.9898863,116.200392 C34.7029317,116.097745 34.4171341,115.993197 34.1325211,115.886746 Z M39.3259925,117.582657 C38.8475243,117.447997 38.5688123,116.95096 38.7034717,116.472491 C38.8381311,115.994023 39.3351691,115.715311 39.8136373,115.849971 C40.0977004,115.929917 40.3826745,116.008061 40.6685286,116.084402 C41.1487544,116.212652 41.4340871,116.705919 41.3058371,117.186145 C41.177587,117.66637 40.6843199,117.951704 40.204094,117.823454 C39.9105005,117.745046 39.6177896,117.66478 39.3259925,117.582657 Z M44.6336333,118.852739 C44.1461123,118.755847 43.8294453,118.282086 43.926338,117.794565 C44.0232305,117.307044 44.4969914,116.990377 44.9845124,117.087269 C45.2745294,117.144909 45.5651798,117.200766 45.8564284,117.254841 C46.3451327,117.345577 46.6677499,117.815306 46.577014,118.304011 C46.4862781,118.792715 46.0165489,119.115332 45.5278446,119.024596 C45.2291647,118.969141 44.9310823,118.911855 44.6336333,118.852739 Z M50.048905,119.71907 C49.5555198,119.658771 49.2044345,119.209921 49.2647339,118.716535 C49.3250333,118.22315 49.7738834,117.872065 50.2672685,117.932365 C50.5613314,117.968303 50.8557234,118.002471 51.1504035,118.034869 C51.6444828,118.089189 52.0009784,118.533754 51.9466587,119.027833 C51.892339,119.521912 51.4477739,119.878408 50.9536947,119.824088 C50.6517979,119.790897 50.3501877,119.755891 50.048905,119.71907 Z M55.5046508,120.186241 C55.0082024,120.161665 54.6256737,119.739293 54.650249,119.242844 C54.6748243,118.746396 55.0971975,118.363867 55.5936458,118.388442 C55.8898249,118.403104 56.1859908,118.415996 56.4820961,118.427122 C56.9788019,118.445786 57.3663318,118.863575 57.3476684,119.36028 C57.329005,119.856987 56.9112159,120.244516 56.4145101,120.225853 C56.1112702,120.214459 55.8079679,120.201256 55.5046508,120.186241 Z M60.991132,120.260585 C60.4942014,120.271764 60.0822972,119.877985 60.0711181,119.381054 C60.059939,118.884124 60.4537185,118.47222 60.950649,118.461041 C61.2472854,118.454367 61.5435084,118.445914 61.8392631,118.435689 C62.3360225,118.418512 62.7526498,118.807291 62.7698262,119.30405 C62.7870025,119.80081 62.3982236,120.217437 61.9014642,120.234613 C61.5984712,120.24509 61.2950086,120.253749 60.991132,120.260585 Z M66.4677586,119.93577 C65.9730196,119.98371 65.5330906,119.621509 65.4851503,119.12677 C65.4372091,118.632031 65.7994114,118.192102 66.2941504,118.144162 C66.5895448,118.115538 66.8840374,118.08511 67.1775652,118.052888 C67.6716535,117.99865 68.116159,118.35522 68.1703975,118.849308 C68.2246351,119.343396 67.8680659,119.787902 67.3739776,119.84214 C67.0728484,119.875195 66.7707535,119.906409 66.4677586,119.93577 Z M71.8880509,119.195612 C71.3986849,119.282711 70.931368,118.95661 70.8442687,118.467244 C70.7571694,117.977878 71.0832709,117.510562 71.572636,117.423462 C71.8649002,117.371444 72.1556353,117.31758 72.4447684,117.261887 C72.9328519,117.167871 73.4047372,117.487327 73.4987521,117.975412 C73.5927679,118.463496 73.273312,118.93538 72.7852276,119.029395 C72.4877443,119.086697 72.1886599,119.142109 71.8880509,119.195612 Z M77.2252777,118.000923 C76.7458018,118.131947 76.2508936,117.849469 76.1198707,117.369992 C75.9888469,116.890516 76.2713245,116.395608 76.7508013,116.264584 C77.037058,116.186361 77.3209324,116.106232 77.6023336,116.024226 C78.0795388,115.885157 78.5791279,116.159272 78.7181959,116.636477 C78.8572639,117.113682 78.58315,117.61327 78.1059448,117.752339 C77.8148272,117.837177 77.5212418,117.920047 77.2252777,118.000923 Z M82.4416777,116.27003 C81.97984,116.453799 81.4564729,116.228378 81.2727046,115.766541 C81.0889363,115.304703 81.3143557,114.781336 81.7761934,114.597568 C82.051318,114.488093 82.3227967,114.376642 82.5905233,114.263257 C83.0482246,114.069416 83.5764049,114.283316 83.770246,114.741018 C83.9640871,115.198719 83.7501859,115.726899 83.2924846,115.92074 C83.012599,116.039275 82.7289613,116.155718 82.4416777,116.27003 Z M87.4176688,114.117711 C86.9583736,114.307743 86.4319888,114.089463 86.2419565,113.630167 C86.0519233,113.170871 86.2702048,112.644487 86.7295,112.454454 C87.0075334,112.339418 87.2881741,112.224819 87.5713114,112.110705 C88.0323319,111.924896 88.5566908,112.147999 88.7424994,112.60902 C88.928308,113.070041 88.7052043,113.5944 88.2441838,113.780208 C87.9661387,113.892271 87.6905965,114.004788 87.4176688,114.117711 Z M92.4167611,112.200391 C91.9484641,112.367011 91.4337613,112.122453 91.2671407,111.654156 C91.100521,111.185858 91.3450789,110.671156 91.8133759,110.504536 C92.0975284,110.403434 92.3832514,110.303002 92.6704567,110.203273 C93.1400101,110.040225 93.6528346,110.288697 93.8158822,110.75825 C93.9789298,111.227804 93.7304578,111.740628 93.2609044,111.903676 C92.978011,112.001908 92.6966008,112.100824 92.4167611,112.200391 Z M97.5066463,110.515827 C97.0315093,110.661806 96.5279953,110.394972 96.3820162,109.919835 C96.2360371,109.444698 96.5028718,108.941184 96.9780088,108.795205 C97.2666928,108.70651 97.5562471,108.618655 97.8465997,108.531664 C98.3227447,108.389008 98.8243822,108.659355 98.9670376,109.1355 C99.109693,109.611646 98.8393465,110.113282 98.3632015,110.255939 C98.0768647,110.341727 97.7913226,110.428364 97.5066463,110.515827 Z M102.669971,109.046217 C102.189194,109.172386 101.697169,108.884917 101.571,108.404141 C101.444832,107.923364 101.7323,107.431337 102.213077,107.30517 C102.505247,107.228497 102.797759,107.152806 103.090555,107.078118 C103.572188,106.95526 104.062226,107.246104 104.185085,107.727737 C104.307944,108.20937 104.017099,108.699408 103.535465,108.822267 C103.246672,108.895934 102.958154,108.970591 102.669971,109.046217 Z M107.88422,107.793025 C107.398589,107.89899 106.919007,107.591211 106.813042,107.105581 C106.707078,106.61995 107.014857,106.140368 107.500487,106.034403 C107.795507,105.97003 108.090438,105.906777 108.385228,105.844659 C108.871604,105.74217 109.348972,106.053372 109.451461,106.539747 C109.55395,107.026122 109.242748,107.503491 108.756373,107.60598 C108.465788,107.667211 108.175054,107.729565 107.88422,107.793025 Z M113.147744,106.76487 C112.657883,106.849133 112.192463,106.520329 112.108201,106.030467 C112.023939,105.540605 112.352743,105.075185 112.842605,104.990923 C113.141921,104.939437 113.440752,104.889236 113.739055,104.840331 C114.229564,104.759915 114.692389,105.092361 114.772805,105.582869 C114.85322,106.073377 114.520775,106.536202 114.030266,106.616618 C113.736619,106.66476 113.442431,106.714181 113.147744,106.76487 Z M118.458578,105.983546 C117.965139,106.043407 117.516601,105.691922 117.456741,105.198483 C117.39688,104.705045 117.748364,104.256507 118.241803,104.196646 C118.543638,104.16003 118.8446,104.124877 119.144654,104.091197 C119.638608,104.035753 120.083983,104.391236 120.139428,104.885191 C120.194871,105.379145 119.839388,105.824521 119.345434,105.879964 C119.05073,105.913044 118.755098,105.947574 118.458578,105.983546 Z M123.773114,105.488721 C123.277053,105.520167 122.849425,105.143522 122.817979,104.647461 C122.786533,104.151401 123.163178,103.723772 123.659238,103.692326 C123.963094,103.673064 124.265666,103.655487 124.566917,103.639605 C125.063284,103.613436 125.486883,103.994606 125.513052,104.490973 C125.539222,104.98734 125.158051,105.410939 124.661684,105.437108 C124.366827,105.452654 124.070624,105.469861 123.773114,105.488721 Z M129.113191,105.33044 C128.616146,105.327168 128.215864,104.921579 128.219117,104.424534 C128.222411,103.927488 128.627999,103.527207 129.125045,103.53048 C129.431107,103.532495 129.735389,103.5365 130.037853,103.542504 C130.534811,103.552368 130.92968,103.963229 130.919815,104.460187 C130.909951,104.957146 130.49909,105.352013 130.002132,105.342149 C129.707656,105.336304 129.41133,105.332404 129.113191,105.33044 Z M134.439547,105.592164 C133.944759,105.544729 133.582108,105.105171 133.629542,104.610384 C133.676977,104.115596 134.116535,103.752945 134.611322,103.800379 C134.917108,103.829694 135.220493,103.861404 135.521441,103.895519 C136.015334,103.951504 136.370327,104.39727 136.314341,104.891163 C136.258356,105.385057 135.81259,105.74005 135.318697,105.684064 C135.028112,105.651125 134.73505,105.620493 134.439547,105.592164 Z M139.67147,106.391931 C139.18576,106.286334 138.877618,105.806984 138.983215,105.321275 C139.088813,104.835565 139.568162,104.527423 140.053872,104.63302 C140.356551,104.698825 140.655982,104.767612 140.952125,104.839395 C141.435193,104.956488 141.731874,105.443013 141.614782,105.926081 C141.49769,106.409148 141.011165,106.70583 140.528097,106.588738 C140.245868,106.520328 139.960312,106.454728 139.67147,106.391931 Z M144.697702,107.901675 C144.235994,107.71758 144.010944,107.194053 144.195038,106.732346 C144.379132,106.270638 144.902659,106.045588 145.364367,106.229683 C145.655079,106.345596 145.941378,106.465312 146.223217,106.588845 C146.678463,106.788384 146.885756,107.319191 146.686217,107.774438 C146.486678,108.229684 145.955869,108.436976 145.500623,108.237437 C145.237403,108.122066 144.969749,108.010146 144.697702,107.901675 Z M149.289861,110.352255 C148.883766,110.065633 148.786916,109.504075 149.073538,109.097981 C149.36016,108.691886 149.921717,108.595036 150.327812,108.881658 C150.585987,109.063878 150.838298,109.250837 151.084686,109.442549 C151.476978,109.74779 151.547548,110.313252 151.242307,110.705545 C150.937067,111.097837 150.371605,111.168406 149.979312,110.863166 C149.755111,110.688716 149.525282,110.518416 149.289861,110.352255 Z M153.005743,113.909888 C152.705561,113.513711 152.783382,112.949201 153.179559,112.64902 C153.575736,112.348839 154.140246,112.42666 154.440427,112.822837 C154.631413,113.074899 154.815486,113.33209 154.992588,113.59441 C155.270717,114.006368 155.162228,114.565794 154.75027,114.843923 C154.338311,115.122052 153.778885,115.013561 153.500756,114.601603 C153.341995,114.366449 153.17698,114.135886 153.005743,113.909888 Z M155.389978,118.420271 C155.228929,117.950028 155.479579,117.438265 155.949822,117.277215 C156.420065,117.116165 156.931827,117.366816 157.092877,117.837059 C157.194037,118.132432 157.288684,118.432263 157.376787,118.736551 C157.515026,119.213997 157.240045,119.713109 156.762599,119.851349 C156.285153,119.989588 155.786041,119.714607 155.647802,119.237161 C155.567708,118.960537 155.481755,118.688248 155.389978,118.420271 Z M156.389021,123.479681 C156.352362,122.983978 156.724491,122.552414 157.220193,122.515755 C157.715896,122.479095 158.14746,122.851224 158.184119,123.346927 C158.20679,123.653473 158.224223,123.963477 158.236404,124.276942 C158.255705,124.773624 157.868712,125.19191 157.37203,125.211211 C156.875349,125.230512 156.457063,124.843519 156.437762,124.346837 C156.426392,124.054254 156.410137,123.765204 156.389021,123.479681 Z" id="Shape" fill="#C3D4E2" fill-rule="nonzero"></path>
                                <g id="Group" transform="translate(121.273404, 127.415119)" fill-rule="nonzero">
                                    <rect id="Rectangle" fill="url(#linearGradient-21)" x="0" y="0" width="36.2637" height="52.2"></rect>
                                    <polygon id="Path" fill="url(#linearGradient-22)" points="23.2461 0 100.422 0 100.422 52.2 23.2461 52.2"></polygon>
                                    <g transform="translate(56.719800, 18.981000)" fill="url(#linearGradient-24)" id="Shape">
                                        <path d="M9.29834253,4.74545454 L9.35801109,4.74545454 C10.3521236,4.74545454 11.1580111,5.55134199 11.1580111,6.54545454 L11.1580111,12.4363636 C11.1580111,13.4304762 10.3521236,14.2363636 9.35801109,14.2363636 L1.8,14.2363636 C0.80588745,14.2363636 -3.99680289e-16,13.4304762 -3.99680289e-16,12.4363636 L-3.99680289e-16,6.54545454 C-3.99680289e-16,5.55134199 0.80588745,4.74545454 1.8,4.74545454 L1.85966851,4.74545454 L1.85966851,3.79636364 C1.85966851,1.6996899 3.52487241,0 5.57900553,0 C7.63313864,0 9.29834253,1.6996899 9.29834253,3.79636364 L9.29834253,4.74545454 Z M7.43867403,4.74545454 L7.43867403,3.79636364 C7.43867403,2.74802676 6.60607208,1.89818182 5.57900553,1.89818182 C4.55193896,1.89818182 3.71933702,2.74802676 3.71933702,3.79636364 L3.71933702,4.74545454 L7.43867403,4.74545454 Z"></path>
                                    </g>
                                </g>
                                <g id="Group" transform="translate(160.300000, 196.500000) scale(-1, 1) translate(-160.300000, -196.500000) translate(66.800000, 121.500000)">
                                    <g id="Group-64" transform="translate(0.153387, 0.208285)">
                                        <polygon id="Path-4" fill="url(#linearGradient-25)" fill-rule="nonzero" points="5.00096173 117.669237 139.675531 95.9693151 185.588757 109.323113 115.742741 148.700136"></polygon>
                                        <g id="Donation_box_group" transform="translate(0.350818, 0.208677)">
                                            <g id="Group-79" transform="translate(113.084797, 36.205542)">
                                                <path d="M0,0 L27.0442124,18.0521143 C30.5163134,20.3697548 32.601387,24.2684646 32.601387,28.4430236 L32.601387,39.7401415 L32.601387,39.7401415 L1.25592236,18.8299189 L0,0 Z" id="Rectangle-56" fill="#231A5C"></path>
                                                <path d="M12.3460874,34.7243955 C18.5693709,32.7445638 23.0433247,30.584802 25.7679487,28.2451102 C28.4925728,25.9054183 29.9344526,22.9851296 30.093588,19.4842441 L30.093588,34.7243955 L12.3460874,34.7243955 Z" id="Path-3" fill="#565656" style="mix-blend-mode: multiply;" opacity="0.200000003"></path>
                                            </g>
                                            <path d="M138.216357,20.220056 C138.216357,17.2774426 135.852076,14.8698499 132.896724,14.8698499 L24.7308494,14.8698499 C21.7754976,14.8698499 19.3689969,17.2774426 19.3689969,20.220056 L18.8623651,119.82306 C18.8623651,122.765673 21.2266466,125.173266 24.1819983,125.173266 L117.697772,125.173266 L127.424923,136.453467 C133.405059,127.761075 136.620186,122.983577 137.070304,122.120974 C137.745481,120.827068 137.799715,120.946382 137.841934,119.831756 L138.216357,20.220056 Z" id="Shape_25_" fill="#3B2F85"></path>
                                            <g id="money-3" transform="translate(96.730524, 14.686076) rotate(10.000000) translate(-96.730524, -14.686076) translate(78.730524, 3.186076)" fill-rule="nonzero">
                                                <path d="M1.29600005,-4.07673894e-15 L34.2513472,-4.07673894e-15 C34.9671083,-4.07673894e-15 35.5473473,0.580238988 35.5473473,1.29600005 L35.5473473,21.4336508 C35.5473473,22.1494119 34.9671083,22.7296509 34.2513472,22.7296509 L1.29600005,22.7296509 C0.580238988,22.7296509 -3.68585163e-13,22.1494119 -3.68585163e-13,21.4336508 L-3.68585163e-13,1.29600005 C-3.68585163e-13,0.580238988 0.580238988,-4.07673894e-15 1.29600005,-4.07673894e-15 Z" id="Path" fill="url(#linearGradient-26)"></path>
                                                <path d="M1.12848722,7.56838527 L1.12848722,2.55875843 C1.12848722,1.84299737 1.7087262,1.26275839 2.42448727,1.26275839 L6.76362647,1.26275839 C6.76847099,1.36730252 6.77092329,1.47255479 6.77092329,1.57844798 C6.77092329,4.89110842 4.37102884,7.5765503 1.41060902,7.5765503 C1.31597563,7.5765503 1.22191499,7.57380621 1.12848722,7.56838527 Z M1.12848722,15.7926448 C1.22191499,15.7872239 1.31597563,15.7844798 1.41060902,15.7844798 C4.27639545,15.7844798 6.61691948,18.300979 6.76362647,21.4668925 L2.42448727,21.4668925 C1.7087262,21.4668925 1.12848722,20.8866535 1.12848722,20.1708925 L1.12848722,15.7926448 Z M28.7837209,1.26275839 L33.12286,1.26275839 C33.8386211,1.26275839 34.4188601,1.84299737 34.4188601,2.55875843 L34.4188601,7.56838527 C34.3254323,7.57380621 34.2313717,7.5765503 34.1367383,7.5765503 C31.1763184,7.5765503 28.776424,4.89110842 28.776424,1.57844798 C28.776424,1.47255479 28.7788763,1.36730252 28.7837209,1.26275839 Z M28.7837209,21.4668925 C28.7788763,21.3623484 28.776424,21.2570961 28.776424,21.151203 C28.776424,17.8385425 31.1763184,15.1531006 34.1367383,15.1531006 C34.2313717,15.1531006 34.3254323,15.1558447 34.4188601,15.1612656 L34.4188601,20.1708925 C34.4188601,20.8866535 33.8386211,21.4668925 33.12286,21.4668925 L28.7837209,21.4668925 Z M17.7736736,17.6786174 C14.1900076,17.6786174 11.2848722,14.8518364 11.2848722,11.3648254 C11.2848722,7.87781446 14.1900076,5.05103353 17.7736736,5.05103353 C21.3573398,5.05103353 24.2624752,7.87781446 24.2624752,11.3648254 C24.2624752,14.8518364 21.3573398,17.6786174 17.7736736,17.6786174 Z" id="Shape" fill="url(#linearGradient-27)"></path>
                                            </g>
                                            <path d="M26.9410612,30.2598183 L7.43969885,28.342718 L20.6659839,16.441367 C21.8733993,15.3549035 23.4704041,14.8055975 25.0906798,14.9194479 L33.5281788,15.512318 L33.5281788,15.512318 L26.9410612,30.2598183 Z" id="Shape_26_" fill="#3B2F85"></path>
                                            <path d="M123.799324,135.705842 L5.84326857,135.705842 C2.62042552,135.705842 0.0421510735,133.213921 0.0421510735,130.16824 L0.594638454,27.0765507 C0.594638454,24.0308697 3.21895351,21.5389488 6.44179657,21.5389488 L124.397852,21.5389488 C127.620695,21.5389488 130.19897,24.0308697 130.19897,27.0765507 L129.646482,130.16824 C129.646482,133.213921 127.022167,135.705842 123.799324,135.705842 Z" id="Shape_24_" fill="#EEE1FF" fill-rule="nonzero"></path>
                                            <path d="M124.160873,135.705842 L19.2254942,135.705842 C17.314103,135.705842 42.3953422,107.940648 94.4692119,52.4102597 L129.362588,130.129763 C129.362588,133.196606 127.02796,135.705842 124.160873,135.705842 Z" id="Shape_24_-Copy-2" fill="#DFC7FF" fill-rule="nonzero" opacity="0.243768601"></path>
                                            <path d="M126.123155,135.705842 L50.9991405,135.705842 C48.9465718,135.705842 130.19897,55.1667969 130.19897,57.3633163 L129.847101,131.71217 C129.847101,133.90869 128.175724,135.705842 126.123155,135.705842 Z" id="Shape_24_-Copy" fill="#E4D0FF" fill-rule="nonzero"></path>
                                        </g>
                                    </g>
                                    <g id="Group-80-Copy" transform="translate(1.213021, 34.534921)">
                                        <path d="M64.3698939,68.1716828 C49.7856225,68.1716828 37.9411708,56.321943 37.9411708,41.6889903 C37.9411708,27.0982074 49.7856225,15.2484676 64.3698939,15.2484676 C78.9541653,15.2484676 90.840768,27.0982074 90.840768,41.7311602 C90.798617,56.321943 78.9541653,68.1716828 64.3698939,68.1716828 Z M64.3698939,16.4292246 C50.4178886,16.4292246 39.0792498,27.7729257 39.0792498,41.7311602 C39.0792498,55.6893946 50.4178886,67.0330957 64.3698939,67.0330957 C78.3218992,67.0330957 89.660538,55.6893946 89.660538,41.7311602 C89.660538,27.7729257 78.3218992,16.4292246 64.3698939,16.4292246 Z" id="Shape_31_" fill-opacity="0.19684222" fill="#400D85" fill-rule="nonzero"></path>
                                        <path d="M71.6448871,38.3633564 L70.6527908,38.3633564 L70.6527908,35.3249718 C70.6527908,31.7886297 67.8335838,28.9106043 64.3695142,28.9106043 C60.9054446,28.9106043 58.0862375,31.7886297 58.0862375,35.3249718 L58.0862375,38.3633564 L57.0941412,38.3633564 C55.9987016,38.3633564 55.1099486,39.2706518 55.1099486,40.3889461 L55.1099486,48.491305 C55.1099486,49.6095994 55.9987016,50.5168948 57.0941412,50.5168948 L71.6448871,50.5168948 C72.7403268,50.5168948 73.6290797,49.6095994 73.6290797,48.491305 L73.6290797,40.3889461 C73.6290797,39.2706518 72.7403268,38.3633564 71.6448871,38.3633564 Z M67.3458031,38.3633564 L61.3932252,38.3633564 L61.3932252,35.3249718 C61.3932252,33.6496403 62.7284215,32.2865872 64.3695142,32.2865872 C66.0106068,32.2865872 67.3458031,33.6496403 67.3458031,35.3249718 L67.3458031,38.3633564 Z" id="Shape" fill="#3B2F85" fill-rule="nonzero"></path>
                                        <g id="Combined-Shape">
                                            <use fill="black" fill-opacity="1" filter="url(#filter-30)" xlink:href="#path-29"></use>
                                            <use fill="url(#linearGradient-28)" fill-rule="evenodd" xlink:href="#path-29"></use>
                                        </g>
                                        <ellipse id="Oval-31" fill="url(#linearGradient-31)" cx="122.21427" cy="46.071817" rx="6.94467416" ry="6.9448791"></ellipse>
                                        <line x1="111.51384" y1="0.357250329" x2="0.108932365" y2="0.357250329" id="Line-18" stroke="#A48FCA" stroke-width="0.834612388" stroke-linecap="round" stroke-linejoin="bevel" stroke-dasharray="2.313545608520508" fill-rule="nonzero"></line>
                                    </g>
                                </g>
                                <g id="money-1" transform="translate(60.119943, 119.446090) rotate(-30.000000) translate(-60.119943, -119.446090) translate(45.119943, 109.946090)" fill-rule="nonzero">
                                    <path d="M1.08000004,-3.19744231e-15 L28.5427894,-3.19744231e-15 C29.1392569,-3.19744231e-15 29.6227894,0.48353249 29.6227894,1.08000004 L29.6227894,17.8613757 C29.6227894,18.4578432 29.1392569,18.9413758 28.5427894,18.9413758 L1.08000004,18.9413758 C0.48353249,18.9413758 -3.07154302e-13,18.4578432 -3.07154302e-13,17.8613757 L-3.07154302e-13,1.08000004 C-3.07154302e-13,0.48353249 0.48353249,-3.19744231e-15 1.08000004,-3.19744231e-15 Z" id="Path" fill="url(#linearGradient-32)"></path>
                                    <path d="M0.940406013,6.30698773 L0.940406013,2.13229869 C0.940406013,1.53583114 1.4239385,1.05229866 2.02040606,1.05229866 L5.63635539,1.05229866 C5.64039249,1.13941877 5.64243608,1.22712899 5.64243608,1.31537332 C5.64243608,4.07592368 3.64252404,6.31379191 1.17550751,6.31379191 C1.09664636,6.31379191 1.01826249,6.31150518 0.940406013,6.30698773 Z M0.940406013,13.1605374 C1.01826249,13.1560199 1.09664636,13.1537332 1.17550751,13.1537332 C3.56366288,13.1537332 5.51409957,15.2508158 5.63635539,17.8890771 L2.02040606,17.8890771 C1.4239385,17.8890771 0.940406013,17.4055446 0.940406013,16.8090771 L0.940406013,13.1605374 Z M23.9864341,1.05229866 L27.6023833,1.05229866 C28.1988509,1.05229866 28.6823834,1.53583114 28.6823834,2.13229869 L28.6823834,6.30698773 C28.6045269,6.31150518 28.5261431,6.31379191 28.4472819,6.31379191 C25.9802653,6.31379191 23.9803533,4.07592368 23.9803533,1.31537332 C23.9803533,1.22712899 23.9823969,1.13941877 23.9864341,1.05229866 Z M23.9864341,17.8890771 C23.9823969,17.801957 23.9803533,17.7142468 23.9803533,17.6260025 C23.9803533,14.8654521 25.9802653,12.6275838 28.4472819,12.6275838 C28.5261431,12.6275838 28.6045269,12.6298705 28.6823834,12.634388 L28.6823834,16.8090771 C28.6823834,17.4055446 28.1988509,17.8890771 27.6023833,17.8890771 L23.9864341,17.8890771 Z M14.8113947,14.7321812 C11.8250063,14.7321812 9.40406013,12.3765304 9.40406013,9.47068785 C9.40406013,6.56484538 11.8250063,4.20919461 14.8113947,4.20919461 C17.7977831,4.20919461 20.2187293,6.56484538 20.2187293,9.47068785 C20.2187293,12.3765304 17.7977831,14.7321812 14.8113947,14.7321812 Z" id="Shape" fill="url(#linearGradient-33)"></path>
                                </g>
                                <g id="money-2" transform="translate(17.905663, 20.093792) rotate(20.000000) translate(-17.905663, -20.093792) translate(2.905663, 10.593792)" fill-rule="nonzero">
                                    <path d="M1.08000004,-3.39728245e-15 L28.5427894,-3.39728245e-15 C29.1392569,-3.39728245e-15 29.6227894,0.48353249 29.6227894,1.08000004 L29.6227894,17.8613757 C29.6227894,18.4578432 29.1392569,18.9413758 28.5427894,18.9413758 L1.08000004,18.9413758 C0.48353249,18.9413758 -3.07154302e-13,18.4578432 -3.07154302e-13,17.8613757 L-3.07154302e-13,1.08000004 C-3.07154302e-13,0.48353249 0.48353249,-3.39728245e-15 1.08000004,-3.39728245e-15 Z" id="Path" fill="url(#linearGradient-32)"></path>
                                    <path d="M0.940406013,6.30698773 L0.940406013,2.13229869 C0.940406013,1.53583114 1.4239385,1.05229866 2.02040606,1.05229866 L5.63635539,1.05229866 C5.64039249,1.13941877 5.64243608,1.22712899 5.64243608,1.31537332 C5.64243608,4.07592368 3.64252404,6.31379191 1.17550751,6.31379191 C1.09664636,6.31379191 1.01826249,6.31150518 0.940406013,6.30698773 Z M0.940406013,13.1605374 C1.01826249,13.1560199 1.09664636,13.1537332 1.17550751,13.1537332 C3.56366288,13.1537332 5.51409957,15.2508158 5.63635539,17.8890771 L2.02040606,17.8890771 C1.4239385,17.8890771 0.940406013,17.4055446 0.940406013,16.8090771 L0.940406013,13.1605374 Z M23.9864341,1.05229866 L27.6023833,1.05229866 C28.1988509,1.05229866 28.6823834,1.53583114 28.6823834,2.13229869 L28.6823834,6.30698773 C28.6045269,6.31150518 28.5261431,6.31379191 28.4472819,6.31379191 C25.9802653,6.31379191 23.9803533,4.07592368 23.9803533,1.31537332 C23.9803533,1.22712899 23.9823969,1.13941877 23.9864341,1.05229866 Z M23.9864341,17.8890771 C23.9823969,17.801957 23.9803533,17.7142468 23.9803533,17.6260025 C23.9803533,14.8654521 25.9802653,12.6275838 28.4472819,12.6275838 C28.5261431,12.6275838 28.6045269,12.6298705 28.6823834,12.634388 L28.6823834,16.8090771 C28.6823834,17.4055446 28.1988509,17.8890771 27.6023833,17.8890771 L23.9864341,17.8890771 Z M14.8113947,14.7321812 C11.8250063,14.7321812 9.40406013,12.3765304 9.40406013,9.47068785 C9.40406013,6.56484538 11.8250063,4.20919461 14.8113947,4.20919461 C17.7977831,4.20919461 20.2187293,6.56484538 20.2187293,9.47068785 C20.2187293,12.3765304 17.7977831,14.7321812 14.8113947,14.7321812 Z" id="Shape" fill="url(#linearGradient-33)"></path>
                                </g>
                            </g>
                            <g id="Card-4" stroke-width="1" fill="none" fill-rule="evenodd" transform="translate(297.000000, 46.800000)">
                                <rect id="Rectangle" fill="#AEA7D8" x="0" y="7.2" width="177.12" height="59.04" rx="3.6"></rect>
                                <rect id="Rectangle" stroke="#071A2D" stroke-width="0.72" fill="#FFFFFF" stroke-linecap="round" x="7.2" y="0" width="177.12" height="59.04" rx="3.6"></rect>
                                <g id="Man---Top-1" transform="translate(21.600000, 7.200000)">
                                    <mask id="mask-35" fill="white">
                                        <use xlink:href="#path-34"></use>
                                    </mask>
                                    <use id="Mask" fill="#E5E9F3" xlink:href="#path-34"></use>
                                    <g id="Group-4" mask="url(#mask-35)">
                                        <g transform="translate(4.348515, 10.653861)">
                                            <g id="man---body-2" transform="translate(0.000000, 18.206857)">
                                                <path d="M30.2923861,21.2966154 L32.9297167,26.5443039 C34.0374967,28.7485346 36.293573,30.1396667 38.7605164,30.1396667 C41.2962134,30.1396667 43.6866053,28.9561548 45.2238724,26.9395812 L55.2764035,13.7527588 L55.2764035,13.7527588 L51.535875,11.7772738 L39.2466624,21.2966154 L37.215458,17.7650738 L30.2923861,21.2966154 Z" id="Path-56" fill="#FE9C9A"></path>
                                                <path d="M12.0401038,3.27418093e-13 L6.71196073,1.25297262 C2.14347054,2.32730433 -0.737751102,6.84533648 0.215080857,11.440704 L2.60722073,22.9776405 L2.60722073,22.9776405 L4.05300822,25.4559565 C5.50042252,27.9370611 6.1879914,30.7883472 6.03050635,33.6564627 L5.98902399,34.4119389 L5.98902399,34.4119389 L28.2508971,34.4119389 L27.2322832,25.1701789 L27.7369153,25.0540558 C29.3392258,24.6853412 30.4746341,23.2589854 30.4746341,21.6147989 L30.4746341,21.6147989 L30.4746341,21.6147989 L38.7403337,20.0191905 L33.9769392,9.52021765 C31.8098038,4.74364597 27.2583823,1.48662107 22.0380322,0.97666309 L12.0401038,3.27418093e-13 L12.0401038,3.27418093e-13 Z" id="Path-14" fill="#2760CB"></path>
                                                <path d="M22.813688,28.2099203 L32.7435047,14.997993 L32.7435047,14.997993 L16.2274889,21.952944 L4.19655386,21.952944 L2.60722073,22.9776405 L4.92842404,26.8787843 C6.77745872,29.9863751 10.0105299,32.0126906 13.6133561,32.3220336 C17.1838851,32.6286035 20.6605931,31.0746794 22.813688,28.2099203 Z" id="Path-49" fill="#19243D"></path>
                                                <g id="Group-8" transform="translate(39.800467, 2.527082)">
                                                    <polygon id="Rectangle" fill="#85B0FF" points="1.77666121 0 14.2132897 0 12.5456503 16.8357799 0.10902186 16.8357799"></polygon>
                                                    <polygon id="Rectangle" fill="#19243D" points="2.51693671 0 14.9535652 0 13.2859258 16.8357799 0.849297363 16.8357799"></polygon>
                                                    <ellipse id="Oval" fill="#FFFFFF" cx="8.80927849" cy="3.02748673" rx="1" ry="1"></ellipse>
                                                </g>
                                                <path d="M53.5836243,14.9078978 C53.5836243,14.9078978 55.3653312,13.9057537 55.6420493,12.9889939 C55.7921592,12.4916842 55.4351887,11.352712 54.571138,9.57207743 C54.1782059,8.76234054 53.35704,8.24840968 52.4570016,8.24894177 L49.8748154,8.2504683 C49.6416308,8.25060616 49.4526316,8.43960509 49.4524934,8.67278974 C49.4523492,8.91619045 49.628296,9.12397548 49.868393,9.16394242 C51.8381412,9.49186878 52.7363344,9.65588321 52.5629726,9.65598569 C52.394504,9.65608529 51.3951715,9.80685655 49.5649749,10.1082995 C49.2375477,10.1622466 48.9972384,10.4452039 48.9970417,10.7770455 C48.9968539,11.0941534 49.2537683,11.3513724 49.5708761,11.3515603 C49.5711027,11.3515604 49.5713292,11.3515604 49.5715558,11.3515603 L52.561969,11.3497924 L52.561969,11.3497924 L50.4834021,12.303096 C50.2487064,12.4107357 50.1457072,12.6882533 50.2533468,12.922949 C50.2601279,12.9377344 50.267676,12.9521557 50.2759603,12.9661543 C50.436445,13.2373362 50.7426322,13.3873352 51.05527,13.347933 L53.8950859,12.9900267 L53.8950859,12.9900267 L51.8802264,14.3979686 C51.6761204,14.5405936 51.6156396,14.8159876 51.7412,15.0310125 C51.8712995,15.2538107 52.1379359,15.3573593 52.3843055,15.2807635 C52.7840785,15.1564749 53.1838514,15.0321864 53.5836243,14.9078978 Z" id="Path-55" fill="#FE9C9A" transform="translate(52.336209, 11.777375) rotate(14.000000) translate(-52.336209, -11.777375) "></path>
                                                <path d="M4.19655386,21.952944 L11.8215216,16.9178626 L14.0364362,19.5771731 L32.9156351,10.0971513 C33.5638292,9.77166637 34.2442343,9.51474518 34.9457854,9.3305658 L40.4222783,7.892813 C40.6352594,7.83689874 40.8532421,7.96422651 40.9091564,8.17720755 C40.9178325,8.21025543 40.9222245,8.2442815 40.9222245,8.27844928 C40.9222245,8.59508083 40.7428542,8.8843819 40.4592465,9.02517309 L37.6498444,10.4198423 L37.6498444,10.4198423 L37.6498444,12.1263187 C37.6498444,13.3737343 36.9123305,14.503157 35.7702138,15.0047695 L35.1881714,15.2604 C34.3845185,15.6133607 33.4539404,15.5134738 32.7435047,14.997993 L32.7435047,14.997993 L32.7435047,14.997993 L20.9381636,26.4496067 C19.3673232,27.9733795 17.3415803,28.9421036 15.169354,29.208291 C13.0570826,29.4671315 10.9436546,28.7359943 9.44288418,27.2272275 L4.19655386,21.952944 L4.19655386,21.952944 Z" id="Path-57" fill="#FE9C9A"></path>
                                            </g>
                                            <g id="Woman---face-1" transform="translate(5.756456, 0.000000)">
                                                <polygon id="Path-8" fill="#19243D" points="18.2362221 6.39294155 18.186055 19.4604328 12.1558859 18.9655989 12.448685 7.59861719"></polygon>
                                                <path d="M17.5788885,5.6742648 L17.3807565,13.4154505 C17.3304283,15.3818138 15.721914,16.9496857 13.7549067,16.9496857 L13.7549067,16.9496857 L13.7549067,16.9496857 L13.7549067,19.6638783 C15.229217,22.2221107 15.0707531,23.8616521 13.2795152,24.5825024 C11.4882773,25.3033528 9.30606666,23.9472643 6.7328834,20.5142369 L9.08282005,6.81950862 L13.2795152,4.09579132 L17.5788885,5.6742648 Z" id="Path-5" fill="#FE9C9A"></path>
                                                <path d="M10.3265601,8.03376315 C9.94609313,8.33066678 9.94609313,8.6588311 10.3265601,9.01825611" id="Path-70" stroke="#19243D" stroke-width="0.5" stroke-linecap="round"></path>
                                                <path d="M16.1276628,12.8713097 L14.4742842,12.5298034 C14.63786,13.2323976 14.913467,13.5837234 15.3011052,13.5837807 C15.6887434,13.583838 15.9642626,13.3463477 16.1276628,12.8713097 Z" id="Path-12" fill="#FFFFFF" transform="translate(15.300974, 13.056792) rotate(-1.000000) translate(-15.300974, -13.056792) "></path>
                                                <path d="M16.697007,8.82232369 C16.6901935,8.75586056 16.743246,8.69690101 16.8155031,8.69063385 C16.8877603,8.68436669 16.9518597,8.73316516 16.9586732,8.79962829 L17.2502216,11.6435707 L16.0669678,11.6435707 C15.9943902,11.6435707 15.9355544,11.5894526 15.9355544,11.5226947 C15.9355544,11.4559367 15.9943902,11.4018187 16.0669678,11.4018187 L16.9614455,11.4018187 L16.697007,8.82232369 Z" id="Path-10" fill="#19243D" fill-rule="nonzero"></path>
                                                <path d="M14.8081419,7.27090041 L15.6397894,7.27065468 C15.8013692,7.27060694 15.9323942,7.40155455 15.9324419,7.56313436 C15.932442,7.56319224 15.932442,7.56325011 15.9324419,7.56330799 C15.9323938,7.72501181 15.8013187,7.85608651 15.6396149,7.85613429 L14.8079674,7.85638002 C14.6463876,7.85642776 14.5153626,7.72548015 14.5153148,7.56390034 C14.5153148,7.56384246 14.5153148,7.56378459 14.5153148,7.56372671 C14.515363,7.40202289 14.6464381,7.27094819 14.8081419,7.27090041 Z" id="Rectangle" fill="#19243D" transform="translate(15.223878, 7.563517) rotate(2.000000) translate(-15.223878, -7.563517) "></path>
                                                <path d="M17.0519496,7.38799512 L17.8835971,7.38774939 C18.0451769,7.38770164 18.1762019,7.51864925 18.1762497,7.68022906 C18.1762497,7.68028694 18.1762497,7.68034481 18.1762497,7.68040269 C18.1762015,7.84210651 18.0451265,7.97318121 17.8834227,7.97322899 L17.0517751,7.97347472 C16.8901953,7.97352246 16.7591703,7.84257485 16.7591226,7.68099504 C16.7591226,7.68093717 16.7591226,7.68087929 16.7591226,7.68082141 C16.7591708,7.51911759 16.8902458,7.3880429 17.0519496,7.38799512 Z" id="Rectangle" fill="#19243D" transform="translate(17.467686, 7.680612) rotate(2.000000) translate(-17.467686, -7.680612) "></path>
                                                <ellipse id="Oval" fill="#19243D" cx="17.5788885" cy="8.69009179" rx="1" ry="1"></ellipse>
                                                <ellipse id="Oval" fill="#19243D" cx="15.2782207" cy="8.69009179" rx="1" ry="1"></ellipse>
                                                <path d="M10.0305989,19.5730672 C10.3596643,16.0784434 10.5781635,13.8773709 10.6860964,12.9698498 C10.7940293,12.0623287 10.6685211,10.975034 10.3095717,9.70796568 L9.69824097,9.03161847 C9.38753271,8.68786565 9.34751346,8.17789177 9.60079791,7.78988068 C9.8541374,7.40178528 10.3370543,7.23294576 10.7770211,7.37864433 L12.3043472,7.88443064 C14.4706333,7.6066316 15.9798624,6.77646143 16.8320345,5.39392014 C16.9960619,5.8270316 17.283591,6.17741851 17.6946218,6.44508087 L17.6265661,7.78220006 C18.9094483,6.84828336 19.5508894,5.80545699 19.5508894,4.65372094 C19.5508894,3.50198489 18.9321335,2.80065748 17.6946218,2.5497387 C17.7179038,1.47328575 17.1416414,0.826971978 15.9658345,0.6107974 C14.3842474,0.320019268 10.3758752,-0.988055501 6.55708806,2.81090573 C4.92443684,4.43508073 2.73874082,10.0758361 -1.86730631e-13,19.7331717 L2.60661521,19.7331717 C2.62852706,22.6536004 3.76567631,24.1138148 6.01806295,24.1138148 C8.2704496,24.1138148 9.6079616,22.6002323 10.0305989,19.5730672 Z" id="Path-6" fill="#19243D"></path>
                                                <polygon id="Path-7" fill="#19243D" points="13.9635534 16.9520012 10.6768852 16.8941998 13.9635534 18.2068571"></polygon>
                                            </g>
                                        </g>
                                    </g>
                                </g>
                                <line x1="82.4114851" y1="23.7104627" x2="141.294858" y2="23.7104627" id="Path-98" stroke="#19243D" stroke-width="0.72" stroke-linecap="round"></line>
                                <rect id="Rectangle" fill="#19243D" x="82.08" y="13.68" width="43.2" height="3.6" rx="1.44"></rect>
                                <g id="149763" transform="translate(81.360000, 29.520000)" fill="#EDC967">
                                    <g id="Stacked-Group">
                                        <path d="M14.0874964,6.19954521 C14.3709372,5.92563642 14.4709921,5.52363667 14.3487348,5.14994273 C14.2261892,4.7762488 13.9069939,4.50948794 13.5148479,4.45287631 L10.0282088,3.95051958 C9.8797123,3.92907578 9.75139983,3.83672449 9.68508102,3.7032011 L8.12630072,0.570690967 C7.95127674,0.218726748 7.59603861,0 7.20014417,0 C6.80453807,0 6.44929994,0.218726748 6.27427596,0.570690967 L4.71520732,3.70348702 C4.64888851,3.83701041 4.5202877,3.9293617 4.37179124,3.9508055 L0.885152061,4.45316223 C0.493294416,4.50948794 0.173810773,4.77653472 0.0512651523,5.15022865 C-0.0709921261,5.52392258 0.0290627692,5.92592233 0.312503582,6.19983112 L2.83521332,8.63813401 C2.94276512,8.74220792 2.99207172,8.89202859 2.96669756,9.03841826 L2.37155836,12.4814346 C2.31879166,12.784507 2.39895091,13.0792877 2.59675396,13.3117385 C2.90412721,13.6739957 3.44073286,13.7843598 3.8697867,13.5607725 L6.98792399,11.9350466 C7.11825486,11.8672842 7.28232182,11.867856 7.41236435,11.9350466 L10.53079,13.5607725 C10.6824582,13.6399716 10.8442184,13.68 11.0111688,13.68 C11.315947,13.68 11.6048663,13.5456189 11.8035344,13.3117385 C12.0016258,13.0792877 12.0814967,12.7839351 12.02873,12.4814346 L11.4333024,9.03841826 C11.4079283,8.89174267 11.4572349,8.74220792 11.5647867,8.63813401 L14.0874964,6.19954521 Z" id="Path"></path>
                                        <path d="M32.0874964,6.19954521 C32.3709372,5.92563642 32.4709921,5.52363667 32.3487348,5.14994273 C32.2261892,4.7762488 31.9069939,4.50948794 31.5148479,4.45287631 L28.0282088,3.95051958 C27.8797123,3.92907578 27.7513998,3.83672449 27.685081,3.7032011 L26.1263007,0.570690967 C25.9512767,0.218726748 25.5960386,0 25.2001442,0 C24.8045381,0 24.4492999,0.218726748 24.274276,0.570690967 L22.7152073,3.70348702 C22.6488885,3.83701041 22.5202877,3.9293617 22.3717912,3.9508055 L18.8851521,4.45316223 C18.4932944,4.50948794 18.1738108,4.77653472 18.0512652,5.15022865 C17.9290079,5.52392258 18.0290628,5.92592233 18.3125036,6.19983112 L20.8352133,8.63813401 C20.9427651,8.74220792 20.9920717,8.89202859 20.9666976,9.03841826 L20.3715584,12.4814346 C20.3187917,12.784507 20.3989509,13.0792877 20.596754,13.3117385 C20.9041272,13.6739957 21.4407329,13.7843598 21.8697867,13.5607725 L24.987924,11.9350466 C25.1182549,11.8672842 25.2823218,11.867856 25.4123644,11.9350466 L28.53079,13.5607725 C28.6824582,13.6399716 28.8442184,13.68 29.0111688,13.68 C29.315947,13.68 29.6048663,13.5456189 29.8035344,13.3117385 C30.0016258,13.0792877 30.0814967,12.7839351 30.02873,12.4814346 L29.4333024,9.03841826 C29.4079283,8.89174267 29.4572349,8.74220792 29.5647867,8.63813401 L32.0874964,6.19954521 Z" id="Path"></path>
                                        <path d="M50.0874964,6.19954521 C50.3709372,5.92563642 50.4709921,5.52363667 50.3487348,5.14994273 C50.2261892,4.7762488 49.9069939,4.50948794 49.5148479,4.45287631 L46.0282088,3.95051958 C45.8797123,3.92907578 45.7513998,3.83672449 45.685081,3.7032011 L44.1263007,0.570690967 C43.9512767,0.218726748 43.5960386,0 43.2001442,0 C42.8045381,0 42.4492999,0.218726748 42.274276,0.570690967 L40.7152073,3.70348702 C40.6488885,3.83701041 40.5202877,3.9293617 40.3717912,3.9508055 L36.8851521,4.45316223 C36.4932944,4.50948794 36.1738108,4.77653472 36.0512652,5.15022865 C35.9290079,5.52392258 36.0290628,5.92592233 36.3125036,6.19983112 L38.8352133,8.63813401 C38.9427651,8.74220792 38.9920717,8.89202859 38.9666976,9.03841826 L38.3715584,12.4814346 C38.3187917,12.784507 38.3989509,13.0792877 38.596754,13.3117385 C38.9041272,13.6739957 39.4407329,13.7843598 39.8697867,13.5607725 L42.987924,11.9350466 C43.1182549,11.8672842 43.2823218,11.867856 43.4123644,11.9350466 L46.53079,13.5607725 C46.6824582,13.6399716 46.8442184,13.68 47.0111688,13.68 C47.315947,13.68 47.6048663,13.5456189 47.8035344,13.3117385 C48.0016258,13.0792877 48.0814967,12.7839351 48.02873,12.4814346 L47.4333024,9.03841826 C47.4079283,8.89174267 47.4572349,8.74220792 47.5647867,8.63813401 L50.0874964,6.19954521 Z" id="Path"></path>
                                        <path d="M68.0874964,6.19954521 C68.3709372,5.92563642 68.4709921,5.52363667 68.3487348,5.14994273 C68.2261892,4.7762488 67.9069939,4.50948794 67.5148479,4.45287631 L64.0282088,3.95051958 C63.8797123,3.92907578 63.7513998,3.83672449 63.685081,3.7032011 L62.1263007,0.570690967 C61.9512767,0.218726748 61.5960386,0 61.2001442,0 C60.8045381,0 60.4492999,0.218726748 60.274276,0.570690967 L58.7152073,3.70348702 C58.6488885,3.83701041 58.5202877,3.9293617 58.3717912,3.9508055 L54.8851521,4.45316223 C54.4932944,4.50948794 54.1738108,4.77653472 54.0512652,5.15022865 C53.9290079,5.52392258 54.0290628,5.92592233 54.3125036,6.19983112 L56.8352133,8.63813401 C56.9427651,8.74220792 56.9920717,8.89202859 56.9666976,9.03841826 L56.3715584,12.4814346 C56.3187917,12.784507 56.3989509,13.0792877 56.596754,13.3117385 C56.9041272,13.6739957 57.4407329,13.7843598 57.8697867,13.5607725 L60.987924,11.9350466 C61.1182549,11.8672842 61.2823218,11.867856 61.4123644,11.9350466 L64.53079,13.5607725 C64.6824582,13.6399716 64.8442184,13.68 65.0111688,13.68 C65.315947,13.68 65.6048663,13.5456189 65.8035344,13.3117385 C66.0016258,13.0792877 66.0814967,12.7839351 66.02873,12.4814346 L65.4333024,9.03841826 C65.4079283,8.89174267 65.4572349,8.74220792 65.5647867,8.63813401 L68.0874964,6.19954521 Z" id="Path"></path>
                                        <path d="M86.0874964,6.19954521 C86.3709372,5.92563642 86.4709921,5.52363667 86.3487348,5.14994273 C86.2261892,4.7762488 85.9069939,4.50948794 85.5148479,4.45287631 L82.0282088,3.95051958 C81.8797123,3.92907578 81.7513998,3.83672449 81.685081,3.7032011 L80.1263007,0.570690967 C79.9512767,0.218726748 79.5960386,0 79.2001442,0 C78.8045381,0 78.4492999,0.218726748 78.274276,0.570690967 L76.7152073,3.70348702 C76.6488885,3.83701041 76.5202877,3.9293617 76.3717912,3.9508055 L72.8851521,4.45316223 C72.4932944,4.50948794 72.1738108,4.77653472 72.0512652,5.15022865 C71.9290079,5.52392258 72.0290628,5.92592233 72.3125036,6.19983112 L74.8352133,8.63813401 C74.9427651,8.74220792 74.9920717,8.89202859 74.9666976,9.03841826 L74.3715584,12.4814346 C74.3187917,12.784507 74.3989509,13.0792877 74.596754,13.3117385 C74.9041272,13.6739957 75.4407329,13.7843598 75.8697867,13.5607725 L78.987924,11.9350466 C79.1182549,11.8672842 79.2823218,11.867856 79.4123644,11.9350466 L82.53079,13.5607725 C82.6824582,13.6399716 82.8442184,13.68 83.0111688,13.68 C83.315947,13.68 83.6048663,13.5456189 83.8035344,13.3117385 C84.0016258,13.0792877 84.0814967,12.7839351 84.02873,12.4814346 L83.4333024,9.03841826 C83.4079283,8.89174267 83.4572349,8.74220792 83.5647867,8.63813401 L86.0874964,6.19954521 Z" id="Path"></path>
                                    </g>
                                </g>
                            </g>
                        </g>
                    </g>
                </g>
            </g>
        </g>
    </g>
</svg>