<?xml version="1.0" encoding="UTF-8"?>
<svg width="41px" height="35px" viewBox="0 0 41 35" version="1.1" xmlns="http://www.w3.org/2000/svg" xmlns:xlink="http://www.w3.org/1999/xlink">
    <!-- Generator: Sketch 62 (91390) - https://sketch.com -->
    <title>Group 3</title>
    <desc>Created with Sketch.</desc>
    <g id="GetCarbon-Main-Website-V2" stroke="none" stroke-width="1" fill="none" fill-rule="evenodd">
        <g id="GetCarbon-Instant-loan-(v2)" transform="translate(-1117.000000, -843.000000)" fill="#FFFFFF">
            <g id="Group-5" transform="translate(78.000000, 843.000000)">
                <g id="Group-4-Copy-3" transform="translate(1039.000000, 0.000000)">
                    <g id="Group-3">
                        <circle id="Oval" fill-opacity="0.237980769" cx="13.7647059" cy="13.7647059" r="13.7647059"></circle>
                        <g id="Wallet#2" transform="translate(9.000000, 3.000000)">
                            <circle id="Oval-47" opacity="0.439999998" cx="29.6" cy="19.2" r="2.4"></circle>
                            <rect id="Rectangle-162" opacity="0.439999998" transform="translate(16.000000, 9.600000) rotate(-15.000000) translate(-16.000000, -9.600000) " x="1.6" y="4" width="28.8" height="11.2" rx="1.6"></rect>
                            <path d="M28.8,5.6 C30.5673112,5.6 32,7.0326888 32,8.8 L32.0009224,14.1393432 C31.2732836,13.7935163 30.4592409,13.6 29.6,13.6 C26.5072054,13.6 24,16.1072054 24,19.2 C24,22.2927946 26.5072054,24.8 29.6,24.8 C30.4592409,24.8 31.2732836,24.6064837 32.0009224,24.2606568 L32,28 C32,29.7673112 30.5673112,31.2 28.8,31.2 L3.2,31.2 C1.4326888,31.2 -6.71745219e-16,29.7673112 0,28 L0,8.8 C2.27656009e-16,7.0326888 1.4326888,5.6 3.2,5.6 L28.8,5.6 Z" id="Combined-Shape"></path>
                        </g>
                    </g>
                </g>
            </g>
        </g>
    </g>
</svg>