<?xml version="1.0" encoding="UTF-8"?>
<svg width="83px" height="83px" viewBox="0 0 83 83" version="1.1" xmlns="http://www.w3.org/2000/svg" xmlns:xlink="http://www.w3.org/1999/xlink">
    <!-- Generator: Sketch 62 (91390) - https://sketch.com -->
    <title>Group</title>
    <desc>Created with Sketch.</desc>
    <g id="GetCarbon-Main-Website-V2" stroke="none" stroke-width="1" fill="none" fill-rule="evenodd">
        <g id="GetCarbon-Instant-loan-(v2)" transform="translate(-179.000000, -1795.000000)">
            <g id="Features" transform="translate(179.000000, 1795.000000)">
                <g id="Feature-1">
                    <g id="Group">
                        <ellipse id="Oval" fill="#8E66D9" cx="41.4417745" cy="41.4705882" rx="41.4417745" ry="41.4705882"></ellipse>
                        <g id="Icons-/-Guard" transform="translate(23.829020, 23.845588)" fill="#FFFFFF">
                            <path d="M10.0797692,28.6754608 C6.57909191,25.7892951 4.42977735,22.0379437 4.40319806,17.620879 C4.4195111,12.7559129 4.40362227,4.47743775 4.40322175,4.4167491 C4.39683922,3.44885039 5.31146478,2.73952306 6.24650667,2.98721069 C6.28126241,2.9964173 8.23689871,3.47918277 9.66361584,3.69341166 C12.2906811,4.08787899 14.991982,4.40705732 17.6127554,4.40705732 C20.252625,4.40705732 22.9539259,4.08787899 25.5809912,3.69341166 C27.0077083,3.47918277 28.9633446,2.9964173 28.9981003,2.98721069 C29.9331422,2.73952306 30.8477678,3.44885039 30.8413853,4.4167491 C30.8409847,4.47743775 30.8250959,12.7559129 30.841409,17.620879 C30.8148297,22.0379437 28.6655151,25.7892951 25.1648378,28.6754608 C22.5835484,30.8036287 19.2769286,32.3348534 17.6127542,32.313183 C15.9676784,32.3348534 12.6610587,30.8036287 10.0797692,28.6754608 Z M9.14271823,6.62286698 C8.50240834,6.53173816 7.9269166,6.36683019 7.33864882,6.25102504 C7.33864897,6.81161534 7.35497558,12.7592168 7.33862208,17.6169417 C7.35935703,21.0543962 9.06650557,24.0340038 11.9463437,26.4083129 C13.084736,27.346871 14.3497909,28.1332233 15.559701,28.6935068 C16.507389,29.1323607 17.3331164,29.3793244 17.6127554,29.3759317 C17.9114906,29.3793244 18.737218,29.1323607 19.684906,28.6935068 C20.8948162,28.1332233 22.159871,27.346871 23.2982633,26.4083129 C26.1781014,24.0340038 27.88525,21.0543962 27.9059849,17.6169417 C27.8896314,12.7592168 27.905958,6.81161534 27.9059582,6.25102504 C27.3176904,6.36683019 26.7421987,6.53173816 26.1018888,6.62286698 C23.2982632,7.02187859 20.4336104,7.34455732 17.6127554,7.34455732 C14.8109966,7.34455732 11.9463438,7.02187859 9.14271823,6.62286698 Z M15.1071844,22.3362454 L10.7039959,17.9299954 C10.1308118,17.3564129 10.1308118,16.4264518 10.7039959,15.8528692 C11.2771799,15.2792867 12.2064948,15.2792867 12.7796789,15.8528692 L16.1450259,19.2412407 L23.1796967,12.1809942 C23.7528808,11.6074117 24.6821957,11.6074117 25.2553797,12.1809942 C25.8285637,12.7545768 25.8285637,13.6845379 25.2553797,14.2581204 L17.1828674,22.3362454 C16.6096834,22.909828 15.6803684,22.909828 15.1071844,22.3362454 Z" id="Combined-Shape"></path>
                        </g>
                    </g>
                </g>
            </g>
        </g>
    </g>
</svg>