<?xml version="1.0" encoding="UTF-8"?>
<svg width="83px" height="83px" viewBox="0 0 83 83" version="1.1" xmlns="http://www.w3.org/2000/svg" xmlns:xlink="http://www.w3.org/1999/xlink">
    <!-- Generator: Sketch 62 (91390) - https://sketch.com -->
    <title>Group</title>
    <desc>Created with Sketch.</desc>
    <g id="GetCarbon-Main-Website-V2" stroke="none" stroke-width="1" fill="none" fill-rule="evenodd">
        <g id="GetCarbon-Instant-loan-(v2)" transform="translate(-574.000000, -1795.000000)">
            <g id="Features" transform="translate(179.000000, 1795.000000)">
                <g id="Feature-1-Copy" transform="translate(395.000000, 0.000000)">
                    <g id="Group">
                        <ellipse id="Oval" fill="#2CD5C4" cx="41.4417745" cy="41.4705882" rx="41.4417745" ry="41.4705882"></ellipse>
                        <g id="-Icons-/-Check" transform="translate(23.829020, 23.845588)" fill="#FFFFFF">
                            <g id="Path" transform="translate(7.338648, 8.812500)">
                                <path d="M19.981376,0.309296719 C20.6213061,0.807192688 20.7368164,1.7299525 20.2392561,2.37034219 L8.82770319,17.0577688 C8.57356582,17.3848594 8.19320372,17.5894563 7.78034609,17.6208875 C7.36750313,17.6523188 6.9605898,17.5077938 6.65992541,17.2228563 L0.458668408,11.3479003 C-0.129979484,10.7902159 -0.155400265,9.86061469 0.40189076,9.27155781 C0.959181785,8.68250094 1.88814596,8.65706219 2.47679355,9.21473188 L7.50326811,13.9767425 L17.9217112,0.567298813 C18.4192715,-0.0730874969 19.341446,-0.18859925 19.981376,0.309296719 Z"></path>
                            </g>
                        </g>
                    </g>
                </g>
            </g>
        </g>
    </g>
</svg>