<?xml version="1.0" encoding="UTF-8"?>
<svg width="28px" height="28px" viewBox="0 0 28 28" version="1.1" xmlns="http://www.w3.org/2000/svg" xmlns:xlink="http://www.w3.org/1999/xlink">
    <!-- Generator: Sketch 63.1 (92452) - https://sketch.com -->
    <title>icon2</title>
    <desc>Created with Sketch.</desc>
    <g id="GetCarbon-Main-Website-V2" stroke="none" stroke-width="1" fill="none" fill-rule="evenodd">
        <g id="New-GetCarbon-About-us" transform="translate(-806.000000, -5088.000000)">
            <g id="Group-13" transform="translate(-4.000000, 4815.000000)">
                <g id="Group-12" transform="translate(810.000000, 181.000000)">
                    <g id="Group-11">
                        <g id="icon2" transform="translate(0.000000, 92.000000)">
                            <circle id="Oval" fill="#F1F2F3" fill-rule="nonzero" cx="13.6" cy="13.6" r="13.6"></circle>
                            <g id="Group" stroke-linecap="round" stroke-linejoin="round" transform="translate(8.000000, 8.000000)" stroke="#8E66D9" stroke-width="1.2">
                                <path d="M7.2,2.4 C8.41391102,2.63695825 9.36304175,3.58608898 9.6,4.8 M7.2,0 C9.72501105,0.281898959 11.718101,2.27498895 12,4.8 M11.2000069,9.1856 L11.2000069,10.8712 C11.2011116,11.1881491 11.0684496,11.4908575 10.8346499,11.7048566 C10.6008501,11.9188557 10.287614,12.0242821 9.972,11.9952 C8.23953839,11.8076697 6.57508425,11.2169597 5.112,10.2704 C3.75188958,9.40781695 2.59843824,8.25627756 1.7336,6.8976 C0.782163901,5.43217665 0.189855533,3.7629689 0.0048,2.0256 C-0.0235003438,1.71107484 0.0817219512,1.39914037 0.294754387,1.16602202 C0.507786822,0.932903674 0.809004215,0.800076997 1.1248,0.799933923 L2.8144,0.799933923 C3.37914357,0.793925819 3.86095315,1.20729654 3.9408,1.7664 C4.01209177,2.30628718 4.14440452,2.83634336 4.3352,3.3464 C4.4896,3.7568 4.3912,4.22 4.0816,4.532 L3.3664,5.2456 C4.16876247,6.65326516 5.33622664,7.81824183 6.7456,8.6176 L7.4608,7.904 C7.7728,7.5952 8.2368,7.496 8.6488,7.6512 C9.15975789,7.84158287 9.69059194,7.97362046 10.2312,8.0448 C10.7976,8.1248 11.2136,8.6152 11.1992,9.1856 L11.2000069,9.1856 Z" id="Shape"></path>
                            </g>
                        </g>
                    </g>
                </g>
            </g>
        </g>
    </g>
</svg>