<svg xmlns="http://www.w3.org/2000/svg" xmlns:xlink="http://www.w3.org/1999/xlink" width="1440" height="528" viewBox="0 0 1440 528">
    <defs>
        <path id="prefix__a" d="M0 0H1443V528H0z"/>
        <path id="prefix__d" d="M0 0H1224V500H0z"/>
        <linearGradient id="prefix__b" x1="100%" x2="0%" y1="50%" y2="50%">
            <stop offset="0%" stop-color="#6D5CBB"/>
            <stop offset="100%" stop-color="#3B2F85"/>
        </linearGradient>
    </defs>
    <g fill="none" fill-rule="evenodd">
        <mask id="prefix__c" fill="#fff">
            <use xlink:href="#prefix__a"/>
        </mask>
        <use fill="url(#prefix__b)" xlink:href="#prefix__a"/>
        <g mask="url(#prefix__c)" opacity=".107">
            <g transform="rotate(30 847.134 1134.996)">
                <mask id="prefix__e" fill="#fff">
                    <use xlink:href="#prefix__d"/>
                </mask>
                <path fill-rule="nonzero" stroke="#FAD2C5" stroke-width="4" d="M1045.312-1357.818c-7.078-.02-14.111-.045-21.099-.069-249.13-.869-441.028-1.722-621.117 194.989-103.042 112.553-99.913 205.361-96.162 320.306 2.996 91.77 6.43 197.578-42.533 338.488-52.51 151.116-120.783 216.3-174.65 267.722-59.143 56.46-100.797 96.13-83.976 216.738 17.454 125.14 56.784 246.678 130.491 341.54 61.896 79.66 148.047 140.481 265.823 168.798 129.968 31.248 210.204-35.538 298.97-109.093 87.984-72.906 184.267-152.56 344.259-152.56 159.592 0 255.079 79.426 342.513 152.274 88.655 73.864 168.951 141.059 300.716 109.379 241.757-58.125 291.338-203.921 375.436-449.752 6.732-19.68 13.683-40 20.969-60.966 33.4-96.12 154.924-176.258 264.125-248.053 68.865-45.275 132.75-87.22 165.958-127.912 12.723-15.592 20.92-30.974 22.985-46.306 1.882-13.984-1.387-27.893-10.901-41.833-36.511-53.495-163.007-107.08-440.694-166.158C1752.9-721.244 1567.51-772.55 1462.527-818.37c-128.97-56.29-137.443-104.45-149.182-170.264-6.56-36.784-14.106-79.187-44.807-131.84-51.033-87.522-56.791-143.086-60.45-178.346-1.572-15.139-2.68-26.464-7.053-34.901-3.422-6.604-8.92-11.33-18.26-14.776-20.977-7.74-60.534-9.1-137.463-9.32z" mask="url(#prefix__e)"/>
                <path fill-rule="nonzero" stroke="#FAD2C5" stroke-width="8" d="M1055.925-1168.077c-117.169-42.282-231.04-71.537-334.46-62.176-83.596 7.567-160.306 40.467-226.297 112.269-79.625 86.637-65.107 189.026-49.338 304.263 13.633 99.631 28.463 208.867-12.452 326.158-44.447 127.414-134.855 185.39-211.411 234.305-43.03 27.494-81.646 52.012-104.532 84.963-17.061 24.565-25.191 53.86-19.758 92.667 12.427 88.75 70.3 174.123 149.268 241.691 83.899 71.789 191.692 123.514 294.746 137.745 99.027 13.676 167.864-21.853 244.128-60.983 78.906-40.485 165.632-84.899 300.404-84.899 134.985 0 205.076 45.135 268.45 86.005 61.01 39.344 115.651 74.767 218.173 59.881 94.552-13.729 198.202-92.342 290.603-194.825 111.184-123.315 206.045-281.429 248.997-404.56 21.623-61.985 24.786-101.206 14.695-128.86-12.652-34.675-46.043-50.732-87.53-71.326-45.049-22.363-99.775-49.595-150.233-108.312-68.66-79.9-153.007-71.56-245.206-63.004-89.866 8.34-187.209 17.15-285.659-49.475-96.853-65.544-121.938-155.07-145.312-239.27-24.785-89.286-47.48-172.635-157.276-212.257z" mask="url(#prefix__e)"/>
                <path fill-rule="nonzero" stroke="#FAD2C5" stroke-width="4" d="M785.296-1170c-44.688 0-68.453 7.538-79.834 20.948-14.723 17.35-8.5 44.131-1.77 75.087 6.996 32.176 14.9 68.92 3.589 105.124-7.99 25.57-25.52 50.911-59.788 74.172-41.937 28.467-64.227 57.7-75.106 88.503-14.453 40.92-8.848 84.53-2.77 132.518 7.48 59.047 15.742 124.659-10.44 199.941-25.33 72.837-87.957 144.37-150.401 215.597-54.53 62.201-108.905 124.173-137.751 186.667-20.96 45.409-28.41 91.091-12.33 137.331 14.497 41.683 33.934 63.34 57.46 73.203 31.19 13.075 69.31 5.596 111.844-2.583 65.696-12.633 141.771-27.118 219.494 25.64 37.069 25.162 68.574 27.297 97.498 15.352 39.098-16.146 73.432-57.573 110.313-101.895C913.418 5.768 977.722-71.093 1075.296-71.093c98.94 0 156.063 78.967 206.824 149.584 31.297 43.54 60.105 83.843 95.253 99.386 26.093 11.538 55.645 9.137 92.278-15.729 52.106-35.37 117.605-67.562 185.005-100.68 147.814-72.632 305.08-149.601 348.75-275.174 29.484-84.776 5.143-167.246-45.089-231.107-57.498-73.1-148.935-121.914-232.788-121.914-23.396 0-45.51.493-66.748.966-122.807 2.735-216.436 4.774-358.97-91.978-66.077-44.853-128.45-134.505-192.434-226.586C1010.251-1024.104 909.432-1170 785.296-1170z" mask="url(#prefix__e)"/>
            </g>
        </g>
    </g>
</svg>
