<?xml version="1.0" encoding="UTF-8"?>
<svg width="15px" height="18px" viewBox="0 0 15 18" version="1.1" xmlns="http://www.w3.org/2000/svg" xmlns:xlink="http://www.w3.org/1999/xlink">
    <!-- Generator: Sketch 63.1 (92452) - https://sketch.com -->
    <title>Group 9</title>
    <desc>Created with Sketch.</desc>
    <g id="GetCarbon-Main-Website-V2" stroke="none" stroke-width="1" fill="none" fill-rule="evenodd">
        <g id="New-GetCarbon-About-us" transform="translate(-124.000000, -5266.000000)" fill="#FFFFFF" fill-rule="nonzero">
            <g id="Group-13" transform="translate(-4.000000, 4815.000000)">
                <g id="Button-Copy-3" transform="translate(84.000000, 436.000000)">
                    <g id="Button">
                        <g id="Group-6">
                            <g id="Group-10" transform="translate(44.000000, 15.000000)">
                                <g id="Group-9">
                                    <g id="Group">
                                        <path d="M7.04809972,0 C7.40278447,2.15529152e-15 7.74599489,0.125684311 8.01679915,0.354739588 L11.7414267,3.50515372 C12.0783805,3.79016046 12.2727273,4.20909035 12.2727273,4.65041414 L12.2719357,15.0889956 C12.2631086,16.2290562 12.1572794,16.3551696 10.9086364,16.3631842 L1.51948052,16.3636364 C0.124069396,16.3636364 0.00997174774,16.2746586 0.00079152827,15.0889956 L0.00079152827,1.2746408 C0.00961866238,0.134580146 0.115447857,0.00846675563 1.36409091,0.000452205838 L7.04809972,0 Z M6.54545455,12.2727273 L4.09090909,12.2727273 C3.63903975,12.2727273 3.27272727,12.6390398 3.27272727,13.0909091 C3.27272727,13.5427784 3.63903975,13.9090909 4.09090909,13.9090909 L4.09090909,13.9090909 L6.54545455,13.9090909 C6.99732389,13.9090909 7.36363636,13.5427784 7.36363636,13.0909091 C7.36363636,12.6390398 6.99732389,12.2727273 6.54545455,12.2727273 L6.54545455,12.2727273 Z M9.81818182,9 L4.09090909,9 C3.63903975,9 3.27272727,9.36631248 3.27272727,9.81818182 C3.27272727,10.2700512 3.63903975,10.6363636 4.09090909,10.6363636 L4.09090909,10.6363636 L9.81818182,10.6363636 C10.2700512,10.6363636 10.6363636,10.2700512 10.6363636,9.81818182 C10.6363636,9.36631248 10.2700512,9 9.81818182,9 L9.81818182,9 Z" id="Combined-Shape-Copy" opacity="0.439999998"></path>
                                        <path d="M9.50264518,1.63636364 C9.85732993,1.63636364 10.2005403,1.76204795 10.4713446,1.99110322 L14.1959722,5.14151736 C14.5329259,5.42652409 14.7272727,5.84545399 14.7272727,6.28677777 L14.7272727,16.4318182 C14.7272727,17.8444859 14.7117163,17.9908921 13.3631818,17.9995478 L3.15584416,18 C1.76043303,18 1.64633538,17.9110223 1.63715516,16.7253592 L1.63715516,2.91100444 C1.6459823,1.77094378 1.75181149,1.64483039 3.00045455,1.63681584 L9.50264518,1.63636364 Z M6.54545455,12.2727273 L4.09090909,12.2727273 C3.63903975,12.2727273 3.27272727,12.6390398 3.27272727,13.0909091 C3.27272727,13.5427784 3.63903975,13.9090909 4.09090909,13.9090909 L4.09090909,13.9090909 L6.54545455,13.9090909 C6.99732389,13.9090909 7.36363636,13.5427784 7.36363636,13.0909091 C7.36363636,12.6390398 6.99732389,12.2727273 6.54545455,12.2727273 L6.54545455,12.2727273 Z M9.81818182,9 L4.09090909,9 C3.63903975,9 3.27272727,9.36631248 3.27272727,9.81818182 C3.27272727,10.2700512 3.63903975,10.6363636 4.09090909,10.6363636 L4.09090909,10.6363636 L9.81818182,10.6363636 C10.2700512,10.6363636 10.6363636,10.2700512 10.6363636,9.81818182 C10.6363636,9.36631248 10.2700512,9 9.81818182,9 L9.81818182,9 Z" id="Combined-Shape"></path>
                                    </g>
                                </g>
                            </g>
                        </g>
                    </g>
                </g>
            </g>
        </g>
    </g>
</svg>