<?xml version="1.0" encoding="UTF-8"?>
<svg width="50px" height="50px" viewBox="0 0 50 50" version="1.1" xmlns="http://www.w3.org/2000/svg" xmlns:xlink="http://www.w3.org/1999/xlink">
    <!-- Generator: Sketch 63.1 (92452) - https://sketch.com -->
    <title>Elements / Buttons / Combined / Icon / 2 Copy</title>
    <desc>Created with Sketch.</desc>
    <g id="GetCarbon-Main-Website-V2" stroke="none" stroke-width="1" fill="none" fill-rule="evenodd">
        <g id="New-GetCarbon-About-us" transform="translate(-937.000000, -5474.000000)">
            <g id="Group-13" transform="translate(-4.000000, 4815.000000)">
                <g id="Group-12" transform="translate(810.000000, 181.000000)">
                    <g id="Social" transform="translate(0.000000, 478.000000)">
                        <g id="Elements-/-Buttons-/-Combined-/-Icon-/-2" transform="translate(131.000000, 0.000000)">
                            <g id="Button">
                                <circle id="Oval" stroke="#E1E4EB" cx="25" cy="25" r="24.5"></circle>
                                <g id="-Icons-/-Social-/-Facebook" transform="translate(15.769231, 15.769231)" fill="#345DEE">
                                    <path d="M10.7221589,18.2307692 L10.7221589,10.0207217 L13.6693207,10.0207217 L14.1114741,6.82017548 L10.7221589,6.82017548 L10.7221589,4.77709673 C10.7221589,3.85074923 10.9962484,3.21945548 12.4190536,3.21945548 L14.2307692,3.21875798 L14.2307692,0.356076231 C13.9174617,0.318020068 12.8419758,0.230769231 11.5902212,0.230769231 C8.97635366,0.230769231 7.18686792,1.72203548 7.18686792,4.46011673 L7.18686792,6.82017548 L4.23076923,6.82017548 L4.23076923,10.0207217 L7.18686792,10.0207217 L7.18686792,18.2307692 L10.7221589,18.2307692 Z" id="Color"></path>
                                </g>
                            </g>
                        </g>
                    </g>
                </g>
            </g>
        </g>
    </g>
</svg>