<?xml version="1.0" encoding="UTF-8"?>
<svg width="50px" height="50px" viewBox="0 0 50 50" version="1.1" xmlns="http://www.w3.org/2000/svg" xmlns:xlink="http://www.w3.org/1999/xlink">
    <!-- Generator: Sketch 63.1 (92452) - https://sketch.com -->
    <title>Elements / Buttons / Combined / Icon / 2 Copy 2</title>
    <desc>Created with Sketch.</desc>
    <g id="GetCarbon-Main-Website-V2" stroke="none" stroke-width="1" fill="none" fill-rule="evenodd">
        <g id="New-GetCarbon-About-us" transform="translate(-872.000000, -5474.000000)">
            <g id="Group-13" transform="translate(-4.000000, 4815.000000)">
                <g id="Group-12" transform="translate(810.000000, 181.000000)">
                    <g id="Social" transform="translate(0.000000, 478.000000)">
                        <g id="Elements-/-Buttons-/-Combined-/-Icon-/-2" transform="translate(66.000000, 0.000000)">
                            <g id="Button">
                                <circle id="Oval" stroke="#E1E4EB" cx="25" cy="25" r="24.5"></circle>
                                <g id="Icons-/-Social-/-Linked-IN" transform="translate(15.769231, 15.769231)" fill="#44A0FF">
                                    <path d="M17.2307692,16.4615385 L14.1538462,16.4615385 L14.1538462,10.8582634 C14.1538462,9.32114545 13.5023077,8.46372187 12.3338462,8.46372187 C11.0623077,8.46372187 10.3076923,9.35717165 10.3076923,10.8582634 L10.3076923,16.4615385 L7.23076923,16.4615385 L7.23076923,6.05396932 L10.3076923,6.05396932 L10.3076923,7.22442056 C10.3076923,7.22442056 11.2730769,5.46153846 13.4484615,5.46153846 C15.6246154,5.46153846 17.2307692,6.84334341 17.2307692,9.70302318 L17.2307692,16.4615385 L17.2307692,16.4615385 Z M2.73107621,3.46153846 C1.90228255,3.46153846 1.23076923,2.78972379 1.23076923,1.96123365 C1.23076923,1.13335313 1.90228255,0.461538462 2.73107621,0.461538462 C3.55925549,0.461538462 4.23076881,1.13335313 4.23076881,1.96123365 C4.23138319,2.78972379 3.55925549,3.46153846 2.73107621,3.46153846 L2.73107621,3.46153846 Z M1.23076923,16.4615385 L4.23076923,16.4615385 L4.23076923,6.46153846 L1.23076923,6.46153846 L1.23076923,16.4615385 Z" id="Color"></path>
                                </g>
                            </g>
                        </g>
                    </g>
                </g>
            </g>
        </g>
    </g>
</svg>