<?xml version="1.0" encoding="UTF-8"?>
<svg width="50px" height="50px" viewBox="0 0 50 50" version="1.1" xmlns="http://www.w3.org/2000/svg" xmlns:xlink="http://www.w3.org/1999/xlink">
    <!-- Generator: Sketch 63.1 (92452) - https://sketch.com -->
    <title>Elements / Buttons / Combined / Icon / 2</title>
    <desc>Created with Sketch.</desc>
    <g id="GetCarbon-Main-Website-V2" stroke="none" stroke-width="1" fill="none" fill-rule="evenodd">
        <g id="New-GetCarbon-About-us" transform="translate(-806.000000, -5474.000000)">
            <g id="Group-13" transform="translate(-4.000000, 4815.000000)">
                <g id="Group-12" transform="translate(810.000000, 181.000000)">
                    <g id="Social" transform="translate(0.000000, 478.000000)">
                        <g id="Elements-/-Buttons-/-Combined-/-Icon-/-2">
                            <g id="Button">
                                <circle id="Oval" stroke="#E1E4EB" cx="25" cy="25" r="24.5"></circle>
                                <g id="Icons-/-Social-/-Twitter" transform="translate(15.769231, 15.769231)" fill="#0C66FF">
                                    <path d="M6.26276923,16.2307692 C12.3003692,16.2307692 15.6027692,10.8439657 15.6027692,6.17304792 C15.6027692,6.01970536 15.6027692,5.86722427 15.5931692,5.71560466 C16.2355692,5.21594913 16.7899692,4.59568708 17.2307692,3.88583164 C16.6323692,4.17184136 15.9963692,4.35964292 15.3459692,4.44234452 C16.0307692,4.00040782 16.5435692,3.30605892 16.7891692,2.48679614 C16.1443692,2.89858122 15.4395692,3.18889831 14.7043692,3.3448253 C13.4611692,1.9216685 11.3819692,1.8527505 10.0595692,3.19148274 C9.20756923,4.05468075 8.84516923,5.34172449 9.10996923,6.56932644 C6.47076923,6.42632159 4.01156923,5.08414344 2.34436923,2.87618287 C1.47316923,4.4914486 1.91876923,6.55726579 3.36116923,7.59448176 C2.83876923,7.57811374 2.32756923,7.42649413 1.87076923,7.15254506 L1.87076923,7.19734176 C1.87156923,8.87980255 2.97316923,10.3288036 4.50436923,10.6621944 C4.02116923,10.8043378 3.51396923,10.8250132 3.02276923,10.7224977 C3.45236923,12.162884 4.68516923,13.1492729 6.08916923,13.1777016 C4.92676923,14.1615061 3.49076923,14.6956207 2.01236923,14.6938977 C1.75156923,14.6930363 1.49076923,14.6766682 1.23076923,14.6430707 C2.73236923,15.6802867 4.47876923,16.2307692 6.26276923,16.2281848" id="Color"></path>
                                </g>
                            </g>
                        </g>
                    </g>
                </g>
            </g>
        </g>
    </g>
</svg>