<?xml version="1.0" encoding="UTF-8"?>
<svg width="447px" height="432px" viewBox="0 0 447 432" version="1.1" xmlns="http://www.w3.org/2000/svg" xmlns:xlink="http://www.w3.org/1999/xlink">
    <!-- Generator: Sketch 62 (91390) - https://sketch.com -->
    <title>Group 74</title>
    <desc>Created with Sketch.</desc>
    <defs>
        <path d="M45.4631613,0 L326.440839,0 C351.549449,0 371.904,20.3913795 371.904,45.5402032 L371.904,728.219797 C371.904,753.370957 351.54528,773.76 326.440839,773.76 L45.4631613,773.76 C20.3545506,773.76 0,753.368621 0,728.219797 L0,45.5402032 C0,20.3890435 20.3587197,0 45.4631613,0 Z" id="path-1"></path>
        <filter x="-18.7%" y="-5.8%" width="137.4%" height="118.0%" filterUnits="objectBoundingBox" id="filter-2">
            <feOffset dx="0" dy="25" in="SourceAlpha" result="shadowOffsetOuter1"></feOffset>
            <feGaussianBlur stdDeviation="19" in="shadowOffsetOuter1" result="shadowBlurOuter1"></feGaussianBlur>
            <feColorMatrix values="0 0 0 0 0.749019608   0 0 0 0 0.77254902   0 0 0 0 0.819607843  0 0 0 0.36 0" type="matrix" in="shadowBlurOuter1" result="shadowMatrixOuter1"></feColorMatrix>
            <feOffset dx="0" dy="13" in="SourceAlpha" result="shadowOffsetOuter2"></feOffset>
            <feGaussianBlur stdDeviation="6.5" in="shadowOffsetOuter2" result="shadowBlurOuter2"></feGaussianBlur>
            <feColorMatrix values="0 0 0 0 0.364705882   0 0 0 0 0.380392157   0 0 0 0 0.407843137  0 0 0 0.16 0" type="matrix" in="shadowBlurOuter2" result="shadowMatrixOuter2"></feColorMatrix>
            <feMerge>
                <feMergeNode in="shadowMatrixOuter1"></feMergeNode>
                <feMergeNode in="shadowMatrixOuter2"></feMergeNode>
            </feMerge>
        </filter>
        <filter x="-18.7%" y="-5.8%" width="137.4%" height="118.0%" filterUnits="objectBoundingBox" id="filter-3">
            <feGaussianBlur stdDeviation="19" in="SourceAlpha" result="shadowBlurInner1"></feGaussianBlur>
            <feOffset dx="0" dy="-25" in="shadowBlurInner1" result="shadowOffsetInner1"></feOffset>
            <feComposite in="shadowOffsetInner1" in2="SourceAlpha" operator="arithmetic" k2="-1" k3="1" result="shadowInnerInner1"></feComposite>
            <feColorMatrix values="0 0 0 0 0.937254902   0 0 0 0 0.949019608   0 0 0 0 0.964705882  0 0 0 0.768314085 0" type="matrix" in="shadowInnerInner1" result="shadowMatrixInner1"></feColorMatrix>
            <feGaussianBlur stdDeviation="2" in="SourceAlpha" result="shadowBlurInner2"></feGaussianBlur>
            <feOffset dx="0" dy="1" in="shadowBlurInner2" result="shadowOffsetInner2"></feOffset>
            <feComposite in="shadowOffsetInner2" in2="SourceAlpha" operator="arithmetic" k2="-1" k3="1" result="shadowInnerInner2"></feComposite>
            <feColorMatrix values="0 0 0 0 0.937254902   0 0 0 0 0.949019608   0 0 0 0 0.964705882  0 0 0 1 0" type="matrix" in="shadowInnerInner2" result="shadowMatrixInner2"></feColorMatrix>
            <feMerge>
                <feMergeNode in="shadowMatrixInner1"></feMergeNode>
                <feMergeNode in="shadowMatrixInner2"></feMergeNode>
            </feMerge>
        </filter>
        <linearGradient x1="50%" y1="0%" x2="50%" y2="100%" id="linearGradient-4">
            <stop stop-color="#E7EAF0" offset="0%"></stop>
            <stop stop-color="#FFFFFF" offset="100%"></stop>
        </linearGradient>
        <path d="M13.8220636,88.3328192 C13.8220636,85.576473 16.0669902,83.3420129 18.8069389,83.3420129 L349.824963,83.3420129 C352.578034,83.3420129 354.809839,85.5721612 354.809839,88.3328192 L354.809839,685.882602 C354.809839,688.638948 352.564912,690.873408 349.824963,690.873408 L18.8069389,690.873408 C16.0538683,690.873408 13.8220636,688.64326 13.8220636,685.882602 L13.8220636,88.3328192 Z" id="path-5"></path>
        <linearGradient x1="48.0479248%" y1="24.9447096%" x2="54.4538187%" y2="70.0343741%" id="linearGradient-7">
            <stop stop-color="#123214" offset="0%"></stop>
            <stop stop-color="#3E7C37" offset="46%"></stop>
            <stop stop-color="#5FBB46" offset="91%"></stop>
        </linearGradient>
        <linearGradient x1="63.4083987%" y1="6.88076318%" x2="63.4083987%" y2="77.5858385%" id="linearGradient-8">
            <stop stop-color="#FFFFFF" stop-opacity="0" offset="0%"></stop>
            <stop stop-color="#FFFFFF" stop-opacity="0.43" offset="64%"></stop>
            <stop stop-color="#FFFFFF" stop-opacity="0.42" offset="100%"></stop>
        </linearGradient>
        <radialGradient cx="52.4616287%" cy="52.6256076%" fx="52.4616287%" fy="52.6256076%" r="94.2217357%" gradientTransform="translate(0.524616,0.526256),scale(0.615915,1.000000),rotate(26.760584),translate(-0.524616,-0.526256)" id="radialGradient-9">
            <stop stop-color="#FFFFFF" offset="13%"></stop>
            <stop stop-color="#FFFFFF" stop-opacity="0.69" offset="29%"></stop>
            <stop stop-color="#FFFFFF" stop-opacity="0.4" offset="45%"></stop>
            <stop stop-color="#FFFFFF" stop-opacity="0.18" offset="59%"></stop>
            <stop stop-color="#FFFFFF" stop-opacity="0.05" offset="69%"></stop>
            <stop stop-color="#FFFFFF" stop-opacity="0" offset="74%"></stop>
        </radialGradient>
        <radialGradient cx="59.1924499%" cy="32.6138825%" fx="59.1924499%" fy="32.6138825%" r="61.5828713%" gradientTransform="translate(0.591924,0.326139),scale(0.922591,1.000000),rotate(39.839991),translate(-0.591924,-0.326139)" id="radialGradient-10">
            <stop stop-color="#000000" stop-opacity="0" offset="86%"></stop>
            <stop stop-color="#000000" stop-opacity="0.47" offset="98%"></stop>
            <stop stop-color="#000000" offset="100%"></stop>
        </radialGradient>
        <linearGradient x1="100%" y1="50%" x2="0%" y2="50%" id="linearGradient-11">
            <stop stop-color="#6122D3" offset="0%"></stop>
            <stop stop-color="#320FA8" offset="100%"></stop>
        </linearGradient>
        <linearGradient x1="100%" y1="50%" x2="0%" y2="50%" id="linearGradient-12">
            <stop stop-color="#6122D3" offset="0%"></stop>
            <stop stop-color="#320FA8" offset="100%"></stop>
        </linearGradient>
        <linearGradient x1="46.0561672%" y1="75.4532071%" x2="46.0561672%" y2="-101.493292%" id="linearGradient-13">
            <stop stop-color="#FFFFFF" stop-opacity="0.107435533" offset="0%"></stop>
            <stop stop-color="#FFFFFF" offset="100%"></stop>
        </linearGradient>
    </defs>
    <g id="GetCarbon-Main-Website-V2" stroke="none" stroke-width="1" fill="none" fill-rule="evenodd">
        <g id="GetCarbon-Payment-V2" transform="translate(-815.000000, -1091.000000)">
            <g id="Group-3-Copy-2" transform="translate(0.000000, 1091.000000)">
                <g id="Group-9-Copy">
                    <g id="Group-74" transform="translate(807.000000, -404.000000)">
                        <g id="iphone" transform="translate(46.000000, 0.000000)">
                            <g id="body">
                                <use fill="black" fill-opacity="1" filter="url(#filter-2)" xlink:href="#path-1"></use>
                                <use fill="#FFFFFF" fill-rule="evenodd" xlink:href="#path-1"></use>
                                <use fill="black" fill-opacity="1" filter="url(#filter-3)" xlink:href="#path-1"></use>
                            </g>
                            <ellipse id="home-button" fill="url(#linearGradient-4)" style="mix-blend-mode: multiply;" cx="182.952" cy="733.227546" rx="27.279022" ry="27.3252501"></ellipse>
                            <mask id="mask-6" fill="white">
                                <use xlink:href="#path-5"></use>
                            </mask>
                            <path stroke="#E2E9EF" stroke-width="2.496" d="M349.824963,692.121408 L18.8069389,692.121408 C17.0849701,692.121408 15.526148,691.423579 14.3980486,690.294138 C13.2713349,689.166083 12.5740636,687.607285 12.5740636,685.882602 L12.5740636,88.3328192 C12.5740636,86.6121405 13.2733777,85.0538331 14.4007899,83.9250795 C15.5313372,82.7931871 17.0918737,82.0940129 18.8069389,82.0940129 L349.824963,82.0940129 C351.546932,82.0940129 353.105754,82.7918417 354.233854,83.9212832 C355.360567,85.0493374 356.057839,86.6081354 356.057839,88.3328192 L356.057839,685.882602 C356.057839,687.60328 355.358524,689.161588 354.231112,690.290341 C353.100565,691.422234 351.540028,692.121408 349.824963,692.121408 Z"></path>
                            <g id="AirtimeAPI" mask="url(#mask-6)">
                                <g transform="translate(20.000000, 403.000000)" id="Group-19">
                                    <g transform="translate(0.000000, 0.200000)">
                                        <g id="Group-9" transform="translate(11.000000, 0.000000)" fill="#FFFFFF" fill-rule="nonzero">
                                            <g id="Rectangle">
                                                <rect id="path-4" x="0.521217438" y="0.710908686" width="303.2" height="267.2" rx="11.2"></rect>
                                            </g>
                                        </g>
                                        <g id="Group-20" transform="translate(0.000000, 46.000000)">
                                            <g id="Rectangle" transform="translate(24.192000, 0.000000)">
                                                <g id="path-6-link" fill="#000000" fill-rule="nonzero">
                                                    <rect id="path-6" x="0" y="0" width="302.0544" height="55.9872" rx="8.064"></rect>
                                                </g>
                                                <g id="path-6-link" fill="#FFFFFF">
                                                    <rect id="path-6" x="0" y="0" width="302.0544" height="55.9872" rx="8.064"></rect>
                                                </g>
                                            </g>
                                            <g id="Group-18" transform="translate(133.747200, 8.294400)">
                                                <g id="Rectangle-Copy-6">
                                                    <g id="path-8-link" fill="#000000" fill-rule="nonzero">
                                                        <rect id="path-8" x="0" y="0" width="40.0896" height="40.0896" rx="8.9856"></rect>
                                                    </g>
                                                    <g id="path-8-link" fill="#FFFFFF">
                                                        <rect id="path-8" x="0" y="0" width="40.0896" height="40.0896" rx="8.9856"></rect>
                                                    </g>
                                                </g>
                                                <g id="9mobile-Logo" transform="translate(13.132800, 8.985600)">
                                                    <path d="M2.5039872,20.2572288 C2.7995136,20.2572288 3.0154752,20.3198208 3.151872,20.4450048 C3.2882688,20.5701888 3.356544,20.7648768 3.3566976,21.0290688 L3.3566976,22.4451072 L2.913408,22.4451072 L2.913408,21.0889728 C2.913408,20.7903744 2.745984,20.6410752 2.411136,20.6410752 C2.26649925,20.6398722 2.12450274,20.6798262 2.0017152,20.7562752 C2.02295876,20.8456113 2.03294348,20.937254 2.0314368,21.0290688 L2.0314368,22.4451072 L1.5881472,22.4451072 L1.5881472,21.0889728 C1.5881472,20.7903744 1.4207232,20.6410752 1.0858752,20.6410752 C0.933087012,20.6412144 0.781555404,20.6686805 0.6384384,20.722176 L0.6384384,22.4451072 L0.1953792,22.4451072 L0.1953792,20.479104 C0.342066639,20.4061739 0.497346747,20.3519884 0.6575616,20.317824 C0.828456526,20.2779824 1.00325276,20.2572726 1.1787264,20.2560768 C1.4552064,20.2560768 1.6606464,20.3098368 1.7950464,20.4173568 C2.01640427,20.3116146 2.25866985,20.2568943 2.5039872,20.2572288 L2.5039872,20.2572288 Z M4.8754944,22.51008 C4.5375744,22.51008 4.2835968,22.4133888 4.1135616,22.2200064 C3.9435264,22.026624 3.858432,21.745152 3.8582784,21.3755904 C3.8582784,20.627712 4.1961984,20.2538496 4.8720384,20.2540031 C5.2125696,20.2540031 5.4686208,20.3499264 5.640192,20.5417728 C5.81176322,20.7336192 5.89762558,21.0115584 5.8977792,21.3755904 C5.8977792,21.7393152 5.80915198,22.019328 5.6318976,22.2156288 C5.4546432,22.4119296 5.2025088,22.51008 4.8754944,22.51008 Z M4.8711168,22.1303808 C5.2595712,22.1303808 5.4537216,21.878784 5.45356818,21.3755904 C5.45356818,21.125376 5.407488,20.9384448 5.315328,20.8147968 C5.223168,20.6911488 5.0754048,20.629248 4.8720384,20.6290944 C4.6666752,20.6290944 4.51968,20.6923776 4.4310528,20.818944 C4.3424256,20.9455104 4.298112,21.1310592 4.298112,21.3755904 C4.298112,21.619968 4.343808,21.8068992 4.4352,21.936384 C4.526592,22.0658688 4.6718976,22.1302272 4.8711168,22.1294592 L4.8711168,22.1303808 Z M7.3776384,20.2581504 C7.6928256,20.2581504 7.9319808,20.3533824 8.095104,20.5438464 C8.2582272,20.7343104 8.3400192,21.0041088 8.34048,21.3532416 C8.34048,21.7741056 8.24271362,22.071936 8.0471808,22.2467328 C7.85164798,22.4215296 7.60312322,22.509312 7.3016064,22.51008 C6.696576,22.51008 6.3940608,22.348032 6.3940608,22.023936 L6.3940608,19.446912 L6.8332032,19.446912 L6.8332032,20.3904 C6.92150774,20.3482025 7.01424012,20.315978 7.1096832,20.2943232 C7.19730518,20.2718335 7.28720202,20.2593886 7.3776384,20.2572288 L7.3776384,20.2581504 Z M7.2677376,22.121856 C7.4981376,22.121856 7.6594176,22.05504 7.7515776,21.921408 C7.8437376,21.787776 7.8898176,21.6043776 7.8898176,21.3712128 C7.8898176,21.1325184 7.84127998,20.9505792 7.7442048,20.8253952 C7.64712962,20.7002112 7.502976,20.637696 7.311744,20.637849 C7.22843096,20.6384119 7.14549439,20.6490884 7.0647552,20.6696448 C6.98393543,20.6891644 6.90634166,20.7202019 6.83434913,20.7618048 L6.83434913,21.9138048 C6.83358722,22.0520448 6.97804802,22.121088 7.2677376,22.1209344 L7.2677376,22.121856 Z M8.8413696,19.558656 L9.3141504,19.558656 L9.3141504,19.9639296 L8.8413696,19.9639296 L8.8413696,19.558656 Z M8.8540416,20.317824 L9.2973312,20.317824 L9.3014784,22.4460288 L8.8540416,22.4460288 L8.8540416,20.317824 Z M9.9254016,22.4460288 L9.9254016,19.4939136 L10.364544,19.4939136 L10.364544,22.4451072 L9.9254016,22.4460288 Z M11.849472,20.25216 C12.1787904,20.25216 12.420096,20.35968 12.5733888,20.57472 C12.7266816,20.78976 12.8019456,21.090432 12.7991808,21.476736 L11.31264,21.476736 C11.3269248,21.687168 11.3883648,21.8471424 11.49696,21.9566592 C11.6055552,22.066176 11.759616,22.1208576 11.9591424,22.120704 C12.1981777,22.1209577 12.4334012,22.0608045 12.6429696,21.9458304 L12.6429696,22.363776 C12.4234752,22.461312 12.172032,22.51008 11.88864,22.51008 C11.570688,22.51008 11.3209344,22.4126976 11.1393792,22.2179328 C10.957824,22.023168 10.8671232,21.746688 10.8672764,21.3884928 C10.8672764,21.021696 10.9530624,20.740992 11.1246336,20.5463808 C11.2962048,20.3517696 11.5378176,20.253696 11.849472,20.25216 Z M11.8368,20.6208 C11.6876544,20.6208 11.5709184,20.6606592 11.486592,20.7403776 C11.4022656,20.820096 11.3473536,20.9551104 11.321856,21.1454208 L12.3475968,21.1454208 C12.3277824,20.9634048 12.2770944,20.8305408 12.1955328,20.7468288 C12.1139712,20.6631168 11.9943936,20.6211072 11.8368,20.6208 Z M7.6032,3.0749184 C7.1142912,2.9540352 6.73797122,2.8935168 6.47424,2.8933632 C4.5068544,2.8933632 2.9117952,4.4831232 2.9117952,6.4435968 C2.9117952,8.4040704 4.5075456,9.9940608 6.47424,9.9940608 C8.4409344,9.9940608 10.0369152,8.4043008 10.0369152,6.4435968 C10.0370532,6.15717498 10.0025498,5.87178766 9.9341568,5.5936512 L12.766464,4.8307968 C13.2304621,6.59477923 12.9235132,8.47282072 11.922048,9.9972864 L7.2320256,18.692352 L2.8871424,18.692352 L5.9745024,13.001472 C5.9913216,12.9701376 5.9417856,12.9010176 5.9003136,12.8973312 C2.601216,12.5978112 0.0170496,9.8330112 0.0170496,6.4670976 C0.0170496,2.900736 2.9177856,0.00989939315 6.4963584,0.00989939315 C7.15144159,0.00918694449 7.80286176,0.107606855 8.4284928,0.301824 L7.6032,3.0749184 Z" id="Shape" fill="#006E53" fill-rule="nonzero"></path>
                                                    <circle id="Oval" fill="#D6E806" fill-rule="nonzero" cx="6.4528128" cy="6.4435968" r="1.95264"></circle>
                                                    <path d="M9.8256384,5.1123456 C9.48735383,4.26552776 8.83534487,3.58190876 8.0054784,3.2039424 M11.068416,4.5796608 C10.5906511,3.40519361 9.68728625,2.45427025 8.5388544,1.916928 M12.2667264,4.1803776 C11.658173,2.63203922 10.4614693,1.38754037 8.9381376,0.718848" id="Shape" stroke="#D6E806" stroke-width="0.5" stroke-linecap="round"></path>
                                                </g>
                                            </g>
                                            <g id="Group-18-Copy" transform="translate(89.971200, 8.294400)">
                                                <g id="Rectangle-Copy-6">
                                                    <g id="path-10-link" fill="#000000" fill-rule="nonzero">
                                                        <rect id="path-10" x="0" y="0" width="40.0896" height="40.0896" rx="8.9856"></rect>
                                                    </g>
                                                    <g id="path-10-link" fill="#FFFFFF">
                                                        <rect id="path-10" x="0" y="0" width="40.0896" height="40.0896" rx="8.9856"></rect>
                                                    </g>
                                                </g>
                                                <g id="Airtel-Nigeria-Logo" transform="translate(10.252800, 8.409600)" fill="#E20010" fill-rule="nonzero">
                                                    <path d="M12.439296,0.0059904 C13.20192,0.0165888 13.9295232,0.16128 14.6089728,0.50688 C15.2080128,0.8135424 15.6964608,1.2423168 16.0298496,1.8332928 C16.2465187,2.22342396 16.3886406,2.65049299 16.4489472,3.0926592 C16.5729024,3.9414528 16.4475648,4.7625984 16.1676288,5.5655424 C16.0031232,6.03648 15.775488,6.4781568 15.52896,6.912 C15.026688,7.7951232 14.3813376,8.560512 13.6306944,9.23904 C12.6676457,10.1104158 11.6115801,10.8731041 10.4815872,11.5133184 C10.0438272,11.7605376 9.5899392,11.968128 9.1017216,12.0950784 C8.802634,12.1758596 8.49382065,12.2149361 8.1840384,12.2112 C7.7762304,12.2029056 7.4571264,12.0172032 7.2089856,11.70432 C6.97984825,11.4235054 6.86178645,11.0683362 6.8772096,10.7062272 C6.87990753,10.6054933 6.89444582,10.5054265 6.9205248,10.4080896 C7.0682112,9.8834688 7.2688896,9.3809664 7.5688704,8.9227008 C7.7981184,8.5727232 8.0713728,8.2619136 8.4287232,8.0395776 C8.8261632,7.792128 9.2581632,7.6863744 9.7254144,7.7884416 C9.87149318,7.82268572 10.0089703,7.88660122 10.1293056,7.9762176 C10.4368896,8.1960192 10.4207616,8.540928 10.2730752,8.7611904 C10.1465528,8.95260372 10.0051081,9.13372387 9.8500608,9.3028608 C9.5874048,9.585792 9.3083904,9.8532864 9.0360576,10.1270016 C8.7950592,10.369152 8.568576,10.6232832 8.3849472,10.912896 C8.289792,11.0631168 8.2020096,11.2163328 8.175744,11.396736 C8.1425664,11.6229888 8.2600704,11.7771264 8.4883968,11.7983232 C8.60653325,11.8079629 8.72543768,11.7960178 8.839296,11.763072 C9.1901952,11.6660736 9.5159808,11.509632 9.8360064,11.3409792 C10.3295232,11.079936 10.785024,10.760832 11.2290048,10.4242176 C11.7672192,10.0161792 12.2904576,9.5906304 12.7726848,9.1173888 C13.3219584,8.578944 13.8115584,7.993728 14.1861888,7.3184256 C14.459904,6.8253696 14.661504,6.3046656 14.7511296,5.746176 C14.8303872,5.254272 14.7861504,4.77504 14.5582848,4.323456 C14.4485544,4.10024772 14.2769125,3.91332923 14.0638464,3.7850112 C13.9654666,3.72578671 13.8569568,3.68532013 13.7438208,3.665664 C13.332096,3.5926272 12.9337344,3.6525312 12.5422848,3.783168 C12.1342464,3.9195648 11.7556992,4.1186304 11.3877504,4.336128 C10.589184,4.8098304 9.789696,5.2833024 9.0286848,5.8166784 C8.6471424,6.0839424 8.2773504,6.368256 7.9034112,6.6461184 C7.5656448,6.8972544 7.2301824,7.1513856 6.8610816,7.356672 C6.56154812,7.52723424 6.23735672,7.65027308 5.9000832,7.7213952 C5.4821376,7.8061824 5.0969088,7.7273856 4.7430144,7.5002112 C4.3757568,7.264512 4.1186304,6.9410304 4.0057344,6.5129472 C3.9338496,6.242688 3.9621888,5.9747328 4.0241664,5.7079296 C4.1147136,5.3162496 4.286592,4.9614336 4.500864,4.6250496 C5.030784,3.7942272 5.6971008,3.0894336 6.471936,2.4869376 C7.6202496,1.5941376 8.8837632,0.906624 10.250496,0.4091904 C10.9521922,0.152518315 11.6921991,0.0162012504 12.439296,0.0059904 Z" id="Path"></path>
                                                    <path d="M2.9919744,19.001088 C2.9880576,18.7402752 2.958336,18.505728 2.8076544,18.3022848 C2.73427809,18.2039794 2.63269293,18.1303623 2.5164288,18.0912384 C2.2169088,17.983872 1.9118592,17.996544 1.6144128,18.0884736 C1.3759488,18.1622016 1.1460096,18.262656 0.9126144,18.3522816 C0.8665344,18.3693312 0.8246016,18.3912192 0.7688448,18.4161024 C0.658944,18.1435392 0.5508864,17.87904 0.43776,17.60256 C0.6015744,17.5249152 0.7559424,17.4456576 0.9151488,17.3776896 C1.2819456,17.2207872 1.662336,17.1131904 2.0623104,17.0889984 C2.4622848,17.0648064 2.85696,17.0860032 3.220992,17.28 C3.6327168,17.4979584 3.9299328,17.8126848 4.0543488,18.27072 C4.07229924,18.3306718 4.08305006,18.392547 4.0863744,18.45504 C4.102272,19.0497024 4.1236992,19.6443648 4.1262336,20.2390272 C4.1278464,20.6454528 4.10112,21.0521088 4.0891392,21.4587648 C4.08699831,21.51452 4.06377722,21.5673851 4.0241664,21.6066816 C3.7396224,21.9200256 3.391488,22.1366016 2.9970432,22.281984 C2.5740707,22.4363222 2.12363377,22.5010514 1.6743168,22.472064 C1.2595968,22.449024 0.9015552,22.2792192 0.5988096,21.99744 C0.296064,21.7156608 0.0845568,21.37536 0.0255744,20.958336 C-0.0550656,20.3871744 0.1096704,19.891584 0.5202432,19.483776 C0.7842816,19.2215808 1.1096064,19.0861056 1.4761728,19.0381824 C1.8816768,18.9854208 2.2885632,18.9994752 2.6954496,19.0006272 L2.9919744,19.001088 Z M2.938752,19.9296 C2.91485159,19.9248839 2.89069479,19.9215758 2.8664064,19.9196928 C2.7281664,19.916928 2.5883136,19.9120896 2.4493824,19.9141632 C2.2828032,19.9166976 2.1155328,19.9173888 1.9498752,19.933056 C1.778688,19.9494144 1.6125696,19.9994112 1.4798592,20.1136896 C1.2595968,20.3035392 1.1941632,20.5514496 1.2478464,20.8309248 C1.3146624,21.1765248 1.5077376,21.417984 1.8519552,21.5207424 C2.0294398,21.5738294 2.21737273,21.5817491 2.3986944,21.5437824 C2.56723241,21.5129358 2.72443448,21.437517 2.8539648,21.3253632 C2.89833178,21.2909547 2.92563825,21.2390304 2.9288448,21.182976 C2.934144,21.0615552 2.9498112,20.9403648 2.9507328,20.818944 C2.952576,20.5408512 2.9484288,20.2627584 2.9461248,19.9846656 C2.94474398,19.9661822 2.94228217,19.9477956 2.938752,19.9296 Z" id="Shape"></path>
                                                    <path d="M16.8498432,19.90656 C15.8614272,19.90656 14.8914432,19.8853632 13.9078656,19.911168 C13.9129344,19.980288 13.9159296,20.0457216 13.9221504,20.1095424 C13.9474944,20.3705856 14.003712,20.624256 14.1140736,20.8636416 C14.1998845,21.0589016 14.3330905,21.2296462 14.5016064,21.360384 C14.7688704,21.5633664 15.07392,21.596544 15.3939456,21.5553024 C15.6584448,21.5212032 15.9047424,21.4244352 16.1503488,21.326976 C16.2630144,21.2825088 16.3747584,21.234816 16.4959488,21.18528 C16.6111488,21.4262784 16.7240448,21.6631296 16.8415488,21.9068928 C16.8198912,21.92256 16.799616,21.9400704 16.7770368,21.9529728 C16.2978048,22.2372864 15.7830912,22.4204544 15.227136,22.4688384 C14.720256,22.5128448 14.236416,22.4296704 13.798656,22.1492736 C13.5005184,21.958272 13.291776,21.6884736 13.1171328,21.3866496 C12.9020409,21.0111396 12.7718084,20.5930746 12.7355904,20.1618432 C12.6624768,19.3755648 12.82944,18.6435072 13.23648,17.9656704 C13.5203328,17.4945024 13.9440384,17.238528 14.4744192,17.1502848 C14.9619415,17.0645599 15.4641199,17.1481343 15.8976,17.387136 C16.1404416,17.5186944 16.3095552,17.725824 16.4489472,17.9580672 C16.6332672,18.2642688 16.7302656,18.6018048 16.7768064,18.951552 C16.814592,19.2335616 16.8265728,19.5190272 16.849152,19.804032 C16.8519168,19.8332928 16.8498432,19.8637056 16.8498432,19.90656 Z M15.6517632,19.011456 C15.5943936,18.7485696 15.5552256,18.4799232 15.3831168,18.2571264 C15.2968032,18.1463951 15.1755703,18.0681175 15.0391296,18.0350208 C14.6762496,17.938944 14.3115264,18.1062144 14.1555456,18.4497408 C14.0997888,18.5720832 14.067072,18.705024 14.0265216,18.8338176 C14.00832,18.8921088 13.9965696,18.952704 13.9820544,19.011456 C14.0795136,19.0372608 15.552,19.0384128 15.652224,19.0121472 L15.6517632,19.011456 Z" id="Shape"></path>
                                                    <path d="M10.365696,15.8909184 L11.5451136,15.7084416 L11.5451136,17.1569664 C11.806848,17.1726336 12.0561408,17.155584 12.306816,17.1825408 L12.306816,18.07488 C12.053376,18.0790272 11.8052352,18.071424 11.546496,18.0870912 C11.546496,18.1373184 11.546496,18.1748736 11.546496,18.2124288 C11.5443456,19.07136 11.5425024,19.930368 11.5409664,20.7894528 C11.5409664,20.9246976 11.5517952,21.0601728 11.5640064,21.1949568 C11.58336,21.4023168 11.6983296,21.5338752 11.8992384,21.5843328 C12.0100608,21.6124416 12.1238784,21.6283392 12.2363136,21.6497664 L12.3492096,21.6728064 L12.3492096,22.4301312 C12.3365233,22.436405 12.3230333,22.4409017 12.30912,22.4434944 C11.9743488,22.4584704 11.64096,22.4497152 11.317248,22.3513344 C11.0011392,22.2559488 10.7375616,22.0831488 10.5587712,21.7983744 C10.4571648,21.6370944 10.4055552,21.4557696 10.3832064,21.2684544 C10.3696975,21.1511319 10.3630813,21.0331181 10.3633718,20.9150208 C10.3633718,19.2837888 10.3643136,17.6527104 10.3661568,16.0217856 L10.365696,15.8909184 Z" id="Path"></path>
                                                    <path d="M17.4981888,15.89184 L18.6386688,15.6941568 L18.6386688,15.85152 C18.6386688,17.332992 18.6392832,18.814464 18.640512,20.295936 C18.640512,20.5671168 18.642816,20.8382976 18.6448896,21.1097088 C18.6467328,21.3774336 18.7444224,21.5138304 19.0001664,21.5935488 C19.0870754,21.6175787 19.1753157,21.6365038 19.2644352,21.6502272 C19.3188096,21.6603648 19.3738752,21.6652032 19.44,21.6732672 L19.44,22.4469504 C19.433858,22.4520406 19.4265919,22.4555947 19.4188032,22.4573184 C19.0948608,22.4704512 18.7723008,22.465152 18.457344,22.372992 C18.2665013,22.3180605 18.0888038,22.2249398 17.9350272,22.0992768 C17.64864,21.86496 17.5320576,21.5509248 17.5021056,21.1968 C17.4933504,21.09312 17.4945024,20.988288 17.4947328,20.8841472 C17.4947328,19.2635136 17.4958848,17.6430336 17.4981888,16.0227072 L17.4981888,15.89184 Z" id="Path"></path>
                                                    <path d="M8.0727552,22.3785216 L6.9207552,22.3785216 C6.9193728,22.330368 6.9170688,22.2863616 6.9168384,22.242816 C6.91560962,21.5506944 6.91461118,20.8585728 6.9138432,20.1664512 C6.9124608,19.6134912 6.9090048,19.0605312 6.90921422,18.5075712 C6.90959912,18.4073028 6.91729972,18.3071955 6.9322752,18.2080512 C6.9493248,18.0949248 7.0085376,18.0006912 7.0907904,17.9212032 C7.543296,17.4806784 8.0854272,17.21664 8.7035904,17.1028224 C9.09099412,17.0317852 9.48803743,17.0312389 9.8756352,17.1012096 C9.8961408,17.104896 9.9166464,17.109504 9.9366912,17.1145728 C9.9465984,17.1171072 9.9560448,17.1219456 9.975168,17.1293184 C9.8443008,17.462016 9.684864,17.779968 9.5346432,18.0942336 C9.3551616,18.0942336 9.1851264,18.0889344 9.015552,18.0953856 C8.7227079,18.1051076 8.43524012,18.1767194 8.1720576,18.3055104 C8.097408,18.342144 8.0695296,18.3877632 8.06976,18.4737024 C8.0729856,19.7332224 8.07375358,20.9927424 8.072064,22.2522624 L8.0727552,22.3785216 Z" id="Path"></path>
                                                    <path d="M6.07104,17.2058112 C6.0832512,18.931968 6.069888,20.6479872 6.0809472,22.3746048 L4.9536,22.3746048 C4.9508352,22.3329024 4.9453056,22.2893568 4.9453056,22.2458112 C4.9453056,21.1606272 4.9453056,20.0752896 4.9453056,18.9897984 C4.9453056,18.4923648 4.9494528,17.9949312 4.9515264,17.4974976 C4.9515264,17.459712 4.9515264,17.4219264 4.9515264,17.374464 L6.07104,17.2058112 Z" id="Path"></path>
                                                    <path d="M5.46048,16.6977849 C4.9100544,16.6963968 4.565376,16.1485056 4.7937024,15.6312576 C4.934016,15.3139968 5.1750144,15.1934976 5.522688,15.1955712 C5.9885568,15.199488 6.3339264,15.6628224 6.2228736,16.1155584 C6.1341696,16.4772864 5.8438656,16.6987008 5.46048,16.6977849 Z" id="Path"></path>
                                                </g>
                                            </g>
                                            <g id="Group-18-Copy-3" transform="translate(43.891200, 8.294400)">
                                                <g id="Rectangle-Copy-6">
                                                    <g id="path-12-link" fill="#000000" fill-rule="nonzero">
                                                        <rect id="path-12" x="0" y="0" width="40.0896" height="40.0896" rx="8.9856"></rect>
                                                    </g>
                                                    <g id="path-12-link" fill="#FFFFFF">
                                                        <rect id="path-12" x="0" y="0" width="40.0896" height="40.0896" rx="8.9856"></rect>
                                                    </g>
                                                </g>
                                                <g id="Globacom-Limited-Logo" transform="translate(6.912000, 6.912000)" fill-rule="nonzero">
                                                    <circle id="Oval" fill="#50B651" cx="12.9528115" cy="12.9929011" r="11.1086899"></circle>
                                                    <path d="M24.0274944,12.9616589 C24.0274944,19.1161037 19.0384128,24.1051853 12.8853504,24.1051853 C6.732288,24.1051853 1.741824,19.1161037 1.741824,12.9616589 C1.741824,10.2391603 1.81813248,9.8343936 2.88976896,8.28444672 C2.88976896,8.28444672 2.83447296,10.0351181 4.1181696,11.0768947 C4.91636736,11.7241344 5.7494016,11.2568832 7.2741888,10.554624 C8.92366848,9.794304 10.2645965,9.30382848 11.3107968,9.43322112 C12.8867328,9.628416 17.7442099,12.5455565 20.279255,11.964672 C22.304471,11.501568 22.090752,6.7267584 22.090752,6.7267584 C24.302592,8.88662016 24.0274944,10.3464346 24.0274944,12.9616589 Z" id="Path" fill="url(#linearGradient-7)" opacity="0.662999988"></path>
                                                    <path d="M17.667072,21.1468493 C21.6972288,17.3559398 22.3671398,13.012992 19.6768051,8.11800576 C19.6904448,8.12795904 19.8568858,7.55361792 20.176128,6.3949824 C21.6079258,8.12888064 22.3692595,10.2690202 22.4601293,12.815401 C22.459392,16.113623 20.8617062,18.8907725 17.667072,21.1468493 Z" id="Path" fill="url(#linearGradient-8)" opacity="0.586000025"></path>
                                                    <path d="M15.7554893,6.41793024 C13.810176,5.34131712 11.5784294,3.17564928 11.8750925,2.72083968 C12.1717555,2.26603008 16.0222925,2.34427392 17.9678822,3.42088704 C19.913472,4.49750016 21.5693107,7.72706304 21.2729242,8.18187264 C20.9765376,8.63668224 17.7008026,7.49454336 15.7554893,6.41793024 Z" id="Path" fill="url(#radialGradient-9)" opacity="0.744000018"></path>
                                                    <path d="M17.4500352,15.7286707 C15.8362214,15.7286707 14.5279181,14.3830426 14.5279181,12.7233331 C14.5279181,11.0636237 15.8362214,9.718272 17.4500352,9.718272 C19.063849,9.718272 20.3724288,11.0636237 20.3724288,12.7233331 C20.3724288,14.3830426 19.0641254,15.7286707 17.4500352,15.7286707 Z M17.4707712,14.7753677 C18.4779878,14.7753677 19.2955392,13.8566246 19.2955392,12.7233331 C19.2955392,11.5900416 18.4779878,10.672128 17.4707712,10.672128 C16.4635546,10.672128 15.6460032,11.590871 15.6460032,12.7238861 C15.6460032,13.8569011 16.4635546,14.7753677 17.4707712,14.7753677 Z" id="Shape" fill="#FFFFFF"></path>
                                                    <polygon id="Path" fill="#FFFFFF" points="11.4208358 7.29851904 13.5265075 7.29851904 13.5265075 15.6952166 12.3705446 15.6952166 12.3705446 8.21947392 11.4208358 8.21947392"></polygon>
                                                    <path d="M9.85153536,9.80370432 L10.9444608,9.80370432 L10.9444608,16.8157901 C10.9444608,17.4547354 10.2723379,18.1202227 9.6173568,18.406656 C9.3076992,18.5419469 8.7363072,18.6223104 7.9031808,18.6477466 L7.9031808,17.9501875 C8.71805952,17.8593178 9.2680704,17.678039 9.55321344,17.4063514 C9.71775187,17.1777023 9.82059137,16.9105102 9.85181184,16.6305485 L9.85181184,14.570496 C9.55966464,15.1903642 9.19176192,15.6013056 8.74810368,15.8033203 C8.28693504,16.0521523 7.34828544,16.0112333 6.96508416,15.8033203 C6.58188288,15.5954074 6.01979904,15.047977 5.76211968,14.2326374 C5.69078784,14.0075827 5.51328768,13.3951795 5.53181184,12.746281 C5.54840064,12.1283482 5.75299584,11.474473 5.92303104,11.2057344 C6.21499392,10.7467776 6.67533312,10.1719757 7.37261568,9.93171456 C7.71323904,9.81430272 8.34453504,9.77209344 9.26650368,9.80508672 L9.26650368,10.498775 C8.58138624,10.4525107 8.15394816,10.4756429 7.98418944,10.5681715 C7.72955136,10.7064115 7.15474944,10.8769997 6.96508416,12.1297306 C6.77541888,13.3824614 6.97061376,14.4076493 7.57195776,14.7286426 C7.77793536,14.8392346 8.142336,14.9700096 8.47908864,14.8547174 C9.12605184,14.6335334 9.7348608,13.844736 9.78130944,13.3103002 C9.82812672,12.7680307 9.85153536,11.5991654 9.85153536,9.80370432 Z" id="Path" fill="#FFFFFF"></path>
                                                    <path d="M23.6783002,15.192023 C22.6462003,20.161751 18.2424269,23.8958899 12.966912,23.8958899 C6.92499456,23.8958899 2.02687488,18.9977702 2.02687488,12.9558528 C2.02687488,9.20236032 3.91716864,5.8904064 6.79753728,3.9204864 C4.45713408,5.861376 2.96690688,8.7934464 2.96690688,12.0722227 C2.96690688,17.9206042 7.70798592,22.6614067 13.5560909,22.6614067 C18.3187354,22.6614067 22.346496,19.5175526 23.6783002,15.192023 Z" id="Path" fill="url(#radialGradient-10)"></path>
                                                    <path d="M12.966912,0 C5.8116096,0 0.01078272,5.8005504 0.01078272,12.9558528 C0.01078272,20.1111552 5.8116096,25.9119821 12.966912,25.9119821 C20.1222144,25.9119821 25.9230413,20.1111552 25.9230413,12.9558528 C25.9230413,5.8005504 20.1222144,0 12.966912,0 Z M12.966912,23.8961664 C6.92499456,23.8961664 2.02687488,18.9980467 2.02687488,12.9561293 C2.02687488,9.2026368 3.91716864,5.89068288 6.79753728,3.92076288 C8.61409296,2.67662148 10.7651511,2.01242901 12.966912,2.01579001 C19.0088294,2.01579001 23.9069521,6.91365888 23.9069521,12.9558528 C23.9073424,13.7070976 23.8307256,14.456404 23.6783002,15.192023 C22.6462003,20.161751 18.2424269,23.8958899 12.966912,23.8958899 L12.966912,23.8961664 Z" id="Shape" fill="#FFFFFF"></path>
                                                </g>
                                            </g>
                                            <g id="Group-18-Copy-2" transform="translate(0.115200, 8.294400)">
                                                <g id="Rectangle-Copy-6">
                                                    <g id="path-18-link" fill="#000000" fill-rule="nonzero">
                                                        <rect id="path-18" x="0" y="0" width="40.0896" height="40.0896" rx="8.9856"></rect>
                                                    </g>
                                                    <g id="path-18-link" fill="#FFFFFF">
                                                        <rect id="path-18" x="0" y="0" width="40.0896" height="40.0896" rx="8.9856"></rect>
                                                    </g>
                                                </g>
                                                <g id="MTN-Logo" transform="translate(7.488000, 7.488000)">
                                                    <rect id="Rectangle" fill="#FFC325" fill-rule="nonzero" x="0" y="0" width="24.768" height="24.768"></rect>
                                                    <path d="M0.576,12.6722487 C0.576,10.1273058 5.99157602,8.064 12.672,8.064 C19.352424,8.064 24.768,10.1278032 24.768,12.6724973 C24.768,15.2171915 19.3526786,17.28 12.672,17.28 C5.99132143,17.28 0.576,15.2169428 0.576,12.6722487 Z" id="Path" fill="#006891" fill-rule="nonzero"></path>
                                                    <path d="M0.576,12.6722487 C0.576,10.1273058 5.99157602,8.064 12.672,8.064 C19.352424,8.064 24.768,10.1278032 24.768,12.6724973 C24.768,15.2171915 19.3526786,17.28 12.672,17.28 C5.99132143,17.28 0.576,15.2169428 0.576,12.6722487 Z" id="Path" stroke="#006891" stroke-width="0.5"></path>
                                                    <polygon id="Path" fill="#FFFFFF" fill-rule="nonzero" points="5.184 14.4 6.38791569 9.792 8.28815414 9.792 8.28815414 12.5021759 8.30060594 12.5021759 9.5897308 9.792 11.52 9.792 10.3160843 14.4 9.0613849 14.4 9.83315076 11.444241 9.82069903 11.444241 8.28815414 14.4 7.28346684 14.4 7.28346684 11.444241 7.26295801 11.444241 6.4911922 14.4"></polygon>
                                                    <polygon id="Path" fill="#EE4034" fill-rule="nonzero" points="11.52 14.976 11.7098305 14.4 13.248 14.4 13.0578983 14.976"></polygon>
                                                    <polygon id="Path" fill="#FFC325" fill-rule="nonzero" points="12.1309982 13.824 12.8974842 11.025656 11.52 11.025656 11.8579592 9.792 16.128 9.792 15.790308 11.025656 14.4128238 11.025656 13.6466048 13.8232155"></polygon>
                                                    <polygon id="Path" fill="#FFFFFF" fill-rule="nonzero" points="14.976 14.4 16.2014402 9.792 17.5865258 9.792 18.2114307 12.2575942 18.2236155 12.2575942 18.879604 9.792 20.16 9.792 18.9343111 14.4 17.6166147 14.4 16.9379974 11.8833365 16.9258126 11.8833365 16.256396 14.4"></polygon>
                                                </g>
                                            </g>
                                            <path d="M196.466688,34.166016 C196.715521,34.166016 196.909055,34.2282234 197.047296,34.35264 C197.185537,34.4770566 197.254656,34.6498549 197.254656,34.87104 C197.254656,35.3548824 196.992003,35.5968 196.466688,35.5968 L188.338176,35.5968 C188.103167,35.5968 187.909633,35.5242247 187.757568,35.379072 C187.605503,35.2339193 187.529472,35.057665 187.529472,34.850304 C187.529472,34.6204788 187.603559,34.4171165 187.751736,34.2402122 L192.817152,28.670976 C193.508355,27.8968281 194.00947,27.2021791 194.320512,26.587008 C194.631554,25.9718369 194.787072,25.3532191 194.787072,24.731136 C194.787072,23.92934 194.555522,23.3141781 194.092416,22.885632 C193.62931,22.4570859 192.976132,22.242816 192.132864,22.242816 C191.469309,22.242816 190.833411,22.3637748 190.225152,22.605696 C189.616893,22.8476172 189.008643,23.2174055 188.400384,23.715072 C188.193023,23.8809608 187.999489,23.963904 187.819776,23.963904 C187.667711,23.963904 187.536385,23.8913287 187.425792,23.746176 C187.315199,23.6010233 187.259904,23.424769 187.259904,23.217408 C187.259904,22.9593587 187.347284,22.7450031 187.522048,22.5743362 L187.59168,22.512384 C188.158467,21.9870694 188.84966,21.5723535 189.66528,21.268224 C190.4809,20.9640945 191.317244,20.812032 192.174336,20.812032 C193.487622,20.812032 194.53478,21.1576285 195.31584,21.848832 C196.0969,22.540032 196.487424,23.4731461 196.487424,24.648192 C196.487424,25.4914602 196.297346,26.3001561 195.917184,27.074304 C195.537022,27.8484519 194.911493,28.7124432 194.040576,29.666304 L189.893376,34.166016 L196.466688,34.166016 Z M200.717568,33.357312 C201.06317,33.357312 201.343103,33.4920947 201.557376,33.761664 C201.771649,34.0312333 201.878784,34.4355813 201.878784,34.97472 C201.878784,36.0668215 201.526275,36.9861083 200.821248,37.732608 C200.683007,37.8846727 200.524033,37.960704 200.34432,37.960704 C200.206079,37.960704 200.081665,37.9088645 199.971072,37.805184 C199.860479,37.7015035 199.805184,37.5805447 199.805184,37.442304 C199.805184,37.2902393 199.860479,37.1589126 199.971072,37.04832 C200.330498,36.6750702 200.558591,36.2119708 200.65536,35.659008 C200.35123,35.6313599 200.098945,35.517313 199.898496,35.316864 C199.698047,35.116415 199.597824,34.8572176 199.597824,34.539264 C199.597824,34.1936623 199.704959,33.9102731 199.919232,33.689088 C200.133505,33.4679029 200.399614,33.357312 200.717568,33.357312 Z M209.343744,35.762688 C207.671031,35.762688 206.399237,35.1267903 205.52832,33.854976 C204.657403,32.5831617 204.221952,30.7307642 204.221952,28.297728 C204.221952,25.8508678 204.657403,23.9915583 205.52832,22.719744 C206.399237,21.4479297 207.671031,20.812032 209.343744,20.812032 C211.016457,20.812032 212.288251,21.4444737 213.159168,22.709376 C214.030085,23.9742783 214.465536,25.8301318 214.465536,28.276992 C214.465536,30.7238522 214.030085,32.5831617 213.159168,33.854976 C212.288251,35.1267903 211.016457,35.762688 209.343744,35.762688 Z M209.343744,34.331904 C210.504966,34.331904 211.362045,33.8411569 211.915008,32.859648 C212.467971,31.8781391 212.744448,30.3506024 212.744448,28.276992 C212.744448,26.1895576 212.471427,24.6620208 211.925376,23.694336 C211.379325,22.7266512 210.51879,22.242816 209.343744,22.242816 C208.182522,22.242816 207.325443,22.7301071 206.77248,23.704704 C206.219517,24.6793009 205.94304,26.2033816 205.94304,28.276992 C205.94304,30.3506024 206.219517,31.8781391 206.77248,32.859648 C207.325443,33.8411569 208.182522,34.331904 209.343744,34.331904 Z M221.785344,35.762688 C220.112631,35.762688 218.840837,35.1267903 217.96992,33.854976 C217.099003,32.5831617 216.663552,30.7307642 216.663552,28.297728 C216.663552,25.8508678 217.099003,23.9915583 217.96992,22.719744 C218.840837,21.4479297 220.112631,20.812032 221.785344,20.812032 C223.458057,20.812032 224.729851,21.4444737 225.600768,22.709376 C226.471685,23.9742783 226.907136,25.8301318 226.907136,28.276992 C226.907136,30.7238522 226.471685,32.5831617 225.600768,33.854976 C224.729851,35.1267903 223.458057,35.762688 221.785344,35.762688 Z M221.785344,34.331904 C222.946566,34.331904 223.803645,33.8411569 224.356608,32.859648 C224.909571,31.8781391 225.186048,30.3506024 225.186048,28.276992 C225.186048,26.1895576 224.913027,24.6620208 224.366976,23.694336 C223.820925,22.7266512 222.96039,22.242816 221.785344,22.242816 C220.624122,22.242816 219.767043,22.7301071 219.21408,23.704704 C218.661117,24.6793009 218.38464,26.2033816 218.38464,28.276992 C218.38464,30.3506024 218.661117,31.8781391 219.21408,32.859648 C219.767043,33.8411569 220.624122,34.331904 221.785344,34.331904 Z M234.226944,20.812032 C235.899657,20.812032 237.171451,21.4444737 238.042368,22.709376 C238.913285,23.9742783 239.348736,25.8301318 239.348736,28.276992 C239.348736,30.7238522 238.913285,32.5831617 238.042368,33.854976 C237.171451,35.1267903 235.899657,35.762688 234.226944,35.762688 C232.554231,35.762688 231.282437,35.1267903 230.41152,33.854976 C229.540603,32.5831617 229.105152,30.7307642 229.105152,28.297728 C229.105152,25.8508678 229.540603,23.9915583 230.41152,22.719744 C231.282437,21.4479297 232.554231,20.812032 234.226944,20.812032 Z M234.226944,22.242816 C233.065722,22.242816 232.208643,22.7301071 231.65568,23.704704 C231.102717,24.6793009 230.82624,26.2033816 230.82624,28.276992 C230.82624,30.3506024 231.102717,31.8781391 231.65568,32.859648 C232.208643,33.8411569 233.065722,34.331904 234.226944,34.331904 C235.388166,34.331904 236.245245,33.8411569 236.798208,32.859648 C237.351171,31.8781391 237.627648,30.3506024 237.627648,28.276992 C237.627648,26.1895576 237.354627,24.6620208 236.808576,23.694336 C236.262525,22.7266512 235.40199,22.242816 234.226944,22.242816 Z" id="2,000" fill="#242F40" fill-rule="nonzero"></path>
                                            <path d="M279.412531,22.005504 C279.645697,22.005504 279.833817,22.0823417 279.976896,22.2360192 C280.119975,22.3896967 280.191514,22.5884148 280.191514,22.8321792 L280.191514,32.5456128 C280.191514,32.7893772 280.117325,32.9880953 279.968947,33.1417728 C279.820569,33.2954503 279.6298,33.372288 279.396634,33.372288 C279.121074,33.372288 278.909108,33.266305 278.76073,33.054336 L272.52887,24.8352768 L272.52887,32.5456128 C272.52887,32.7893772 272.457332,32.9880953 272.314253,33.1417728 C272.171174,33.2954503 271.983054,33.372288 271.749888,33.372288 C271.516722,33.372288 271.331252,33.2980999 271.193472,33.1497216 C271.055692,33.0013433 270.986803,32.7999757 270.986803,32.5456128 L270.986803,22.8321792 C270.986803,22.5884148 271.060991,22.3896967 271.20937,22.2360192 C271.357748,22.0823417 271.548517,22.005504 271.781683,22.005504 C272.057243,22.005504 272.269209,22.111487 272.417587,22.323456 L278.649446,30.5584128 L278.649446,22.8321792 C278.649446,22.5884148 278.718335,22.3896967 278.856115,22.2360192 C278.993895,22.0823417 279.179365,22.005504 279.412531,22.005504 Z M291.224448,27.3470976 C291.425819,27.3470976 291.587443,27.4053882 291.709325,27.5219712 C291.831207,27.6385542 291.892147,27.7975286 291.892147,27.9988992 L291.892147,31.7189376 C291.892147,32.079285 291.841805,32.3389432 291.74112,32.49792 C291.640435,32.6568968 291.441717,32.7840763 291.14496,32.8794624 C290.721022,33.0490377 290.217603,33.1815163 289.634688,33.2769024 C289.051773,33.3722885 288.474166,33.4199808 287.90185,33.4199808 C286.767815,33.4199808 285.787473,33.1921175 284.960794,32.736384 C284.134114,32.2806505 283.503516,31.6235563 283.068979,30.7650816 C282.634442,29.9066069 282.417178,28.8785724 282.417178,27.6809472 C282.417178,26.5045189 282.634442,25.4870827 283.068979,24.628608 C283.503516,23.7701333 284.126166,23.1103895 284.936947,22.6493568 C285.747729,22.1883241 286.698926,21.9578112 287.790566,21.9578112 C288.532458,21.9578112 289.218698,22.0664437 289.849306,22.283712 C290.409846,22.4768394 290.897107,22.7474233 291.311099,23.0954704 L291.462912,23.2296192 C291.674881,23.3991945 291.780864,23.6111603 291.780864,23.8655232 C291.780864,24.0562954 291.727873,24.2179193 291.621888,24.3504 C291.515903,24.4828806 291.388724,24.54912 291.240346,24.54912 C291.144959,24.54912 291.060173,24.5332226 290.985984,24.5014272 C290.911795,24.4696318 290.81641,24.4166403 290.699827,24.3424512 C290.180503,23.9609069 289.708879,23.6932999 289.284941,23.5396224 C288.861002,23.3859449 288.373481,23.3091072 287.822362,23.3091072 C286.614138,23.3091072 285.692087,23.6826971 285.056179,24.429888 C284.420272,25.1770789 284.102323,26.2607545 284.102323,27.6809472 C284.102323,29.1329353 284.428221,30.2325083 285.080026,30.9796992 C285.731831,31.7268901 286.688326,32.10048 287.949542,32.10048 C288.797418,32.10048 289.613487,31.9733005 290.397773,31.7189376 L290.397773,28.5871104 L288.315187,28.5871104 C288.103218,28.5871104 287.936295,28.5314694 287.814413,28.4201856 C287.692531,28.3089018 287.63159,28.1578762 287.63159,27.967104 C287.63159,27.7763318 287.692531,27.6253062 287.814413,27.5140224 C287.936295,27.4027386 288.103218,27.3470976 288.315187,27.3470976 L291.224448,27.3470976 Z M302.797901,22.005504 C303.031067,22.005504 303.219187,22.0823417 303.362266,22.2360192 C303.505345,22.3896967 303.576883,22.5884148 303.576883,22.8321792 L303.576883,32.5456128 C303.576883,32.7893772 303.502695,32.9880953 303.354317,33.1417728 C303.205939,33.2954503 303.015169,33.372288 302.782003,33.372288 C302.506444,33.372288 302.294477,33.266305 302.146099,33.054336 L295.91424,24.8352768 L295.91424,32.5456128 C295.91424,32.7893772 295.842701,32.9880953 295.699622,33.1417728 C295.556543,33.2954503 295.368424,33.372288 295.135258,33.372288 C294.902092,33.372288 294.716621,33.2980999 294.578842,33.1497216 C294.441062,33.0013433 294.372173,32.7999757 294.372173,32.5456128 L294.372173,22.8321792 C294.372173,22.5884148 294.446361,22.3896967 294.594739,22.2360192 C294.743117,22.0823417 294.933887,22.005504 295.167053,22.005504 C295.442612,22.005504 295.654579,22.111487 295.802957,22.323456 L302.034816,30.5584128 L302.034816,22.8321792 C302.034816,22.5884148 302.103705,22.3896967 302.241485,22.2360192 C302.379265,22.0823417 302.564735,22.005504 302.797901,22.005504 Z" id="NGN" fill="#242F40" fill-rule="nonzero" opacity="0.167712984"></path>
                                        </g>
                                        <g id="Group-20-Copy" transform="translate(26.000000, 115.000000)">
                                            <g id="Rectangle">
                                                <g id="path-20-link" fill="#000000" fill-rule="nonzero">
                                                    <rect id="path-20" x="0" y="0" width="279.68" height="51.84" rx="4.48"></rect>
                                                </g>
                                                <g id="path-20-link" fill="#FFFFFF">
                                                    <rect id="path-20" x="0" y="0" width="279.68" height="51.84" rx="4.48"></rect>
                                                </g>
                                            </g>
                                            <g id="Group-18" transform="translate(10.240000, 7.680000)">
                                                <g id="Rectangle-Copy-6">
                                                    <g id="path-22-link" fill="#000000" fill-rule="nonzero">
                                                        <rect id="path-22" x="0" y="0" width="37.12" height="37.12" rx="8.32"></rect>
                                                    </g>
                                                    <g id="path-22-link" fill="#FFFFFF">
                                                        <rect id="path-22" x="0" y="0" width="37.12" height="37.12" rx="8.32"></rect>
                                                    </g>
                                                </g>
                                                <g id="Stockholm-icons-/-Communication-/-Call" transform="translate(1.920000, 3.840000)">
                                                    <rect id="bound" x="0" y="0" width="30.72" height="30.72"></rect>
                                                    <path d="M15.36,2.56 C22.4292448,2.56 28.16,8.2907552 28.16,15.36 C28.16,22.4292448 22.4292448,28.16 15.36,28.16 C8.2907552,28.16 2.56,22.4292448 2.56,15.36 C2.56,8.2907552 8.2907552,2.56 15.36,2.56 Z M20.2229617,8.84025197 C19.9730262,8.59031642 19.5678006,8.59031642 19.317865,8.84025197 L19.317865,8.84025197 L17.2794113,10.8787057 C16.7096585,11.4484585 16.5684101,12.3188703 16.9287534,13.039557 C17.2890967,13.7602436 17.1478483,14.6306554 16.5780955,15.2004082 L16.5780955,15.2004082 L14.8658202,16.9126836 C14.2960673,17.4824364 13.4256555,17.6236848 12.7049689,17.2633414 C11.9842823,16.9029981 11.1138705,17.0442466 10.5441176,17.6139994 L10.5441176,17.6139994 L8.61002522,19.5480918 C8.53976928,19.6183477 8.48683565,19.7039962 8.45541626,19.7982544 C8.34364166,20.1335781 8.52486406,20.4960229 8.86018778,20.6077974 L8.86018778,20.6077974 L10.5930767,21.1854271 C12.2571858,21.7401301 14.0918707,21.3070198 15.3322244,20.066666 L15.3322244,20.066666 L20.4512221,14.9476683 C21.5907277,13.8081628 21.8732245,12.067339 21.1525379,10.6259658 L21.1525379,10.6259658 L20.3428468,9.00658362 C20.3120836,8.94505728 20.2716026,8.8888928 20.2229617,8.84025197 Z" id="Combined-Shape" fill="#EAEDF3"></path>
                                                </g>
                                            </g>
                                            <g id="+234---803584092" transform="translate(56.540160, 21.688320)" fill-rule="nonzero">
                                                <path d="M7.00416,6.09792 C7.13728064,6.09792 7.25247949,6.14399954 7.34976,6.23616 C7.44704051,6.32832046 7.49568,6.44095936 7.49568,6.57408 C7.49568,6.70720064 7.44960045,6.82239949 7.35744,6.91968 C7.26527955,7.01696051 7.1475207,7.0656 7.00416,7.0656 L4.224,7.0656 L4.224,9.8304 C4.224,9.9737607 4.17792046,10.0915196 4.08576,10.18368 C3.99359954,10.2758404 3.88096067,10.32192 3.74784,10.32192 C3.61471933,10.32192 3.50208046,10.2732805 3.40992,10.176 C3.31775954,10.0787195 3.27168,9.96352064 3.27168,9.8304 L3.27168,7.0656 L0.49152,7.0656 C0.358399334,7.0656 0.243200486,7.01696051 0.14592,6.91968 C0.0486395136,6.82239949 8.82209862e-13,6.70720064 8.82209862e-13,6.57408 C8.82209862e-13,6.44095936 0.0486395136,6.32832046 0.14592,6.23616 C0.243200486,6.14399954 0.358399334,6.09792 0.49152,6.09792 L3.27168,6.09792 L3.27168,3.33312 C3.27168,3.18975928 3.31775954,3.06944049 3.40992,2.97216 C3.50208046,2.87487951 3.61471933,2.82624 3.74784,2.82624 C3.88096067,2.82624 3.99359954,2.87487951 4.08576,2.97216 C4.17792046,3.06944049 4.224,3.18975928 4.224,3.33312 L4.224,6.09792 L7.00416,6.09792 Z M16.99072,9.89184 C17.1750409,9.89184 17.3183995,9.93791955 17.4208,10.03008 C17.5232005,10.1222404 17.5744,10.2502392 17.5744,10.41408 C17.5744,10.7724818 17.3798419,10.95168 16.99072,10.95168 L10.9696,10.95168 C10.7955191,10.95168 10.6521606,10.8979205 10.53952,10.7904 C10.4268794,10.6828795 10.37056,10.5523208 10.37056,10.39872 C10.37056,10.2319535 10.4232223,10.083997 10.5285484,9.95484755 L14.28736,5.82144 C14.7993626,5.24799713 15.1705588,4.73344228 15.40096,4.27776 C15.6313612,3.82207772 15.74656,3.3638423 15.74656,2.90304 C15.74656,2.30911703 15.5750417,1.85344159 15.232,1.536 C14.8889583,1.21855841 14.4051231,1.05984 13.78048,1.05984 C13.2889576,1.05984 12.8179222,1.1494391 12.36736,1.32864 C11.9167978,1.5078409 11.4662422,1.78175816 11.01568,2.1504 C10.8620792,2.27328061 10.7187206,2.33472 10.5856,2.33472 C10.4729594,2.33472 10.3756804,2.28096054 10.29376,2.17344 C10.2118396,2.06591946 10.17088,1.93536077 10.17088,1.78176 C10.17088,1.56671892 10.2527992,1.39264067 10.41664,1.25952 C10.8364821,0.870398054 11.348477,0.563201126 11.95264,0.33792 C12.556803,0.112638874 13.1763168,6.36646291e-14 13.8112,6.36646291e-14 C14.7840049,6.36646291e-14 15.5596771,0.25599744 16.13824,0.768 C16.7168029,1.28 17.00608,1.97119565 17.00608,2.8416 C17.00608,3.46624312 16.8652814,4.06527713 16.58368,4.63872 C16.3020786,5.21216287 15.8387232,5.85215647 15.1936,6.55872 L12.1216,9.89184 L16.99072,9.89184 Z M25.28768,5.39136 C25.9430433,5.57568092 26.4422383,5.89311775 26.78528,6.34368 C27.1283217,6.79424224 27.29984,7.35231667 27.29984,8.01792 C27.29984,8.96 26.9824032,9.70239731 26.34752,10.24512 C25.7126368,10.7878427 24.8473655,11.0592 23.75168,11.0592 C23.0860767,11.0592 22.4486431,10.9465612 21.83936,10.72128 C21.2300769,10.4959988 20.7155221,10.1888019 20.29568,9.79968 C20.1318392,9.64607923 20.04992,9.47200096 20.04992,9.27744 C20.04992,9.12383923 20.0908796,8.99584051 20.1728,8.89344 C20.2547204,8.79103949 20.3519994,8.73984 20.46464,8.73984 C20.6080007,8.73984 20.7513593,8.79615942 20.89472,8.9088 C21.3657624,9.28768192 21.8265578,9.5641591 22.27712,9.73824 C22.7276822,9.9123209 23.2140774,9.99936 23.73632,9.99936 C24.4940838,9.99936 25.070078,9.82528173 25.46432,9.47712 C25.858562,9.12895827 26.05568,8.62720326 26.05568,7.97184 C26.05568,6.65087341 25.2262483,5.9904 23.56736,5.9904 L22.75328,5.9904 C22.5894392,5.9904 22.4588805,5.93664054 22.3616,5.82912 C22.2643195,5.72159946 22.21568,5.59616072 22.21568,5.4528 C22.21568,5.30943928 22.2643195,5.18656051 22.3616,5.08416 C22.4588805,4.98175949 22.5894392,4.93056 22.75328,4.93056 L23.3216,4.93056 C24.120324,4.93056 24.7347178,4.75392177 25.1648,4.40064 C25.5948822,4.04735823 25.80992,3.53792333 25.80992,2.87232 C25.80992,2.28863708 25.6358417,1.84064156 25.28768,1.52832 C24.9395183,1.21599844 24.4480032,1.05984 23.81312,1.05984 C23.3318376,1.05984 22.8659222,1.1494391 22.41536,1.32864 C21.9647978,1.5078409 21.5142422,1.78175816 21.06368,2.1504 C20.9203193,2.26304056 20.7769607,2.31936 20.6336,2.31936 C20.5209594,2.31936 20.4236804,2.26816051 20.34176,2.16576 C20.2598396,2.06335949 20.21888,1.93536077 20.21888,1.78176 C20.21888,1.58719903 20.3007992,1.41312077 20.46464,1.25952 C20.8844821,0.870398054 21.393917,0.563201126 21.99296,0.33792 C22.592003,0.112638874 23.2089568,6.36646291e-14 23.84384,6.36646291e-14 C24.8268849,6.36646291e-14 25.6076771,0.248317517 26.18624,0.74496 C26.7648029,1.24160248 27.05408,1.9097558 27.05408,2.74944 C27.05408,3.37408312 26.8979215,3.91935767 26.5856,4.38528 C26.2732785,4.85120233 25.8406428,5.18655898 25.28768,5.39136 Z M35.68896,0.04608 C35.8630409,0.04608 36.0115194,0.102399437 36.1344,0.21504 C36.2572806,0.327680563 36.31872,0.486398976 36.31872,0.6912 L36.31872,7.55712 L37.47072,7.55712 C37.6550409,7.55712 37.7983995,7.60575949 37.9008,7.70304 C38.0032005,7.80032051 38.0544,7.92575923 38.0544,8.07936 C38.0544,8.42752173 37.8598419,8.6016 37.47072,8.6016 L36.31872,8.6016 L36.31872,10.38336 C36.31872,10.588161 36.2598406,10.7468794 36.14208,10.85952 C36.02432,10.9721606 35.8732809,11.02848 35.68896,11.02848 C35.5046391,11.02848 35.3561606,10.9721606 35.24352,10.85952 C35.1308794,10.7468794 35.07456,10.588161 35.07456,10.38336 L35.07456,8.6016 L30.528,8.6016 C30.3436791,8.6016 30.2003205,8.55040051 30.09792,8.448 C29.9955195,8.34559949 29.94432,8.21760077 29.94432,8.064 C29.94432,7.9206393 30.0006394,7.7619209 30.11328,7.58784 L35.136,0.32256 C35.2793607,0.138239078 35.4636788,0.04608 35.68896,0.04608 Z M35.07456,2.2272 L31.3728,7.55712 L35.07456,7.55712 L35.07456,2.2272 Z" id="+234" fill="#242F40"></path>
                                                <path d="M45.69344,7.3728 C45.5091191,7.3728 45.3683205,7.32672045 45.27104,7.23456 C45.1737595,7.14239955 45.12512,7.01952077 45.12512,6.86592 C45.12512,6.71231923 45.1737595,6.58688051 45.27104,6.4896 C45.3683205,6.39231951 45.5091191,6.34368 45.69344,6.34368 L49.07264,6.34368 C49.267201,6.34368 49.4131195,6.39231951 49.5104,6.4896 C49.6076805,6.58688051 49.65632,6.71231923 49.65632,6.86592 C49.65632,7.01952077 49.6076805,7.14239955 49.5104,7.23456 C49.4131195,7.32672045 49.267201,7.3728 49.07264,7.3728 L45.69344,7.3728 Z M62.76352,5.39136 C63.3984032,5.58592097 63.8924782,5.91871764 64.24576,6.38976 C64.5990419,6.86080237 64.77568,7.42399674 64.77568,8.07936 C64.77568,9.01120467 64.4377632,9.74079738 63.76192,10.26816 C63.0860766,10.7955226 62.1286462,11.0592 60.8896,11.0592 C59.6505538,11.0592 58.6931234,10.7955226 58.01728,10.26816 C57.3414366,9.74079738 57.00352,9.01120467 57.00352,8.07936 C57.00352,7.41375667 57.1827182,6.84544237 57.54112,6.3744 C57.8995218,5.90335764 58.3961568,5.57568092 59.03104,5.39136 C58.4883173,5.18655898 58.0582416,4.8640022 57.7408,4.42368 C57.4233584,3.9833578 57.26464,3.46624297 57.26464,2.87232 C57.26464,1.9916756 57.5846368,1.29280259 58.22464,0.77568 C58.8646432,0.258557414 59.7529543,2.7284841e-14 60.8896,2.7284841e-14 C62.0262457,2.7284841e-14 62.9145568,0.258557414 63.55456,0.77568 C64.1945632,1.29280259 64.51456,1.9916756 64.51456,2.87232 C64.51456,3.46624297 64.3558413,3.98591777 64.0384,4.43136 C63.7209584,4.87680223 63.2960027,5.19679903 62.76352,5.39136 Z M58.5088,2.96448 C58.5088,3.59936317 58.711038,4.08575831 59.11552,4.42368 C59.520002,4.76160169 60.1113561,4.93056 60.8896,4.93056 C61.6678439,4.93056 62.259198,4.76160169 62.66368,4.42368 C63.068162,4.08575831 63.2704,3.59936317 63.2704,2.96448 C63.2704,2.36031698 63.068162,1.88928169 62.66368,1.55136 C62.259198,1.21343831 61.6678439,1.04448 60.8896,1.04448 C60.1113561,1.04448 59.520002,1.21343831 59.11552,1.55136 C58.711038,1.88928169 58.5088,2.36031698 58.5088,2.96448 Z M60.8896,10.01472 C62.6508888,10.01472 63.53152,9.34400672 63.53152,8.00256 C63.53152,6.66111328 62.6508888,5.9904 60.8896,5.9904 C59.1283112,5.9904 58.24768,6.66111328 58.24768,8.00256 C58.24768,9.34400672 59.1283112,10.01472 60.8896,10.01472 Z M70.9376,11.07456 C69.6985536,11.07456 68.7564832,10.6035247 68.11136,9.66144 C67.4662368,8.71935526 67.14368,7.34720902 67.14368,5.54496 C67.14368,3.73247094 67.4662368,2.35520471 68.11136,1.41312 C68.7564832,0.47103529 69.6985536,2.7284841e-14 70.9376,2.7284841e-14 C72.1766464,2.7284841e-14 73.1187168,0.468475315 73.76384,1.40544 C74.4089632,2.34240468 74.73152,3.71711094 74.73152,5.5296 C74.73152,7.34208909 74.4089632,8.71935526 73.76384,9.66144 C73.1187168,10.6035247 72.1766464,11.07456 70.9376,11.07456 Z M70.9376,10.01472 C71.7977645,10.01472 72.4326381,9.65120365 72.84224,8.92416 C73.2518419,8.19711635 73.45664,7.06560768 73.45664,5.5296 C73.45664,3.98335227 73.2544019,2.85184358 72.84992,2.13504 C72.4454381,1.41823642 71.8080045,1.05984 70.9376,1.05984 C70.0774355,1.05984 69.4425619,1.42079639 69.03296,2.14272 C68.6233581,2.86464361 68.41856,3.99359232 68.41856,5.5296 C68.41856,7.06560768 68.6233581,8.19711635 69.03296,8.92416 C69.4425619,9.65120365 70.0774355,10.01472 70.9376,10.01472 Z M82.42944,5.39136 C83.0848032,5.57568092 83.5839981,5.89311775 83.92704,6.34368 C84.2700819,6.79424224 84.4416,7.35231667 84.4416,8.01792 C84.4416,8.96 84.1241632,9.70239731 83.48928,10.24512 C82.8543968,10.7878427 81.9891258,11.0592 80.89344,11.0592 C80.2278368,11.0592 79.5904032,10.9465612 78.98112,10.72128 C78.3718368,10.4959988 77.8572819,10.1888019 77.43744,9.79968 C77.2735994,9.64607923 77.19168,9.47200096 77.19168,9.27744 C77.19168,9.12383923 77.2326394,8.99584051 77.31456,8.89344 C77.3964806,8.79103949 77.4937594,8.73984 77.6064,8.73984 C77.7497606,8.73984 77.8931194,8.79615942 78.03648,8.9088 C78.5075226,9.28768192 78.9683174,9.5641591 79.41888,9.73824 C79.8694426,9.9123209 80.3558374,9.99936 80.87808,9.99936 C81.6358438,9.99936 82.2118381,9.82528173 82.60608,9.47712 C83.0003219,9.12895827 83.19744,8.62720326 83.19744,7.97184 C83.19744,6.65087341 82.3680083,5.9904 80.70912,5.9904 L79.89504,5.9904 C79.7311994,5.9904 79.6006406,5.93664054 79.50336,5.82912 C79.4060794,5.72159946 79.35744,5.59616072 79.35744,5.4528 C79.35744,5.30943928 79.4060794,5.18656051 79.50336,5.08416 C79.6006406,4.98175949 79.7311994,4.93056 79.89504,4.93056 L80.46336,4.93056 C81.2620838,4.93056 81.8764781,4.75392177 82.30656,4.40064 C82.7366419,4.04735823 82.95168,3.53792333 82.95168,2.87232 C82.95168,2.28863708 82.7776019,1.84064156 82.42944,1.52832 C82.0812781,1.21599844 81.5897632,1.05984 80.95488,1.05984 C80.4735974,1.05984 80.0076826,1.1494391 79.55712,1.32864 C79.1065574,1.5078409 78.6560026,1.78175816 78.20544,2.1504 C78.0620794,2.26304056 77.9187206,2.31936 77.77536,2.31936 C77.6627194,2.31936 77.5654406,2.26816051 77.48352,2.16576 C77.4015994,2.06335949 77.36064,1.93536077 77.36064,1.78176 C77.36064,1.58719903 77.4425594,1.41312077 77.6064,1.25952 C78.0262419,0.870398054 78.5356768,0.563201126 79.13472,0.33792 C79.7337632,0.112638874 80.3507168,2.7284841e-14 80.9856,2.7284841e-14 C81.9686451,2.7284841e-14 82.7494368,0.248317517 83.328,0.74496 C83.9065632,1.24160248 84.19584,1.9097558 84.19584,2.74944 C84.19584,3.37408312 84.0396813,3.91935767 83.72736,4.38528 C83.4150387,4.85120233 82.9824026,5.18655898 82.42944,5.39136 Z M91.44832,4.16256 C92.1344032,4.16256 92.7359974,4.30591857 93.25312,4.59264 C93.7702426,4.87936143 94.1695987,5.28127741 94.4512,5.7984 C94.7328013,6.31552259 94.8736,6.91199661 94.8736,7.58784 C94.8736,8.26368339 94.7200013,8.86527738 94.4128,9.39264 C94.1055987,9.92000262 93.6780826,10.3295985 93.13024,10.62144 C92.5823974,10.9132815 91.9500838,11.0592 91.23328,11.0592 C90.5983968,11.0592 89.9788832,10.9465612 89.37472,10.72128 C88.7705568,10.4959988 88.2585619,10.1888019 87.83872,9.79968 C87.6748794,9.64607923 87.59296,9.47200096 87.59296,9.27744 C87.59296,9.12383923 87.6339194,8.99584051 87.71584,8.89344 C87.7977606,8.79103949 87.8950394,8.73984 88.00768,8.73984 C88.1510406,8.73984 88.2943994,8.79615942 88.43776,8.9088 C88.8883226,9.27744186 89.3388774,9.5513591 89.78944,9.73056 C90.2400026,9.9097609 90.7110374,9.99936 91.20256,9.99936 C91.9603238,9.99936 92.5542381,9.78432218 92.98432,9.35424 C93.4144019,8.92415782 93.62944,8.34048371 93.62944,7.6032 C93.62944,6.88639642 93.4144019,6.3078422 92.98432,5.86752 C92.5542381,5.4271978 91.9756838,5.20704 91.24864,5.20704 C90.3167955,5.20704 89.5590432,5.56543642 88.97536,6.28224 C88.8319994,6.43584077 88.6579213,6.51264 88.45312,6.51264 C88.3097594,6.51264 88.1894406,6.46912045 88.09216,6.38208 C87.9948794,6.29503956 87.94624,6.17472077 87.94624,6.02112 L87.94624,0.72192 C87.94624,0.54783913 87.9999994,0.404480563 88.10752,0.29184 C88.2150406,0.179199437 88.3660787,0.12288 88.56064,0.12288 L93.96736,0.12288 C94.1516806,0.12288 94.2975994,0.168959539 94.40512,0.26112 C94.5126406,0.353280461 94.5664,0.481279181 94.5664,0.64512 C94.5664,0.808960819 94.5126406,0.936959539 94.40512,1.02912 C94.2975994,1.12128046 94.1516806,1.16736 93.96736,1.16736 L89.1904,1.16736 L89.1904,5.02272 C89.4771213,4.74623862 89.8124781,4.53376074 90.19648,4.38528 C90.5804819,4.23679926 90.9977574,4.16256 91.44832,4.16256 Z M102.95552,5.39136 C103.590403,5.58592097 104.084478,5.91871764 104.43776,6.38976 C104.791042,6.86080237 104.96768,7.42399674 104.96768,8.07936 C104.96768,9.01120467 104.629763,9.74079738 103.95392,10.26816 C103.278077,10.7955226 102.320646,11.0592 101.0816,11.0592 C99.8425536,11.0592 98.8851232,10.7955226 98.20928,10.26816 C97.5334368,9.74079738 97.19552,9.01120467 97.19552,8.07936 C97.19552,7.41375667 97.3747181,6.84544237 97.73312,6.3744 C98.0915219,5.90335764 98.5881568,5.57568092 99.22304,5.39136 C98.6803174,5.18655898 98.2502413,4.8640022 97.9328,4.42368 C97.6153587,3.9833578 97.45664,3.46624297 97.45664,2.87232 C97.45664,1.9916756 97.7766368,1.29280259 98.41664,0.77568 C99.0566432,0.258557414 99.9449542,2.7284841e-14 101.0816,2.7284841e-14 C102.218246,2.7284841e-14 103.106557,0.258557414 103.74656,0.77568 C104.386563,1.29280259 104.70656,1.9916756 104.70656,2.87232 C104.70656,3.46624297 104.547841,3.98591777 104.2304,4.43136 C103.912959,4.87680223 103.488003,5.19679903 102.95552,5.39136 Z M98.7008,2.96448 C98.7008,3.59936317 98.9030381,4.08575831 99.30752,4.42368 C99.7120019,4.76160169 100.303356,4.93056 101.0816,4.93056 C101.859844,4.93056 102.451198,4.76160169 102.85568,4.42368 C103.260162,4.08575831 103.4624,3.59936317 103.4624,2.96448 C103.4624,2.36031698 103.260162,1.88928169 102.85568,1.55136 C102.451198,1.21343831 101.859844,1.04448 101.0816,1.04448 C100.303356,1.04448 99.7120019,1.21343831 99.30752,1.55136 C98.9030381,1.88928169 98.7008,2.36031698 98.7008,2.96448 Z M101.0816,10.01472 C102.842889,10.01472 103.72352,9.34400672 103.72352,8.00256 C103.72352,6.66111328 102.842889,5.9904 101.0816,5.9904 C99.320311,5.9904 98.43968,6.66111328 98.43968,8.00256 C98.43968,9.34400672 99.320311,10.01472 101.0816,10.01472 Z M114.70848,7.55712 C114.892801,7.55712 115.036159,7.60575949 115.13856,7.70304 C115.240961,7.80032051 115.29216,7.92575923 115.29216,8.07936 C115.29216,8.42752173 115.097602,8.6016 114.70848,8.6016 L113.55648,8.6016 L113.55648,10.38336 C113.55648,10.588161 113.497601,10.7468794 113.37984,10.85952 C113.26208,10.9721606 113.111041,11.02848 112.92672,11.02848 C112.742399,11.02848 112.593921,10.9721606 112.48128,10.85952 C112.368639,10.7468794 112.31232,10.588161 112.31232,10.38336 L112.31232,8.6016 L107.76576,8.6016 C107.581439,8.6016 107.438081,8.55040051 107.33568,8.448 C107.233279,8.34559949 107.18208,8.21760077 107.18208,8.064 C107.18208,7.9206393 107.238399,7.7619209 107.35104,7.58784 L112.37376,0.32256 C112.517121,0.138239078 112.701439,0.04608 112.92672,0.04608 C113.100801,0.04608 113.249279,0.102399437 113.37216,0.21504 C113.495041,0.327680563 113.55648,0.486398976 113.55648,0.6912 L113.55648,7.55712 L114.70848,7.55712 Z M108.61056,7.55712 L112.31232,7.55712 L112.31232,2.2272 L108.61056,7.55712 Z M121.1776,11.07456 C119.938554,11.07456 118.996483,10.6035247 118.35136,9.66144 C117.706237,8.71935526 117.38368,7.34720902 117.38368,5.54496 C117.38368,3.73247094 117.706237,2.35520471 118.35136,1.41312 C118.996483,0.47103529 119.938554,2.7284841e-14 121.1776,2.7284841e-14 C122.416646,2.7284841e-14 123.358717,0.468475315 124.00384,1.40544 C124.648963,2.34240468 124.97152,3.71711094 124.97152,5.5296 C124.97152,7.34208909 124.648963,8.71935526 124.00384,9.66144 C123.358717,10.6035247 122.416646,11.07456 121.1776,11.07456 Z M121.1776,10.01472 C122.037764,10.01472 122.672638,9.65120365 123.08224,8.92416 C123.491842,8.19711635 123.69664,7.06560768 123.69664,5.5296 C123.69664,3.98335227 123.494402,2.85184358 123.08992,2.13504 C122.685438,1.41823642 122.048004,1.05984 121.1776,1.05984 C120.317436,1.05984 119.682562,1.42079639 119.27296,2.14272 C118.863358,2.86464361 118.65856,3.99359232 118.65856,5.5296 C118.65856,7.06560768 118.863358,8.19711635 119.27296,8.92416 C119.682562,9.65120365 120.317436,10.01472 121.1776,10.01472 Z M130.88768,2.7284841e-14 C132.198406,2.7284841e-14 133.209596,0.455675443 133.92128,1.36704 C134.632964,2.27840456 134.9888,3.57887155 134.9888,5.26848 C134.9888,6.47680602 134.824962,7.51615565 134.49728,8.38656 C134.169598,9.25696435 133.693443,9.9225577 133.0688,10.38336 C132.444157,10.8441623 131.701764,11.07456 130.8416,11.07456 C130.257917,11.07456 129.676803,10.9619212 129.09824,10.73664 C128.519677,10.5113588 128.025602,10.2041619 127.616,9.81504 C127.441919,9.65119917 127.35488,9.4771209 127.35488,9.2928 C127.35488,9.13919923 127.395839,9.01120051 127.47776,8.9088 C127.559681,8.80639949 127.656959,8.7552 127.7696,8.7552 C127.912961,8.7552 128.061439,8.81151942 128.21504,8.92416 C129.105924,9.65120365 129.971196,10.01472 130.81088,10.01472 C131.722244,10.01472 132.433917,9.6 132.94592,8.77056 C133.457923,7.94111584 133.71392,6.77888749 133.71392,5.28384 L133.71392,5.08416 C133.478399,5.65760287 133.096963,6.10815836 132.5696,6.43584 C132.042237,6.76352166 131.445763,6.92736 130.78016,6.92736 C130.124797,6.92736 129.541123,6.78400141 129.02912,6.49728 C128.517117,6.21055857 128.117761,5.80608261 127.83104,5.28384 C127.544319,4.76159739 127.40096,4.16256338 127.40096,3.48672 C127.40096,2.82111667 127.549439,2.22208266 127.8464,1.6896 C128.143361,1.15711734 128.558077,0.742401485 129.09056,0.44544 C129.623043,0.148478515 130.222077,2.7284841e-14 130.88768,2.7284841e-14 Z M130.96448,5.86752 C131.671044,5.86752 132.247038,5.64480223 132.69248,5.19936 C133.137922,4.75391777 133.36064,4.17792353 133.36064,3.47136 C133.36064,2.75455642 133.137922,2.17344223 132.69248,1.728 C132.247038,1.28255777 131.665924,1.05984 130.94912,1.05984 C130.252797,1.05984 129.694722,1.2799978 129.27488,1.72032 C128.855038,2.1606422 128.64512,2.74431636 128.64512,3.47136 C128.64512,4.19840364 128.857598,4.77951782 129.28256,5.21472 C129.707522,5.64992218 130.268157,5.86752 130.96448,5.86752 Z M144.46848,9.89184 C144.652801,9.89184 144.796159,9.93791955 144.89856,10.03008 C145.000961,10.1222404 145.05216,10.2502392 145.05216,10.41408 C145.05216,10.7724818 144.857602,10.95168 144.46848,10.95168 L138.44736,10.95168 C138.273279,10.95168 138.129921,10.8979205 138.01728,10.7904 C137.904639,10.6828795 137.84832,10.5523208 137.84832,10.39872 C137.84832,10.2319535 137.900982,10.083997 138.006308,9.95484755 L141.76512,5.82144 C142.277123,5.24799713 142.648319,4.73344228 142.87872,4.27776 C143.109121,3.82207772 143.22432,3.3638423 143.22432,2.90304 C143.22432,2.30911703 143.052802,1.85344159 142.70976,1.536 C142.366718,1.21855841 141.882883,1.05984 141.25824,1.05984 C140.766717,1.05984 140.295683,1.1494391 139.84512,1.32864 C139.394557,1.5078409 138.944003,1.78175816 138.49344,2.1504 C138.339839,2.27328061 138.196481,2.33472 138.06336,2.33472 C137.950719,2.33472 137.853441,2.28096054 137.77152,2.17344 C137.689599,2.06591946 137.64864,1.93536077 137.64864,1.78176 C137.64864,1.56671892 137.730559,1.39264067 137.8944,1.25952 C138.314242,0.870398054 138.826237,0.563201126 139.4304,0.33792 C140.034563,0.112638874 140.654077,2.7284841e-14 141.28896,2.7284841e-14 C142.261765,2.7284841e-14 143.037437,0.25599744 143.616,0.768 C144.194563,1.28 144.48384,1.97119565 144.48384,2.8416 C144.48384,3.46624312 144.343041,4.06527713 144.06144,4.63872 C143.779839,5.21216287 143.316483,5.85215647 142.67136,6.55872 L139.59936,9.89184 L144.46848,9.89184 Z" id="-803584092" fill="#8F92A1"></path>
                                            </g>
                                        </g>
                                        <g id="Group-20-Copy-2" transform="translate(23.000000, 200.000000)">
                                            <g id="Rectangle">
                                                <g id="path-25-link" fill="#000000" fill-rule="nonzero">
                                                    <rect id="path-25" x="0" y="0" width="279.68" height="51.84" rx="4.48"></rect>
                                                </g>
                                                <g id="path-25-link" fill="url(#linearGradient-12)">
                                                    <rect id="path-25" x="0" y="0" width="279.68" height="51.84" rx="4.48"></rect>
                                                </g>
                                            </g>
                                            <path d="M93.86752,26.22976 C94.058668,26.22976 94.2199464,26.2924794 94.35136,26.41792 C94.4827736,26.5433606 94.54848,26.7016524 94.54848,26.8928 C94.54848,27.0839476 94.4827736,27.2422394 94.35136,27.36768 C94.2199464,27.4931206 94.058668,27.55584 93.86752,27.55584 L90.83904,27.55584 L90.83904,30.58432 C90.83904,30.7754676 90.7763208,30.936746 90.65088,31.06816 C90.5254392,31.199574 90.367148,31.26528 90.176,31.26528 C89.984852,31.26528 89.8265608,31.199574 89.70112,31.06816 C89.5756792,30.936746 89.51296,30.7754676 89.51296,30.58432 L89.51296,27.55584 L86.48448,27.55584 C86.293332,27.55584 86.1320536,27.490134 86.00064,27.35872 C85.8692264,27.227306 85.80352,27.0720009 85.80352,26.8928 C85.80352,26.7016524 85.8692264,26.5433606 86.00064,26.41792 C86.1320536,26.2924794 86.293332,26.22976 86.48448,26.22976 L89.51296,26.22976 L89.51296,23.20128 C89.51296,23.0101324 89.5756792,22.848854 89.70112,22.71744 C89.8265608,22.586026 89.984852,22.52032 90.176,22.52032 C90.367148,22.52032 90.5254392,22.586026 90.65088,22.71744 C90.7763208,22.848854 90.83904,23.0101324 90.83904,23.20128 L90.83904,26.22976 L93.86752,26.22976 Z M108.80512,25.49504 C109.53387,25.6981343 110.098345,26.062504 110.49856,26.58816 C110.898775,27.113816 111.09888,27.7708761 111.09888,28.55936 C111.09888,29.6465121 110.72555,30.4917303 109.97888,31.09504 C109.23221,31.6983497 108.189874,32 106.85184,32 L102.28224,32 C101.995518,32 101.771521,31.9193608 101.61024,31.75808 C101.448959,31.5967992 101.36832,31.3787747 101.36832,31.104 L101.36832,20.2624 C101.36832,19.9876253 101.448959,19.7696008 101.61024,19.60832 C101.771521,19.4470392 101.995518,19.3664 102.28224,19.3664 L106.65472,19.3664 C107.956913,19.3664 108.975356,19.6561038 109.71008,20.23552 C110.444804,20.8149362 110.81216,21.6243148 110.81216,22.66368 C110.81216,23.3326966 110.635949,23.9121042 110.28352,24.40192 C109.931091,24.8917358 109.438297,25.2561054 108.80512,25.49504 Z M103.17824,24.832 L106.368,24.832 C108.136115,24.832 109.02016,24.1629934 109.02016,22.82496 C109.02016,22.1559434 108.802135,21.6601616 108.36608,21.3376 C107.930025,21.0150384 107.264005,20.85376 106.368,20.85376 L103.17824,20.85376 L103.17824,24.832 Z M106.65472,30.51264 C107.574618,30.51264 108.249598,30.3453883 108.67968,30.01088 C109.109762,29.6763717 109.3248,29.1566969 109.3248,28.45184 C109.3248,27.7350364 109.106775,27.2004284 108.67072,26.848 C108.234665,26.4955716 107.562671,26.31936 106.65472,26.31936 L103.17824,26.31936 L103.17824,30.51264 L106.65472,30.51264 Z M119.8848,23.07584 C120.159574,23.07584 120.377599,23.1534926 120.53888,23.3088 C120.700161,23.4641074 120.7808,23.6791453 120.7808,23.95392 L120.7808,31.24736 C120.7808,31.4982413 120.697174,31.7013326 120.52992,31.85664 C120.362666,32.0119474 120.141654,32.0896 119.86688,32.0896 C119.615998,32.0896 119.412907,32.0149341 119.2576,31.8656 C119.102293,31.7162659 119.02464,31.5161613 119.02464,31.26528 L119.02464,30.58432 C118.749866,31.0860825 118.370562,31.468372 117.88672,31.7312 C117.402878,31.994028 116.862296,32.12544 116.26496,32.12544 C114.138442,32.12544 113.0752,30.9546784 113.0752,28.61312 L113.0752,23.95392 C113.0752,23.6791453 113.155839,23.4641074 113.31712,23.3088 C113.478401,23.1534926 113.702398,23.07584 113.98912,23.07584 C114.263894,23.07584 114.481919,23.1534926 114.6432,23.3088 C114.804481,23.4641074 114.88512,23.6791453 114.88512,23.95392 L114.88512,28.5952 C114.88512,29.3000569 115.028478,29.8197317 115.3152,30.15424 C115.601922,30.4887483 116.043944,30.656 116.64128,30.656 C117.346137,30.656 117.910611,30.4290156 118.33472,29.97504 C118.758829,29.5210644 118.97088,28.9177638 118.97088,28.16512 L118.97088,23.95392 C118.97088,23.691092 119.054506,23.4790408 119.22176,23.31776 C119.389014,23.1564792 119.610026,23.07584 119.8848,23.07584 Z M126.57408,29.76 L129.33376,23.61344 C129.40544,23.4342391 129.509973,23.3028271 129.64736,23.2192 C129.784747,23.1355729 129.931093,23.09376 130.0864,23.09376 C130.313388,23.09376 130.513493,23.1714126 130.68672,23.32672 C130.859947,23.4820274 130.94656,23.667199 130.94656,23.88224 C130.94656,24.0017073 130.922667,24.1151994 130.87488,24.22272 L125.89312,34.79552 C125.82144,34.9627742 125.716907,35.0911995 125.57952,35.1808 C125.442133,35.2704005 125.295787,35.3152 125.14048,35.3152 C124.925439,35.3152 124.731307,35.2435207 124.55808,35.10016 C124.384853,34.9567993 124.29824,34.777601 124.29824,34.56256 C124.29824,34.4669862 124.328106,34.3475207 124.38784,34.20416 L125.62432,31.56992 L122.16576,24.22272 C122.117973,24.1271462 122.09408,24.0196273 122.09408,23.90016 C122.09408,23.6731722 122.189652,23.4820274 122.3808,23.32672 C122.571947,23.1714126 122.786986,23.09376 123.02592,23.09376 C123.384322,23.09376 123.641173,23.2610117 123.79648,23.59552 L126.57408,29.76 Z M148.14208,30.9248 C148.201814,31.0681607 148.23168,31.1876262 148.23168,31.2832 C148.23168,31.5101878 148.139094,31.7013326 147.95392,31.85664 C147.768746,32.0119474 147.562668,32.0896 147.33568,32.0896 C147.180373,32.0896 147.034027,32.0448005 146.89664,31.9552 C146.759253,31.8655995 146.65472,31.7371742 146.58304,31.56992 L145.40032,28.88192 L138.8416,28.88192 L137.65888,31.56992 C137.587199,31.7371742 137.479681,31.8655995 137.33632,31.9552 C137.192959,32.0448005 137.043627,32.0896 136.88832,32.0896 C136.649386,32.0896 136.437334,32.0119474 136.25216,31.85664 C136.066986,31.7013326 135.9744,31.5101878 135.9744,31.2832 C135.9744,31.1876262 136.004266,31.0681607 136.064,30.9248 L141.11744,19.86816 C141.201067,19.6770124 141.335466,19.5276806 141.52064,19.42016 C141.705814,19.3126394 141.899946,19.25888 142.10304,19.25888 C142.306134,19.25888 142.500266,19.3126394 142.68544,19.42016 C142.870614,19.5276806 143.005013,19.6770124 143.08864,19.86816 L148.14208,30.9248 Z M139.50464,27.41248 L144.7552,27.41248 L142.12096,21.48096 L139.50464,27.41248 Z M150.656,32.0896 C150.393172,32.0896 150.175147,32.0179207 150.00192,31.87456 C149.828693,31.7311993 149.74208,31.5161614 149.74208,31.22944 L149.74208,23.95392 C149.74208,23.6671986 149.828693,23.4491741 150.00192,23.29984 C150.175147,23.1505059 150.393172,23.07584 150.656,23.07584 C150.918828,23.07584 151.133866,23.1505059 151.30112,23.29984 C151.468374,23.4491741 151.552,23.6671986 151.552,23.95392 L151.552,31.22944 C151.552,31.5161614 151.468374,31.7311993 151.30112,31.87456 C151.133866,32.0179207 150.918828,32.0896 150.656,32.0896 Z M150.656,21.31968 C150.309545,21.31968 150.034774,21.2241076 149.83168,21.03296 C149.628586,20.8418124 149.52704,20.5909349 149.52704,20.28032 C149.52704,19.9697051 149.628586,19.7218142 149.83168,19.53664 C150.034774,19.3514658 150.309545,19.25888 150.656,19.25888 C150.990508,19.25888 151.262292,19.3514658 151.47136,19.53664 C151.680428,19.7218142 151.78496,19.9697051 151.78496,20.28032 C151.78496,20.5909349 151.683414,20.8418124 151.48032,21.03296 C151.277226,21.2241076 151.002455,21.31968 150.656,21.31968 Z M158.47424,23.07584 C159.047683,23.0399998 159.3344,23.284904 159.3344,23.81056 C159.3344,24.073388 159.268694,24.270506 159.13728,24.40192 C159.024639,24.5145606 158.841784,24.587703 158.588709,24.6213486 L157.91872,24.68864 C157.166076,24.7603203 156.607575,25.0231444 156.2432,25.47712 C155.878825,25.9310956 155.69664,26.4806368 155.69664,27.12576 L155.69664,31.22944 C155.69664,31.5161614 155.613014,31.7311993 155.44576,31.87456 C155.278506,32.0179207 155.063468,32.0896 154.80064,32.0896 C154.537812,32.0896 154.319787,32.0179207 154.14656,31.87456 C153.973333,31.7311993 153.88672,31.5161614 153.88672,31.22944 L153.88672,23.936 C153.88672,23.6612253 153.973333,23.4491741 154.14656,23.29984 C154.319787,23.1505059 154.537812,23.07584 154.80064,23.07584 C155.039574,23.07584 155.239679,23.1505059 155.40096,23.29984 C155.562241,23.4491741 155.64288,23.655252 155.64288,23.91808 L155.64288,24.77824 C155.881814,24.252584 156.228264,23.8523747 156.68224,23.5776 C157.136215,23.3028253 157.649917,23.1415469 158.22336,23.09376 L158.47424,23.07584 Z M165.28896,30.70976 C165.551788,30.7336534 165.739946,30.8023461 165.85344,30.91584 C165.966934,31.0293339 166.02368,31.1876257 166.02368,31.39072 C166.02368,31.6296546 165.931094,31.8118394 165.74592,31.93728 C165.560746,32.0627206 165.288962,32.1134934 164.93056,32.0896 L164.44672,32.05376 C163.479035,31.9820797 162.756269,31.6864026 162.2784,31.16672 C161.800531,30.6470374 161.5616,29.8794718 161.5616,28.864 L161.5616,24.6528 L160.4864,24.6528 C159.960744,24.6528 159.69792,24.4198423 159.69792,23.95392 C159.69792,23.738879 159.766613,23.5686406 159.904,23.4432 C160.041387,23.3177594 160.235518,23.25504 160.4864,23.25504 L161.5616,23.25504 L161.5616,21.40928 C161.5616,21.1345053 161.642239,20.9194674 161.80352,20.76416 C161.964801,20.6088526 162.182826,20.5312 162.4576,20.5312 C162.732374,20.5312 162.953386,20.6088526 163.12064,20.76416 C163.287894,20.9194674 163.37152,21.1345053 163.37152,21.40928 L163.37152,23.25504 L165.1456,23.25504 C165.396481,23.25504 165.590613,23.3177594 165.728,23.4432 C165.865387,23.5686406 165.93408,23.738879 165.93408,23.95392 C165.93408,24.1809078 165.865387,24.3541327 165.728,24.4736 C165.590613,24.5930673 165.396481,24.6528 165.1456,24.6528 L163.37152,24.6528 L163.37152,28.98944 C163.37152,29.5509362 163.487998,29.963092 163.72096,30.22592 C163.953921,30.488748 164.309331,30.6380798 164.7872,30.67392 L165.28896,30.70976 Z M168.05376,32.0896 C167.790932,32.0896 167.572907,32.0179207 167.39968,31.87456 C167.226452,31.7311993 167.13984,31.5161614 167.13984,31.22944 L167.13984,23.95392 C167.13984,23.6671986 167.226452,23.4491741 167.39968,23.29984 C167.572907,23.1505059 167.790932,23.07584 168.05376,23.07584 C168.316588,23.07584 168.531626,23.1505059 168.69888,23.29984 C168.866134,23.4491741 168.94976,23.6671986 168.94976,23.95392 L168.94976,31.22944 C168.94976,31.5161614 168.866134,31.7311993 168.69888,31.87456 C168.531626,32.0179207 168.316588,32.0896 168.05376,32.0896 Z M168.05376,21.31968 C167.707305,21.31968 167.432534,21.2241076 167.22944,21.03296 C167.026346,20.8418124 166.9248,20.5909349 166.9248,20.28032 C166.9248,19.9697051 167.026346,19.7218142 167.22944,19.53664 C167.432534,19.3514658 167.707305,19.25888 168.05376,19.25888 C168.388268,19.25888 168.660052,19.3514658 168.86912,19.53664 C169.078188,19.7218142 169.18272,19.9697051 169.18272,20.28032 C169.18272,20.5909349 169.081174,20.8418124 168.87808,21.03296 C168.674986,21.2241076 168.400215,21.31968 168.05376,21.31968 Z M181.31968,23.04 C183.278943,23.04 184.25856,24.2167349 184.25856,26.57024 L184.25856,31.22944 C184.25856,31.5042147 184.174934,31.7162659 184.00768,31.8656 C183.840426,32.0149341 183.619414,32.0896 183.34464,32.0896 C183.081812,32.0896 182.866774,32.0149341 182.69952,31.8656 C182.532266,31.7162659 182.44864,31.5042147 182.44864,31.22944 L182.44864,26.58816 C182.44864,25.8594097 182.317228,25.330775 182.0544,25.00224 C181.791572,24.673705 181.379416,24.50944 180.81792,24.50944 C180.16085,24.50944 179.641175,24.7334378 179.25888,25.18144 C178.876585,25.6294422 178.68544,26.2417028 178.68544,27.01824 L178.68544,31.22944 C178.68544,31.5042147 178.601814,31.7162659 178.43456,31.8656 C178.267306,32.0149341 178.046294,32.0896 177.77152,32.0896 C177.508692,32.0896 177.293654,32.0149341 177.1264,31.8656 C176.959146,31.7162659 176.87552,31.5042147 176.87552,31.22944 L176.87552,26.58816 C176.87552,25.8594097 176.744108,25.330775 176.48128,25.00224 C176.218452,24.673705 175.806296,24.50944 175.2448,24.50944 C174.58773,24.50944 174.065069,24.7334378 173.6768,25.18144 C173.288531,25.6294422 173.0944,26.2417028 173.0944,27.01824 L173.0944,31.22944 C173.0944,31.5042147 173.010774,31.7162659 172.84352,31.8656 C172.676266,32.0149341 172.461228,32.0896 172.1984,32.0896 C171.935572,32.0896 171.717547,32.0149341 171.54432,31.8656 C171.371092,31.7162659 171.28448,31.5042147 171.28448,31.22944 L171.28448,23.936 C171.28448,23.673172 171.374079,23.4641074 171.55328,23.3088 C171.732481,23.1534926 171.947518,23.07584 172.1984,23.07584 C172.449281,23.07584 172.655359,23.1505059 172.81664,23.29984 C172.977921,23.4491741 173.05856,23.655252 173.05856,23.91808 L173.05856,24.58112 C173.321388,24.0793575 173.685758,23.697068 174.15168,23.43424 C174.617602,23.171412 175.155197,23.04 175.76448,23.04 C176.433497,23.04 176.986025,23.1773853 177.42208,23.45216 C177.858135,23.7269347 178.183679,24.1510371 178.39872,24.72448 C178.661548,24.2107708 179.04981,23.8016015 179.56352,23.49696 C180.077229,23.1923185 180.66261,23.04 181.31968,23.04 Z M190.23104,23.04 C191.401819,23.04 192.327677,23.4163162 193.00864,24.16896 C193.689603,24.9216038 194.03008,25.9370602 194.03008,27.21536 C194.03008,27.693229 193.815042,27.93216 193.38496,27.93216 L187.84768,27.93216 C187.967147,29.7839026 188.857165,30.70976 190.51776,30.70976 C190.959789,30.70976 191.342078,30.6500273 191.66464,30.53056 C191.987202,30.4110927 192.327678,30.2557876 192.68608,30.06464 L192.759194,30.0230657 C192.810802,29.9958274 192.884991,29.9589122 192.98176,29.91232 C193.143041,29.8346662 193.277439,29.79584 193.38496,29.79584 C193.552214,29.79584 193.689599,29.861546 193.79712,29.99296 C193.904641,30.124374 193.9584,30.2916257 193.9584,30.49472 C193.9584,30.841175 193.743362,31.1338654 193.31328,31.3728 C192.895145,31.6117346 192.438189,31.796906 191.9424,31.92832 C191.44661,32.059734 190.971735,32.12544 190.51776,32.12544 C189.13194,32.12544 188.03883,31.722244 187.2384,30.91584 C186.43797,30.109436 186.03776,29.007367 186.03776,27.6096 C186.03776,26.7135955 186.213971,25.9191502 186.5664,25.22624 C186.918828,24.5333298 187.41461,23.9957353 188.05376,23.61344 C188.69291,23.2311447 189.418662,23.04 190.23104,23.04 Z M190.26688,24.36608 C189.57397,24.36608 189.018455,24.5870911 188.60032,25.02912 C188.182185,25.4711489 187.931307,26.0923694 187.84768,26.8928 L187.84768,26.8928 L192.47104,26.8928 C192.4352,26.0804226 192.229122,25.4562155 191.8528,25.02016 C191.476478,24.5841045 190.947843,24.36608 190.26688,24.36608 Z" id="+BuyAirtime" fill="#FFFFFF" fill-rule="nonzero"></path>
                                        </g>
                                    </g>
                                </g>
                            </g>
                            <rect id="Rectangle" fill="url(#linearGradient-13)" mask="url(#mask-6)" x="7" y="210" width="358" height="500"></rect>
                        </g>
                    </g>
                </g>
            </g>
        </g>
    </g>
</svg>