<svg xmlns="http://www.w3.org/2000/svg" width="191" height="63" viewBox="0 0 191 63">
    <g fill="none" fill-rule="evenodd">
        <rect width="190.68" height="62.44" fill="#3B2F85" fill-rule="nonzero" rx="8.537"/>
        <g fill="#FFF" font-family="Helvetica" font-size="23.8">
            <text transform="translate(63.143 23.24)">
                <tspan x="0" y="23">A</tspan>
            </text>
            <text transform="translate(63.143 23.24)">
                <tspan x="16.587" y="23">p</tspan>
            </text>
            <text transform="translate(63.143 23.24)">
                <tspan x="30.248" y="23">p</tspan>
            </text>
            <text transform="translate(63.143 23.24)">
                <tspan x="48.67" y="23">S</tspan>
            </text>
            <text transform="translate(63.143 23.24)">
                <tspan x="63.739" y="23">t</tspan>
            </text>
            <text transform="translate(63.143 23.24)">
                <tspan x="70.375" y="23">o</tspan>
            </text>
            <text transform="translate(63.143 23.24)">
                <tspan x="83.656" y="23">r</tspan>
            </text>
            <text transform="translate(63.143 23.24)">
                <tspan x="92.106" y="23">e</tspan>
            </text>
        </g>
        <g fill="#FFF" font-family="ProductSans-Regular, Product Sans" font-size="14">
            <text transform="translate(64.319 9.229)">
                <tspan x="0" y="13">D</tspan>
            </text>
            <text transform="translate(64.319 9.229)">
                <tspan x="9.464" y="13">o</tspan>
            </text>
            <text transform="translate(64.319 9.229)">
                <tspan x="17.164" y="13">wn</tspan>
            </text>
            <text transform="translate(64.319 9.229)">
                <tspan x="35.308" y="13">l</tspan>
            </text>
            <text transform="translate(64.319 9.229)">
                <tspan x="38.094" y="13">o</tspan>
            </text>
            <text transform="translate(64.319 9.229)">
                <tspan x="45.934" y="13">a</tspan>
            </text>
            <text transform="translate(64.319 9.229)">
                <tspan x="53.004" y="13">d</tspan>
            </text>
            <text transform="translate(64.319 9.229)">
                <tspan x="64.148" y="13">o</tspan>
            </text>
            <text transform="translate(64.319 9.229)">
                <tspan x="71.848" y="13">n</tspan>
            </text>
            <text transform="translate(64.319 9.229)">
                <tspan x="82.516" y="13">t</tspan>
            </text>
            <text transform="translate(64.319 9.229)">
                <tspan x="87.542" y="13">he</tspan>
            </text>
        </g>
        <path fill="#FFF" fill-rule="nonzero" d="M45.511 31.217c-.042-4.555 3.73-6.773 3.903-6.877-2.136-3.113-5.454-3.539-6.61-3.572-2.78-.28-5.48 1.663-6.897 1.663-1.417 0-3.64-1.635-5.978-1.588-3.024.048-5.855 1.8-7.409 4.52-3.203 5.543-.812 13.691 2.257 18.174 1.535 2.198 3.33 4.648 5.679 4.561 2.296-.095 3.155-1.464 5.927-1.464s3.553 1.464 5.947 1.4c2.467-.04 4.018-2.204 5.5-4.421a18.136 18.136 0 0 0 2.52-5.119c-.06-.022-4.788-1.828-4.836-7.28l-.003.003zM40.986 17.82c1.235-1.545 2.08-3.64 1.846-5.779-1.787.078-4.024 1.238-5.32 2.747-1.14 1.333-2.16 3.514-1.896 5.566 2.01.151 4.071-1.013 5.362-2.52l.008-.014z"/>
    </g>
</svg>
