<svg xmlns="http://www.w3.org/2000/svg" width="1110" height="34" viewBox="0 0 1110 34">
    <g fill="#18214D" fill-rule="evenodd">
        <path d="M824.933 6.799c0 1.405-1.15 2.537-2.578 2.537-1.429 0-2.58-1.132-2.58-2.537 0-1.406 1.112-2.538 2.58-2.538 1.468.04 2.578 1.171 2.578 2.538zm-10.632 5.114v.625s-1.23-1.562-3.849-1.562c-4.324 0-7.696 3.24-7.696 7.73 0 4.45 3.332 7.73 7.696 7.73 2.659 0 3.849-1.601 3.849-1.601v.664c0 .312.238.546.555.546h3.214V11.366h-3.214a.563.563 0 0 0-.555.547zm0 9.408c-.595.86-1.785 1.6-3.214 1.6-2.539 0-4.483-1.56-4.483-4.215s1.944-4.216 4.483-4.216c1.389 0 2.658.78 3.214 1.6v5.231zm6.15-9.955h3.808v14.68h-3.809v-14.68zm56.892-.39c-2.619 0-3.849 1.562-3.849 1.562V4.3h-3.808v21.745h3.213a.563.563 0 0 0 .556-.546v-.664s1.23 1.6 3.848 1.6c4.325 0 7.697-3.279 7.697-7.73 0-4.45-3.372-7.73-7.657-7.73zm-.635 11.907c-1.468 0-2.618-.742-3.214-1.6V16.05c.596-.78 1.865-1.6 3.214-1.6 2.54 0 4.483 1.56 4.483 4.216 0 2.654-1.944 4.216-4.483 4.216zm-9.006-5.544v8.745h-3.809V17.77c0-2.42-.793-3.397-2.935-3.397-1.151 0-2.341.586-3.095 1.445v10.228h-3.809V11.366h3.015c.318 0 .556.274.556.547v.625c1.11-1.133 2.579-1.562 4.047-1.562 1.666 0 3.055.468 4.165 1.405 1.35 1.093 1.865 2.499 1.865 4.958zm-22.892-6.363c-2.618 0-3.848 1.562-3.848 1.562V4.3h-3.809v21.745h3.214a.563.563 0 0 0 .555-.546v-.664s1.23 1.6 3.848 1.6c4.325 0 7.697-3.279 7.697-7.73.04-4.45-3.332-7.73-7.657-7.73zm-.635 11.907c-1.468 0-2.618-.742-3.213-1.6V16.05c.595-.78 1.865-1.6 3.213-1.6 2.54 0 4.484 1.56 4.484 4.216 0 2.654-1.944 4.216-4.484 4.216zM833.86 10.976c1.15 0 1.746.195 1.746.195v3.475s-3.174-1.054-5.158 1.17v10.268h-3.809V11.366h3.214c.317 0 .555.274.555.547v.625c.715-.82 2.262-1.562 3.452-1.562zm-41.312 13.188c-.173-.408-.345-.85-.517-1.225-.276-.613-.552-1.191-.793-1.736l-.035-.034a353.277 353.277 0 0 0-7.619-15.383l-.103-.204a69.13 69.13 0 0 1-.828-1.6c-.344-.613-.69-1.26-1.24-1.872C780.308.75 778.722 0 777.032 0c-1.723 0-3.274.749-4.412 2.042-.517.613-.896 1.26-1.241 1.872-.276.544-.552 1.089-.827 1.6l-.104.204c-2.654 5.105-5.24 10.278-7.619 15.383l-.034.068c-.242.545-.518 1.123-.793 1.736-.173.374-.345.783-.517 1.225-.449 1.26-.587 2.45-.414 3.676a7.25 7.25 0 0 0 4.482 5.65 7.16 7.16 0 0 0 2.792.544c.276 0 .62-.034.896-.068a9.19 9.19 0 0 0 3.448-1.157c1.414-.783 2.758-1.906 4.275-3.54 1.517 1.634 2.896 2.757 4.275 3.54a9.19 9.19 0 0 0 3.447 1.157c.276.034.62.068.897.068.965 0 1.93-.17 2.792-.544a7.235 7.235 0 0 0 4.482-5.65c.276-1.191.138-2.383-.31-3.642zm-15.517 1.413c-1.788-2.247-2.947-4.36-3.344-6.145-.166-.76-.2-1.42-.1-2.015a3.2 3.2 0 0 1 .53-1.387c.63-.892 1.69-1.453 2.914-1.453 1.226 0 2.319.528 2.915 1.453a3.2 3.2 0 0 1 .53 1.387c.099.595.066 1.289-.1 2.015-.397 1.751-1.556 3.865-3.345 6.145zm13.44 1.71c-.235 1.73-1.415 3.226-3.066 3.891a5.168 5.168 0 0 1-2.562.333c-.843-.1-1.685-.366-2.562-.865-1.213-.665-2.427-1.696-3.842-3.226 2.224-2.694 3.573-5.155 4.078-7.35a8.227 8.227 0 0 0 .169-2.827 5.355 5.355 0 0 0-.91-2.261c-1.045-1.497-2.798-2.362-4.753-2.362s-3.707.898-4.752 2.362a5.356 5.356 0 0 0-.91 2.261 6.816 6.816 0 0 0 .168 2.827c.506 2.195 1.888 4.69 4.079 7.383-1.382 1.53-2.63 2.561-3.843 3.226-.876.499-1.719.765-2.562.865a5.46 5.46 0 0 1-2.561-.333c-1.652-.665-2.832-2.161-3.068-3.89a5.437 5.437 0 0 1 .304-2.595c.101-.333.27-.665.438-1.064a68.14 68.14 0 0 1 .775-1.663l.034-.067A361.545 361.545 0 0 1 772.54 7l.101-.2c.27-.499.54-1.03.81-1.53.27-.532.572-1.03.943-1.463.708-.798 1.652-1.23 2.697-1.23 1.045 0 1.988.432 2.696 1.23.37.432.674.931.944 1.463.27.5.54 1.031.809 1.53l.1.2a438.647 438.647 0 0 1 7.383 14.966v.033c.27.532.505 1.13.775 1.663.168.399.337.731.438 1.064.27.865.37 1.696.236 2.56zM11.011 12.946v2.969l7.09-.003c-.218 1.637-.77 2.836-1.608 3.675-1.034 1.034-2.648 2.173-5.482 2.173-4.368 0-7.787-3.523-7.787-7.896 0-4.372 3.419-7.896 7.787-7.896 2.358 0 4.079.928 5.35 2.12l2.092-2.094C16.683 4.3 14.325 3 11.013 3 5.033 3 0 7.877 0 13.864 0 19.852 5.032 24.73 11.014 24.73c3.228 0 5.666-1.06 7.572-3.048 1.96-1.962 2.57-4.716 2.57-6.943 0-.662-.05-1.274-.148-1.792H11.01zm59.804 11.357V3.798H67.82v20.505h2.995zm-41.454.429c3.864 0 7.013-2.969 7.013-6.997 0-4.057-3.149-6.997-7.013-6.997-3.865 0-7.014 2.94-7.014 6.997 0 4.028 3.149 6.997 7.014 6.997zm0-11.237c2.118 0 3.944 1.723 3.944 4.24 0 2.489-1.826 4.24-3.944 4.24s-3.943-1.748-3.943-4.24c0-2.517 1.825-4.24 3.943-4.24zm15.132 11.237c3.864 0 7.013-2.969 7.013-6.997 0-4.057-3.15-6.997-7.013-6.997-3.866 0-7.015 2.943-7.015 6.997 0 4.028 3.15 6.997 7.015 6.997zm0-11.237c2.118 0 3.943 1.723 3.943 4.24 0 2.489-1.825 4.24-3.943 4.24-2.118 0-3.944-1.748-3.944-4.24 0-2.517 1.826-4.24 3.944-4.24zm21.514-2.331v12.558c0 5.168-3.046 7.278-6.645 7.278-3.389 0-5.429-2.268-6.198-4.123l2.673-1.114c.476 1.14 1.643 2.483 3.52 2.483 2.306 0 3.734-1.423 3.734-4.1v-1.007h-.107c-.687.848-2.011 1.59-3.682 1.59-3.496 0-6.7-3.048-6.7-6.969 0-3.95 3.204-7.022 6.7-7.022 1.667 0 2.992.741 3.682 1.565h.107v-1.139h2.916zm-2.699 6.596c0-2.464-1.643-4.265-3.733-4.265-2.118 0-3.892 1.801-3.892 4.265 0 2.439 1.774 4.215 3.892 4.215 2.09 0 3.733-1.776 3.733-4.215zm19.177 2.278l2.383 1.59c-.77 1.139-2.623 3.1-5.826 3.1-3.972 0-6.938-3.072-6.938-6.996 0-4.161 2.991-6.997 6.595-6.997 3.628 0 5.402 2.89 5.983 4.451l.318.795-9.347 3.874c.716 1.404 1.828 2.12 3.389 2.12 1.563 0 2.649-.77 3.443-1.937zm-7.337-2.518l6.249-2.596c-.343-.874-1.377-1.482-2.595-1.482-1.56 0-3.732 1.378-3.654 4.078zM452.053 29.989c-2.175-.09-3.955-.707-5.346-1.855a10.88 10.88 0 0 1-1.11-1.153c-.565-.736-.95-1.453-1.205-2.248-.788-2.447-.382-5.66 1.16-9.184 1.32-3.017 3.355-6.01 6.908-10.155.522-.61 2.08-2.394 2.092-2.394.002 0-.082.153-.189.339-.923 1.605-1.714 3.496-2.145 5.134-.692 2.627-.608 4.882.245 6.63.588 1.204 1.596 2.247 2.73 2.824 1.985 1.01 4.891 1.093 8.439.244.244-.058 12.35-3.394 26.904-7.412S517 3.456 517 3.46c.004.003-33.81 15.02-51.365 22.81-2.78 1.233-3.522 1.545-4.83 2.021-3.34 1.218-6.333 1.799-8.752 1.699zM163.036 7.48v10.956c0 3.659-1.625 5.178-5.44 5.178-3.814 0-5.44-1.52-5.44-5.178V7h-3.674c-.322 0-.482.16-.482.48v11.136c0 6.118 3.915 8.257 9.596 8.257 5.682 0 9.596-2.139 9.596-8.257V7h-3.673c-.32 0-.483.16-.483.48zM216.294 10.179c.3 0 .441-.1.54-.32l1.065-2.62c.06-.159 0-.239-.16-.239h-14.796c-1.385 0-1.906.42-1.906 1.36v17.013c0 .8.4 1.16 1.464 1.16h13.793c.3 0 .441-.1.54-.32l1.065-2.619c.06-.16 0-.24-.16-.24h-12.627v-3.459c0-1.2.662-1.74 2.447-1.74h5.482c.302 0 .441-.099.542-.319l1.024-2.519c.06-.16 0-.24-.16-.24h-9.335V10.18h11.182zM186.395 23.394h-7.25v-3.579c0-1.2.663-1.739 2.45-1.739h4.8c2.308 0 2.95.88 2.95 2.68 0 1.799-.642 2.638-2.95 2.638zm-7.25-13.255h6.487c2.169 0 2.77.813 2.77 2.499 0 1.686-.601 2.5-2.77 2.5h-6.487v-5zm11.105 6.098c1.605-.84 2.267-2.42 2.267-4.279 0-4.318-3.532-4.958-7.186-4.958h-8.352c-1.385 0-1.906.42-1.906 1.36v17.013c0 .8.4 1.16 1.465 1.16h10.279c3.874 0 6.645-1.5 6.645-5.398 0-2.339-1.004-4.318-3.212-4.898zM235.88 16.057h-6.826v-5.918h6.825c2.55 0 3.113.98 3.113 2.959 0 2-.563 2.959-3.113 2.959zm7.668 10.136l-4.396-7.517c2.189-.56 3.954-2 3.954-5.658 0-4.738-2.95-6.018-7.828-6.018h-8.392c-1.386 0-1.907.42-1.907 1.36v17.693c0 .32.16.48.482.48h3.593v-5.698c0-1.2.662-1.74 2.449-1.74h3.614l3.974 7.119c.121.2.242.32.543.32h3.734c.261 0 .261-.221.18-.34zM310.984 14.147c0-.806.64-1.117 1.684-1.117 1.504 0 3.383.476 4.887 1.325V9.49c-1.629-.683-3.258-.952-4.887-.952-4.009 0-6.668 2.194-6.668 5.857 0 5.712 7.49 4.801 7.49 7.264 0 .951-.78 1.262-1.894 1.262-1.628 0-3.717-.704-5.373-1.655v4.925a13.032 13.032 0 0 0 5.373 1.18c4.107 0 6.933-2.132 6.933-5.837-.027-6.166-7.545-5.07-7.545-7.388zm13.337-9.746l-4.817 1.076-.014 16.576c0 3.063 2.186 5.318 5.11 5.318 1.614 0 2.797-.31 3.452-.683v-4.2c-.627.268-3.745 1.22-3.745-1.842v-7.347h3.745V8.891h-3.745l.014-4.49zm9.856 6.022l-.306-1.532h-4.26V27h4.928V14.727c1.156-1.593 3.133-1.304 3.745-1.076V8.89c-.626-.248-2.937-.703-4.107 1.532zm5.304-1.532h4.956V27h-4.956V8.89zm0-1.573l4.956-1.117V2l-4.956 1.097v4.221zM354.74 8.54c-1.935 0-3.188.952-3.87 1.615l-.264-1.283h-4.33V33l4.928-1.097.014-5.856c.71.538 1.754 1.304 3.495 1.304 3.536 0 6.752-2.98 6.752-9.54-.028-6.002-3.272-9.272-6.725-9.272zm-1.183 14.259c-1.17 0-1.865-.435-2.339-.973l-.014-7.678c.515-.6 1.225-1.013 2.353-1.013 1.782 0 3.035 2.11 3.035 4.821 0 2.773-1.225 4.843-3.035 4.843zM377 18.018c0-5.298-2.45-9.479-7.114-9.479-4.705 0-7.545 4.18-7.545 9.437 0 6.229 3.355 9.375 8.172 9.375 2.338 0 4.12-.56 5.457-1.346v-4.139c-1.337.704-2.882 1.139-4.831 1.139-1.907 0-3.606-.704-3.828-3.146h9.647c0-.269.042-1.345.042-1.842zm-9.745-1.967c0-2.338 1.364-3.31 2.603-3.31 1.211 0 2.492.972 2.492 3.31h-5.095z"/>
        <g>
            <path d="M591.265 6.499l-4.253 11.108L582.734 6.5h-7.314v20.133h5.264v-13.31l5.168 13.31h2.323l5.14-13.31v13.31h5.264V6.499zM609.253 22.89v-1.3c-.488-.695-1.591-1.027-2.626-1.027-1.225 0-2.358.545-2.358 1.69 0 1.146 1.133 1.692 2.358 1.692 1.035 0 2.138-.363 2.626-1.056v.001zm0 3.74v-1.449c-.917 1.084-2.69 1.811-4.589 1.811-2.264 0-5.076-1.541-5.076-4.801 0-3.53 2.81-4.704 5.076-4.704 1.963 0 3.706.63 4.589 1.719v-1.45c0-1.266-1.097-2.142-2.998-2.142-1.469 0-2.938.572-4.129 1.57l-1.742-3.232c1.898-1.598 4.437-2.263 6.697-2.263 3.549 0 6.888 1.301 6.888 5.827v9.116h-4.716v-.002zM614.607 24.73l1.958-3.318c1.104.962 3.456 1.96 5.205 1.96 1.405 0 1.986-.397 1.986-1.027 0-1.81-8.596.058-8.596-5.855 0-2.567 2.265-4.8 6.33-4.8 2.51 0 4.589.784 6.181 1.93l-1.8 3.295c-.89-.85-2.573-1.605-4.345-1.605-1.104 0-1.837.424-1.837.998 0 1.598 8.562-.059 8.562 5.918 0 2.772-2.474 4.766-6.697 4.766-2.66 0-5.383-.877-6.947-2.263M639.177 26.632v-8.488c0-1.775-.948-2.348-2.452-2.348-1.376 0-2.293.75-2.84 1.415v9.42h-4.717V6.498h4.717v7.333c.883-1.027 2.632-2.141 5.106-2.141 3.369 0 4.896 1.871 4.896 4.558v10.383h-4.71zM654.505 22.89v-1.3c-.49-.695-1.591-1.027-2.632-1.027-1.225 0-2.358.545-2.358 1.69 0 1.146 1.133 1.692 2.358 1.692 1.04 0 2.143-.363 2.632-1.056v.001zm0 3.74v-1.449c-.919 1.084-2.696 1.811-4.589 1.811-2.266 0-5.082-1.541-5.082-4.801 0-3.53 2.816-4.704 5.082-4.704 1.957 0 3.7.63 4.589 1.719v-1.45c0-1.266-1.105-2.142-2.998-2.142-1.469 0-2.94.572-4.135 1.57l-1.742-3.232c1.898-1.598 4.437-2.263 6.703-2.263 3.547 0 6.88 1.301 6.88 5.827v9.116h-4.708v-.002zM668.269 22.89c1.865 0 3.276-1.364 3.276-3.564 0-2.17-1.411-3.535-3.276-3.535-1.011 0-2.23.545-2.816 1.33v4.468c.586.785 1.806 1.301 2.816 1.301zm-7.527 3.74V6.5h4.71v7.274a5.492 5.492 0 0 1 4.38-2.082c3.7 0 6.517 2.868 6.517 7.635 0 4.95-2.876 7.666-6.517 7.666-1.655 0-3.154-.664-4.38-2.051v1.69h-4.71zM677.296 6.499h4.71v20.133h-4.71zM690.788 15.43c-2.052 0-2.846 1.21-3.033 2.264h6.093c-.126-1.027-.888-2.263-3.06-2.263m-7.836 3.895c0-4.222 3.212-7.637 7.836-7.637 4.373 0 7.556 3.168 7.556 8.118v1.06H687.82c.336 1.296 1.561 2.384 3.7 2.384 1.04 0 2.753-.453 3.613-1.238l2.044 3.048c-1.465 1.295-3.915 1.931-6.175 1.931-4.559 0-8.05-2.927-8.05-7.666"/>
        </g>
        <path d="M966.282 27.604v-9.656c0-3.644-2.31-6.096-6.027-6.129a5.92 5.92 0 0 0-5.381 2.743 5.616 5.616 0 0 0-5.061-2.743 5.058 5.058 0 0 0-4.48 2.292V12.18H942v15.424h3.366V19.06c0-2.677 1.471-4.094 3.75-4.094 2.277 0 3.333 1.449 3.333 4.062v8.575h3.346V19.06c0-2.677 1.536-4.094 3.75-4.094s3.365 1.449 3.365 4.062v8.575h3.372zm49.8-15.411h-5.445V7.519h-3.366v4.674h-3.11v3.064h3.11v7.023c0 3.58 1.376 5.71 5.318 5.71a7.797 7.797 0 0 0 4.165-1.19l-.96-2.872a6.128 6.128 0 0 1-2.95.87c-1.663 0-2.213-1.03-2.213-2.576v-6.965h5.445l.006-3.064zm28.429-.386a4.512 4.512 0 0 0-4.038 2.26v-1.874h-3.301v15.41h3.333v-8.638c0-2.575 1.088-3.966 3.27-3.966.714-.01 1.423.121 2.086.387l1.024-3.161a7.083 7.083 0 0 0-2.374-.418zm-42.979 1.609a11.4 11.4 0 0 0-6.251-1.61c-3.878 0-6.399 1.874-6.399 4.932 0 2.517 1.856 4.062 5.285 4.544l1.568.226c1.824.257 2.694.74 2.694 1.609 0 1.19-1.216 1.873-3.494 1.873a8.13 8.13 0 0 1-5.119-1.609l-1.516 2.607a11.003 11.003 0 0 0 6.635 2.002c4.421 0 6.987-2.098 6.987-5.027 0-2.71-2.022-4.127-5.349-4.61l-1.568-.225c-1.44-.193-2.597-.483-2.597-1.513 0-1.126 1.087-1.802 2.917-1.802 1.677.025 3.32.479 4.774 1.32l1.433-2.717zm89.272-1.61a4.512 4.512 0 0 0-4.037 2.26v-1.873h-3.302v15.41h3.334v-8.638c0-2.575 1.088-3.966 3.27-3.966.713-.01 1.422.121 2.085.387l1.024-3.161a7.083 7.083 0 0 0-2.374-.418zm-42.927 8.092c0 4.674 3.237 8.092 8.17 8.092 2 .1 3.966-.557 5.51-1.841l-1.6-2.71a6.705 6.705 0 0 1-4.005 1.384c-2.662 0-4.614-1.97-4.614-4.931 0-2.961 1.958-4.899 4.614-4.931a6.705 6.705 0 0 1 4.005 1.384l1.6-2.71a7.992 7.992 0 0 0-5.51-1.841c-4.933 0-8.17 3.418-8.17 8.091v.013zm31.212 0v-7.725h-3.334v1.874a5.796 5.796 0 0 0-4.837-2.26c-4.294 0-7.679 3.386-7.679 8.092s3.366 8.092 7.679 8.092a5.796 5.796 0 0 0 4.837-2.26v1.867h3.334v-7.68zm-12.4 0c0-2.71 1.759-4.93 4.645-4.93 2.757 0 4.613 2.13 4.613 4.93s-1.856 4.931-4.613 4.931c-2.886 0-4.646-2.227-4.646-4.93zm-40.222-8.091c-4.479 0-7.627 3.289-7.627 8.091 0 4.9 3.27 8.092 7.851 8.092a9.274 9.274 0 0 0 6.283-2.163l-1.631-2.485a7.274 7.274 0 0 1-4.48 1.61c-2.15 0-4.1-.998-4.58-3.773h11.376c.032-.418.064-.836.064-1.287 0-4.802-2.982-8.092-7.275-8.092l.02.007zm-.064 3c2.15 0 3.526 1.351 3.878 3.74h-7.941c.352-2.228 1.696-3.74 4.07-3.74h-.007zM1110 19.897V6h-3.334v8.06a5.796 5.796 0 0 0-4.837-2.26c-4.293 0-7.678 3.386-7.678 8.092s3.365 8.092 7.678 8.092a5.796 5.796 0 0 0 4.837-2.26v1.867H1110v-7.693zm-12.388 0c0-2.71 1.76-4.93 4.646-4.93 2.758 0 4.613 2.13 4.613 4.93s-1.855 4.931-4.613 4.931c-2.886 0-4.646-2.227-4.646-4.93zm-112.55 0v-7.725h-3.333v1.874a5.796 5.796 0 0 0-4.819-2.24c-4.293 0-7.678 3.386-7.678 8.091 0 4.706 3.366 8.092 7.678 8.092a5.796 5.796 0 0 0 4.838-2.26v1.867h3.333l-.019-7.699zm-12.4 0c0-2.71 1.76-4.93 4.645-4.93 2.758 0 4.613 2.13 4.613 4.93s-1.855 4.931-4.613 4.931c-2.886 0-4.645-2.22-4.645-4.93z"/>
    </g>
</svg>
