<svg xmlns="http://www.w3.org/2000/svg" width="428" height="339" viewBox="0 0 428 339">
    <g fill="none" fill-rule="evenodd">
        <path d="M214.019-18.222c104.438 0 189.108 84.67 189.108 189.117 0 104.448-84.67 189.118-189.118 189.118-104.447 0-189.107-84.67-189.107-189.118 0-104.447 84.67-189.117 189.117-189.117z"/>
        <path fill="#C5E2DF" fill-rule="nonzero" d="M214.5 85c-46.668 0-84.5 37.832-84.5 84.5s37.832 84.5 84.5 84.5 84.5-37.832 84.5-84.5c-.052-46.647-37.853-84.448-84.5-84.5m-.004-85C308.11 0 384 75.887 384 169.5S308.111 339 214.496 339 45 263.113 45 169.5 120.889 0 214.496 0z" opacity=".272"/>
        <g fill-rule="nonzero" transform="translate(0 61.665)">
            <path fill="#E2BC57" d="M244.036 50.496l63.754-.588-2.012 21.827z"/>
            <path fill="#FFF" d="M274.726 62.042l89.804-46.41 63.451 122.776-89.804 46.41z"/>
            <path fill="#EDC967" d="M347.762 64.675L244.036 50.496l-18.173 132.661 92.84 12.689 10.003-73.074a6.074 6.074 0 0 1 4.489-4.944l2.201-.626a8.218 8.218 0 0 0 6.074-6.643l6.292-45.884z"/>
            <path fill="#E2BC57" d="M227.324 172.548l45.552-15.431L241.93 65.86z"/>
            <path fill="#29246A" d="M241.122 72.276h-.075a.522.522 0 0 1-.446-.579l2.913-21.267a.512.512 0 0 1 .579-.446l71.355 9.803a.522.522 0 0 1-.142 1.025l-70.834-9.68-2.847 20.755a.522.522 0 0 1-.503.389zM325.973 143.3a.512.512 0 0 1-.513-.513v-.076l2.743-20.052a6.643 6.643 0 0 1 4.859-5.372l2.211-.626a7.753 7.753 0 0 0 5.694-6.273l6.197-45.286-13.191-1.804a.522.522 0 0 1 .142-1.024l13.704 1.898c.277.043.47.3.436.578l-6.273 45.809a8.769 8.769 0 0 1-6.443 7.117l-2.202.627a5.561 5.561 0 0 0-4.119 4.517l-2.761 20.052a.522.522 0 0 1-.484.427zM318.713 196.34h-.067l-61.106-8.352a.522.522 0 0 1-.237-.927.512.512 0 0 1 .38-.098l60.593 8.285 2.183-15.944a.512.512 0 0 1 .579-.446c.281.04.48.297.446.58l-2.259 16.455a.522.522 0 0 1-.512.446z"/>
            <path fill="#FFF" d="M124.99 54.576l95.56-32.382 44.273 130.649-95.56 32.382z"/>
            <path fill="#FFF" d="M.49 151.784L67.684 31.308l88.118 49.147L88.61 200.931z"/>
            <path fill="#29246A" d="M191.547 178.185a.512.512 0 0 1-.171-.95l72.798-24.673-8.541-25.234a.512.512 0 0 1 .949-.333l8.712 25.718a.512.512 0 0 1-.323.655l-73.273 24.788-.151.029zM244.16 92.366a.512.512 0 0 1-.485-.35l-23.45-69.183-41.262 13.988a.512.512 0 0 1-.332-.949l41.756-14.15a.512.512 0 0 1 .655.323l23.61 69.638a.522.522 0 0 1-.331.655.816.816 0 0 1-.162 0v.028z"/>
            <path fill="#E2BC57" d="M150.512 26.297l-85.316 60.68 77.581 109.134 76.357-54.311-42.705-60.11a6.064 6.064 0 0 1-.114-6.643l1.148-2.03a8.237 8.237 0 0 0-.151-9.045l-26.8-37.675z"/>
            <path fill="#29246A" d="M160.495 40.855a.531.531 0 0 1-.427-.219l-9.68-13.618-6.728 4.745a.512.512 0 0 1-.721-.123.503.503 0 0 1 .123-.712l7.146-5.087a.512.512 0 0 1 .721.124l9.984 14.045a.512.512 0 0 1-.418.807v.038zM182.256 90.43a.512.512 0 0 1-.418-.218l-5.874-8.256a6.643 6.643 0 0 1-.133-7.25l1.177-1.965a7.734 7.734 0 0 0-.133-8.475.522.522 0 0 1 .123-.72.531.531 0 0 1 .722.123 8.778 8.778 0 0 1 .17 9.603l-1.176 1.965a5.6 5.6 0 0 0 .095 6.121l5.864 8.256a.503.503 0 0 1-.113.712.522.522 0 0 1-.304.095v.01zM187.902 164.481a.522.522 0 0 1-.512-.522.503.503 0 0 1 .218-.417l30.786-21.894-17.936-25.234a.512.512 0 1 1 .835-.598l18.24 25.623a.512.512 0 0 1-.124.722l-31.203 22.197a.55.55 0 0 1-.304.123z"/>
            <path fill="#3B2F85" d="M36.834 158.144l9.695-17.47a5 5 0 0 1 6.798-1.945l43.499 24.142a5 5 0 0 1 1.945 6.798l-9.695 17.469a5 5 0 0 1-6.798 1.945L38.78 164.942a5 5 0 0 1-1.945-6.798zM261.262 104.361l3.484-26.352 47.596 6.291-3.484 26.353z"/>
            <path fill="#FFF" d="M288.667 108.5h-.066l-27.398-3.626a.512.512 0 0 1-.446-.579l2.458-18.6a.517.517 0 1 1 1.025.133l-2.391 18.088 26.885 3.559a.514.514 0 0 1-.067 1.024zM308.881 111.176h-.066a.512.512 0 0 1-.446-.58l3.426-25.85-13.723-1.813a.517.517 0 0 1 .133-1.025l14.235 1.898c.281.04.48.297.446.58l-3.511 26.344a.522.522 0 0 1-.494.446z"/>
            <circle cx="202.944" cy="61.818" r="18.828" fill="#2CD5C4"/>
            <path fill="#29246A" d="M202.906 81.178a19.246 19.246 0 0 1-9.623-2.591.54.54 0 1 1 .513-.95c8.765 5.05 19.963 2.037 25.012-6.728 5.049-8.765 2.037-19.963-6.728-25.013-8.764-5.05-19.963-2.038-25.013 6.726a.514.514 0 1 1-.892-.512 19.331 19.331 0 1 1 16.731 29.02v.048z"/>
            <path fill="#3B2F85" d="M207.091 40.285l-4.147 21.533 15.905-15.317z"/>
            <path fill="#FFF" d="M124.993 6.396l7.393.342L129.918 0zM277.602 211.087l2.392 4.422 3.055-3.796zM168.98 31.013l4.526-2.182-3.635-3.208z"/>
            <path fill="#EDC967" d="M135.309 20.062l-21.353 20.29-48.883 46.453 77.581 109.135 62.71-59.787-42.705-60.1a7.127 7.127 0 0 1-.607-6.88l.901-2.079a9.604 9.604 0 0 0-.816-9.3l-26.828-37.732z"/>
            <path fill="#FFF" d="M126.663 57.31L94.397 87.991l16.74 23.536 32.267-30.748z"/>
            <path fill="#3B2F85" d="M119.622 71.175l-19.104 18.107 1.822 2.562 19.075-18.192zM114.535 84.461l-10.439 9.841 1.822 2.563 10.44-9.87zM123.19 84.461l-15.526 14.805 1.822 2.562 15.507-14.842z"/>
            <path fill="#29246A" d="M102.739 100.272a.503.503 0 0 1-.418-.219l-8.37-11.796a.522.522 0 0 1 .845-.598l8.37 11.768a.522.522 0 0 1-.123.721.484.484 0 0 1-.304.095v.029zM149.354 40.323a.503.503 0 0 1-.427-.218L136.4 22.482a.514.514 0 1 1 .835-.598l12.537 17.623a.512.512 0 0 1-.124.721.542.542 0 0 1-.294.095zM198.968 127.631a.51.51 0 0 1-.418-.218L162.203 76.3a7.649 7.649 0 0 1-.664-7.383l.902-2.079a9.12 9.12 0 0 0-.769-8.797l-6.643-9.357a.522.522 0 0 1 .845-.598l6.643 9.357a10.202 10.202 0 0 1 .873 9.813l-.95 2.069a6.643 6.643 0 0 0 .56 6.377l36.347 51.113a.503.503 0 0 1-.417.807l.038.01z"/>
            <path fill="#29246A" d="M110.663 151.432a.51.51 0 0 1-.417-.218L64.693 87.099a.493.493 0 0 1 .067-.664l53.353-50.705a.517.517 0 0 1 .712.75L65.756 86.872l45.325 63.744a.503.503 0 0 1-.124.712.427.427 0 0 1-.294.095v.01z"/>
            <path fill="#3B2F85" d="M196.731 89.069l28.665-9.647 1.008 2.995-28.665 9.647zM198.702 95.043l16.444-5.528 1.007 2.996-16.444 5.527zM200.683 101.008l9.588-3.227 1.008 2.995-9.588 3.227zM213.998 96.549l11.847-3.983 1.007 2.996-11.847 3.982zM202.651 107.016l16.444-5.527 1.007 2.995-16.444 5.528z"/>
            <path fill="#FFF" d="M60.38 157.959l1.564-2.746 18.94 10.79-1.564 2.746zM57.258 163.411l1.565-2.745 10.867 6.191-1.564 2.746zM267.674 85.231l.419-3.132 31.361 4.19-.418 3.132zM266.827 91.442l.418-3.132 17.995 2.404-.419 3.132zM175.958 2.037l23.536-.05.006 3.16-23.535.05z"/>
            <circle cx="145.33" cy="163.969" r="8.513" fill="#FFF"/>
            <path fill="#FFF" d="M54.302 149.07a5.893 5.893 0 1 1-8.048 2.163 5.884 5.884 0 0 1 8.048-2.164z"/>
            <path fill="#29246A" d="M145.33 172.984a9.016 9.016 0 0 1-7.82-13.552.514.514 0 1 1 .892.513 8 8 0 0 0 10.895 10.942.522.522 0 0 1 .512.901 9.149 9.149 0 0 1-4.479 1.196zM152.704 168.733a.522.522 0 0 1-.446-.779 8 8 0 0 0-2.933-10.923.514.514 0 0 1 .513-.892 9.035 9.035 0 0 1 3.312 12.337.503.503 0 0 1-.446.257zM293.356 52.793a.512.512 0 0 1-.238-.949l56.75-29.694a.53.53 0 0 1 .475.949l-56.75 29.694a.512.512 0 0 1-.237 0zM404.275 92.594a.503.503 0 0 1-.456-.285l-27.065-51.73a.514.514 0 0 1 .892-.512l27.065 51.73a.522.522 0 0 1-.208.702.55.55 0 0 1-.247.057l.019.038zM352.346 177.625a.522.522 0 0 1-.522-.513c0-.191.105-.367.275-.455l53.334-27.9a.522.522 0 0 1 .692.246.512.512 0 0 1-.218.664l-53.334 27.9a.475.475 0 0 1-.227.058zM56.304 183.433a.56.56 0 0 1-.246-.067L14.605 160.25a.537.537 0 1 1 .503-.95l41.443 23.118a.512.512 0 0 1-.247.968v.048zM91.75 195.808a.512.512 0 0 1-.513-.513.474.474 0 0 1 .067-.256l17.879-32.057a.522.522 0 0 1 .711-.162.522.522 0 0 1 .19.665l-17.879 32.057a.531.531 0 0 1-.455.266zM45.116 72.276a.513.513 0 0 1-.446-.769l22.557-40.456a.538.538 0 0 1 .95.503L45.551 72.01a.531.531 0 0 1-.436.266z"/>
            <path fill="#29246A" d="M94.378 46.71a.57.57 0 0 1-.256-.067l-26.695-14.89a.537.537 0 0 1 .503-.948l26.695 14.937a.512.512 0 0 1 .2.702.531.531 0 0 1-.447.266z"/>
        </g>
    </g>
</svg>
