<svg xmlns="http://www.w3.org/2000/svg" width="50" height="51" viewBox="0 0 50 51">
    <g fill="none" fill-rule="evenodd" transform="translate(0 .29)">
        <ellipse cx="24.828" cy="25" fill="#EFF2F6" rx="24.828" ry="25"/>
        <path d="M12.414 12.5h24.828v25H12.414z"/>
        <path fill="#18214D" d="M31.703 23.603h-6.728c0 .7 0 2.099-.004 2.798h3.898c-.149.7-.679 1.68-1.427 2.172 0 0-.001.005-.003.004-.995.657-2.308.806-3.283.61a4.33 4.33 0 0 1-3.228-2.82c.003-.002.005-.021.007-.023-.307-.873-.307-2.042 0-2.741.395-1.286 1.641-2.46 3.171-2.78 1.231-.261 2.62.021 3.641.977.136-.133 1.88-1.836 2.01-1.974-3.489-3.16-9.076-2.049-11.166 2.032h-.001l-.004.008a6.837 6.837 0 0 0 .008 6.274l-.008.006a7.126 7.126 0 0 0 4.536 3.616c2.108.552 4.79.174 6.587-1.45l.002.001c1.523-1.37 2.47-3.707 1.992-6.71"/>
    </g>
</svg>
