<svg xmlns="http://www.w3.org/2000/svg" width="50" height="50" viewBox="0 0 50 50">
    <g fill="none" fill-rule="evenodd">
        <ellipse cx="24.828" cy="25" fill="#EFF2F6" rx="24.828" ry="25"/>
        <g fill="#18214D" fill-rule="nonzero">
            <path d="M28.925 15.625h-8.298c-2.817 0-5.11 2.308-5.11 5.146v8.355c0 2.837 2.293 5.146 5.11 5.146h8.298c2.818 0 5.11-2.309 5.11-5.146V20.77c0-2.838-2.292-5.146-5.11-5.146zm3.467 13.5c0 1.926-1.555 3.492-3.467 3.492h-8.298c-1.911 0-3.467-1.566-3.467-3.491V20.77c0-1.925 1.556-3.492 3.467-3.492h8.298c1.912 0 3.467 1.567 3.467 3.492v8.355z"/>
            <path d="M24.776 20.144c-2.63 0-4.771 2.155-4.771 4.804 0 2.65 2.14 4.805 4.771 4.805s4.772-2.155 4.772-4.805c0-2.649-2.14-4.804-4.772-4.804zm0 7.954c-1.725 0-3.128-1.413-3.128-3.15 0-1.737 1.403-3.15 3.128-3.15s3.129 1.413 3.129 3.15c0 1.737-1.404 3.15-3.129 3.15zM29.748 18.74c-.317 0-.628.13-.851.356a1.223 1.223 0 0 0-.354.858 1.21 1.21 0 0 0 1.205 1.213c.318 0 .628-.13.852-.355a1.223 1.223 0 0 0 0-1.716 1.206 1.206 0 0 0-.852-.355z"/>
        </g>
    </g>
</svg>
