<svg xmlns="http://www.w3.org/2000/svg" width="50" height="51" viewBox="0 0 50 51">
    <g fill="none" fill-rule="evenodd" transform="translate(.345 .29)">
        <ellipse cx="24.828" cy="25" fill="#EFF2F6" rx="24.828" ry="25"/>
        <path d="M12.414 12.5h24.828v25H12.414z"/>
        <path fill="#18214D" d="M32.828 31.958H29.75v-5.603c0-1.537-.652-2.394-1.82-2.394-1.272 0-2.026.893-2.026 2.394v5.603h-3.077V21.551h3.077v1.17s.965-1.763 3.14-1.763c2.176 0 3.783 1.382 3.783 4.242v6.758zm-14.5-13a1.5 1.5 0 1 1 0-3 1.5 1.5 0 0 1 0 3zm-1.5 13h3v-10h-3v10z"/>
    </g>
</svg>
