<svg xmlns="http://www.w3.org/2000/svg" width="50" height="50" viewBox="0 0 50 50">
    <g fill="none" fill-rule="evenodd">
        <ellipse cx="24.828" cy="25" fill="#EFF2F6" rx="24.828" ry="25"/>
        <g fill-rule="nonzero">
            <path fill="#18214D" d="M15.517 15.625h18.621v18.75h-18.62z"/>
            <path fill="#FFF" d="M19.96 21.896a.49.49 0 0 0-.157-.412l-1.168-1.417v-.211h3.627l2.803 6.19 2.464-6.19h3.458v.211l-.999.965a.295.295 0 0 0-.11.282v7.084a.295.295 0 0 0 .11.282l.975.964v.212h-4.905v-.212l1.01-.988c.1-.1.1-.129.1-.282v-5.726l-2.81 7.184h-.38l-3.27-7.184v4.815a.667.667 0 0 0 .181.553l1.314 1.605v.211h-3.726v-.211l1.314-1.605a.644.644 0 0 0 .17-.553v-5.567z"/>
        </g>
    </g>
</svg>
