<svg xmlns="http://www.w3.org/2000/svg" xmlns:xlink="http://www.w3.org/1999/xlink" width="662" height="597" viewBox="0 0 662 597">
    <defs>
        <path id="a" d="M111.119 24.448L94.873 14.142 62.243 3.736a63.13 63.13 0 0 0-42.64 1.535L.14 13.06l2.137 33.3 25.13-8.058-2.377 15.314L12.77 80.581c-1.814 3.99.325 8.658 4.532 9.894l62.835 18.457c3.916 1.15 8.005-1.173 9.018-5.123l7.784-30.352 2.422 14.036 24.228 2.346 2.51-35.747a32.417 32.417 0 0 0-14.98-29.644z"/>
        <path id="c" d="M30.84 23.6c-.332-4.488 4.062-17.326 6.301-23.184-7.77-1.018-23.739-.67-25.458 8.858-1.719 9.53-5.822 10.74-7.659 10.155-3.379 3.669-7.591 12.366 2.593 17.805 10.184 5.439 22.25-1.119 27.01-5.077-.79-.983-2.453-4.07-2.787-8.557z"/>
        <path id="e" d="M36.752 3.066L49.068.162h28.17a60.644 60.644 0 0 1 33.187 9.887l25.712 16.81-11.697 29.89-20.657-14.729-2.302 14.73 3.341 28.294c.494 4.186-2.83 7.84-7.044 7.742l-61.207-1.411c-4.519-.104-7.73-4.436-6.517-8.79l4.602-16.516-4.828-12.155-6.324 12.155L.632 61.138 14.6 22.757a31.19 31.19 0 0 1 22.15-19.69z"/>
        <path id="g" d="M34.625 10.527v3.648c1.62-.405 4.864-.486 4.864 2.433 0 3.648-2.432 6.08-4.864 4.864-.316 3.79-2.355 11.273-8.418 14.392.217 2.858.852 6.96 2.337 9.93 1.946 3.891 5.675 5.675 7.297 6.08-2.433 2.837-9.243 8.513-17.025 8.513-7.784 0-13.783-5.676-15.81-8.513 1.216-.405 4.378-1.945 7.297-4.864 2.297-2.298 2.736-7.76 2.621-11.76-5.054-3.4-6.595-10.218-7.486-13.778-1.621.405-4.864.243-4.864-3.648 0-3.892 3.648-4.054 4.864-3.649v-3.648c2.433.405 8.756.243 14.594-3.648 5.837-3.892 7.296-5.675 7.296-6.08 0 2.026.894 5.758 2.432 7.296 2.433 2.432 4.054 2.027 4.865 2.432z"/>
    </defs>
    <g fill="none" fill-rule="evenodd" transform="rotate(-5 -346.478 590.427)">
        <path fill="#FFF" fill-rule="nonzero" d="M173.869 245.515l207.665-119.856c27.081-15.612 61.695-6.337 77.343 20.724l119.915 207.63c15.65 27.067 6.379 61.69-20.695 77.327-.005.003-.01.005-.023-.006L350.41 551.19c-27.081 15.611-61.695 6.336-77.343-20.724L153.151 322.835c-15.651-27.066-6.379-61.69 20.695-77.326.005-.003.01-.006.023.006z" opacity=".038"/>
        <g transform="rotate(15 -327.159 2138.352)">
            <circle cx="23.261" cy="23.72" r="19.581" fill="#FFAE64" fill-rule="nonzero" transform="rotate(12.086 23.26 23.72)"/>
            <circle cx="28.367" cy="24.813" r="19.581" fill="#FFE071" fill-rule="nonzero" transform="rotate(12.086 28.367 24.813)"/>
            <text fill="#B39E53" font-family="Roboto-Light, Roboto Light" font-size="29.631" letter-spacing=".152" transform="rotate(26 23.358 23.743)">
                <tspan x="16.567" y="33.743">₦</tspan>
            </text>
        </g>
        <g transform="rotate(15 26.396 1887.714)">
            <ellipse cx="40.785" cy="40.871" fill="#FFAE64" fill-rule="nonzero" rx="33.808" ry="33.75" transform="rotate(12.086 40.785 40.87)"/>
            <ellipse cx="48.656" cy="42.553" fill="#FFE071" fill-rule="nonzero" rx="33.808" ry="33.75" transform="rotate(12.086 48.656 42.553)"/>
            <text fill="#B39E53" font-family="Roboto-Light, Roboto Light" font-size="48.15" letter-spacing=".247" transform="rotate(24 38.108 39.232)">
                <tspan x="31.317" y="55.732">₦</tspan>
            </text>
        </g>
        <path fill="#2C2770" d="M224.291 369.95c2.433 2.053 2.734 5.658.673 8.05l-9.898 11.483c-2.062 2.391-5.705 2.666-8.138.611-2.433-2.053-2.734-5.657-.673-8.048l9.899-11.484c2.061-2.392 5.704-2.666 8.137-.612zM406.798 418.852c-3.134.562-5.197 3.533-4.607 6.635l2.83 14.894c.59 3.102 3.607 5.161 6.741 4.598 3.134-.562 5.197-3.532 4.608-6.633l-2.83-14.894c-.59-3.103-3.609-5.162-6.742-4.6zM309.44 392.765c2.432 2.054 2.734 5.658.671 8.05l-9.897 11.483c-2.061 2.392-5.705 2.666-8.138.612s-2.734-5.657-.672-8.049l9.897-11.483c2.062-2.393 5.706-2.666 8.139-.613zM503.634 444.8c-3.135.56-5.197 3.532-4.608 6.634l2.83 14.894c.59 3.102 3.608 5.161 6.742 4.598 3.133-.562 5.196-3.532 4.606-6.634l-2.83-14.894c-.589-3.102-3.607-5.16-6.74-4.599z"/>
        <path fill="#2C2770" fill-rule="nonzero" d="M410.153 423.65l101.905 27.305c9.648 2.586 19.622-3.352 22.277-13.26l44.739-166.97c2.655-9.909-3.014-20.037-12.662-22.623l-101.905-27.305-54.354 202.853z"/>
        <path fill="#A3B7FF" fill-rule="nonzero" d="M190.075 346.762c-2.474 9.233 2.813 18.672 11.81 21.083l212.848 57.032c8.996 2.41 18.295-3.12 20.77-12.353l45.394-169.416c2.474-9.234-2.813-18.673-11.81-21.084L256.24 164.992c-8.996-2.41-18.295 3.12-20.77 12.354l-45.394 169.416z"/>
        <path fill="#6B8CFF" fill-rule="nonzero" d="M481.067 245.813c-23.723 38.313-88.722 105.12-169.467 93.211-83.285-12.285-106.113 13.963-107.116 28.623l215.43 57.724c7.512-.019 14.42-5.151 16.496-12.896l44.657-166.662z"/>
        <path stroke="#FFF" stroke-width="1.728" d="M221.69 357.047l177.951 47.681c7.108 1.905 14.449-2.45 16.399-9.726l37.452-139.774c1.95-7.276-2.23-14.717-9.339-16.622l-177.95-47.682c-7.108-1.904-14.45 2.45-16.399 9.726l-37.452 139.774c-1.95 7.276 2.231 14.718 9.338 16.623z"/>
        <path fill="#4E5F9A" fill-rule="nonzero" d="M332.317 340.151c-.495 1.85.555 3.74 2.346 4.22l66.14 17.722c1.791.48 3.645-.631 4.14-2.481l21.244-79.283c.496-1.85-.554-3.739-2.345-4.219l-66.14-17.722c-1.791-.48-3.645.63-4.14 2.481l-21.245 79.282z"/>
        <path fill="#282F48" fill-rule="nonzero" d="M329.813 339.48c-.496 1.85.554 3.74 2.344 4.22l66.142 17.722c1.79.48 3.645-.631 4.14-2.481l21.244-79.283c.496-1.85-.554-3.739-2.345-4.219l-66.142-17.722c-1.79-.48-3.643.63-4.14 2.481l-21.243 79.282z"/>
        <path fill="#3D4667" fill-rule="nonzero" d="M346.81 276.048c-.494 1.844.557 3.728 2.347 4.208l66.142 17.722c1.79.48 3.643-.626 4.137-2.47l4.474-16.695c.494-1.845-.558-3.729-2.348-4.209l-66.142-17.722c-1.79-.48-3.643.626-4.137 2.47l-4.473 16.696z"/>
        <path fill="#1BE3B3" fill-rule="nonzero" d="M350.848 297.709c-.741 2.766.75 5.57 3.333 6.261l2.338.626c2.58.692 5.275-.99 6.016-3.756l.67-2.504c.742-2.766-.75-5.57-3.331-6.261l-2.338-.627c-2.582-.692-5.276.99-6.017 3.756l-.671 2.505zM372.552 303.524c-.741 2.767.75 5.57 3.333 6.262l2.337.626c2.582.692 5.276-.99 6.017-3.756l.671-2.505c.741-2.766-.75-5.569-3.333-6.261l-2.336-.626c-2.583-.692-5.277.99-6.018 3.756l-.67 2.504zM393.422 309.116c-.741 2.767.75 5.57 3.333 6.262l2.336.626c2.583.692 5.277-.99 6.018-3.756l.67-2.504c.742-2.767-.75-5.57-3.332-6.262l-2.337-.626c-2.582-.692-5.276.99-6.017 3.756l-.671 2.504zM346.374 314.405c-.741 2.766.75 5.569 3.333 6.26l2.338.627c2.581.692 5.275-.99 6.016-3.756l.671-2.504c.741-2.767-.75-5.57-3.332-6.262l-2.337-.626c-2.583-.692-5.277.99-6.018 3.756l-.671 2.505zM368.078 320.22c-.74 2.767.751 5.57 3.334 6.262l2.336.626c2.583.692 5.276-.99 6.017-3.756l.672-2.505c.74-2.766-.751-5.57-3.334-6.261l-2.336-.626c-2.583-.692-5.276.99-6.017 3.756l-.672 2.504zM388.948 325.812c-.741 2.767.75 5.57 3.333 6.262l2.337.626c2.582.692 5.276-.99 6.017-3.756l.671-2.505c.741-2.766-.75-5.57-3.333-6.261l-2.336-.626c-2.583-.692-5.277.99-6.018 3.756l-.67 2.504zM341.453 332.77c-.741 2.766.75 5.57 3.333 6.261l2.338.626c2.581.692 5.275-.99 6.016-3.756l.671-2.504c.741-2.767-.75-5.57-3.332-6.261l-2.337-.627c-2.583-.692-5.277.99-6.018 3.756l-.67 2.505zM363.158 338.585c-.742 2.767.75 5.57 3.333 6.262l2.336.626c2.583.692 5.276-.99 6.018-3.756l.67-2.504c.742-2.767-.75-5.57-3.333-6.262l-2.336-.626c-2.583-.692-5.276.99-6.017 3.756l-.671 2.504zM384.027 344.177c-.741 2.767.75 5.57 3.333 6.262l2.337.626c2.582.692 5.276-.99 6.017-3.756l.671-2.504c.742-2.767-.75-5.57-3.333-6.262l-2.336-.626c-2.583-.692-5.276.99-6.018 3.756l-.67 2.504z"/>
        <path fill="#FFF" d="M434.268 306.938c2.141-7.99 10.123-12.795 17.83-10.73l4.293 1.15c2.37.635 3.76 3.144 3.1 5.602-.659 2.46-3.115 3.937-5.486 3.302l-4.294-1.15c-2.963-.794-6.034 1.053-6.857 4.127l-9.693 36.175c-.824 3.073.911 6.209 3.875 7.003l4.294 1.15c2.37.636 3.759 3.143 3.1 5.603-.659 2.46-3.115 3.936-5.486 3.301l-4.294-1.15c-7.706-2.065-12.216-10.217-10.075-18.208l9.693-36.175z"/>
        <path fill="#2C2770" fill-rule="nonzero" d="M226.132 198.839c.97-3.617 4.558-5.799 8.016-4.872 3.458.926 5.475 4.61 4.506 8.227l-4.095 15.283c-.97 3.617-4.558 5.799-8.016 4.872-3.458-.926-5.475-4.61-4.506-8.227l4.095-15.283zM195.935 311.535c.97-3.618 4.558-5.799 8.016-4.872 3.458.926 5.475 4.61 4.506 8.227l-4.095 15.283c-.97 3.617-4.558 5.799-8.016 4.872-3.458-.926-5.475-4.61-4.506-8.227l4.095-15.283z"/>
        <g>
            <path fill="#6B8CFF" fill-rule="nonzero" d="M392.075 155.23c5.657 13.898 7.21 30.96 6.03 38.762 2.616 4.828 3.943-5.96 5.16-19.254s-1.957-33.542-8.68-36.169c-6.723-2.627-9.395-.251-2.51 16.662z"/>
            <path fill="#54B7FF" fill-rule="nonzero" d="M404.37 146.884c3.285 14.641-4.085 38.444-8.157 45.202.57 5.46 5.52-4.439 13.52-15.133 7.997-10.69 14.404-33.72 4.842-44.781-4.72-5.46-14.691-5.279-10.206 14.712z"/>
            <path fill="#6B8CFF" fill-rule="nonzero" d="M424.146 168.498c-9.499 7.44-17.426 18.74-19.743 24.665-3.75 2.324-.336-5.748 4.16-15.527 4.497-9.779 14.826-22.654 20.536-21.79 5.71.864 6.606 3.598-4.953 12.652z"/>
            <path stroke="#FFF" stroke-width=".691" d="M404.776 178.756c3.096-5.434 12.734-34.167 5.005-42.053M399.82 181.454c1.662-6.029-.66-29.256-7.413-39.117M408.808 183.496c1.575-6.052 11.21-19.023 18.51-22.858"/>
            <path fill="#2C2770" fill-rule="nonzero" d="M391.939 173.802l26.045 6.979-4.074 21.826a4.321 4.321 0 0 1-5.366 3.38l-21.033-5.635a4.321 4.321 0 0 1-2.957-5.611l7.385-20.939z"/>
        </g>
        <path fill="#F3F6FF" fill-rule="nonzero" d="M158.427 71.687l25.833-14.91a8.585 8.585 0 0 1 11.719 3.14l14.913 25.822a8.574 8.574 0 0 1-3.136 11.716h-.003l-25.833 14.909a8.585 8.585 0 0 1-11.719-3.14l-14.913-25.822a8.574 8.574 0 0 1 3.14-11.715z" opacity=".129"/>
        <path fill="#F3F6FF" fill-rule="nonzero" d="M375.553 561.398l21.095-12.175a8.585 8.585 0 0 1 11.719 3.14l12.177 21.085a8.574 8.574 0 0 1-3.135 11.716h-.004l-21.095 12.175a8.585 8.585 0 0 1-11.718-3.14l-12.178-21.086a8.574 8.574 0 0 1 3.139-11.715z"/>
        <ellipse cx="219.69" cy="540.715" fill="#FFE071" fill-rule="nonzero" rx="26.138" ry="26.145" transform="rotate(74.612 219.69 540.715)"/>
        <g fill-rule="nonzero" transform="translate(42.007 130.56)">
            <rect width="145.895" height="100.376" fill="#FFF" rx="6.004"/>
            <ellipse cx="23.601" cy="27.882" fill="#A3B7FF" rx="7.295" ry="7.292"/>
            <path fill="#5FFFD8" d="M17.164 67.776h14.589v20.59H17.164z"/>
            <path fill="#1BE3B3" d="M17.164 53.191h14.589v20.59H17.164z"/>
            <path fill="#5FFFD8" d="M42.052 70.349h14.589v18.874H42.052z"/>
            <path fill="#1BE3B3" d="M42.052 61.77h14.589v17.158H42.052z"/>
            <path fill="#5FFFD8" d="M66.94 58.338h14.589v30.885H66.94z"/>
            <path fill="#1BE3B3" d="M66.94 47.186h14.589v20.59H66.94z"/>
            <path fill="#5FFFD8" d="M91.828 58.338h14.589v30.885H91.828z"/>
            <path fill="#1BE3B3" d="M91.828 31.743h14.589v30.885H91.828z"/>
            <path fill="#5FFFD8" d="M116.716 58.338h14.589v30.885h-14.589z"/>
            <path fill="#1BE3B3" d="M116.716 41.18h14.589v30.885h-14.589z"/>
        </g>
        <g>
            <path fill="#FFAE64" fill-rule="nonzero" d="M141.25 545.1l-2.155-14.519c-1.146-7.723 9.88-18.708 9.88-18.708l-11.468-11.091-11.291 13.02-7.88 5.143 20.809 26.61 2.105-.455z"/>
            <path fill="#2C2770" fill-rule="nonzero" d="M130.274 549.268l8.04 6.976a3.893 3.893 0 0 0 3.807.743c1.98-.675 3.082-2.794 2.527-4.811a399.882 399.882 0 0 1-2.723-10.483c-2.142-8.704-2.16-13.283-2.16-13.283s-4.946-.868-9.825-5.1c-4.879-4.234-4.375-10.072-4.375-10.072a30.142 30.142 0 0 0-14.395 16.175l-.284.752 8.867 8.834 2.756.11 3.235 4.961a24.84 24.84 0 0 0 4.53 5.198z"/>
            <path fill="#FFAE64" fill-rule="nonzero" d="M228.175 602.79l-12.873-5.5c-6.848-2.926-10.254-17.377-10.254-17.377l-14.751 3.784 4.926 15.683.236 8.975 32.033-3.626.683-1.939z"/>
            <path fill="#2C2770" fill-rule="nonzero" d="M226.068 613.794l9.692-3.052a3.72 3.72 0 0 0 2.51-2.723c.442-1.947-.728-3.901-2.644-4.457a382.197 382.197 0 0 1-9.881-3.023c-8.142-2.606-11.872-4.878-11.872-4.878s-3.181 3.587-9.062 5.439c-5.88 1.852-10.37-1.473-10.37-1.473a28.732 28.732 0 0 0 5.934 19.782l.47.606 11.615-2.796 1.468-2.186 5.65-.151a23.714 23.714 0 0 0 6.49-1.088zM217.184 588.319l-29.123 8.566-34.441-103.738-67.487-45.486a45.014 45.014 0 0 1-14.529-16.088l-13.53-25.282 54.02-27.03 48.076 2.722 24.81 2.822c14.152 1.61 20.42 18.66 10.684 29.068l-55.59 15.864 42.38 36.174a13.502 13.502 0 0 1 4.292 6.835l30.438 115.573z"/>
            <path fill="#2C2770" fill-rule="nonzero" d="M120.808 507.368l42.93-94.743 35.922-4.478-52.956 119.647z"/>
            <path stroke="#FFF" stroke-width="1.083" d="M69.925 410.008l4.922 8.572a90.106 90.106 0 0 0 27.928 29.948l58.764 39.436 34.584 105.951M134.331 424.824l33.764-8.103-12.077 27.969M126.834 510.748l12.463-27.737"/>
            <g transform="matrix(-1 0 0 1 221.36 234.162)">
                <path fill="#FFBA5F" fill-rule="nonzero" d="M72.463 91.68l14.326-8.477 5.127 24.01-13.665 7.702c-9.933 5.598-22.532 1.692-27.549-8.541l-29.728-60.64-8.331-4.998-6.708-4.626a9.362 9.362 0 0 1-4.012-6.89 6.552 6.552 0 0 1 2.075-5.378l7.497-6.946L1.203 4.753c-1-1.18-.711-2.972.609-3.778a2.522 2.522 0 0 1 3.025.3l13.94 12.873 2.564-1.318a2.705 2.705 0 0 1 3.166.509l5.095 5.181a7.203 7.203 0 0 1 2.04 4.424l.97 11.074 39.85 57.661z"/>
                <path stroke="#000" stroke-width="1.083" d="M6.365 21.727l8.456 8.372c.839.831 2.179.87 3.065.09a2.244 2.244 0 0 0 .388-2.927l-1.848-2.78M2.336 25.602l9.367 7.49c.882.706 2.16.608 2.923-.223a2.145 2.145 0 0 0-.058-2.966l-.408-.41"/>
                <path stroke="#000" stroke-width="1.083" d="M3.86 33.149l7.445 5.562c.944.705 2.27.582 3.067-.286.771-.838.81-2.114.093-2.999l-1.732-2.134M17.254 15.488l-7.71 6.642a1.626 1.626 0 0 0-.237 2.21 4.073 4.073 0 0 0 4.802 1.317l7.95-3.269c-1.254 1.527-1.602 7.862.05 13.784"/>
                <path fill="#1BE3B3" fill-rule="nonzero" d="M184.125 99.203l-16.246-10.305-32.63-10.406a63.13 63.13 0 0 0-42.64 1.534l-19.463 7.79 2.137 33.299 25.13-8.057-2.377 15.314-12.261 26.965c-1.813 3.989.325 8.658 4.532 9.894l62.835 18.457c3.916 1.15 8.005-1.173 9.018-5.124l7.784-30.351 2.423 14.036 24.227 2.346 2.51-35.748a32.417 32.417 0 0 0-14.979-29.644z"/>
                <g transform="translate(73.006 74.756)">
                    <mask id="b" fill="#fff">
                        <use xlink:href="#a"/>
                    </mask>
                    <use fill="#FF8282" fill-rule="nonzero" xlink:href="#a"/>
                    <g stroke="#FFE071" stroke-width="2.703" mask="url(#b)">
                        <path d="M40.67 8.558l63.095 26.787M32.13 23.253l68.588 29.313M22.66 37.079l76.812 32.649M17.987 59.759l79.485 31.662M6.833 77.243l93.986 33.894"/>
                    </g>
                </g>
                <path fill="#FFBA5F" fill-rule="nonzero" d="M169.008 84.939c-.327-4.542 4.122-17.54 6.387-23.473-7.823-1.017-23.904-.637-25.651 9.01-1.748 9.646-5.882 10.879-7.73 10.289-3.41 3.719-7.667 12.527 2.578 18.013 10.246 5.486 22.407-1.171 27.207-5.186-.793-.992-2.464-4.113-2.79-8.653z"/>
                <path fill="#2C2770" fill-rule="nonzero" d="M187.499 40.813c7.256 5.989-4.567 13.892-9.877 17.913l-12.271-3.914c-4.209-1.342-12.322-9.808-15.853-13.873-3.768-3.324-12.334-11.281-6.97-14.469 9.381-3.887.644-12.754 13.588-14.771 12.944-2.017 14.962 10.917 26.553 14.614 11.592 3.697-1.16 9.557 4.83 14.5z"/>
                <g transform="translate(137.9 61.246)">
                    <mask id="d" fill="#fff">
                        <use xlink:href="#c"/>
                    </mask>
                    <path fill="#A84223" fill-rule="nonzero" d="M7.73 16.902c16.878 3.43 26.522-8.623 29.235-15.078L10.843 7.158c-8.07 1.818-19.99 6.313-3.112 9.744z" mask="url(#d)"/>
                </g>
                <path fill="#FFBA5F" fill-rule="nonzero" d="M174.513 62.698c-1.434 5.622-11.37 13.506-23.525 9.076-7.096-2.585-6.289-11.378-5.23-21.01.754-6.867.48-14.529 2.811-18.999l11.959-.054c-2.12 1.535-6.035 3.601-1.11 5.173 4.875 1.554 10.004 1.532 12.291.604-.937 6.332 3.656 7.245 2.695 10.254l-2.723 8.526c3.813 1.659 5.72-2.044 6.195-4.102 1.963-.48 5.471-.134 3.805 5.082-1.666 5.215-5.473 5.807-7.168 5.45z"/>
                <path fill="#2C2770" fill-rule="nonzero" d="M169.279 57.768c1.015-.81 2.677-2.455 3.225-4.172 2.253-2.117 6.235-5.008 4.137.375-1.096 3.431-2.484 6.298-3.306 8.872-1.918 6.006-2.594 11.085-9.5 14.933-8.633 4.811-22.663-.137-24.883-6.518-2.72-7.82 3.152-9.867 5.792-15.17 5.822 2.014 12.02 3.834 16.88 4.91 3.976.883 5.819-1.925 7.655-3.23z"/>
                <path fill="#FFF" fill-rule="nonzero" d="M158.698 60.414l-6.358.991c.142.908 1.07 2.326 3.15 2.299 2.08-.027 2.922-1.943 3.208-3.29z"/>
                <path fill="#2C2770" fill-rule="nonzero" d="M148.282 38.979l3.918 1.25c.648.206 1.006.9.8 1.548h-.001a1.233 1.233 0 0 1-1.55.8l-3.917-1.25a1.233 1.233 0 0 1 .75-2.348zM163.948 43.976l3.918 1.25a1.232 1.232 0 1 1-.75 2.348l-3.918-1.25a1.232 1.232 0 1 1 .75-2.348z"/>
                <ellipse cx="163.891" cy="49.564" fill="#000" fill-rule="nonzero" rx="1.233" ry="1.233" transform="rotate(17.701 163.89 49.564)"/>
                <path stroke="#000" stroke-width="1.083" d="M156.007 43.168l-4.5 14.09 3.525 1.124"/>
                <ellipse cx="149.007" cy="44.817" fill="#000" fill-rule="nonzero" rx="1.233" ry="1.233" transform="rotate(17.701 149.007 44.817)"/>
                <path fill="#DAE2FF" fill-rule="nonzero" d="M133.394 176.982L100.045 201.3l-63.542-21.166 36.052-25.219z"/>
                <path fill="#6B8CFF" fill-rule="nonzero" d="M131.14 175.18l-32.447 23.418-64.443-20.265 36.052-25.219z"/>
                <path fill="#DAE2FF" fill-rule="nonzero" d="M28.719 125.645l66.472 20.214 10.713 50.937-4.957 3.603-63.11-19.26-14.854-53.694z"/>
                <path fill="#6B8CFF" fill-rule="nonzero" d="M24.361 127.37l65.303 19.872a4.507 4.507 0 0 1 3.1 3.392l9.538 45.848c.695 3.338-2.431 6.207-5.7 5.231l-59.244-17.67a4.504 4.504 0 0 1-3.095-3.275l-12.18-51.259c-.322-1.353.947-2.544 2.278-2.139z"/>
                <ellipse cx="61.677" cy="165.154" fill="#DAE2FF" fill-rule="nonzero" rx="6.494" ry="5.845" transform="scale(-1 1) rotate(-45.974 0 310.547)"/>
                <path fill="#FFBA5F" fill-rule="nonzero" d="M136.451 161.79l36.784.64 23.25 1.492.423 4.016c1.138 10.796-8.456 19.636-19.13 17.63l-42.391-7.963-6.233 1.423a3.55 3.55 0 0 1-.56.082l-8.136.548c-.07.005-.14.015-.209.031l-11.528 2.723a1.913 1.913 0 0 1-1.067-3.668l8.858-3.07-11.07 1.455a1.578 1.578 0 0 1-.632-3.083l10.15-2.842-11.82.042a1.831 1.831 0 0 1-.324-3.634l12.352-2.175-12.652-.208a1.994 1.994 0 0 1-.16-3.977l18.87-1.833-2.667-1.275a5.567 5.567 0 0 1-2.828-3.105.795.795 0 0 1 .845-1.063l9.232 1.152a7.222 7.222 0 0 1 3.367 1.336l7.276 5.325z"/>
            </g>
        </g>
        <g>
            <path fill="#FFAE64" fill-rule="nonzero" d="M600.462 668.908l7.824-10.96c4.162-5.831-.263-19.405-.263-19.405l14.006-4.274 3.792 15.347 4.292 7.488-28.12 13.055-1.531-1.25z"/>
            <path fill="#2C2770" fill-rule="nonzero" d="M603.599 668.76l24.506-13.195a7.833 7.833 0 0 1 4.093 7.789l-.68 6.023-10.938 3.517-1.43-2.496-5.145 3.527a21.472 21.472 0 0 1-6.99 3.135l-8.845 2.185a3.507 3.507 0 0 1-3.304-5.9l9.636-9.506-2.495 2.963a1.284 1.284 0 0 0 1.592 1.958z"/>
            <path fill="#FFAE64" fill-rule="nonzero" d="M639.95 574.452l-1.928-13.328c-1.027-7.09-13.61-13.833-13.61-13.833l7.16-12.774 13.352 8.463 8.28 2.44-11.283 28.876-1.97.156z"/>
            <path fill="#2C2770" fill-rule="nonzero" d="M642.113 572.175l8.575-26.479a7.833 7.833 0 0 1 8.343 2.796l3.675 4.82-5.468 10.105-2.76-.814-1.276 6.106a21.467 21.467 0 0 1-2.881 7.098l-4.878 7.696a3.505 3.505 0 0 1-6.465-1.976l.385-13.53.247 3.865a1.284 1.284 0 0 0 2.503.313zM602.49 644.825l20.48-5.3-19.668-102.883 33.114-70.94a43.324 43.324 0 0 0 4.013-20.462l-1.36-27.545-57.903 4.492-38.28 26.07-19.053 14.623c-10.869 8.34-7.594 25.502 5.581 29.255l53.671-14.474-13.707 40.908a43.318 43.318 0 0 0 .005 27.537l33.107 98.72z"/>
            <path fill="#2C2770" fill-rule="nonzero" d="M635.454 535.77l-80.344-60.486-31.825 14.112 104.295 66.719z"/>
            <path stroke="#FFF" stroke-width="1.083" d="M632.763 437.926l-35.236 89.903a29.458 29.458 0 0 0-1.288 17.327l21.903 95.611M585.386 470.765l-31.84 10.054 23.796 17.069M634.092 537.875l-24-16.687"/>
            <g transform="scale(-1 1) rotate(-17 584.723 2565.04)">
                <path fill="#FFE071" fill-rule="nonzero" d="M37.618 87.973l12.316-2.904 26.3-.596a60.653 60.653 0 0 1 34.954 10.128l25.815 17.165-11.696 29.89-20.657-14.728-2.303 14.728-1.152 29.56a6.93 6.93 0 0 1-6.926 6.661h-56.44c-4.486 0-7.79-4.198-6.737-8.558l4.43-18.343-4.828-12.154-6.323 12.154-22.873-4.931 13.969-38.38a31.19 31.19 0 0 1 22.151-19.692z"/>
                <g transform="translate(.866 84.907)">
                    <mask id="f" fill="#fff">
                        <use xlink:href="#e"/>
                    </mask>
                    <g stroke="#D7BE67" mask="url(#f)">
                        <g transform="translate(5.198 -8.664)">
                            <circle cx="101.369" cy="13.862" r="13.429" stroke-width="4.332" transform="matrix(1 0 0 -1 0 27.725)"/>
                            <circle cx="7.798" cy="29.458" r="7.364" stroke-width="4.332" transform="matrix(1 0 0 -1 0 58.915)"/>
                            <circle cx="45.919" cy="48.518" r="4.765" stroke-width="2.599" transform="matrix(1 0 0 -1 0 97.037)"/>
                            <circle cx="53.717" cy="101.369" r="12.563" stroke-width="2.599" transform="matrix(1 0 0 -1 0 202.738)"/>
                            <circle cx="116.964" cy="62.381" r="12.563" stroke-width="2.599" transform="matrix(1 0 0 -1 0 124.762)"/>
                        </g>
                    </g>
                </g>
                <path fill="#2C2770" fill-rule="nonzero" d="M88.357 35.804c-.973-7.783-8.512-8.918-12.16-8.513-2.028-1.216-6.081-6.08-14.594-4.864-8.513 1.216-18.241 6.08-15.81 17.025 0 0-2.04 21.076 13.524 21.076 0 4.885 12.161 29.698 12.161 14.849 0-14.85-2.083-3.664 7.798-14.85 6.064-2.165 10.297-14.994 9.081-24.723z"/>
                <circle cx="78.409" cy="14.296" r="14.296" fill="#2C2770" fill-rule="nonzero"/>
                <path fill="#FFAE64" fill-rule="nonzero" d="M82.277 44.317v3.648c1.62-.405 4.864-.487 4.864 2.432 0 3.648-2.432 6.08-4.864 4.865-.316 3.79-2.355 11.272-8.418 14.391.217 2.858.852 6.96 2.337 9.93 1.946 3.892 5.675 5.676 7.297 6.08-2.433 2.838-9.243 8.514-17.025 8.514-7.784 0-13.783-5.676-15.81-8.513 1.216-.405 4.378-1.946 7.297-4.864 2.297-2.298 2.736-7.76 2.621-11.761-5.054-3.4-6.595-10.217-7.486-13.777-1.621.405-4.864.243-4.864-3.649 0-3.891 3.648-4.053 4.864-3.648v-3.648c2.433.405 8.756.243 14.594-3.649 5.837-3.891 7.296-5.675 7.296-6.08 0 2.027.894 5.758 2.432 7.296 2.433 2.433 4.054 2.027 4.865 2.433z"/>
                <path fill="#FFF" fill-rule="nonzero" d="M72.093 60.964l-5.533 2.767c.396.79 1.66 1.818 3.558 1.185 1.896-.632 2.107-2.634 1.975-3.952z"/>
                <rect width="6.323" height="2.371" x="55.099" y="44.365" fill="#2C2770" fill-rule="nonzero" rx="1.186"/>
                <rect width="6.323" height="2.371" x="70.908" y="44.365" fill="#2C2770" fill-rule="nonzero" rx="1.186"/>
                <circle cx="73.674" cy="49.503" r="1.186" fill="#000" fill-rule="nonzero"/>
                <path stroke="#000" stroke-width="1.083" d="M64.584 45.946v14.228h3.557"/>
                <circle cx="58.656" cy="49.503" r="1.186" fill="#000" fill-rule="nonzero"/>
                <path stroke="#000" stroke-width="1.083" d="M84.345 50.293c.395.923.474 2.846-2.371 3.162M50.557 50.293c-.395.923-.474 2.846 2.371 3.162"/>
                <g transform="translate(47.652 33.79)">
                    <mask id="h" fill="#fff">
                        <use xlink:href="#g"/>
                    </mask>
                    <path fill="#FF8282" fill-rule="nonzero" d="M11.795 34.684c1.054.658 4.426 2.37 7.904 2.37 3.301 0 6.388-1.067 7.37-1.514l.139-.066a4.4 4.4 0 0 1-.14.066L11.4 42.983l.396-8.3z" mask="url(#h)"/>
                </g>
                <path fill="#2C2770" fill-rule="nonzero" d="M67.881 160.456l14.46-40.76a1.733 1.733 0 0 1 2.097-1.09l29.424 8.2a1.732 1.732 0 0 1 1.154 2.286L99.6 169.585a1.734 1.734 0 0 1-2.085 1.052l-28.465-7.932a1.733 1.733 0 0 1-1.168-2.249z"/>
                <path fill="#FFAE64" fill-rule="nonzero" d="M59.36 144.052l-34.726 6.691-21.602-4.755L.61 163.666c-1.147 8.372 6.99 14.978 14.948 12.136l47.428-16.939 6.137.317c.181.01.364.005.544-.015l7.795-.826c.068-.007.136-.009.204-.005l11.366.673a1.838 1.838 0 0 0 .404-3.652l-8.897-1.444 10.725-.452a1.518 1.518 0 0 0 .087-3.026l-10.083-1.015 11.201-1.914a1.761 1.761 0 0 0-.294-3.498l-12.058-.017 11.935-2.288a1.928 1.928 0 0 0-.484-3.819l-15.669.983 2.189-5.873-9.752 2.987a6.929 6.929 0 0 0-2.967 1.824l-6.009 6.249zM181.19 71.478l-44.62 41.154-10.397 26.425 1.256.384a21.661 21.661 0 0 0 23.49-7.497l40.234-52.235 17.761-3.466 12.878.805c.47.03.822-.427.673-.874a3.323 3.323 0 0 0-2.24-2.145l-25.606-7.316 1.163-2.714a17.768 17.768 0 0 0 1.436-6.996c0-.725-.88-1.083-1.386-.564L181.19 71.478z"/>
            </g>
        </g>
        <g transform="translate(403.091 436.568)">
            <circle cx="47.053" cy="45.993" r="14.136" fill="#54B7FF" fill-rule="nonzero" transform="scale(1 -1) rotate(10.789 534.118 0)"/>
            <circle cx="28.637" cy="28.637" r="24.305" stroke="#7268F5" stroke-width="1.083" transform="scale(1 -1) rotate(10.789 331.898 0)"/>
        </g>
    </g>
</svg>
