<svg xmlns="http://www.w3.org/2000/svg" xmlns:xlink="http://www.w3.org/1999/xlink" width="546" height="466" viewBox="0 0 546 466">
    <defs>
        <rect id="a" width="428" height="348" rx="11"/>
        <filter id="b" width="146.7%" height="157.5%" x="-23.4%" y="-23%" filterUnits="objectBoundingBox">
            <feOffset dy="20" in="SourceAlpha" result="shadowOffsetOuter1"/>
            <feGaussianBlur in="shadowOffsetOuter1" result="shadowBlurOuter1" stdDeviation="30"/>
            <feColorMatrix in="shadowBlurOuter1" values="0 0 0 0 0.875355751 0 0 0 0 0.888906363 0 0 0 0 0.902456975 0 0 0 0.713177448 0"/>
        </filter>
        <path id="d" d="M616 .313v555H0c176.815-85.85 309.901-175.327 399.26-268.432C488.616 193.777 560.863 98.254 616 .313z"/>
        <linearGradient id="f" x1="50%" x2="50%" y1="72.155%" y2="1.222%">
            <stop offset="0%" stop-color="#F7F7F9" stop-opacity="0"/>
            <stop offset="65.902%" stop-color="#F2F2F5" stop-opacity=".441"/>
            <stop offset="100%" stop-color="#ECECF0"/>
        </linearGradient>
    </defs>
    <g fill="none" fill-rule="evenodd">
        <g transform="translate(59 39)">
            <mask id="c" fill="#fff">
                <use xlink:href="#a"/>
            </mask>
            <use fill="#000" filter="url(#b)" xlink:href="#a"/>
            <use fill="#FFF" xlink:href="#a"/>
            <g mask="url(#c)">
                <g transform="translate(-73 -142)">
                    <mask id="e" fill="#fff">
                        <use xlink:href="#d"/>
                    </mask>
                    <use fill="#3B2F85" xlink:href="#d"/>
                    <path fill="#FFB1B1" d="M368 375.313v225h-616c176.815-34.804 309.901-71.079 399.26-108.824 89.357-37.745 161.604-76.47 216.74-116.176z" mask="url(#e)"/>
                    <path stroke="#FFB1B1" stroke-dasharray="9" stroke-linecap="round" stroke-linejoin="bevel" stroke-width="2" d="M338.092 357.32c63.446-30.44 112.408-60.525 146.886-90.252 34.477-29.728 60.516-64.31 78.114-103.747" mask="url(#e)" transform="rotate(-13 450.592 260.32)"/>
                </g>
            </g>
            <path fill="url(#f)" d="M295 0h125a8 8 0 0 1 8 8v332a8 8 0 0 1-8 8H295V0z" mask="url(#c)" opacity=".537"/>
        </g>
        <g transform="translate(82 70)">
            <circle cx="6" cy="6" r="6" fill="#FFB1B1"/>
            <path fill="#071A2D" fill-rule="nonzero" d="M26.655 12V7.2h3.87V6.135h-3.87V2.34h4.965V1.275h-6.27V12h1.305zm7.475-9.48c.23 0 .425-.08.585-.24.16-.16.24-.355.24-.585 0-.23-.08-.425-.24-.585a.796.796 0 0 0-.585-.24c-.23 0-.425.08-.585.24a.796.796 0 0 0-.24.585c0 .23.08.425.24.585.16.16.355.24.585.24zm.645 9.48V4.155H33.53V12h1.245zm3.245 0l2.16-3.165L42.295 12h1.47L40.9 7.875l2.595-3.72h-1.35l-1.905 2.85-1.92-2.85h-1.455l2.625 3.81L36.685 12h1.335zm10.46.135c.89 0 1.635-.203 2.235-.607.6-.405.97-1.003 1.11-1.793H50.58c-.16.91-.855 1.365-2.085 1.365-.81 0-1.425-.237-1.845-.713-.42-.475-.645-1.162-.675-2.062h5.91V7.92c0-.7-.097-1.298-.292-1.792-.196-.495-.458-.898-.788-1.208a3.097 3.097 0 0 0-1.133-.683 4.037 4.037 0 0 0-1.312-.217c-.54 0-1.035.098-1.485.293-.45.195-.837.47-1.163.825-.325.354-.577.78-.757 1.274a4.73 4.73 0 0 0-.27 1.628v.12c0 .6.093 1.145.277 1.635.185.49.448.908.788 1.252.34.345.742.613 1.208.803.465.19.972.285 1.522.285zm2.13-4.815h-4.59c.11-.7.367-1.253.772-1.658.405-.404.928-.607 1.568-.607.65 0 1.172.175 1.568.525.395.35.622.93.682 1.74zm6.335 4.815c.29 0 .57-.043.84-.127.27-.085.523-.195.758-.33.235-.136.447-.293.637-.473s.34-.365.45-.555V12h1.245V.405H59.63v5.01c-.23-.38-.55-.708-.96-.982-.41-.276-.945-.413-1.605-.413-.54 0-1.035.1-1.485.3-.45.2-.835.482-1.155.848a4 4 0 0 0-.75 1.297c-.18.5-.27 1.05-.27 1.65v.12c0 .61.087 1.158.262 1.643.175.485.42.895.736 1.23.315.335.69.59 1.125.764.434.175.907.263 1.417.263zm.135-1.035c-.33 0-.64-.06-.93-.18-.29-.12-.542-.3-.758-.54a2.598 2.598 0 0 1-.51-.915c-.124-.37-.187-.8-.187-1.29v-.12c0-.96.22-1.7.66-2.22.44-.52 1.05-.78 1.83-.78.77 0 1.377.24 1.822.72.446.48.668 1.225.668 2.235v.12c0 .5-.067.938-.203 1.313a2.649 2.649 0 0 1-.547.93c-.23.245-.505.427-.825.547-.32.12-.66.18-1.02.18zm13.585.9c.94 0 1.752-.137 2.438-.412.684-.275 1.252-.653 1.702-1.133.45-.48.782-1.045.997-1.695.215-.65.323-1.345.323-2.085V6.54c0-.75-.11-1.445-.33-2.085A4.48 4.48 0 0 0 74.79 2.79c-.45-.47-1.015-.84-1.695-1.11-.68-.27-1.48-.405-2.4-.405H67.86V12h2.805zm-.03-1.065h-1.47v-8.61h1.455c.74 0 1.373.103 1.897.307.526.205.956.495 1.29.87.335.376.58.82.736 1.336a5.89 5.89 0 0 1 .232 1.702v.12c0 1.31-.345 2.35-1.035 3.12s-1.725 1.155-3.105 1.155zm10.985 1.2c.89 0 1.635-.203 2.235-.607.6-.405.97-1.003 1.11-1.793H83.72c-.16.91-.855 1.365-2.085 1.365-.81 0-1.425-.237-1.845-.713-.42-.475-.645-1.162-.675-2.062h5.91V7.92c0-.7-.098-1.298-.293-1.792-.195-.495-.457-.898-.787-1.208a3.097 3.097 0 0 0-1.132-.683A4.037 4.037 0 0 0 81.5 4.02c-.54 0-1.035.098-1.485.293-.45.195-.838.47-1.162.825-.325.354-.578.78-.758 1.274a4.73 4.73 0 0 0-.27 1.628v.12c0 .6.093 1.145.278 1.635.184.49.447.908.787 1.252.34.345.742.613 1.207.803.466.19.973.285 1.523.285zm2.13-4.815h-4.59c.11-.7.368-1.253.773-1.658.404-.404.927-.607 1.567-.607.65 0 1.172.175 1.567.525.396.35.623.93.683 1.74zm4.625 7.41v-4.02c.23.39.567.725 1.013 1.005.444.28.992.42 1.642.42.54 0 1.03-.098 1.47-.293.44-.194.815-.472 1.125-.832.31-.36.55-.787.72-1.283.17-.495.255-1.042.255-1.642v-.12c0-.61-.09-1.16-.27-1.65a3.666 3.666 0 0 0-.742-1.245c-.316-.34-.693-.6-1.133-.78-.44-.18-.915-.27-1.425-.27-.28 0-.555.04-.825.12-.27.08-.522.188-.757.323s-.445.29-.63.465a2.447 2.447 0 0 0-.443.547v-1.32H87.13V14.73h1.245zm2.535-3.63c-.76 0-1.38-.242-1.86-.727-.48-.486-.72-1.228-.72-2.228v-.12c0-.5.065-.938.195-1.313.13-.374.31-.684.54-.93.23-.245.502-.427.817-.547a2.82 2.82 0 0 1 1.013-.18c.33 0 .642.063.938.188.294.124.55.31.764.554.216.246.388.553.518.923s.195.805.195 1.305v.12c0 .96-.205 1.693-.615 2.197-.41.505-1.005.758-1.785.758zm9.08 1.035c.56 0 1.075-.098 1.545-.293.47-.194.877-.47 1.222-.825.346-.354.615-.777.81-1.267.196-.49.293-1.03.293-1.62v-.12c0-.59-.097-1.13-.293-1.62a3.802 3.802 0 0 0-.802-1.26 3.59 3.59 0 0 0-1.215-.817 3.993 3.993 0 0 0-1.545-.293c-.55 0-1.063.098-1.537.293-.475.195-.883.47-1.223.825-.34.354-.608.777-.803 1.267a4.344 4.344 0 0 0-.292 1.62v.12c0 .57.095 1.1.285 1.59.19.49.455.913.795 1.268.34.354.745.632 1.215.832.47.2.985.3 1.545.3zm.015-1.035c-.8 0-1.427-.268-1.882-.803-.456-.535-.683-1.252-.683-2.152v-.12c0-.91.23-1.633.69-2.168.46-.535 1.085-.802 1.875-.802.78 0 1.403.27 1.868.81.465.54.697 1.265.697 2.175v.105c0 .44-.06.843-.18 1.207-.12.365-.29.678-.51.938-.22.26-.49.46-.81.6-.32.14-.675.21-1.065.21zm8.42 1.035c.96 0 1.68-.217 2.16-.652.48-.436.72-1.013.72-1.733 0-.42-.068-.762-.203-1.027a1.69 1.69 0 0 0-.57-.646 3.172 3.172 0 0 0-.87-.397 9.525 9.525 0 0 0-1.117-.255 6.548 6.548 0 0 1-.892-.202 2.204 2.204 0 0 1-.563-.255.79.79 0 0 1-.293-.33 1.134 1.134 0 0 1-.082-.458c0-.34.135-.612.405-.817.27-.206.63-.308 1.08-.308.5 0 .877.098 1.132.293.256.195.428.507.518.937h1.2c-.05-.42-.16-.775-.33-1.065a2.226 2.226 0 0 0-.638-.705 2.448 2.448 0 0 0-.862-.382 4.391 4.391 0 0 0-1.005-.113c-.31 0-.623.048-.938.143a2.84 2.84 0 0 0-.855.42 2.225 2.225 0 0 0-.622.69 1.86 1.86 0 0 0-.24.952c0 .34.047.635.142.885.096.25.248.465.458.645.21.18.49.333.84.458s.78.232 1.29.322c.61.11 1.067.252 1.372.428.305.175.458.472.458.892 0 .42-.135.732-.405.938-.27.205-.705.307-1.305.307-.63 0-1.082-.135-1.358-.405-.275-.27-.437-.64-.487-1.11h-1.215c.04.81.328 1.438.863 1.882.535.445 1.272.668 2.212.668zm5.6-9.615c.23 0 .425-.08.585-.24.16-.16.24-.355.24-.585 0-.23-.08-.425-.24-.585a.796.796 0 0 0-.585-.24c-.23 0-.425.08-.585.24a.796.796 0 0 0-.24.585c0 .23.08.425.24.585.16.16.355.24.585.24zm.645 9.48V4.155h-1.245V12h1.245zm5.135.105c.26 0 .47-.015.63-.045.16-.03.305-.07.435-.12v-1.05a2.703 2.703 0 0 1-.96.165c-.65 0-.975-.38-.975-1.14v-4.71h1.83v-1.05h-1.83V2.37h-1.245v1.785h-1.125v1.05h1.125v4.83c0 .62.172 1.12.517 1.5.346.38.878.57 1.598.57z" opacity=".5"/>
            <path fill="#071A2D" fill-rule="nonzero" d="M28.872 46V32.848L36.6 46h3.312V28.84h-2.904v12.408L29.784 28.84h-3.816V46h2.904zm25.529 0v-3.48h2.304v-2.376H54.4V28.84h-4.008l-7.584 12.552v1.128h8.496V46H54.4zm-3.048-5.856h-5.136l5.136-8.88v8.88zm13.528 6.072c2.208 0 3.912-.76 5.112-2.28 1.2-1.52 1.8-3.688 1.8-6.504v-.888c0-2.528-.564-4.488-1.692-5.88-1.128-1.392-2.796-2.088-5.004-2.088-1.936 0-3.48.54-4.632 1.62-1.152 1.08-1.728 2.5-1.728 4.26 0 1.68.528 3.028 1.584 4.044 1.056 1.016 2.424 1.524 4.104 1.524 1.936 0 3.344-.72 4.224-2.16-.048 3.92-1.32 5.88-3.816 5.88-1.632 0-2.616-.736-2.952-2.208h-3c.208 1.488.824 2.64 1.848 3.456 1.024.816 2.408 1.224 4.152 1.224zm.216-8.424c-.976 0-1.76-.312-2.352-.936-.576-.624-.864-1.456-.864-2.496 0-1.024.292-1.848.876-2.472.584-.624 1.356-.936 2.316-.936 1.008 0 1.816.324 2.424.972.608.648.912 1.54.912 2.676 0 .944-.308 1.712-.924 2.304-.616.592-1.412.888-2.388.888zM80.21 46.24c1.872 0 3.392-.536 4.56-1.608 1.168-1.072 1.752-2.504 1.752-4.296 0-1.776-.488-3.18-1.464-4.212-.976-1.032-2.248-1.548-3.816-1.548-1.632 0-2.864.48-3.696 1.44l.024-4.656h7.968v-2.52H75.122l-.144 9.552h1.632c.864-.992 2.056-1.488 3.576-1.488.944 0 1.696.304 2.256.912.56.608.84 1.432.84 2.472 0 1.072-.272 1.92-.816 2.544-.544.624-1.304.936-2.28.936-1.024 0-1.764-.228-2.22-.684-.456-.456-.756-1.124-.9-2.004H74.09c.096 1.552.656 2.8 1.68 3.744 1.024.944 2.504 1.416 4.44 1.416zm9.328 2.712l3.144-5.376-2.76-1.104-2.184 5.688 1.8.792zm11.25-2.736c2.207 0 3.911-.76 5.111-2.28 1.2-1.52 1.8-3.688 1.8-6.504v-.888c0-2.528-.564-4.488-1.692-5.88-1.128-1.392-2.796-2.088-5.004-2.088-1.936 0-3.48.54-4.632 1.62-1.152 1.08-1.728 2.5-1.728 4.26 0 1.68.528 3.028 1.584 4.044 1.056 1.016 2.424 1.524 4.104 1.524 1.936 0 3.344-.72 4.224-2.16-.048 3.92-1.32 5.88-3.816 5.88-1.632 0-2.616-.736-2.952-2.208h-3c.208 1.488.824 2.64 1.848 3.456 1.024.816 2.408 1.224 4.152 1.224zm.215-8.424c-.976 0-1.76-.312-2.352-.936-.576-.624-.864-1.456-.864-2.496 0-1.024.292-1.848.876-2.472.584-.624 1.356-.936 2.316-.936 1.008 0 1.816.324 2.424.972.608.648.912 1.54.912 2.676 0 .944-.308 1.712-.924 2.304-.616.592-1.412.888-2.388.888zm15.137 8.424c2.208 0 3.912-.76 5.112-2.28 1.2-1.52 1.8-3.688 1.8-6.504v-.888c0-2.528-.564-4.488-1.692-5.88-1.128-1.392-2.796-2.088-5.004-2.088-1.936 0-3.48.54-4.632 1.62-1.152 1.08-1.728 2.5-1.728 4.26 0 1.68.528 3.028 1.584 4.044 1.056 1.016 2.424 1.524 4.104 1.524 1.936 0 3.344-.72 4.224-2.16-.048 3.92-1.32 5.88-3.816 5.88-1.632 0-2.616-.736-2.952-2.208h-3c.208 1.488.824 2.64 1.848 3.456 1.024.816 2.408 1.224 4.152 1.224zm.216-8.424c-.976 0-1.76-.312-2.352-.936-.576-.624-.864-1.456-.864-2.496 0-1.024.292-1.848.876-2.472.584-.624 1.356-.936 2.316-.936 1.008 0 1.816.324 2.424.972.608.648.912 1.54.912 2.676 0 .944-.308 1.712-.924 2.304-.616.592-1.412.888-2.388.888zm15.136 8.424c2.208 0 3.912-.76 5.112-2.28 1.2-1.52 1.8-3.688 1.8-6.504v-.888c0-2.528-.564-4.488-1.692-5.88-1.128-1.392-2.796-2.088-5.004-2.088-1.936 0-3.48.54-4.632 1.62-1.152 1.08-1.728 2.5-1.728 4.26 0 1.68.528 3.028 1.584 4.044 1.056 1.016 2.424 1.524 4.104 1.524 1.936 0 3.344-.72 4.224-2.16-.048 3.92-1.32 5.88-3.816 5.88-1.632 0-2.616-.736-2.952-2.208h-3c.208 1.488.824 2.64 1.848 3.456 1.024.816 2.408 1.224 4.152 1.224zm.216-8.424c-.976 0-1.76-.312-2.352-.936-.576-.624-.864-1.456-.864-2.496 0-1.024.292-1.848.876-2.472.584-.624 1.356-.936 2.316-.936 1.008 0 1.816.324 2.424.972.608.648.912 1.54.912 2.676 0 .944-.308 1.712-.924 2.304-.616.592-1.412.888-2.388.888z"/>
        </g>
        <g transform="translate(82 163)">
            <circle cx="6" cy="6" r="6" fill="#3B2F85"/>
            <path fill="#071A2D" fill-rule="nonzero" d="M30.135 12.135c.78 0 1.49-.143 2.13-.428a4.921 4.921 0 0 0 1.642-1.17 5.31 5.31 0 0 0 1.058-1.732c.25-.66.375-1.37.375-2.13v-.12a5.92 5.92 0 0 0-.375-2.115 5.225 5.225 0 0 0-1.058-1.725 4.864 4.864 0 0 0-1.65-1.155c-.644-.28-1.362-.42-2.152-.42s-1.508.14-2.152.42c-.645.28-1.2.665-1.665 1.155a5.18 5.18 0 0 0-1.08 1.732 5.919 5.919 0 0 0-.383 2.138v.12c0 .75.128 1.455.383 2.115.255.66.615 1.235 1.08 1.725a5.08 5.08 0 0 0 1.68 1.162 5.375 5.375 0 0 0 2.167.428zm0-1.08c-.56 0-1.08-.105-1.56-.315a3.706 3.706 0 0 1-1.252-.893 4.257 4.257 0 0 1-.84-1.38 4.931 4.931 0 0 1-.308-1.777v-.12c0-.64.087-1.228.262-1.763a4.02 4.02 0 0 1 .765-1.387c.335-.39.748-.692 1.238-.907.49-.216 1.045-.323 1.665-.323.62 0 1.17.115 1.65.345.48.23.885.54 1.215.93.33.39.583.85.758 1.38.175.53.262 1.095.262 1.695v.12c0 .65-.09 1.245-.27 1.785a4.093 4.093 0 0 1-.765 1.387c-.33.385-.733.685-1.207.9-.476.216-1.013.323-1.613.323zM38.87 12V7.245c0-.35.06-.66.18-.93s.28-.495.48-.675c.2-.18.432-.315.697-.405.266-.09.543-.135.833-.135.63 0 1.095.16 1.395.48.3.32.45.825.45 1.515V12h1.245V7.185c0-.57-.067-1.055-.203-1.455a2.587 2.587 0 0 0-.57-.983 2.164 2.164 0 0 0-.87-.554 3.426 3.426 0 0 0-1.117-.173c-.65 0-1.188.138-1.612.413-.425.274-.728.597-.908.967V4.155h-1.245V12h1.245zm11.135.135c.89 0 1.635-.203 2.235-.607.6-.405.97-1.003 1.11-1.793h-1.245c-.16.91-.855 1.365-2.085 1.365-.81 0-1.425-.237-1.845-.713-.42-.475-.645-1.162-.675-2.062h5.91V7.92c0-.7-.097-1.298-.292-1.792-.196-.495-.458-.898-.788-1.208a3.097 3.097 0 0 0-1.133-.683 4.037 4.037 0 0 0-1.312-.217c-.54 0-1.035.098-1.485.293-.45.195-.837.47-1.163.825-.325.354-.577.78-.757 1.274a4.73 4.73 0 0 0-.27 1.628v.12c0 .6.093 1.145.277 1.635.185.49.448.908.788 1.252.34.345.742.613 1.208.803.465.19.972.285 1.522.285zm2.13-4.815h-4.59c.11-.7.367-1.253.773-1.658.404-.404.927-.607 1.567-.607.65 0 1.172.175 1.568.525.394.35.622.93.682 1.74zm9.94 4.785c.26 0 .47-.015.63-.045.16-.03.305-.07.435-.12v-1.05a2.703 2.703 0 0 1-.96.165c-.65 0-.975-.38-.975-1.14v-4.71h1.83v-1.05h-1.83V2.37H59.96v1.785h-1.125v1.05h1.125v4.83c0 .62.172 1.12.517 1.5.346.38.878.57 1.598.57zm3.77-9.585c.23 0 .425-.08.585-.24.16-.16.24-.355.24-.585 0-.23-.08-.425-.24-.585a.796.796 0 0 0-.585-.24c-.23 0-.425.08-.585.24a.796.796 0 0 0-.24.585c0 .23.08.425.24.585.16.16.355.24.585.24zM66.49 12V4.155h-1.245V12h1.245zm3.995 0V7.2c0-.35.06-.657.18-.923.12-.264.277-.484.472-.66.195-.175.418-.304.668-.39.25-.085.5-.127.75-.127.54 0 .952.153 1.237.458.285.304.428.802.428 1.492V12h1.245V7.2c0-.35.06-.657.18-.923.12-.264.278-.484.473-.66.195-.175.417-.304.667-.39.25-.085.5-.127.75-.127.54 0 .953.153 1.237.458.285.304.428.802.428 1.492V12h1.245V7.14c0-.57-.072-1.052-.217-1.447a2.737 2.737 0 0 0-.578-.968c-.24-.25-.52-.43-.84-.54a3.07 3.07 0 0 0-1.005-.165c-.24 0-.49.028-.75.083a3.11 3.11 0 0 0-.75.262c-.24.12-.463.272-.668.457a2.46 2.46 0 0 0-.517.668c-.2-.53-.505-.908-.915-1.133a2.82 2.82 0 0 0-1.38-.337c-.57 0-1.058.13-1.463.39-.404.26-.697.575-.877.945v-1.2H69.24V12h1.245zm15.815.135c.89 0 1.635-.203 2.235-.607.6-.405.97-1.003 1.11-1.793H88.4c-.16.91-.855 1.365-2.085 1.365-.81 0-1.425-.237-1.845-.713-.42-.475-.645-1.162-.675-2.062h5.91V7.92c0-.7-.097-1.298-.293-1.792-.195-.495-.457-.898-.787-1.208a3.097 3.097 0 0 0-1.132-.683 4.037 4.037 0 0 0-1.313-.217c-.54 0-1.035.098-1.485.293-.45.195-.837.47-1.162.825-.326.354-.578.78-.758 1.274a4.73 4.73 0 0 0-.27 1.628v.12c0 .6.093 1.145.278 1.635.184.49.447.908.787 1.252.34.345.743.613 1.208.803.465.19.972.285 1.522.285zm2.13-4.815h-4.59c.11-.7.367-1.253.772-1.658.406-.404.928-.607 1.568-.607.65 0 1.172.175 1.567.525.395.35.623.93.683 1.74zM97.455 12V1.275H96.15V12h1.305zm4.13 0V7.245c0-.35.06-.66.18-.93s.28-.495.48-.675c.2-.18.432-.315.697-.405.266-.09.543-.135.833-.135.63 0 1.095.16 1.395.48.3.32.45.825.45 1.515V12h1.245V7.185c0-.57-.067-1.055-.203-1.455a2.587 2.587 0 0 0-.57-.983 2.164 2.164 0 0 0-.87-.554 3.426 3.426 0 0 0-1.117-.173c-.65 0-1.188.138-1.612.413-.425.274-.728.597-.908.967V4.155h-1.245V12h1.245zm11.33 0l2.82-7.845h-1.29l-2.295 6.585-2.325-6.585h-1.35l2.85 7.845h1.59zm7.64.135c.89 0 1.635-.203 2.235-.607.6-.405.97-1.003 1.11-1.793h-1.245c-.16.91-.855 1.365-2.085 1.365-.81 0-1.425-.237-1.845-.713-.42-.475-.645-1.162-.675-2.062h5.91V7.92c0-.7-.097-1.298-.292-1.792-.196-.495-.458-.898-.788-1.208a3.097 3.097 0 0 0-1.132-.683 4.037 4.037 0 0 0-1.313-.217c-.54 0-1.035.098-1.485.293-.45.195-.838.47-1.163.825-.325.354-.577.78-.757 1.274a4.73 4.73 0 0 0-.27 1.628v.12c0 .6.093 1.145.277 1.635.185.49.448.908.788 1.252.34.345.742.613 1.207.803.466.19.973.285 1.523.285zm2.13-4.815h-4.59c.11-.7.368-1.253.773-1.658.404-.404.927-.607 1.567-.607.65 0 1.172.175 1.567.525.395.35.623.93.683 1.74zm5.885 4.815c.96 0 1.68-.217 2.16-.652.48-.436.72-1.013.72-1.733 0-.42-.067-.762-.202-1.027a1.69 1.69 0 0 0-.57-.646 3.172 3.172 0 0 0-.87-.397 9.525 9.525 0 0 0-1.118-.255 6.548 6.548 0 0 1-.892-.202 2.204 2.204 0 0 1-.563-.255.79.79 0 0 1-.293-.33 1.134 1.134 0 0 1-.082-.458c0-.34.135-.612.405-.817.27-.206.63-.308 1.08-.308.5 0 .877.098 1.132.293.255.195.428.507.518.937h1.2c-.05-.42-.16-.775-.33-1.065a2.226 2.226 0 0 0-.638-.705 2.448 2.448 0 0 0-.862-.382 4.391 4.391 0 0 0-1.005-.113c-.31 0-.623.048-.938.143a2.84 2.84 0 0 0-.855.42 2.225 2.225 0 0 0-.622.69 1.86 1.86 0 0 0-.24.952c0 .34.047.635.142.885.096.25.248.465.458.645.21.18.49.333.84.458s.78.232 1.29.322c.61.11 1.067.252 1.373.428.305.175.457.472.457.892 0 .42-.135.732-.405.938-.27.205-.705.307-1.305.307-.63 0-1.083-.135-1.358-.405-.275-.27-.437-.64-.487-1.11h-1.215c.04.81.328 1.438.862 1.882.535.445 1.273.668 2.213.668zm7.355-.03c.26 0 .47-.015.63-.045.16-.03.305-.07.435-.12v-1.05a2.703 2.703 0 0 1-.96.165c-.65 0-.975-.38-.975-1.14v-4.71h1.83v-1.05h-1.83V2.37h-1.245v1.785h-1.125v1.05h1.125v4.83c0 .62.172 1.12.517 1.5.346.38.878.57 1.598.57zM140.31 12V7.2c0-.35.06-.657.18-.923.12-.264.278-.484.472-.66.196-.175.418-.304.668-.39.25-.085.5-.127.75-.127.54 0 .953.153 1.238.458.285.304.427.802.427 1.492V12h1.245V7.2c0-.35.06-.657.18-.923.12-.264.278-.484.472-.66.195-.175.418-.304.668-.39.25-.085.5-.127.75-.127.54 0 .952.153 1.237.458.285.304.428.802.428 1.492V12h1.245V7.14c0-.57-.073-1.052-.218-1.447a2.737 2.737 0 0 0-.577-.968c-.24-.25-.52-.43-.84-.54a3.07 3.07 0 0 0-1.005-.165c-.24 0-.49.028-.75.083a3.11 3.11 0 0 0-.75.262c-.24.12-.463.272-.667.457a2.46 2.46 0 0 0-.518.668c-.2-.53-.505-.908-.915-1.133a2.82 2.82 0 0 0-1.38-.337c-.57 0-1.058.13-1.463.39s-.697.575-.877.945v-1.2h-1.245V12h1.245zm15.815.135c.89 0 1.635-.203 2.235-.607.6-.405.97-1.003 1.11-1.793h-1.245c-.16.91-.855 1.365-2.085 1.365-.81 0-1.425-.237-1.845-.713-.42-.475-.645-1.162-.675-2.062h5.91V7.92c0-.7-.097-1.298-.292-1.792-.196-.495-.458-.898-.788-1.208a3.097 3.097 0 0 0-1.132-.683 4.037 4.037 0 0 0-1.313-.217c-.54 0-1.035.098-1.485.293-.45.195-.838.47-1.163.825-.325.354-.577.78-.757 1.274a4.73 4.73 0 0 0-.27 1.628v.12c0 .6.093 1.145.277 1.635.185.49.448.908.788 1.252.34.345.742.613 1.207.803.465.19.973.285 1.523.285zm2.13-4.815h-4.59c.11-.7.368-1.253.773-1.658.405-.404.927-.607 1.567-.607.65 0 1.173.175 1.567.525.395.35.623.93.683 1.74zM162.88 12V7.245c0-.35.06-.66.18-.93s.28-.495.48-.675c.2-.18.433-.315.698-.405.264-.09.542-.135.832-.135.63 0 1.095.16 1.395.48.3.32.45.825.45 1.515V12h1.245V7.185c0-.57-.067-1.055-.202-1.455a2.587 2.587 0 0 0-.57-.983 2.164 2.164 0 0 0-.87-.554 3.426 3.426 0 0 0-1.118-.173c-.65 0-1.188.138-1.613.413-.424.274-.727.597-.907.967V4.155h-1.245V12h1.245zm10.31.105c.26 0 .47-.015.63-.045.16-.03.305-.07.435-.12v-1.05a2.703 2.703 0 0 1-.96.165c-.65 0-.975-.38-.975-1.14v-4.71h1.83v-1.05h-1.83V2.37h-1.245v1.785h-1.125v1.05h1.125v4.83c0 .62.173 1.12.518 1.5.345.38.877.57 1.597.57z" opacity=".498"/>
            <path fill="#071A2D" fill-rule="nonzero" d="M28.872 46V32.848L36.6 46h3.312V28.84h-2.904v12.408L29.784 28.84h-3.816V46h2.904zm20.177.24c1.872 0 3.392-.536 4.56-1.608 1.168-1.072 1.752-2.504 1.752-4.296 0-1.776-.488-3.18-1.464-4.212-.976-1.032-2.248-1.548-3.816-1.548-1.632 0-2.864.48-3.696 1.44l.024-4.656h7.968v-2.52H43.96l-.144 9.552h1.632c.864-.992 2.056-1.488 3.576-1.488.944 0 1.696.304 2.256.912.56.608.84 1.432.84 2.472 0 1.072-.272 1.92-.816 2.544-.544.624-1.304.936-2.28.936-1.024 0-1.764-.228-2.22-.684-.456-.456-.756-1.124-.9-2.004h-2.976c.096 1.552.656 2.8 1.68 3.744 1.024.944 2.504 1.416 4.44 1.416zm16 0c2.224 0 3.976-.76 5.256-2.28 1.28-1.52 1.92-3.576 1.92-6.168v-.864c0-2.56-.648-4.588-1.944-6.084-1.296-1.496-3.04-2.244-5.232-2.244-2.176 0-3.92.756-5.232 2.268C58.505 32.38 57.85 34.424 57.85 37v.864c0 2.576.652 4.616 1.956 6.12 1.304 1.504 3.052 2.256 5.244 2.256zm.072-2.544c-1.296 0-2.296-.496-3-1.488-.704-.992-1.056-2.448-1.056-4.368v-.864c0-1.904.344-3.36 1.032-4.368.688-1.008 1.68-1.512 2.976-1.512 1.264 0 2.24.516 2.928 1.548.688 1.032 1.032 2.468 1.032 4.308v.84c0 3.936-1.304 5.904-3.912 5.904zm9.785 5.256l3.144-5.376-2.76-1.104-2.184 5.688 1.8.792zM86.85 46.24c2.224 0 3.976-.76 5.256-2.28 1.28-1.52 1.92-3.576 1.92-6.168v-.864c0-2.56-.648-4.588-1.944-6.084-1.296-1.496-3.04-2.244-5.232-2.244-2.176 0-3.92.756-5.232 2.268C80.306 32.38 79.65 34.424 79.65 37v.864c0 2.576.652 4.616 1.956 6.12 1.304 1.504 3.052 2.256 5.244 2.256zm.072-2.544c-1.296 0-2.296-.496-3-1.488-.704-.992-1.056-2.448-1.056-4.368v-.864c0-1.904.344-3.36 1.032-4.368.688-1.008 1.68-1.512 2.976-1.512 1.264 0 2.24.516 2.928 1.548.688 1.032 1.032 2.468 1.032 4.308v.84c0 3.936-1.304 5.904-3.912 5.904zm16.937 2.544c2.224 0 3.976-.76 5.256-2.28 1.28-1.52 1.92-3.576 1.92-6.168v-.864c0-2.56-.648-4.588-1.944-6.084-1.296-1.496-3.04-2.244-5.232-2.244-2.176 0-3.92.756-5.232 2.268C97.315 32.38 96.66 34.424 96.66 37v.864c0 2.576.652 4.616 1.956 6.12 1.304 1.504 3.052 2.256 5.244 2.256zm.072-2.544c-1.296 0-2.296-.496-3-1.488-.704-.992-1.056-2.448-1.056-4.368v-.864c0-1.904.344-3.36 1.032-4.368.688-1.008 1.68-1.512 2.976-1.512 1.264 0 2.24.516 2.928 1.548.688 1.032 1.032 2.468 1.032 4.308v.84c0 3.936-1.304 5.904-3.912 5.904zm16.937 2.544c2.224 0 3.976-.76 5.256-2.28 1.28-1.52 1.92-3.576 1.92-6.168v-.864c0-2.56-.648-4.588-1.944-6.084-1.296-1.496-3.04-2.244-5.232-2.244-2.176 0-3.92.756-5.232 2.268-1.312 1.512-1.968 3.556-1.968 6.132v.864c0 2.576.652 4.616 1.956 6.12 1.304 1.504 3.052 2.256 5.244 2.256zm.072-2.544c-1.296 0-2.296-.496-3-1.488-.704-.992-1.056-2.448-1.056-4.368v-.864c0-1.904.344-3.36 1.032-4.368.688-1.008 1.68-1.512 2.976-1.512 1.264 0 2.24.516 2.928 1.548.688 1.032 1.032 2.468 1.032 4.308v.84c0 3.936-1.304 5.904-3.912 5.904z"/>
        </g>
        <path fill="#071A2D" fill-rule="nonzero" d="M84.55 345v-9.03l3.675 9.03h.405l3.555-9.03V345h1.305v-10.725h-1.8l-3.21 8.355-3.315-8.355H83.35V345h1.2zm15.005.135c.56 0 1.075-.097 1.545-.293.47-.195.877-.47 1.222-.825.345-.354.615-.777.81-1.267.195-.49.293-1.03.293-1.62v-.12c0-.59-.098-1.13-.293-1.62a3.802 3.802 0 0 0-.802-1.26 3.59 3.59 0 0 0-1.215-.817 3.993 3.993 0 0 0-1.545-.293c-.55 0-1.063.098-1.538.293-.475.195-.882.47-1.222.825-.34.355-.608.777-.803 1.267a4.344 4.344 0 0 0-.292 1.62v.12c0 .57.095 1.1.285 1.59.19.49.455.912.795 1.267.34.356.745.633 1.215.833.47.2.985.3 1.545.3zm.015-1.035c-.8 0-1.428-.268-1.883-.803-.454-.535-.682-1.252-.682-2.152v-.12c0-.91.23-1.632.69-2.167.46-.536 1.085-.803 1.875-.803.78 0 1.402.27 1.867.81.466.54.698 1.265.698 2.175v.105c0 .44-.06.843-.18 1.208-.12.364-.29.677-.51.937-.22.26-.49.46-.81.6-.32.14-.675.21-1.065.21zm7.235.9v-4.755c0-.35.06-.66.18-.93s.28-.495.48-.675c.2-.18.432-.315.697-.405.265-.09.543-.135.833-.135.63 0 1.095.16 1.395.48.3.32.45.825.45 1.515V345h1.245v-4.815c0-.57-.068-1.055-.203-1.455a2.587 2.587 0 0 0-.57-.983 2.164 2.164 0 0 0-.87-.555 3.426 3.426 0 0 0-1.117-.172c-.65 0-1.188.138-1.613.413-.425.274-.727.597-.907.967v-1.245h-1.245V345h1.245zm18.07 0v-2.25h1.485v-1.065h-1.485v-7.41h-1.74l-4.905 8.055v.42h5.37V345h1.275zm-1.275-3.315h-3.72l3.72-6.42v6.42z" opacity=".498"/>
        <path fill="#FFF" fill-rule="nonzero" d="M394.655 345v-4.8h3.87v-1.065h-3.87v-3.795h4.965v-1.065h-6.27V345h1.305zm7.94 0v-4.305c0-.48.06-.877.18-1.192.12-.315.293-.568.518-.758.224-.19.497-.325.817-.405.32-.08.675-.13 1.065-.15v-1.17c-.7.02-1.243.173-1.627.458a3.458 3.458 0 0 0-.953 1.087v-1.41h-1.245V345h1.245zm5.225-9.48c.23 0 .425-.08.585-.24.16-.16.24-.355.24-.585 0-.23-.08-.425-.24-.585a.796.796 0 0 0-.585-.24c-.23 0-.425.08-.585.24a.796.796 0 0 0-.24.585c0 .23.08.425.24.585.16.16.355.24.585.24zm.645 9.48v-7.845h-1.245V345h1.245zm10.015.135c.56 0 1.072-.07 1.537-.21.466-.14.865-.345 1.2-.615a2.89 2.89 0 0 0 .788-.983c.19-.385.285-.822.285-1.312 0-.75-.188-1.345-.563-1.785-.374-.44-.877-.745-1.507-.915.49-.2.895-.488 1.215-.863.32-.375.48-.867.48-1.477 0-.37-.073-.725-.218-1.065a2.748 2.748 0 0 0-.63-.908 3 3 0 0 0-1.012-.63 3.756 3.756 0 0 0-1.365-.232c-.51 0-.975.083-1.395.248-.42.165-.785.387-1.095.667a3.05 3.05 0 0 0-.727.983 3.147 3.147 0 0 0-.293 1.192h1.14c.07-.61.315-1.1.735-1.47.42-.37.965-.555 1.635-.555.66 0 1.15.173 1.47.518.32.344.48.772.48 1.282 0 .59-.16 1.043-.48 1.358-.32.315-.83.472-1.53.472h-.75v1.095h.81c1.51 0 2.265.695 2.265 2.085 0 .63-.195 1.132-.585 1.507-.39.375-1.01.563-1.86.563-.42 0-.785-.058-1.095-.172a2.247 2.247 0 0 1-.78-.473 2.08 2.08 0 0 1-.488-.712 3.033 3.033 0 0 1-.217-.893h-1.2c.02.47.12.905.3 1.305.18.4.43.748.75 1.043.32.295.708.527 1.163.697.454.17.967.255 1.537.255zm9.035-.135v-10.725H426.3l-2.49 1.8v1.215l2.4-1.725V345h1.305z" opacity=".498"/>
    </g>
</svg>
