<svg xmlns="http://www.w3.org/2000/svg" width="50" height="51" viewBox="0 0 50 51">
    <g fill="none" fill-rule="evenodd" transform="translate(.172 .29)">
        <ellipse cx="24.828" cy="25" fill="#EFF2F6" rx="24.828" ry="25"/>
        <path d="M12.414 12.5h24.828v25H12.414z"/>
        <path fill="#18214D" d="M21.86 32c6.037 0 9.34-5.387 9.34-10.058 0-.153 0-.306-.01-.457a6.975 6.975 0 0 0 1.638-1.83 6.178 6.178 0 0 1-1.885.557 3.518 3.518 0 0 0 1.443-1.956 6.302 6.302 0 0 1-2.085.858c-1.243-1.423-3.322-1.492-4.645-.153-.852.863-1.214 2.15-.95 3.378-2.638-.143-5.098-1.486-6.765-3.694-.871 1.616-.425 3.681 1.017 4.719a3.083 3.083 0 0 1-1.49-.442v.045c0 1.682 1.102 3.131 2.633 3.464a3.04 3.04 0 0 1-1.481.06c.43 1.441 1.662 2.428 3.066 2.456-1.162.984-2.598 1.518-4.077 1.516-.26 0-.521-.017-.781-.05a8.82 8.82 0 0 0 5.032 1.584"/>
    </g>
</svg>
