<svg xmlns="http://www.w3.org/2000/svg" width="50" height="50" viewBox="0 0 50 50">
    <g fill="none" fill-rule="evenodd">
        <ellipse cx="24.828" cy="25" fill="#EFF2F6" rx="24.828" ry="25"/>
        <g fill-rule="nonzero">
            <path fill="#18214D" d="M33.746 20.817a2.365 2.365 0 0 0-1.65-1.673c-1.45-.394-7.268-.394-7.268-.394s-5.82 0-7.28.394a2.347 2.347 0 0 0-1.65 1.673c-.38 1.47-.38 4.538-.38 4.538s0 3.068.39 4.538c.212.81.847 1.45 1.651 1.673 1.45.394 7.269.394 7.269.394s5.819 0 7.279-.394a2.347 2.347 0 0 0 1.65-1.673c.38-1.47.38-4.538.38-4.538s0-3.068-.39-4.538z"/>
            <path fill="#FFF" d="M22.923 28.146v-5.582l4.867 2.791z"/>
        </g>
    </g>
</svg>
