<?xml version="1.0" encoding="UTF-8"?>
<svg width="37px" height="42px" viewBox="0 0 37 42" version="1.1" xmlns="http://www.w3.org/2000/svg" xmlns:xlink="http://www.w3.org/1999/xlink">
    <!-- Generator: Sketch 63.1 (92452) - https://sketch.com -->
    <title>Shape</title>
    <desc>Created with Sketch.</desc>
    <g id="GetCarbon-Main-Website-V2" stroke="none" stroke-width="1" fill="none" fill-rule="evenodd">
        <g id="GetCarbon-Investment-(v2)" transform="translate(-845.000000, -916.000000)" fill="#3F2E8C" fill-rule="nonzero">
            <g id="Group-8" transform="translate(845.000000, 802.000000)">
                <g id="Group-4" transform="translate(0.000000, 107.000000)">
                    <g id="Group-7" transform="translate(0.000000, 7.000000)">
                        <g id="Group-5">
                            <g id="Group-3">
                                <path d="M19.6858974,0.356687898 L35.6955128,9.63057325 C36.525641,10.1061571 37,10.8195329 37,11.7707006 L37,30.1995754 C37,31.1507431 36.525641,31.9830149 35.6955128,32.4585987 L19.6858974,41.7324841 C18.974359,42.089172 18.025641,42.089172 17.1955128,41.7324841 L1.30448718,32.4585987 C0.474358974,31.9830149 0,31.1507431 0,30.1995754 L0,11.7707006 C0,10.8195329 0.474358974,10.1061571 1.30448718,9.63057325 L17.1955128,0.356687898 C18.025641,-0.118895966 18.974359,-0.118895966 19.6858974,0.356687898 Z" id="Shape"></path>
                            </g>
                        </g>
                    </g>
                </g>
            </g>
        </g>
    </g>
</svg>