<?xml version="1.0" encoding="UTF-8"?>
<svg width="575px" height="575px" viewBox="0 0 575 575" version="1.1" xmlns="http://www.w3.org/2000/svg" xmlns:xlink="http://www.w3.org/1999/xlink">
    <!-- Generator: Sketch 63.1 (92452) - https://sketch.com -->
    <title>How itworks-image</title>
    <desc>Created with Sketch.</desc>
    <defs>
        <circle id="path-1" cx="287.5" cy="287.5" r="287.5"></circle>
        <linearGradient x1="50%" y1="0%" x2="50%" y2="100%" id="linearGradient-3">
            <stop stop-color="#98B5DF" offset="0%"></stop>
            <stop stop-color="#556C95" offset="100%"></stop>
        </linearGradient>
        <linearGradient x1="50%" y1="0%" x2="50%" y2="100%" id="linearGradient-4">
            <stop stop-color="#BAD7FF" offset="0%"></stop>
            <stop stop-color="#8FA8D6" offset="100%"></stop>
        </linearGradient>
        <linearGradient x1="50%" y1="0%" x2="50%" y2="100%" id="linearGradient-5">
            <stop stop-color="#F5F8FF" offset="0%"></stop>
            <stop stop-color="#E6EFFF" offset="100%"></stop>
        </linearGradient>
        <path d="M196.547199,259.423013 L252.435573,350.08846 L94.011217,408.08452 C59.0531645,420.881972 20.3396757,402.917263 7.54221698,367.959213 C6.44242954,364.954989 5.55791777,361.87628 4.89538935,358.746433 C4.89538935,358.746433 4.89538935,358.746433 4.89538935,358.746433 C-6.06968134,306.946389 2.47146704,267.228957 22.7175355,207.442213 C42.963604,147.655469 66.282634,93.6386066 74.810532,69.5307336 C80.4957974,53.4588183 83.5996416,35.5999437 84.1220647,15.9541098 C100.386927,19.057267 120.952474,19.4966698 145.818706,17.2723185 C170.684938,15.0479671 199.455752,9.29052759 232.131146,0 C251.728402,15.087549 265.28887,33.5283897 272.812549,55.3225222 C278.131202,70.7292696 280.570425,86.3239378 280.130217,102.106527 C279.710866,117.141344 282.684989,132.077392 288.831579,145.804775 L342.308217,265.235916 C350.632229,283.826206 362.017876,300.887292 375.990544,315.707975 L566.120534,517.377141 L566.120534,517.377141 C558.554084,533.717923 548.769285,546.938169 536.766136,557.03788 C524.762986,567.137591 511.620606,575.928479 497.338995,583.410541 L252.435573,350.08846 L161.448717,202.497761 L133.689009,287.975827 L196.547199,259.423013 Z" id="path-6"></path>
        <path d="M79.7018721,30.3137679 C80.314582,22.2485324 72.7036893,18.9233867 67.3178311,21.1692006 C63.7272589,22.6664099 61.4072118,24.7628199 60.3576897,27.4584307 C53.152209,27.6987216 43.5859555,25.1803371 31.6589292,19.9032771 C19.7319029,14.6262171 9.22406515,7.99179139 0.13541595,0 C0.792244838,32.9046123 2.11532708,53.2828288 4.10466266,61.1346495 C4.10466266,61.1346495 4.10466266,61.1346495 4.10466266,61.1346495 C6.81867498,71.8467377 16.4587909,79.3490291 27.5093428,79.3490382 L28.0747363,79.3490382 L28.0747363,79.3490382 L28.0747363,110.335552 C28.0747363,121.90613 37.4545432,131.285937 49.0251213,131.285937 C60.5956995,131.285937 69.9755064,121.90613 69.9755064,110.335552 L69.9755064,45.8842204 L69.9755064,45.8842204 C76.0512769,40.8807424 79.2933989,35.6905916 79.7018721,30.3137679 Z" id="path-8"></path>
        <path d="M30.8229643,29.0926067 C21.5479076,39.668325 15.5183428,52.6937126 13.4565303,66.6085042 L7.03123725e-12,157.42414 L7.03123725e-12,157.42414 L71.2765171,157.42414 L78.2373746,229.644814 C92.7307051,237.07132 114.410671,239.191 143.277272,236.003855 C172.143873,232.81671 199.783212,225.251713 226.195289,213.308865 L219.509203,188.350984 L217.443627,159.697631 C216.324277,144.17018 217.201778,128.563276 220.054639,113.259163 L221.548418,105.245814 L221.548418,105.245814 L276.823403,147.77448 L342.299979,109.339371 L253.511471,17.9660097 C242.350886,6.48051229 227.017574,2.70121095e-13 211.002728,2.73062974e-13 L194.259549,2.73062974e-13 C188.723902,1.31971309e-13 183.191136,0.25255538 177.678509,0.75687842 L66.4895516,10.9290081 C52.7123985,12.1894119 39.94503,18.6913335 30.8229643,29.0926067 Z" id="path-10"></path>
        <linearGradient x1="50%" y1="0%" x2="50%" y2="100%" id="linearGradient-12">
            <stop stop-color="#CFE1FA" offset="0%"></stop>
            <stop stop-color="#A2BFF2" offset="100%"></stop>
        </linearGradient>
    </defs>
    <g id="GetCarbon-Main-Website-V2" stroke="none" stroke-width="1" fill="none" fill-rule="evenodd">
        <g id="GetCarbon-Investment-(v2)" transform="translate(-95.000000, -788.000000)">
            <g id="How-itworks-image" transform="translate(95.000000, 788.000000)">
                <g id="Image">
                    <mask id="mask-2" fill="white">
                        <use xlink:href="#path-1"></use>
                    </mask>
                    <use id="Mask" fill="#FFFFFF" xlink:href="#path-1"></use>
                    <g id="Group-3" mask="url(#mask-2)">
                        <g transform="translate(-159.000000, 18.000000)">
                            <g id="Group-32" transform="translate(209.000000, 75.007673)">
                                <path d="M28.0772519,5.67154052 L55.8158905,0.840260074 L55.8158905,0.840260074 L404.691134,1.2902883 C418.258135,1.30778892 429.999817,10.7290904 432.956623,23.9699785 L617.861839,851.994776 L617.861839,851.994776 L621.620079,878.613218 C623.859196,894.472186 612.818126,909.143583 596.959158,911.3827 C596.220312,911.487017 595.477716,911.56278 594.733027,911.609818 L171.670134,938.332698 C156.715583,939.277306 143.503877,928.673401 141.189868,913.868798 L4.40119728,38.7198544 C1.9581985,23.0899942 12.4922445,8.38600472 28.0772519,5.67154052 Z" id="Rectangle-Copy-12" fill="url(#linearGradient-3)"></path>
                                <path d="M52.5310423,0 L418.805309,0 C432.559912,1.52368888e-14 444.422447,9.66217868 447.205484,23.1322867 L619.262621,855.901814 C622.50327,871.586798 612.415143,886.929054 596.730159,890.169703 C595.425431,890.43927 594.103677,890.618607 592.774291,890.706439 L192.751925,917.135683 C177.818631,918.122317 164.587168,907.583335 162.208668,892.807697 L23.8996293,33.6089256 C21.35419,17.7962329 32.109424,2.9140264 47.9221167,0.368587092 C49.4461667,0.123254002 50.9873724,-2.81381419e-14 52.5310423,0 Z" id="Rectangle" fill="url(#linearGradient-4)"></path>
                                <path d="M75.4948452,24.9968767 L405.109173,24.9968767 C417.524506,24.9968767 428.221492,33.742592 430.688649,45.9103202 L590.915841,836.131756 C593.780296,850.258911 584.650075,864.033332 570.52292,866.897788 C569.378929,867.129747 568.220665,867.2847 567.055931,867.361604 L206.961705,891.137626 C193.506751,892.02602 181.590042,882.518838 179.467511,869.202686 L49.720218,55.205228 C47.4512378,40.9702945 57.1515597,27.591229 71.3864932,25.3222488 C72.745227,25.1056731 74.1189591,24.9968767 75.4948452,24.9968767 Z" id="Rectangle-Copy-13" fill="url(#linearGradient-5)"></path>
                                <path d="M161.122363,19.8033708 L336.772152,19.8033708 C341.128667,34.5015947 332.745055,49.9485125 318.046832,54.3050275 C315.48619,55.0639951 312.829416,55.4494382 310.158663,55.4494382 L193.339273,55.4494382 C180.497135,55.4494382 169.184339,47.0032619 165.534894,34.6905834 L161.122363,19.8033708 L161.122363,19.8033708 Z" id="Rectangle" fill="#B9D6FE"></path>
                            </g>
                            <g id="Group-2" transform="translate(349.500000, 534.000000) scale(-1, 1) translate(-349.500000, -534.000000) ">
                                <g id="Woman-Yellow" transform="translate(0.016726, 0.717014)">
                                    <g id="Btn" transform="translate(59.692588, 347.920152)">
                                        <g id="Foot" transform="translate(441.888794, 250.378813) rotate(-70.000000) translate(-441.888794, -250.378813) translate(352.888794, 152.378813)">
                                            <path d="M122.23741,79.0183678 L122.23741,40.7496537 L90.3410099,-1.0922519e-12 L42.1461589,48.1957718 L62.7621692,66.1406293 C66.6239819,69.5020789 69.5312835,73.8222881 71.1909508,78.6656799 L76.725459,94.8169845 L76.725459,94.8169845 L122.23741,79.0183678 Z" id="Path-31" fill="#DB8F80"></path>
                                            <path d="M15.5409497,63.3342753 L33.0605323,86.112863 C37.6021242,92.017744 44.4764885,95.6687662 51.9119146,96.124962 C59.6481779,96.5996154 67.4058354,95.6494843 74.7988836,93.321845 L89.6168093,88.6565452 L89.6168093,88.6565452 C94.1761314,101.238778 104.686963,110.734905 117.665921,113.997826 L153.626039,123.038229 C159.437125,124.499141 164.491697,128.08064 167.796373,133.07885 C169.409295,135.51834 168.73923,138.80347 166.299739,140.416393 C165.50442,140.942235 164.58188,141.24359 163.629507,141.288644 L97.7682038,144.404348 C89.6093506,144.79032 81.5614042,142.393081 74.9435696,137.605585 C68.8156872,133.17253 64.2311534,130.062874 61.1899684,128.276614 C56.6702681,125.621938 48.7455546,121.888108 37.415828,117.075124 L37.4161176,147.40002 L15.5417523,147.40002 L7.17889729,109.114537 C5.64643922,102.098883 6.70968124,94.7655341 10.1715134,88.4739884 C13.6940193,82.0721741 15.54106,74.8837925 15.5409902,67.5768591 L15.5409497,63.3342753 L15.5409497,63.3342753 Z" id="Path-30" fill="#0A1125" transform="translate(88.867689, 105.367148) scale(-1, 1) rotate(46.000000) translate(-88.867689, -105.367148) "></path>
                                        </g>
                                        <g id="Pants">
                                            <path d="M200.336991,257.37662 L348.235835,202.416454 C359.8054,212.174109 369.995266,224.526376 378.805433,239.473254 C387.615601,254.420133 393.159864,269.36367 395.43822,284.303867 L252.435573,350.08846 L200.336991,257.37662 Z" id="Path-27" fill="#292929"></path>
                                            <g id="Path-26">
                                                <mask id="mask-7" fill="white">
                                                    <use xlink:href="#path-6"></use>
                                                </mask>
                                                <use id="Mask" fill="#333333" xlink:href="#path-6"></use>
                                                <path d="M133.689009,287.975827 L196.411488,259.416745 L252.435573,350.08846 L113.189735,371.309896 C99.2781514,373.430059 86.2818535,363.871223 84.1616911,349.95964 C83.6362554,346.511959 83.8241708,342.993116 84.7138013,339.621004 L124.201352,189.944865 C124.889544,187.336298 125.518463,184.712452 126.087623,182.075354 L141.416249,111.053005 L141.416249,111.053005 L161.448717,202.497761 L133.689009,287.975827 Z" fill="#292929" mask="url(#mask-7)"></path>
                                                <path d="M252.435573,350.08846 L125.459426,369.439963 C107.100397,372.237928 89.9493087,359.622909 87.1513973,341.263529 C86.4579932,336.713539 86.7060026,332.069636 87.8800682,327.619383 L123.871247,191.196117 C124.779481,187.753489 125.60949,184.290697 126.360633,180.810413 L141.416249,111.053005 L141.416249,111.053005 M161.448717,202.497761 L133.689009,287.975827 L133.689009,287.975827 L196.411488,259.416745" id="Shape" stroke="#FFFFFF" stroke-width="1.82" opacity="0.100000001" mask="url(#mask-7)"></path>
                                                <path d="M547.973294,546.171952 L324.906437,320.63699 C307.090228,302.623656 293.231213,281.088964 284.216471,257.411297 L192.432431,16.3359492 L192.432431,16.3359492" id="Path-15" stroke="#FFFFFF" stroke-width="1.82" opacity="0.100000001" mask="url(#mask-7)"></path>
                                            </g>
                                        </g>
                                    </g>
                                    <g id="Woman-Head-1" transform="translate(115.288389, 0.000000)">
                                        <path d="M21.8199844,15.7231847 C36.4705546,1.93234534 54.2512016,-2.70130373 75.1619254,1.82223748 C106.528011,8.6075493 116.694568,27.2991947 116.694568,71.5809377 C135.133067,74.2902033 146.156579,86.943754 149.765103,109.54159 C174.31782,115.137937 186.594178,130.828225 186.594178,156.612454 L0.958844386,156.612454 C2.7522662,133.10972 9.70597953,117.419432 21.8199844,109.54159 C11.7977595,91.8444612 16.0037545,76.1117846 34.4379696,62.3435602 L10.6490555,36.8917502 C7.57834313,33.6063884 6.2557548,29.0550535 7.08751502,24.6356586 C7.87824373,20.4342766 11.2609493,17.205507 15.49458,16.6111719 L21.8199844,15.7231847 L21.8199844,15.7231847 Z" id="Path-11" fill="#182545"></path>
                                        <g id="Path-3" transform="translate(26.791340, 32.408204)">
                                            <mask id="mask-9" fill="white">
                                                <use xlink:href="#path-8"></use>
                                            </mask>
                                            <use id="Mask" fill="#DB8F80" xlink:href="#path-8"></use>
                                            <path d="M28.0747363,79.3490382 C35.8446912,78.9181076 42.6099741,75.6975808 48.3705849,69.6874581 L27.8933884,102.203084 L28.0747363,79.3490382 Z" fill="#9B6054" mask="url(#mask-9)"></path>
                                            <path d="M18.2086172,60.3615477 L31.6589292,59.1462861 C31.1846375,62.6037167 29.2123354,64.5084884 25.742023,64.860601 C22.2717106,65.2127136 19.7605754,63.7130292 18.2086172,60.3615477 Z" id="Path" fill="#FFFFFF" mask="url(#mask-9)"></path>
                                            <ellipse id="Oval" fill="#182545" mask="url(#mask-9)" cx="30.7043069" cy="37.4694423" rx="2.88220972" ry="2.88226479"></ellipse>
                                            <ellipse id="Oval-Copy" fill="#182545" mask="url(#mask-9)" cx="7.64662916" cy="37.4694423" rx="2.88220972" ry="2.88226479"></ellipse>
                                            <path d="M74.5475766,24.7379075 C71.5012925,23.5538226 68.8084979,23.9148121 66.4691929,25.8208757 C64.1298878,27.7269394 62.9989355,31.0577749 63.0763359,35.8133823 L70.0337306,33.0286421" id="Path-6" stroke="#9B6054" stroke-width="1.456" mask="url(#mask-9)"></path>
                                            <path d="M19.791627,35.6950922 C19.8733286,38.5928613 19.6679422,40.8807328 19.175468,42.5587067 C18.4367567,45.0756676 14.8411071,48.3266106 15.8752622,51.5517218 C16.564699,53.7017959 19.5032631,54.1478648 24.6909548,52.8899283" id="Path-8" stroke="#9B6054" stroke-width="1.456" mask="url(#mask-9)"></path>
                                            <path d="M4.10466266,24.5759482 C8.99771565,22.6670337 13.1656074,22.9204441 16.6083379,25.3361796" id="Path-7" stroke="#182545" stroke-width="1.456" mask="url(#mask-9)"></path>
                                            <path d="M25.1140507,24.8888302 C29.6308409,22.697858 34.092611,22.8469744 38.499361,25.3361796" id="Path-7-Copy" stroke="#182545" stroke-width="1.456" mask="url(#mask-9)" transform="translate(31.806706, 24.343246) scale(-1, 1) translate(-31.806706, -24.343246) "></path>
                                        </g>
                                        <ellipse id="Oval" fill="#FFFFFF" cx="97.9951304" cy="77.7819042" rx="5.76441944" ry="5.76452958"></ellipse>
                                        <g id="Glasses" transform="translate(24.830604, 59.309342)" stroke="#FFFFFF" stroke-width="1.456">
                                            <ellipse id="Oval" cx="9.78204511" cy="9.6075493" rx="9.60736573" ry="9.6075493"></ellipse>
                                            <path d="M33.4726239,19.2150986 C38.7786254,19.2150986 43.0799896,14.9136523 43.0799896,9.6075493 C43.0799896,4.30144634 38.7786254,0 33.4726239,0 C28.1666223,0 23.8652581,4.30144634 23.8652581,9.6075493 C23.8652581,14.9136523 28.1666223,19.2150986 33.4726239,19.2150986 Z" id="Oval-Copy-2"></path>
                                            <line x1="19.2147315" y1="8.64679437" x2="23.6978921" y2="8.64679437" id="Path-4"></line>
                                            <line x1="43.0799896" y1="8.64679437" x2="61.4871407" y2="2.1845038e-13" id="Path-5" stroke-linecap="round"></line>
                                        </g>
                                    </g>
                                    <g id="Body" transform="translate(0.000000, 134.611288)">
                                        <path d="M326.650435,151.830581 L404.804064,109.339371 C436.475417,142.229399 450.969691,170.561713 448.286885,194.336314 C445.604078,218.110915 405.058595,203.942337 326.650435,151.830581 Z" id="Path-21" fill="#9B6054"></path>
                                        <path d="M13.7489039,183.999807 L13.7489039,185.517544 C13.7489106,205.11545 24.4968462,223.134729 41.7409134,232.447089 C41.7409134,232.447089 41.7409134,232.447089 41.7409134,232.447089 C47.5684944,235.594173 73.1731529,243.068647 118.554889,254.870511 C131.201303,258.159306 144.119343,250.573457 147.408139,237.927043 C147.836824,236.27862 148.086255,234.588726 148.152096,232.886747 L151.071343,157.42414 L151.071343,157.42414 L74.1633477,157.42414 L73.2848403,179.194612 L58.7238711,170.948603 L13.7489039,183.999807 Z" id="Path-24" fill="#DB8F80"></path>
                                        <g id="Clothes" transform="translate(65.628445, 0.000000)">
                                            <g id="Path-28">
                                                <mask id="mask-11" fill="white">
                                                    <use xlink:href="#path-10"></use>
                                                </mask>
                                                <use id="Mask" fill="#FECC41" xlink:href="#path-10"></use>
                                                <path d="M77.8416883,229.978089 C93.0157556,237.673085 114.827617,240.276004 143.277272,237.786845 C171.726927,235.297686 199.753638,227.138359 227.357405,213.308865 C216.903547,186.855967 214.967218,150.83495 221.548418,105.245814 L185.477561,135.405715 C178.618003,141.141193 170.102155,144.529511 161.177338,145.074381 L91.3942862,149.334714 C77.3759998,150.190546 64.9955988,140.270887 62.7743089,126.403275 L57.3397257,92.4749267 L57.3397257,92.4749267 L44.6328793,142.041936 L60.1290986,157.42414 L71.2765171,157.42414 L77.8416883,229.978089 Z" fill="#E4AB00" mask="url(#mask-11)"></path>
                                                <line x1="197.735468" y1="83.6990925" x2="236.254123" y2="117.063822" id="Path-2" stroke="#31434D" stroke-width="1.82" mask="url(#mask-11)"></line>
                                            </g>
                                            <path d="M104.513675,6.47247953 L97.6042206,24.9876687 C94.8586546,32.3449315 98.5971736,40.5348925 105.954436,43.2804584 C107.829584,43.9802214 109.831338,44.2762282 111.828758,44.1491162 C125.035395,43.3086711 136.379153,34.4644744 140.415188,21.8616163 L146.426784,3.08989874 L146.426784,3.08989874 L104.513675,6.47247953 Z" id="Path-22" fill="#DB8F80"></path>
                                        </g>
                                        <g id="Ipad" transform="translate(0.000000, 58.941585)">
                                            <path d="M10.4339189,0 L108.605301,0 C111.119142,-9.82453747e-15 113.30811,1.7163935 113.907712,4.15767841 L145.366999,132.244367 C146.02193,134.910921 144.594684,137.64904 142.033651,138.639271 L135.171444,141.292564 C134.457356,141.568668 133.693183,141.691509 132.928538,141.65311 L42.3098221,137.10244 C39.9869512,136.985791 37.9929513,135.410465 37.3419286,133.177641 L2.37718467,13.2584068 C2.01389867,12.012438 2.10632391,10.6778062 2.63788882,9.49380721 L5.45288565,3.22372914 C6.33358481,1.26207417 8.28363495,1.28317918e-15 10.4339189,0 Z" id="Rectangle" fill="#728BB7"></path>
                                            <path d="M6.96329999,4.80377465 L103.801618,4.80377465 C106.315459,4.80377465 108.504427,6.52016815 109.104029,8.96145306 L140.047755,134.949031 C140.767007,137.877471 138.976107,140.83451 136.047666,141.553763 C135.62147,141.658441 135.184207,141.711352 134.745345,141.711352 L37.907026,141.711352 C35.3931853,141.711352 33.2042178,139.994959 32.6046154,137.553674 L1.66088936,11.5660962 C0.941637005,8.63765571 2.73253787,5.68061637 5.6609784,4.96136402 C6.08717467,4.85668623 6.52443703,4.80377465 6.96329999,4.80377465 Z" id="Rectangle-Copy" fill="url(#linearGradient-12)"></path>
                                            <ellipse id="Oval" fill="#FFFFFF" cx="60.0460358" cy="55.2434085" rx="16.81289" ry="16.8132113"></ellipse>
                                            <ellipse id="Oval-Copy-3" fill="#728BB7" cx="16.81289" cy="19.2150986" rx="4.80368286" ry="4.80377465"></ellipse>
                                        </g>
                                        <g id="Hand" transform="translate(134.503120, 56.539698)">
                                            <path d="M67.8405965,70.4906918 C64.2242902,72.7066321 59.5578372,72.1381524 56.5793067,69.1188116 L47.8889509,60.3093848 C45.3447444,57.7303189 43.7184996,54.3866886 43.2604467,50.792978 L42.9460347,48.3262203 C42.6908311,46.3239883 43.0465695,44.2913669 43.9666148,42.4948206 L43.9666148,42.4948206 L43.9666148,42.4948206 L42.332106,39.1438407 C40.4815534,35.3499398 40.5641909,30.8984102 42.5542786,27.1758064 L42.5542786,27.1758064 L42.5542786,27.1758064 L6.33604245,10.8274655 C3.69361303,9.63471453 1.75105656,7.28730556 1.07370342,4.46839072 C0.710784261,2.95804385 1.64095821,1.43946169 3.15130508,1.07654253 C3.58392877,0.972587981 4.03504324,0.972756067 4.46758935,1.07703298 L57.0939682,13.7640418 C68.1541724,16.4304025 78.2538011,22.1229538 86.2619271,30.2042602 L98.5115939,42.5658677 C131.074767,53.8456788 152.379516,60.7201731 162.425838,63.1893506 C232.24374,80.3491412 276.115151,87.8317106 289.882734,95.4652834 C316.377161,110.155381 316.377161,132.442347 313.241333,142.740753 C310.105505,153.039159 301.28759,164.265691 280.970362,165.628158 C267.425543,166.536468 250.529543,161.382419 230.282363,150.16601 L230.282363,150.16601 L85.8932055,70.4906918 L85.8932055,70.4906918 C81.8069352,71.634146 78.6377682,72.2058731 76.3857045,72.2058731 C74.1336408,72.2058731 71.2852714,71.634146 67.8405965,70.4906918 Z" id="Path-20" fill="#DB8F80"></path>
                                            <line x1="51.3281976" y1="54.3481122" x2="68.4970641" y2="71.002489" id="Path-32" stroke="#333333" stroke-width="1.82"></line>
                                            <line x1="40.5682297" y1="26.1825877" x2="54.6359906" y2="31.3216351" id="Path-33" stroke="#333333" stroke-width="1.82"></line>
                                            <path d="M43.9666148,42.4948206 C47.6385563,39.2670624 51.4899484,39.4681482 55.5207908,43.098078" id="Path-34" stroke="#333333" stroke-width="1.82"></path>
                                            <line x1="229.441536" y1="78.9133796" x2="286.998218" y2="92.9485438" id="Path-53" stroke="#333333" stroke-width="1.82"></line>
                                        </g>
                                        <g id="Hand" transform="translate(13.049699, 92.725509)">
                                            <path d="M44.2006538,90.8765114 L58.2000575,60.4904219 C60.0165288,56.547721 59.7086486,51.9527149 57.3824281,48.2875877 L57.3824281,48.2875877 L57.3824281,48.2875877 L57.7929712,47.3177963 C59.7514214,42.6915142 58.3567509,37.3265736 54.3932072,34.2397735 L54.3932072,34.2397735 L54.3932072,34.2397735 C57.2004704,29.3238436 56.5205506,23.1589793 52.7094409,18.9729864 L52.5397845,18.7866416 L52.5397845,18.7866416 L56.9829433,12.6704255 C58.7866695,10.1875119 58.6845144,6.79938052 56.7344767,4.42964618 C55.1236898,2.47217785 52.2310475,2.19113701 50.2735791,3.8019239 C50.1238828,3.92510798 49.9821409,4.05765212 49.8492052,4.19875994 L31.339253,23.8465924 C27.4025077,28.0253451 23.6656911,32.3880308 20.1413386,36.9200146 L7.19179544,53.5719017 L7.19179544,53.5719017 L3.07676167,37.0717526 L1.03610162,58.1507569 C0.345968889,65.2794852 0.0772316312,72.4427355 0.231291949,79.6031346 L0.509051761,92.5128257 C0.665600574,99.7888848 6.20446724,105.815248 13.441542,106.583554 L17.5498781,107.019705 C23.0855825,107.607389 28.6568111,106.298272 33.3514631,103.306677 C38.0855176,100.289974 41.8517073,95.9749642 44.2006538,90.8765114 Z" id="Path-23" fill="#DB8F80"></path>
                                            <line x1="53.2901954" y1="18.6169784" x2="32.1608855" y2="42.4998182" id="Path-35" stroke="#333333" stroke-width="1.82"></line>
                                            <line x1="54.9909347" y1="34.4041622" x2="40.4844465" y2="51.1625971" id="Path-36" stroke="#333333" stroke-width="1.82"></line>
                                            <line x1="57.804623" y1="49.2858931" x2="45.5819924" y2="65.8536614" id="Path-37" stroke="#333333" stroke-width="1.82"></line>
                                            <line x1="3.7222291" y1="60.0729921" x2="9.94145233" y2="49.2858931" id="Path-38" stroke="#333333" stroke-width="1.82"></line>
                                        </g>
                                        <path d="M143.865819,229.644814 L143.280516,239.959657 L149.662106,232.179561 C148.024589,231.517628 146.811604,231.014265 146.023151,230.66947 C145.234698,230.324675 144.515588,229.983123 143.865819,229.644814 Z" id="Path-10" fill="#333333"></path>
                                    </g>
                                    <path d="M212.151476,83.5464338 C193.6147,120.055121 195.547938,147.116385 217.95119,164.730225 C217.388521,183.072112 226.425414,193.57995 245.061868,196.253741 C273.016548,200.264427 290.766612,154.796345 268.802772,134.611288 C254.160212,121.154583 235.276446,104.132965 212.151476,83.5464338 Z" id="Path-9" fill="#182545"></path>
                                    <path d="M137.108373,109.54159 C111.4803,120.552938 102.011927,136.243226 108.703255,156.612454 C118.740248,187.166295 161.431637,171.021073 169.973118,140.024611 L137.108373,109.54159 Z" id="Path-39" fill="#182545"></path>
                                </g>
                            </g>
                        </g>
                    </g>
                </g>
            </g>
        </g>
    </g>
</svg>