<?xml version="1.0" encoding="UTF-8"?>
<svg width="566px" height="433px" viewBox="0 0 566 433" version="1.1" xmlns="http://www.w3.org/2000/svg" xmlns:xlink="http://www.w3.org/1999/xlink">
    <!-- Generator: Sketch 62 (91390) - https://sketch.com -->
    <title>Group 9</title>
    <desc>Created with Sketch.</desc>
    <g id="GetCarbon-Main-Website-V2" stroke="none" stroke-width="1" fill="none" fill-rule="evenodd">
        <g id="GetCarbon-Investment-(v2)" transform="translate(-874.000000, -1587.000000)">
            <g id="Group-12" transform="translate(0.000000, 1533.000000)">
                <g id="Group-9">
                    <g transform="translate(874.000000, 54.000000)">
                        <path d="M289.499986,0.965953307 L519.215953,0.965953307 C597.797262,0.965953307 661.5,64.6686909 661.5,143.25 C661.5,221.831309 597.797262,285.534047 519.215953,285.534047 L49.5,285.534047 L49.5,285.534047 L49.5,240.965939 C49.5,108.417607 156.951654,0.965953307 289.499986,0.965953307 Z" id="Rectangle" fill="#FEEBD2" transform="translate(355.500000, 143.250000) scale(-1, 1) translate(-355.500000, -143.250000) "></path>
                        <path d="M305.3165,336.75 L50.3003323,336.75 L32.1835003,123.75 L287.199668,123.75 L305.3165,336.75 Z" id="Rectangle" stroke="#18233D" stroke-width="1.5" fill="#FFFFFF" stroke-linecap="round"></path>
                        <polyline id="Path-211" stroke="#18233D" stroke-width="1.5" stroke-linecap="round" points="62.3573313 143.25 75.5895773 310.487389 275.933481 310.487389"></polyline>
                        <polygon id="Path" fill-opacity="0.687062937" fill="#6F8499" points="302.782835 119.878396 293.604122 111.963306 336.997527 97.5 329.552938 142.963089 318.689291 133.595028 264.134815 199.36129 222.849866 164.456249 120.339264 283.248129 74.9684919 251.904533 14.2082441 307.731846 0 292.268154 73.1081048 225.095467 116.760381 255.251871 220.532903 134.997647 261.505624 169.63871"></polygon>
                        <circle id="Oval" fill="#0ACC94" cx="191.25" cy="180.75" r="24.75"></circle>
                        <g id="Group" transform="translate(340.916757, 377.043458) scale(-1, 1) rotate(73.000000) translate(-340.916757, -377.043458) translate(184.916757, 162.043458)">
                            <path d="M271.710304,429.802685 L92.3404386,232.348711 C90.4921413,230.314068 88.7078502,228.222187 86.9901753,226.076128 L51.6063075,181.867611 C41.5090393,169.252109 37.7836949,152.689651 41.5066346,136.965611 L46.0013779,117.981815 L46.0013779,117.981815 L0.826946005,13.8098292 C-1.12594638,9.30647029 0.480988623,4.05153862 4.61856974,1.41061976 C8.6437838,-1.1585779 13.9758807,-0.126615655 16.7518693,3.75887174 L69.1014956,77.0314398 L69.1014956,77.0314398 C72.9865182,68.2158038 83.2824362,64.218752 92.0980722,68.1037746 C94.601301,69.2069395 96.8099867,70.8833774 98.5457375,72.997685 L106.132082,82.2385654 L106.132082,82.2385654 C110.247305,75.0525108 119.408801,72.5631106 126.594856,76.6783344 C128.247776,77.6249086 129.7052,78.8777574 130.889166,80.3698604 L141.524951,93.7737012 L141.524951,93.7737012 C150.335362,91.7157362 159.422095,95.8791439 163.616497,103.895724 L164.670276,105.909766 C170.043288,116.178971 172.855969,127.594193 172.868982,139.184088 L172.926352,190.277211 L172.926352,190.277211 L311.234601,300.524535 L271.710304,429.802685 Z" id="Path-88" fill="#FFB391"></path>
                            <path d="M59.910347,151.119418 L68.6294416,166.228916 L60.5317937,161.902142 C54.514368,158.686882 50.4339416,152.748781 49.5898008,145.978646 L46.1928934,118.73494 L46.1928934,118.73494 L59.910347,151.119418 Z" id="Path-95" fill="#FF9B6F"></path>
                            <line x1="46.1928934" y1="118.73494" x2="60.7106599" y2="151.716867" id="Path-89" stroke="#18233D" stroke-width="1.5" stroke-linecap="round"></line>
                            <path d="M55.4314721,137.204819 L55.4314721,143.203514 C55.4314721,146.730658 56.9832255,150.079188 59.6743526,152.359228 L62.0304569,154.355422 L62.0304569,154.355422 L55.4314721,137.204819 Z" id="Path-90" fill="#18233D"></path>
                            <line x1="68.6294416" y1="76.5180723" x2="83.1472081" y2="102.903614" id="Path-91" stroke="#18233D" stroke-width="1.5" stroke-linecap="round"></line>
                            <line x1="105.583756" y1="81.7951807" x2="112.719884" y2="94.5945657" id="Path-92" stroke="#18233D" stroke-width="1.5" stroke-linecap="round"></line>
                            <line x1="139.898477" y1="92.3493976" x2="147.034605" y2="105.148783" id="Path-92" stroke="#18233D" stroke-width="1.5" stroke-linecap="round"></line>
                        </g>
                    </g>
                </g>
            </g>
        </g>
    </g>
</svg>