<?xml version="1.0" encoding="UTF-8"?>
<svg width="581px" height="462px" viewBox="0 0 581 462" version="1.1" xmlns="http://www.w3.org/2000/svg" xmlns:xlink="http://www.w3.org/1999/xlink">
    <!-- Generator: Sketch 62 (91390) - https://sketch.com -->
    <title>Scene 14@1x</title>
    <desc>Created with Sketch.</desc>
    <defs>
        <rect id="path-1" x="0" y="0" width="103.68" height="108"></rect>
        <path d="M46.8,0 L355.421074,0 C381.268,-4.74800333e-15 402.221074,20.9530737 402.221074,46.8 L402.221074,160.054894 C402.221074,185.90182 381.268,206.854894 355.421074,206.854894 L46.8,206.854894 C20.9530737,206.854894 2.44816176e-14,185.90182 0,160.054894 L0,46.8 C-1.02707629e-14,20.9530737 20.9530737,1.18534307e-14 46.8,0 Z" id="path-3"></path>
        <path d="M9.36,0 C14.5293853,0 18.72,4.12614375 18.72,9.216 C18.72,12.6270158 16.8379369,15.6052151 14.040505,17.1987756 L14.04,31.68 L5.265,31.68 L5.26494456,17.5054971 C2.14781927,16.009852 0,12.8598922 0,9.216 C0,4.12614375 4.19061474,0 9.36,0 Z" id="path-5"></path>
        <linearGradient x1="-29.376163%" y1="49.9923559%" x2="70.623837%" y2="49.9923559%" id="linearGradient-7">
            <stop stop-color="#FFDBDB" offset="0%"></stop>
            <stop stop-color="#FFFFFF" offset="100%"></stop>
        </linearGradient>
        <path d="M72.0801773,0.293319616 L38.4267042,3.50254883 C15.0716001,5.72971517 -2.05597753,26.4682429 0.171188811,49.823347 C0.580086023,54.1112337 1.63875091,58.3119923 3.3108684,62.2815253 L24.3465226,112.219239 L24.3465226,112.219239 L27.758471,139.955994 C29.2179898,151.820863 34.6467762,162.843551 43.1627386,171.233049 L43.1627386,171.233049 L43.1627386,171.233049 L157.434969,171.233049 L157.702623,170.753566 C164.096107,159.300066 167.23923,146.31759 166.792581,133.208058 L165.277596,88.7419623 L165.277596,88.7419623 L177.793419,115.822973 L217.108114,96.5147819 L205.533861,53.4846788 C197.064357,21.997236 168.491344,0.132116609 135.884771,0.186635995 L72.0801773,0.293319616 L72.0801773,0.293319616 Z" id="path-8"></path>
    </defs>
    <g id="GetCarbon-Main-Website-V2" stroke="none" stroke-width="1" fill="none" fill-rule="evenodd">
        <g id="GetCarbon-Investment-(v2)" transform="translate(-816.000000, -2604.000000)">
            <g id="Group-9-Copy-2" transform="translate(-1.000000, 2527.000000)">
                <g id="Scene-14" transform="translate(812.000000, 77.000000)">
                    <g id="Path-121" transform="translate(455.600000, 0.000000)">
                        <mask id="mask-2" fill="white">
                            <use xlink:href="#path-1"></use>
                        </mask>
                        <use id="Mask" fill="#FFB1B1" xlink:href="#path-1"></use>
                        <path d="M3.95522246,12.5019956 C35.1222412,4.35139634 53.5718642,1.63452992 59.3040915,4.35139634 C67.9024325,8.42669597 31.629657,13.8821444 31.629657,23.721737 C31.629657,33.5613296 67.6601441,25.9206455 102.295796,16.4574571 C136.931448,6.99426876 151.752056,22.9206716 126.628339,35.4208309 C101.504621,47.9209901 24.9166294,82.7094271 3.95522246,76.847816 C-17.0061844,70.9862048 47.2929609,56.6494162 67.9024325,50.8761001 C88.5119041,45.1027841 75.5251067,35.4208309 60.0833725,35.4208309 C44.6416384,35.4208309 -4.19532967,43.5167479 -17.0061844,38.2856853 C-29.8170392,33.0546226 -65.6420259,90.1056093 -17.0061844,90.1056093 C31.629657,90.1056093 126.80766,65.7593736 146.399919,46.7190904 C165.992178,27.6788071 152.683604,82.1287351 52.3199594,98.9897143" stroke="#FFFFFF" stroke-width="1.44" mask="url(#mask-2)"></path>
                    </g>
                    <g id="Oval-+-Path-143-Mask" transform="translate(122.400000, 45.600000)">
                        <mask id="mask-4" fill="white">
                            <use xlink:href="#path-3"></use>
                        </mask>
                        <use id="Mask" fill="#BDEAF6" xlink:href="#path-3"></use>
                        <path d="M-4.42313883,151.649483 C55.0007207,180.168095 124.707319,185.747546 204.696655,168.387835 C284.685991,151.028124 313.550399,168.277703 291.289877,220.136573" id="Path-144" stroke="#FFFFFF" stroke-width="21.6" mask="url(#mask-4)"></path>
                        <path d="M-34.9812863,131.687157 C33.5371842,89.1267124 78.8627263,72.1875497 100.99534,80.8696692 C134.19426,93.8928484 99.1066492,111.496703 128.414262,122.607124 C156.143867,133.119328 279.227964,99.3740856 311.803075,102.274614 C344.378185,105.175143 319.366286,143.966316 403.355824,120.576736" id="Path-143" stroke="#FFFFFF" stroke-width="21.6" mask="url(#mask-4)"></path>
                    </g>
                    <g id="lock" transform="translate(451.120000, 170.560000)">
                        <path d="M26.8688372,68.0533333 L79.6911628,68.0533333 L79.6911628,37.84 C79.6911628,23.0976791 67.8664824,11.1466667 53.28,11.1466667 C38.6935176,11.1466667 26.8688372,23.0976791 26.8688372,37.84 L26.8688372,68.0533333 Z M53.28,0 C73.957541,0 90.72,16.9415451 90.72,37.84 L90.72,79.2 L15.84,79.2 L15.84,37.84 C15.84,16.9415451 32.602459,0 53.28,0 Z" id="Rectangle" stroke="#071A2D" stroke-width="1.44" fill="#FFFFFF"></path>
                        <polygon id="Rectangle" fill="#071A2D" points="20.16 56.16 105.12 56.16 105.12 123.84 20.16 123.84"></polygon>
                        <polygon id="Rectangle" fill="#E8DCFF" points="0 56.16 84.96 56.16 84.96 123.84 0 123.84"></polygon>
                        <g id="Combined-Shape" transform="translate(37.440000, 73.440000)">
                            <mask id="mask-6" fill="white">
                                <use xlink:href="#path-5"></use>
                            </mask>
                            <use id="Mask" fill="#FFFFFF" xlink:href="#path-5"></use>
                            <path d="M13.1359091,0 C18.3052943,0 22.4959091,4.12614375 22.4959091,9.216 C22.4959091,12.6270158 20.613846,15.6052151 17.8164141,17.1987756 L17.8159091,31.68 L9.04090909,31.68 L9.04085365,17.5054971 C5.92372836,16.009852 3.77590909,12.8598922 3.77590909,9.216 C3.77590909,4.12614375 7.96652383,0 13.1359091,0 Z" fill="#2CD5C4" mask="url(#mask-6)"></path>
                        </g>
                    </g>
                    <g id="Card" transform="translate(40.000000, 94.400000)" fill-rule="nonzero">
                        <rect id="Rectangle" fill="#FFB1B1" x="0.3648" y="22.9824" width="326.752" height="213.4976" rx="29.6"></rect>
                        <rect id="Rectangle" fill="url(#linearGradient-7)" transform="translate(164.073006, 93.175807) rotate(-0.070000) translate(-164.073006, -93.175807) " x="0.697005946" y="72.2446065" width="326.752" height="41.8624"></rect>
                        <circle id="Oval" fill="#A6BAF7" cx="272.3904" cy="177.3312" r="29.6128"></circle>
                        <path d="M229.4976,209.4592 C211.782073,209.4592 197.4208,195.097927 197.4208,177.3824 C197.4208,159.666873 211.782073,145.305596 229.4976,145.305596 L229.536,145.305596 C247.251527,145.296764 261.619962,159.650873 261.628803,177.3664 C261.637635,195.081927 247.283527,209.450363 229.568,209.4592 L229.4976,209.4592 Z M229.4976,150.24 L229.4976,150.24 C214.668009,150.46771 202.765624,162.55426 202.765624,177.3856 C202.765624,192.21694 214.668009,204.30349 229.4976,204.5312 L229.536,204.5312 C244.365577,204.294915 256.261021,192.2013 256.252284,177.369844 C256.243537,162.538387 244.333845,150.458803 229.504,150.24 L229.4976,150.24 Z" id="Shape" fill="#3958D7"></path>
                        <rect id="Rectangle" fill="#FFCECE" x="23.104" y="0.2368" width="326.752" height="213.4976" rx="29.6"></rect>
                        <rect id="Rectangle" fill="url(#linearGradient-7)" transform="translate(186.790769, 70.402466) rotate(-0.070000) translate(-186.790769, -70.402466) " x="23.4147687" y="49.4712658" width="326.752" height="41.8624"></rect>
                        <circle id="Oval" fill="#FFB0B0" cx="295.104" cy="154.5664" r="29.6128"></circle>
                        <path d="M252.2176,186.688006 C234.502073,186.698604 220.132204,172.345927 220.121594,154.6304 C220.110996,136.914873 234.463673,122.545004 252.1792,122.5344 L252.2176,122.5344 C269.909396,122.555503 284.252105,136.881042 284.294423,154.5728 L284.294423,154.5728 C284.30459,163.080098 280.934849,171.243007 274.926482,177.265777 C268.918116,183.288546 260.763298,186.677822 252.256,186.688006 L252.2176,186.688006 Z M252.2176,127.4688 L252.2176,127.4688 C237.388009,127.69651 225.485624,139.78306 225.485624,154.6144 C225.485624,169.44574 237.388009,181.53229 252.2176,181.76 L252.2496,181.76 C259.449847,181.753217 266.352213,178.885107 271.436952,173.787164 C276.521691,168.689221 279.37189,161.77944 279.360037,154.5792 L279.360037,154.5792 C279.324752,139.608675 267.188156,127.486388 252.2176,127.4688 L252.2176,127.4688 Z" id="Shape" fill="#FF8B8B"></path>
                    </g>
                    <g id="Woman---Top-5" transform="translate(314.320000, 253.120000)">
                        <g id="man---body-2" transform="translate(0.000000, 71.298435)">
                            <path d="M118.655587,83.959451 L129.022477,104.720834 C133.337461,113.362291 142.166465,118.822161 151.82534,118.822161 C161.75365,118.822161 171.108884,114.172142 177.103336,106.257732 L216.518239,54.2186661 L216.518239,54.2186661 L201.866551,46.4305443 L153.729579,83.959451 L145.773331,70.0367557 L118.655587,83.959451 Z" id="Path-56" fill="#AD673D"></path>
                            <path d="M47.1612102,6.54836185e-13 L30.2680112,3.99835998 C10.1442793,8.76133734 -2.54462801,28.6623437 1.62800879,48.9167171 L10.2125103,90.586699 L10.2125103,90.586699 L14.8737152,98.6285255 C21.1983595,109.540231 24.2012773,122.06044 23.5142368,134.653867 L23.4590684,135.665102 L23.4590684,135.665102 L110.659054,135.665102 L106.669132,99.2305286 L108.579839,98.7879994 C114.896694,97.324984 119.369454,91.6979158 119.369454,85.2138528 L119.369454,85.2138528 L119.369454,85.2138528 L151.746284,78.9233509 L134.781434,41.2889857 C125.247557,20.1392916 105.134627,5.69990932 82.0467185,3.4299209 L47.1612102,6.54836185e-13 L47.1612102,6.54836185e-13 Z" id="Path-14" fill="#DEB544"></path>
                            <path d="M89.306139,111.288428 L128.256644,59.1278585 L128.256644,59.1278585 L63.5632403,86.546951 L16.4379445,86.546951 L10.2125103,90.586699 L19.3591241,106.05859 C26.5654038,118.248323 39.2157258,126.206721 53.3236553,127.425891 C67.3018933,128.633855 80.9113943,122.530251 89.306139,111.288428 Z" id="Path-49" fill-opacity="0.34375" fill="#B0840B"></path>
                            <g id="Group-8" transform="translate(155.898836, 9.962729)">
                                <path d="M9.56967655,0 L52.4962502,0 C54.0868303,-3.64216311e-15 55.3762502,1.28941992 55.3762502,2.88 C55.3762502,2.97419473 55.371629,3.06833276 55.3624034,3.16207461 L49.3971177,63.775196 C49.252032,65.249408 48.0122986,66.3731214 46.5309645,66.3731214 L3.60439084,66.3731214 C2.01381076,66.3731214 0.724390837,65.0837015 0.724390837,63.4931214 C0.724390837,63.3989267 0.729012006,63.3047887 0.738237681,63.2110468 L6.70352339,2.59792539 C6.84860906,1.12371346 8.08834246,-1.06015097e-15 9.56967655,0 Z" id="Rectangle" fill="#85B0FF"></path>
                                <path d="M12.0226368,0 L54.9492105,0 C56.5397906,-3.64216311e-15 57.8292105,1.28941992 57.8292105,2.88 C57.8292105,2.97419473 57.8245893,3.06833276 57.8153636,3.16207461 L51.8500779,63.775196 C51.7049922,65.249408 50.4652589,66.3731214 48.9839248,66.3731214 L6.0573511,66.3731214 C4.46677102,66.3731214 3.1773511,65.0837015 3.1773511,63.4931214 C3.1773511,63.3989267 3.18197226,63.3047887 3.19119794,63.2110468 L9.15648365,2.59792539 C9.30156932,1.12371346 10.5413027,-1.06015097e-15 12.0226368,0 Z" id="Rectangle" fill="#19243D"></path>
                                <ellipse id="Oval" fill="#FFFFFF" cx="33.0660341" cy="9.05551745" rx="3.18963341" ry="3.202212"></ellipse>
                            </g>
                            <path d="M209.909486,58.775582 C209.909486,58.775582 216.885127,54.836845 217.963986,51.225635 C218.530062,49.3308355 217.233585,45.0673987 214.074554,38.4353247 C212.356508,34.8284582 208.718926,32.5296145 204.723785,32.5259171 L195.346339,32.5172384 C194.429396,32.5163898 193.68538,33.2590304 193.684531,34.1759728 C193.68453,34.1769954 193.68453,34.178018 193.684531,34.1790405 C193.685417,35.1391533 194.378714,35.9586139 195.325421,36.1184971 C203.040072,37.4216236 206.55786,38.0728726 205.878785,38.0722441 C205.219059,38.0716335 201.308597,38.6591136 194.1474,39.8346842 C192.857509,40.0464395 191.911174,41.1618315 191.912379,42.4689885 C191.913534,43.7208343 192.928065,44.735369 194.179911,44.7365275 L205.884942,44.7473604 L205.884942,44.7473604 L197.756345,48.4869863 C196.829334,48.9134654 196.423572,50.0106865 196.850051,50.9376982 C196.876161,50.9944521 196.905133,51.0498453 196.936855,51.1036643 C197.567216,52.1731291 198.772879,52.7656665 200.004668,52.6113774 L211.118524,51.2192996 L211.118524,51.2192996 L203.238955,56.7507579 C202.435084,57.3150754 202.196891,58.4007758 202.690689,59.2497907 C203.20157,60.1281783 204.251762,60.5368463 205.221988,60.2348122 C206.784488,59.7484021 208.346987,59.2619921 209.909486,58.775582 Z" id="Path-55" fill="#AD673D" transform="translate(205.002699, 46.425383) rotate(14.000000) translate(-205.002699, -46.425383) "></path>
                            <path d="M16.4379445,86.546951 L46.3050213,66.6967232 L54.9808646,77.1807481 L128.430136,40.0599282 C131.301963,38.6085241 134.31813,37.4624015 137.429118,36.640378 L158.322618,31.1196393 C159.160541,30.8982331 160.019296,31.3980182 160.240702,32.2359406 C160.275271,32.3667671 160.292773,32.5015154 160.292773,32.636832 C160.292773,33.8856536 159.587015,35.0272319 158.469876,35.5854047 L147.474827,41.0790273 L147.474827,41.0790273 L147.474827,47.8502591 C147.474827,52.7435993 144.587869,57.1761885 140.112294,59.1545742 L137.838463,60.1597 C134.689457,61.5516885 131.037089,61.1583744 128.256644,59.1278585 L128.256644,59.1278585 L128.256644,59.1278585 L81.9861728,104.302671 C75.8531765,110.290442 67.9253499,114.101129 59.4185151,115.15032 C51.1490131,116.17024 42.87422,113.29625 37.0172699,107.36995 L16.4379445,86.546951 L16.4379445,86.546951 Z" id="Path-57" fill="#AD673D"></path>
                        </g>
                        <g id="Woman---face-1" transform="translate(22.548096, 0.000000)">
                            <polygon id="Path-8" fill="#19243D" points="71.431469 24.7234351 71.2349638 76.240513 47.6147298 74.2896874 48.7616266 29.4766723"></polygon>
                            <path d="M68.8566864,21.8901349 L68.0783222,52.4984883 C67.8824635,60.2004256 61.5825379,66.342182 53.8781107,66.342182 L53.8781107,66.342182 L53.8781107,66.342182 L53.8781107,77.0425734 C59.6529991,87.1281097 59.0322946,93.5918126 52.0159972,96.433682 C44.9996998,99.2755515 36.4519585,93.9293288 26.3727733,80.395014 L35.5774993,26.4051266 L52.0159972,15.6671851 L68.8566864,21.8901349 Z" id="Path-5" fill="#AD673D"></path>
                            <path d="M40.449242,31.1921851 C38.9589488,32.3626934 38.9589488,33.6564434 40.449242,35.0734351" id="Path-70" stroke="#19243D" stroke-width="1.44" stroke-linecap="round"></path>
                            <path d="M63.1723123,50.2632873 L56.6961497,48.9176729 C57.3365679,51.6874917 58.4159699,53.0724283 59.9343557,53.0724825 C61.4527415,53.0725368 62.5320604,52.1361384 63.1723123,50.2632873 Z" id="Path-12" fill="#FFFFFF" transform="translate(59.934231, 50.995078) rotate(-1.000000) translate(-59.934231, -50.995078) "></path>
                            <path d="M65.4023476,34.3009941 C65.375659,34.0389709 65.5834663,33.8065297 65.8664982,33.7818221 C66.1495301,33.7571146 66.4006082,33.9494969 66.4272968,34.2115201 L67.5692951,45.4234351 L62.9344778,45.4234351 C62.6501903,45.4234351 62.4197298,45.2100811 62.4197298,44.9468955 C62.4197298,44.68371 62.6501903,44.4703559 62.9344778,44.4703559 L66.4381558,44.4703559 L65.4023476,34.3009941 Z" id="Path-10" fill="#19243D" fill-rule="nonzero"></path>
                            <path d="M58.0107817,28.1843273 L61.253559,28.1840956 C61.8908507,28.1840501 62.4075146,28.7006402 62.4075602,29.3379319 C62.4075602,29.3379869 62.4075602,29.3380419 62.4075602,29.338097 C62.4075145,29.9755065 61.8908033,30.4922177 61.2533938,30.4922632 L58.0106165,30.4924949 C57.3733248,30.4925404 56.8566609,29.9759503 56.8566153,29.3386586 C56.8566153,29.3386036 56.8566153,29.3385486 56.8566153,29.3384935 C56.856661,28.701084 57.3733722,28.1843728 58.0107817,28.1843273 Z" id="Rectangle" fill="#19243D" transform="translate(59.632088, 29.338295) rotate(2.000000) translate(-59.632088, -29.338295) "></path>
                            <path d="M66.7997997,28.6459597 L70.0425769,28.645728 C70.6798687,28.6456825 71.1965326,29.1622726 71.1965781,29.7995643 C71.1965781,29.7996193 71.1965781,29.7996743 71.1965781,29.7997293 C71.1965325,30.4371389 70.6798213,30.95385 70.0424117,30.9538956 L66.7996344,30.9541272 C66.1623427,30.9541728 65.6456788,30.4375827 65.6456333,29.800291 C65.6456333,29.8002359 65.6456333,29.8001809 65.6456333,29.8001259 C65.6456789,29.1627163 66.1623901,28.6460052 66.7997997,28.6459597 Z" id="Rectangle" fill="#19243D" transform="translate(68.421106, 29.799928) rotate(2.000000) translate(-68.421106, -29.799928) "></path>
                            <ellipse id="Oval" fill="#19243D" cx="68.8566864" cy="33.7796851" rx="1.2873913" ry="1.29375"></ellipse>
                            <ellipse id="Oval" fill="#19243D" cx="59.8449472" cy="33.7796851" rx="1.2873913" ry="1.29375"></ellipse>
                            <path d="M39.2899589,76.6845612 C40.5789113,62.9074095 41.4347747,54.229935 41.8575492,50.6521376 C42.2803236,47.0743403 41.7887065,42.7878062 40.3826981,37.7925356 L37.9901185,35.128352 C36.7702775,33.7700354 36.6129952,31.7624167 37.6064239,30.2307066 C38.5977138,28.702294 40.4968508,28.0372224 42.2251114,28.6132574 L48.1962541,30.6034589 C56.6816191,29.5082682 62.593285,26.235418 65.9312519,20.7849083 C66.5737488,22.4924004 67.7000032,23.8737604 69.3100149,24.9289883 L69.04344,30.2004266 C74.0685028,26.5185677 76.5810342,22.407345 76.5810342,17.8667583 C76.5810342,13.3261717 74.1573611,10.5612693 69.3100149,9.57205091 C69.401211,5.32825922 67.1439851,2.78024169 62.5383375,1.92799834 C56.3432445,0.781639074 40.6424097,-4.37529491 25.6841812,10.6016718 C19.2890696,17.0047945 10.7276759,39.2428221 0,77.3157546 L10.2101385,77.3157546 C10.2959674,88.8292083 14.7501927,94.5859351 23.5728143,94.5859351 C32.3954359,94.5859351 37.6344841,88.6188105 39.2899589,76.6845612 Z" id="Path-6" fill="#071A2D"></path>
                            <polygon id="Path-7" fill="#19243D" points="54.695382 66.3513104 41.821469 66.1234351 54.695382 71.2984351"></polygon>
                        </g>
                    </g>
                    <polygon id="Path-138" fill="#19243D" fill-rule="nonzero" points="9.04 461.44 9.04 460 585.76 460 585.76 461.44"></polygon>
                    <path d="M38.92,42.84 C34.5459048,42.84 31,39.2940952 31,34.92 C31,30.5459048 34.5459048,27 38.92,27 C43.2940952,27 46.84,30.5459048 46.84,34.92 C46.84,39.2940952 43.2940952,42.84 38.92,42.84 Z M145.48,42.84 C141.105905,42.84 137.56,39.2940952 137.56,34.92 C137.56,30.5459048 141.105905,27 145.48,27 C149.854095,27 153.4,30.5459048 153.4,34.92 C153.4,39.2940952 149.854095,42.84 145.48,42.84 Z M109.48,42.84 C105.105905,42.84 101.56,39.2940952 101.56,34.92 C101.56,30.5459048 105.105905,27 109.48,27 C113.854095,27 117.4,30.5459048 117.4,34.92 C117.4,39.2940952 113.854095,42.84 109.48,42.84 Z M73.48,42.84 C69.1059048,42.84 65.56,39.2940952 65.56,34.92 C65.56,30.5459048 69.1059048,27 73.48,27 C77.8540952,27 81.4,30.5459048 81.4,34.92 C81.4,39.2940952 77.8540952,42.84 73.48,42.84 Z M38.92,81.72 C34.5459048,81.72 31,78.1740952 31,73.8 C31,69.4259048 34.5459048,65.88 38.92,65.88 C43.2940952,65.88 46.84,69.4259048 46.84,73.8 C46.84,78.1740952 43.2940952,81.72 38.92,81.72 Z M145.48,81.72 C141.105905,81.72 137.56,78.1740952 137.56,73.8 C137.56,69.4259048 141.105905,65.88 145.48,65.88 C149.854095,65.88 153.4,69.4259048 153.4,73.8 C153.4,78.1740952 149.854095,81.72 145.48,81.72 Z M109.48,81.72 C105.105905,81.72 101.56,78.1740952 101.56,73.8 C101.56,69.4259048 105.105905,65.88 109.48,65.88 C113.854095,65.88 117.4,69.4259048 117.4,73.8 C117.4,78.1740952 113.854095,81.72 109.48,81.72 Z M73.48,81.72 C69.1059048,81.72 65.56,78.1740952 65.56,73.8 C65.56,69.4259048 69.1059048,65.88 73.48,65.88 C77.8540952,65.88 81.4,69.4259048 81.4,73.8 C81.4,78.1740952 77.8540952,81.72 73.48,81.72 Z M38.92,120.6 C34.5459048,120.6 31,117.054095 31,112.68 C31,108.305905 34.5459048,104.76 38.92,104.76 C43.2940952,104.76 46.84,108.305905 46.84,112.68 C46.84,117.054095 43.2940952,120.6 38.92,120.6 Z M145.48,120.6 C141.105905,120.6 137.56,117.054095 137.56,112.68 C137.56,108.305905 141.105905,104.76 145.48,104.76 C149.854095,104.76 153.4,108.305905 153.4,112.68 C153.4,117.054095 149.854095,120.6 145.48,120.6 Z M109.48,120.6 C105.105905,120.6 101.56,117.054095 101.56,112.68 C101.56,108.305905 105.105905,104.76 109.48,104.76 C113.854095,104.76 117.4,108.305905 117.4,112.68 C117.4,117.054095 113.854095,120.6 109.48,120.6 Z M73.48,120.6 C69.1059048,120.6 65.56,117.054095 65.56,112.68 C65.56,108.305905 69.1059048,104.76 73.48,104.76 C77.8540952,104.76 81.4,108.305905 81.4,112.68 C81.4,117.054095 77.8540952,120.6 73.48,120.6 Z M38.92,160.92 C34.5459048,160.92 31,157.374095 31,153 C31,148.625905 34.5459048,145.08 38.92,145.08 C43.2940952,145.08 46.84,148.625905 46.84,153 C46.84,157.374095 43.2940952,160.92 38.92,160.92 Z M145.48,160.92 C141.105905,160.92 137.56,157.374095 137.56,153 C137.56,148.625905 141.105905,145.08 145.48,145.08 C149.854095,145.08 153.4,148.625905 153.4,153 C153.4,157.374095 149.854095,160.92 145.48,160.92 Z M109.48,160.92 C105.105905,160.92 101.56,157.374095 101.56,153 C101.56,148.625905 105.105905,145.08 109.48,145.08 C113.854095,145.08 117.4,148.625905 117.4,153 C117.4,157.374095 113.854095,160.92 109.48,160.92 Z M73.48,160.92 C69.1059048,160.92 65.56,157.374095 65.56,153 C65.56,148.625905 69.1059048,145.08 73.48,145.08 C77.8540952,145.08 81.4,148.625905 81.4,153 C81.4,157.374095 77.8540952,160.92 73.48,160.92 Z" id="Shape" fill="#FE7600" opacity="0.576334635"></path>
                    <g id="Man---Top-7" transform="translate(153.180000, 327.600000) scale(-1, 1) translate(-153.180000, -327.600000) translate(0.680000, 193.600000)">
                        <g id="man---body-2" transform="translate(0.000000, 94.654192)">
                            <path d="M177.681687,110.816933 L190.531789,136.475668 C195.90263,147.200017 206.8686,153.972463 218.862665,153.972463 C231.19117,153.972463 242.810406,148.207392 250.267962,138.390219 L299.180322,74.001684 L299.180322,74.001684 L280.989928,64.3609956 L221.22682,110.816933 L214.745423,91.6423337 L177.681687,110.816933 Z" id="Path-56" fill="#AD673D"></path>
                            <path d="M72.4273093,0.679127346 L38.7738362,3.88835656 C15.4187321,6.1155229 -1.70884553,26.8540506 0.51832081,50.2091547 C0.927218021,54.4970414 1.98588291,58.6978 3.6580004,62.667333 L24.6936546,112.605047 L24.6936546,112.605047 L28.105603,140.341802 C29.5651218,152.20667 34.9939082,163.229359 43.5098706,171.618857 L43.5098706,171.618857 L43.5098706,171.618857 L157.782101,171.618857 L158.049755,171.139374 C164.443239,159.685874 167.586362,146.703397 167.139713,133.593866 L165.624728,89.1277701 L165.624728,89.1277701 L178.140551,116.208781 L217.455246,96.9005896 L205.880993,53.8704865 C197.411489,22.3830437 168.838476,0.51792434 136.231903,0.572443725 L72.4273093,0.679127346 L72.4273093,0.679127346 Z" id="Path-14" fill="#2760CB"></path>
                            <g id="Group-22" transform="translate(0.347132, 0.385808)">
                                <mask id="mask-9" fill="white">
                                    <use xlink:href="#path-8"></use>
                                </mask>
                                <use id="Mask" fill="#129F72" xlink:href="#path-8"></use>
                                <path d="M124.94465,141.016051 L173.271232,76.4898315 L173.271232,76.4898315 L92.9529498,110.431125 L34.4458589,110.431125 L26.7168456,115.431811 L38.0417532,134.532043 C47.0091134,149.65611 62.7224979,159.524582 80.2402799,161.033971 C97.5988556,162.529643 114.500334,154.961424 124.94465,141.016051 Z" id="Path-49" fill-opacity="0.5" fill="#071A2D" mask="url(#mask-9)"></path>
                                <g mask="url(#mask-9)" id="Combined-Shape" opacity="0.240048363" stroke="#FFFFFF" stroke-width="1.44">
                                    <g transform="translate(8.292868, -4.320000)">
                                        <path d="M57.6,0 C63.5008908,75.9937272 66.4513362,138.393727 66.4513362,187.2 L57.6,0 Z M43.2,0 C49.1008908,75.9937272 52.0513362,138.393727 52.0513362,187.2 L43.2,0 Z M28.8,0 C34.7008908,75.9937272 37.6513362,138.393727 37.6513362,187.2 L28.8,0 Z M14.4,0 C20.3008908,75.9937272 23.2513362,138.393727 23.2513362,187.2 L14.4,0 Z M-1.37517731e-11,0 C5.90089081,75.9937272 8.85133621,138.393727 8.85133621,187.2 L-1.37517731e-11,0 Z M72,0 C77.9008908,75.9937272 80.8513362,138.393727 80.8513362,187.2 L72,0 Z M86.4,0 C92.3008908,75.9937272 95.2513362,138.393727 95.2513362,187.2 L86.4,0 Z M100.8,0 C106.700891,75.9937272 109.651336,138.393727 109.651336,187.2 L100.8,0 Z M115.2,0 C121.100891,75.9937272 124.051336,138.393727 124.051336,187.2 L115.2,0 Z M129.6,0 C135.500891,75.9937272 138.451336,138.393727 138.451336,187.2 L129.6,0 Z M144,0 C149.900891,75.9937272 152.851336,138.393727 152.851336,187.2 L144,0 Z M158.4,0 C164.300891,75.9937272 167.251336,138.393727 167.251336,187.2 L158.4,0 Z M172.8,0 C178.700891,75.9937272 181.651336,138.393727 181.651336,187.2 L172.8,0 Z M187.2,0 C193.100891,75.9937272 196.051336,138.393727 196.051336,187.2 L187.2,0 Z"></path>
                                    </g>
                                </g>
                            </g>
                            <g id="Group-8" transform="translate(224.400000, 19.218553)">
                                <path d="M12.0745835,0 L63.8725963,0 C66.2584664,-1.32645565e-15 68.1925963,1.93412988 68.1925963,4.32 C68.1925963,4.46170634 68.1856239,4.60332686 68.1717042,4.74434789 L60.9147036,78.2656958 C60.6964861,80.4764777 58.8371212,82.1613479 56.6155957,82.1613479 L4.81758291,82.1613479 C2.43171279,82.1613479 0.497582906,80.227218 0.497582906,77.8413479 C0.497582906,77.6996415 0.504555364,77.558021 0.518474991,77.417 L7.77547563,3.89565211 C7.99369315,1.68487015 9.853058,3.9608013e-15 12.0745835,0 Z" id="Rectangle" fill="#85B0FF"></path>
                                <path d="M14.5595431,0 L69.2515517,0 C70.8421317,-1.62445245e-15 72.1315517,1.28941992 72.1315517,2.88 C72.1315517,2.97447089 72.1269033,3.06888457 72.1176236,3.16289859 L64.5763496,79.5642465 C64.4308712,81.0381011 63.1912947,82.1613479 61.7102776,82.1613479 L7.01826912,82.1613479 C5.42768904,82.1613479 4.13826912,80.8719279 4.13826912,79.2813479 C4.13826912,79.186877 4.14291742,79.0924633 4.15219718,78.9984493 L11.6934712,2.59710141 C11.8389495,1.12324676 13.0785261,4.71295051e-15 14.5595431,0 Z" id="Rectangle" fill="#19243D"></path>
                                <ellipse id="Oval" fill="#FFFFFF" cx="42.36" cy="14.7746283" rx="3.96" ry="3.96392468"></ellipse>
                            </g>
                            <path d="M290.962587,79.6408645 C290.962587,79.6408645 299.624884,74.7583968 300.967175,70.2864891 C301.694304,67.8640224 299.959276,62.3174817 295.76209,53.646867 C293.838116,49.6722931 289.811502,47.1472309 285.395745,47.1462036 L272.902374,47.1432973 C271.765552,47.1430328 270.843761,48.0643949 270.843497,49.201217 C270.843497,49.2015361 270.843497,49.2018552 270.843497,49.2021743 C270.843773,50.3903622 271.702181,51.4045768 272.873989,51.6011909 C282.4524,53.208485 286.820067,54.012034 285.976989,54.0118379 C285.15783,54.0116473 280.300685,54.7427685 271.405554,56.2052014 C269.808276,56.4678235 268.636229,57.8486254 268.636605,59.467349 C268.636965,61.0166122 269.892801,62.2724483 271.442064,62.2728087 L285.97891,62.2761904 L285.97891,62.2761904 L275.879608,66.9158876 C274.733076,67.4426131 274.230624,68.7990562 274.757349,69.945588 C274.790023,70.0167098 274.826331,70.0861056 274.866127,70.1535007 C275.647747,71.4771559 277.141016,72.2099728 278.666233,72.0183897 L292.469852,70.2845124 L292.469852,70.2845124 L282.680018,77.1425639 C281.68448,77.8399658 281.389487,79.1839267 282.001427,80.2341619 C282.634972,81.3214749 283.935532,81.8271057 285.137143,81.4532632 C287.078958,80.8491303 289.020772,80.2449974 290.962587,79.6408645 Z" id="Path-55" fill="#AD673D" transform="translate(284.882416, 64.359385) rotate(14.000000) translate(-284.882416, -64.359385) "></path>
                            <path d="M34.7929909,110.816933 L71.8736234,86.2449158 L82.6448736,99.2227838 L174.404787,52.9842599 C177.590624,51.3788923 180.935756,50.1114219 184.385502,49.2025682 L210.952659,42.203311 C211.990877,41.9297869 213.054254,42.5496941 213.327778,43.5879123 C213.370364,43.7495543 213.391923,43.9160139 213.391923,44.0831715 C213.391923,45.6287473 212.517501,47.041285 211.134088,47.7304678 L197.478161,54.5335183 L197.478161,54.5335183 L197.478161,62.8908355 C197.478161,68.9619367 193.892868,74.4601963 188.337415,76.9087099 L185.510979,78.154435 C181.602035,79.8772653 177.071676,79.3901222 173.618364,76.8756392 L173.618364,76.8756392 L173.618364,76.8756392 L116.188898,132.780314 C108.563312,140.203435 98.7167554,144.925319 88.1543143,146.224208 C77.8851142,147.487036 67.6097787,143.92464 60.3260156,136.576307 L34.7929909,110.816933 L34.7929909,110.816933 Z" id="Path-57" fill="#AD673D"></path>
                        </g>
                        <g id="Man---face-1" transform="translate(76.320000, 0.000000)">
                            <path d="M58.4307265,25.5786581 L57.4688871,64.0427111 C57.2326969,73.4879811 49.5079611,81.0219655 40.0597384,81.0219655 L40.0597384,81.0219655 L40.0597384,81.0219655 L40.0597384,94.3681471 C47.1425485,106.947444 46.3812641,115.009369 37.7758854,118.553922 C29.1705068,122.098475 18.6868361,115.43034 6.32487364,98.5495157 L11.3726573,31.3582935 L37.7758854,17.8170152 L58.4307265,25.5786581 Z" id="Path-5" fill="#AD673D"></path>
                            <path d="M51.2052742,61.2844918 L43.1576778,59.6008401 C43.953064,63.0685402 45.294193,64.8023007 47.1810647,64.8021217 C49.0679364,64.8019428 50.4093396,63.6293995 51.2052742,61.2844918 Z" id="Path-12" fill="#FFFFFF" transform="translate(47.181476, 62.201481) rotate(-1.000000) translate(-47.181476, -62.201481) "></path>
                            <path d="M53.3417711,42.2455974 C53.311967,41.9278066 53.5440334,41.6458939 53.8601059,41.6159278 C54.1761785,41.5859616 54.456567,41.8192895 54.4863711,42.1370803 L55.7616844,55.7352751 L50.5858065,55.7352751 C50.2683318,55.7352751 50.0109677,55.476512 50.0109677,55.1573115 C50.0109677,54.8381111 50.2683318,54.579348 50.5858065,54.579348 L54.4984978,54.579348 L53.3417711,42.2455974 Z" id="Path-10" fill="#19243D" fill-rule="nonzero"></path>
                            <path d="M44.796448,33.6416579 L48.8145584,33.6424197 C49.6096357,33.6431151 50.2541353,34.2876154 50.2548299,35.0826926 L50.2548317,35.0924915 C50.2555262,35.8877814 49.6109378,36.5326129 48.8156478,36.5327628 C48.8154663,36.5327629 48.8152848,36.5327629 48.8151034,36.5322184 L44.796993,36.5314566 C44.0019158,36.5307611 43.3574161,35.8862609 43.3567215,35.0911837 L43.3567197,35.0813847 C43.3560252,34.2860949 44.0006136,33.6412634 44.7959036,33.6411134 C44.7960851,33.6411134 44.7962666,33.6411134 44.796448,33.6416579 Z" id="Rectangle" fill="#19243D" transform="translate(46.805776, 35.086938) rotate(2.000000) translate(-46.805776, -35.086938) "></path>
                            <path d="M55.7183835,34.2196214 L59.7364939,34.2203832 C60.5315711,34.2210786 61.1760708,34.8655789 61.1767654,35.6606561 L61.1767672,35.6704551 C61.1774616,36.4657449 60.5328733,37.1105764 59.7375833,37.1107264 C59.7374018,37.1107264 59.7372203,37.1107264 59.7370389,37.1101819 L55.7189285,37.1094201 C54.9238512,37.1087247 54.2793516,36.4642244 54.278657,35.6691472 L54.2786552,35.6593483 C54.2779607,34.8640584 54.9225491,34.2192269 55.717839,34.2190769 C55.7180206,34.2190769 55.7182021,34.2190769 55.7183835,34.2196214 Z" id="Rectangle" fill="#19243D" transform="translate(57.727711, 35.664902) rotate(2.000000) translate(-57.727711, -35.664902) "></path>
                            <path d="M23.8818446,38.7034042 C22.2233884,39.319534 21.9748211,40.8267484 23.1361428,43.2250473" id="Path-11" stroke="#19243D" stroke-width="1.15199993" stroke-linecap="round"></path>
                            <path d="M42.8225806,48.5489378 C38.0604609,48.5489378 34.2,44.6674914 34.2,39.8794846 C34.2,35.0914779 38.0604609,31.2100315 42.8225806,31.2100315 C47.5847004,31.2100315 51.4451613,35.0914779 51.4451613,39.8794846 C51.4451613,44.6674914 47.5847004,48.5489378 42.8225806,48.5489378 Z M42.8225806,47.3930107 C46.9497511,47.3930107 50.2954839,44.0290905 50.2954839,39.8794846 C50.2954839,35.7298788 46.9497511,32.3659585 42.8225806,32.3659585 C38.6954102,32.3659585 35.3496774,35.7298788 35.3496774,39.8794846 C35.3496774,44.0290905 38.6954102,47.3930107 42.8225806,47.3930107 Z" id="Oval" fill="#FFFFFF" fill-rule="nonzero"></path>
                            <g id="Group-4" transform="translate(54.464516, 31.645245)" fill-rule="nonzero">
                                <path d="M8.76774194,17.4816564 C4.00562214,17.4816564 0.14516129,13.60021 0.14516129,8.81220321 C0.14516129,4.02419643 4.00562214,0.142750032 8.76774194,0.142750032 C13.5298617,0.142750032 17.3903226,4.02419643 17.3903226,8.81220321 C17.3903226,13.60021 13.5298617,17.4816564 8.76774194,17.4816564 Z M8.76774194,16.3257293 C12.8949124,16.3257293 16.2406452,12.9618091 16.2406452,8.81220321 C16.2406452,4.66259734 12.8949124,1.29867712 8.76774194,1.29867712 C4.64057145,1.29867712 1.29483871,4.66259734 1.29483871,8.81220321 C1.29483871,12.9618091 4.64057145,16.3257293 8.76774194,16.3257293 Z" id="Oval" fill="#FFFFFF"></path>
                                <path d="M3.14696492,15.3867229 C2.90629785,15.1785478 2.87904548,14.8136288 3.08609503,14.5716534 C3.29314459,14.3296781 3.65609062,14.3022776 3.89675769,14.5104526 C5.24298515,15.6749286 6.95455326,16.3257293 8.76774194,16.3257293 C12.8949124,16.3257293 16.2406452,12.9618091 16.2406452,8.81220321 C16.2406452,4.66259734 12.8949124,1.29867712 8.76774194,1.29867712 C8.44909527,1.29867712 8.13306737,1.31869567 7.82084887,1.35835839 C7.50587834,1.39837071 7.21828325,1.17408503 7.17848726,0.857402318 C7.13869128,0.540719601 7.36176432,0.251561142 7.67673485,0.211548823 C8.03672442,0.165817504 8.40088493,0.142750032 8.76774194,0.142750032 C13.5298617,0.142750032 17.3903226,4.02419643 17.3903226,8.81220321 C17.3903226,13.60021 13.5298617,17.4816564 8.76774194,17.4816564 C6.67676429,17.4816564 4.69986111,16.7299656 3.14696492,15.3867229 Z" id="Path" fill="#19243D"></path>
                            </g>
                            <ellipse id="Oval" fill="#19243D" cx="57.6796583" cy="39.8794846" rx="1.14967742" ry="1.15592709"></ellipse>
                            <ellipse id="Oval" fill="#19243D" cx="45.7474002" cy="39.8794846" rx="1.14967742" ry="1.15592709"></ellipse>
                            <path d="M9.00143926,65.215367 L22.4631199,46.184382 L19.4889081,42.866788 C17.9712529,41.1739148 17.7755163,38.6743133 19.01116,36.7658371 L19.1499442,36.5514822 C20.2856064,34.7974294 22.5034781,34.0918329 24.4438738,34.8672648 C26.5207513,35.6972383 28.0222419,37.5402827 28.4152669,39.7420564 L29.1305303,43.7490495 C29.2975276,44.6845884 30.1111517,45.3658384 31.0614786,45.3658384 C31.982583,45.3658384 32.7484233,44.6567223 32.8191601,43.738338 C33.2770144,37.7945233 33.9711917,34.3926566 34.9016919,33.532738 C36.4202157,32.1293994 40.1408113,33.1863497 40.8698533,23.6310279 C44.2318984,25.8002603 50.0855228,26.4494703 58.4307265,25.5786581 L58.099273,36.7281223 C64.2648185,30.7284251 67.3475913,24.9008401 67.3475913,19.2453673 C67.3475913,13.5898944 64.8738223,11.6734957 59.9262843,13.4961712 C62.0312899,2.98313295 59.6001406,-1.38794261 52.6328365,0.382944514 C42.1818804,3.03927521 23.5644138,-0.988530572 11.3726573,13.4961712 C-2.72194592,17.2503694 -0.331665606,24.2741093 1.12811793,31.4435898 C2.10130695,36.2232435 4.7257474,47.4805026 9.00143926,65.215367 Z" id="Path-6" fill="#19243D"></path>
                            <polygon id="Path-7" fill="#19243D" points="40.0597384 81.0219655 24.2969182 81.0219655 40.0597384 87.9452477"></polygon>
                        </g>
                    </g>
                </g>
            </g>
        </g>
    </g>
</svg>