<?xml version="1.0" encoding="UTF-8"?>
<svg width="369px" height="357px" viewBox="0 0 369 357" version="1.1" xmlns="http://www.w3.org/2000/svg" xmlns:xlink="http://www.w3.org/1999/xlink">
    <!-- Generator: Sketch 62 (91390) - https://sketch.com -->
    <title>Group 5</title>
    <desc>Created with Sketch.</desc>
    <defs>
        <radialGradient cx="50%" cy="50%" fx="50%" fy="50%" r="55.7458425%" gradientTransform="translate(0.500000,0.500000),scale(1.000000,0.994349),rotate(40.011676),scale(1.000000,0.781840),translate(-0.500000,-0.500000)" id="radialGradient-1">
            <stop stop-color="#FFFFFF" offset="0%"></stop>
            <stop stop-color="#FFFFFF" offset="47.2550676%"></stop>
            <stop stop-color="#F8F7FE" offset="100%"></stop>
        </radialGradient>
        <ellipse id="path-2" cx="132.373201" cy="132.889863" rx="131.893588" ry="132.643118"></ellipse>
        <ellipse id="path-4" cx="2.83939473" cy="2.41995094" rx="2.39806524" ry="2.41995094"></ellipse>
        <path d="M10.2333035,0 L19.6012098,0 C20.4647115,-8.24756502e-16 21.2267918,0.564325513 21.4786731,1.39027404 C21.7305544,2.21622258 22.4926347,2.78054809 23.3561364,2.78054809 L38.9521449,2.78054809 C40.0697275,2.78054809 41.1256229,2.26817327 41.8172036,1.39027404 C42.5087843,0.512374824 43.5646796,-4.47081602e-15 44.6822623,0 L53.7871313,0 C59.4211094,7.41411852e-16 63.9916596,4.56097626 64.0034733,10.194942 L64.20588,106.722141 C64.2177113,112.364471 59.6532903,116.948075 54.0109604,116.959906 C54.0038196,116.959921 53.9966788,116.959928 53.9895379,116.959928 L10.4357101,116.959928 C4.80173197,116.959928 0.231181831,112.398952 0.219368043,106.764986 L0.0169614295,10.237787 C0.00513010228,4.5954571 4.56955104,0.0118537875 10.2118809,2.2460268e-05 C10.2190218,7.48676013e-06 10.2261626,1.31175168e-18 10.2333035,0 Z" id="path-6"></path>
    </defs>
    <g id="GetCarbon-Main-Website-V2" stroke="none" stroke-width="1" fill="none" fill-rule="evenodd">
        <g id="GetCarbon-Digital-wallets-(v2)" transform="translate(-180.000000, -768.000000)">
            <g id="Group-17-Copy" transform="translate(180.000000, 738.000000)">
                <g id="Group-5">
                    <g id="press-testimonial-fireworks" transform="translate(193.266277, 187.932863) rotate(-14.000000) translate(-193.266277, -187.932863) translate(40.896712, 32.291558)" fill-rule="nonzero">
                        <ellipse id="Oval-2-Copy-6" fill="#FF9797" cx="12.1018482" cy="31.9543057" rx="12.0862488" ry="12.154933"></ellipse>
                        <ellipse id="Oval-2-Copy-4" fill="#00D7A8" cx="248.541699" cy="170.169061" rx="13.4291653" ry="13.5054811"></ellipse>
                        <path d="M178.320059,-2.88362436 C185.51541,-2.86334297 191.343351,2.96460779 191.36362,10.1599588 L191.546976,75.2485092 C191.567098,82.3916628 185.79274,88.1986453 178.649587,88.2187677 C178.62529,88.2188361 178.600993,88.2188361 178.576696,88.2187676 C171.381345,88.1984862 165.553404,82.3705355 165.533134,75.1751845 L165.349779,10.0866341 C165.329657,2.94348044 171.104014,-2.86350208 178.247168,-2.88362442 C178.271465,-2.88369287 178.295762,-2.88369285 178.320059,-2.88362436 Z" id="Rectangle-3" fill="#6345EA" transform="translate(178.448377, 42.667572) rotate(42.000000) translate(-178.448377, -42.667572) "></path>
                        <path d="M249.161016,232.50848 C257.593536,232.517407 264.42723,239.351063 264.436204,247.783582 L264.5168,323.518593 C264.52575,331.928007 257.715827,338.752439 249.306413,338.761388 C249.295639,338.7614 249.284864,338.7614 249.27409,338.761388 C240.84157,338.752462 234.007876,331.918806 233.998902,323.486286 L233.918306,247.751275 C233.909356,239.341861 240.719279,232.517429 249.128693,232.50848 C249.139467,232.508468 249.150242,232.508468 249.161016,232.50848 Z" id="Rectangle-3-Copy" fill="#EDC967" transform="translate(249.217553, 285.634934) rotate(79.000000) translate(-249.217553, -285.634934) "></path>
                    </g>
                    <g id="Searching-Job-online-via-mobile" transform="translate(0.000000, 120.584652)">
                        <mask id="mask-3" fill="white">
                            <use xlink:href="#path-2"></use>
                        </mask>
                        <use id="Mask" fill="url(#radialGradient-1)" xlink:href="#path-2"></use>
                        <g mask="url(#mask-3)">
                            <g transform="translate(22.515168, 46.551252)">
                                <rect id="Rectangle" stroke="#18233D" stroke-width="2.4634368" fill="none" stroke-linecap="round" x="116.081283" y="55.002345" width="88.5864484" height="25.7823492" rx="12.8911746"></rect>
                                <path d="M66.8906302,0 L83.6064932,0 C90.2514524,-4.20053403e-15 95.6382562,5.38680377 95.6382562,12.031763 C95.6382562,18.6767222 90.2514524,24.063526 83.6064932,24.063526 L42.8271043,24.063526 L42.8271043,24.063526 C42.8271043,10.7736075 53.6007118,-1.11139527e-15 66.8906302,0 Z" id="Rectangle" stroke="#18233D" stroke-width="2.4634368" fill="none" stroke-linecap="round"></path>
                                <g id="Group-3" stroke="none" stroke-width="1" fill="none" fill-rule="evenodd" transform="translate(56.455789, 10.312940)">
                                    <ellipse id="Oval" fill="#18233D" cx="2.52383044" cy="2.57823492" rx="2.52383044" ry="2.57823492"></ellipse>
                                    <ellipse id="Oval" fill="#18233D" cx="13.6286844" cy="2.57823492" rx="2.52383044" ry="2.57823492"></ellipse>
                                    <ellipse id="Oval" fill="#18233D" cx="24.7335383" cy="2.57823492" rx="2.52383044" ry="2.57823492"></ellipse>
                                </g>
                                <path d="M20.6804922,221.728203 C35.884613,134.622324 43.8098278,97.4498623 44.4561365,110.210818 C74.6323168,85.7548386 91.9313855,71.7635933 96.3533425,68.2370823 C100.16603,65.1964641 106.090784,58.3216448 114.127606,47.6126242 C116.416619,44.5625203 120.66599,43.7849676 123.886747,45.8268869 C127.071163,47.8457656 128.041096,52.0494404 126.063167,55.2594511 L112.59606,77.115417 L112.59606,77.115417 L96.3533425,95.2849745 L131.863388,60.8625774 C134.492452,58.3140393 138.68537,58.3644419 141.252412,60.9754417 C143.883725,63.651813 144.053115,67.8886044 141.643864,70.7665004 L105.606659,113.813637 L105.606659,113.813637 L112.59606,131.188861 C113.255591,141.470518 111.423193,148.38398 107.098866,151.929246 C102.774539,155.474512 92.1258638,166.133203 75.1528405,183.905317 L65.7090719,221.728203 L20.6804922,221.728203 Z" id="Path-83" stroke="none" fill="#FFB391" fill-rule="evenodd"></path>
                                <path d="M110.970526,106.567043 L111.294169,77.8563507 L130.275649,61.2009205 C133.292851,58.5534562 137.705218,58.2429849 141.063427,60.4418508 C143.843013,62.2618502 144.620912,65.9905511 142.800912,68.7701373 C142.667866,68.9733308 142.522637,69.1682805 142.366023,69.3539161 L110.970526,106.567043 L110.970526,106.567043 Z" id="Path-97" stroke="none" fill="#FF9B6F" fill-rule="evenodd"></path>
                                <polygon id="Path-94" stroke="none" fill="#FF9B6F" fill-rule="evenodd" points="45.5698945 161.569389 36.0127621 171.882328 83.7131574 165.178247"></polygon>
                                <g id="Mobile" stroke="none" stroke-width="1" fill="none" fill-rule="evenodd" transform="translate(80.860955, 101.530072) scale(-1, 1) translate(-80.860955, -101.530072) translate(43.937042, 36.095289)">
                                    <path d="M15.4878657,0 L63.0205656,0 C68.6629079,2.19856837e-15 73.2369301,4.57402218 73.2369301,10.2163645 C73.2369301,10.2237175 73.2369221,10.2310704 73.2369062,10.2384234 L73.0000629,119.929944 C72.9878987,125.56366 68.4174519,130.124249 62.7837222,130.124249 L15.2510224,130.124249 C9.60868006,130.124249 5.03465788,125.550227 5.03465788,119.907885 C5.03465788,119.900532 5.03466582,119.893179 5.0346817,119.885826 L5.27152503,10.1943056 C5.28368922,4.56058904 9.85413601,2.8112562e-15 15.4878657,0 Z" id="Rectangle" fill="#18233D"></path>
                                    <rect id="Rectangle" fill="#2760CB" x="69.2402509" y="13.164321" width="2.00696379" height="27.341282" rx="1.0034819"></rect>
                                    <rect id="Rectangle" fill="#FFFFFF" x="69.7419918" y="13.164321" width="2.00696379" height="27.341282" rx="1.0034819"></rect>
                                    <path d="M66.7509379,119.927284 C66.7455891,122.404533 65.73806,124.645845 64.1125545,126.267844 C62.487049,127.889844 60.2435671,128.892531 57.7663128,128.892531 L10.2336129,128.892531 C7.75257138,128.892531 5.50640986,127.88689 3.88050871,126.260989 C2.25460757,124.635088 1.2489668,122.388926 1.24896393,119.910544 L1.48583108,10.1969651 C1.49117989,7.71971649 2.49870899,5.47840481 4.12421447,3.85640529 C5.74971996,2.23440577 7.99320184,1.2317184 10.4704562,1.2317184 L58.0031561,1.2317184 C60.4841976,1.2317184 62.7303591,2.23735917 64.3562603,3.86326031 C65.9821614,5.48916146 66.9878022,7.73532298 66.987805,10.2137053 L66.7509379,119.927284 Z" id="Rectangle" stroke="#18233D" stroke-width="2.4634368" fill="#FFFFFF"></path>
                                    <g id="Oval" transform="translate(30.444020, 121.010489)">
                                        <mask id="mask-5" fill="white">
                                            <use xlink:href="#path-4"></use>
                                        </mask>
                                        <use id="Mask" fill="#2760CB" xlink:href="#path-4"></use>
                                        <ellipse fill="#FFFFFF" mask="url(#mask-5)" cx="3.52221817" cy="2.41995094" rx="2.39806524" ry="2.41995094"></ellipse>
                                    </g>
                                    <g id="Rectangle-+-Rectangle-+-Rectangle-+-Rectangle-Mask" transform="translate(2.006964, 2.025280)">
                                        <mask id="mask-7" fill="white">
                                            <use xlink:href="#path-6"></use>
                                        </mask>
                                        <use id="Mask" fill="#D7E3FF" xlink:href="#path-6"></use>
                                        <path d="M8.24157141,49.1130436 L56.0954865,49.1130436 C59.2301213,49.1130436 61.7712449,51.6541671 61.7712449,54.7888019 L61.7712449,69.7659271 C61.7712449,72.9005619 59.2301213,75.4416855 56.0954865,75.4416855 L8.24157141,75.4416855 C5.10693661,75.4416855 2.56581302,72.9005619 2.56581302,69.7659271 L2.56581302,54.7888019 C2.56581302,51.6541671 5.10693661,49.1130436 8.24157141,49.1130436 Z" id="Rectangle" stroke="#18233D" stroke-width="2.4634368" opacity="0.21593657" stroke-linecap="round" mask="url(#mask-7)"></path>
                                        <g id="Group-2" mask="url(#mask-7)">
                                            <g transform="translate(31.872351, 62.628216) scale(-1, 1) translate(-31.872351, -62.628216) translate(8.970177, 54.682564)">
                                                <line x1="20.8959633" y1="2.7847602" x2="35.0942135" y2="2.7847602" id="Path-96" stroke="#18233D" stroke-width="2.4634368" fill="none" stroke-linecap="round"></line>
                                                <line x1="20.8959633" y1="7.84796057" x2="45.1290325" y2="7.84796057" id="Path-96" stroke="#18233D" stroke-width="2.4634368" fill="none" stroke-linecap="round"></line>
                                                <line x1="20.8959633" y1="12.9111609" x2="25.9133728" y2="12.9111609" id="Path-96" stroke="#18233D" stroke-width="2.4634368" fill="none" stroke-linecap="round"></line>
                                                <ellipse id="Oval" stroke="none" fill="#FFFFFF" fill-rule="evenodd" cx="7.52611423" cy="7.59480055" rx="7.52611423" ry="7.59480055"></ellipse>
                                            </g>
                                        </g>
                                        <path d="M8.24157141,16.2022412 L56.0954865,16.2022412 C59.2301213,16.2022412 61.7712449,18.7433648 61.7712449,21.8779996 L61.7712449,36.8551247 C61.7712449,39.9897595 59.2301213,42.5308831 56.0954865,42.5308831 L8.24157141,42.5308831 C5.10693661,42.5308831 2.56581302,39.9897595 2.56581302,36.8551247 L2.56581302,21.8779996 C2.56581302,18.7433648 5.10693661,16.2022412 8.24157141,16.2022412 Z" id="Rectangle" stroke="#18233D" stroke-width="2.4634368" stroke-linecap="round" mask="url(#mask-7)"></path>
                                        <g id="Group-2" mask="url(#mask-7)">
                                            <g transform="translate(31.872351, 95.539019) scale(-1, 1) translate(-31.872351, -95.539019) translate(8.970177, 87.593366)">
                                                <line x1="20.8959633" y1="2.7847602" x2="35.0942135" y2="2.7847602" id="Path-96" stroke="#C4C7CE" stroke-width="2.4634368" fill="none" stroke-linecap="round"></line>
                                                <line x1="20.8959633" y1="7.84796057" x2="45.1290325" y2="7.84796057" id="Path-96" stroke="#C4C7CE" stroke-width="2.4634368" fill="none" stroke-linecap="round"></line>
                                                <line x1="20.8959633" y1="12.9111609" x2="25.9133728" y2="12.9111609" id="Path-96" stroke="#C4C7CE" stroke-width="2.4634368" fill="none" stroke-linecap="round"></line>
                                                <ellipse id="Oval" stroke="none" fill="#FFFFFF" fill-rule="evenodd" cx="7.52611423" cy="7.59480055" rx="7.52611423" ry="7.59480055"></ellipse>
                                            </g>
                                        </g>
                                    </g>
                                    <rect id="Rectangle" fill="#19243D" x="29.100975" y="2.53160018" width="11.0383009" height="1" rx="0.5"></rect>
                                    <ellipse id="Oval" fill="#19243D" cx="26.3413998" cy="2.7847602" rx="1" ry="1"></ellipse>
                                    <line x1="69.7419918" y1="26.8349619" x2="71.7489556" y2="26.8349619" id="Path-106" stroke="#85B0FF" stroke-width="2.4634368"></line>
                                </g>
                                <path d="M44.4183785,163.805187 C50.1718712,156.273468 53.0486175,146.093091 53.0486175,133.264055 C53.0486175,120.43502 50.1718712,109.684694 44.4183785,101.013077 L44.4183785,85.4151104 C44.4183785,78.0191557 43.0897161,70.6833513 40.495698,63.7572257 L37.9564048,56.9772178 C37.1243535,54.7556096 35.0010715,53.2835217 32.628762,53.2835217 C30.4504099,53.2835217 28.6845066,55.049425 28.6845066,57.2277772 L28.6845066,103.034795 L28.6845066,103.034795 C27.8054338,134.470012 24.1390339,158.929762 17.6853069,176.414045 C11.23158,193.898327 5.41563286,209.003047 0.237465625,221.728203 L33.8026306,221.728203 L36.5730174,172.448011 L44.4183785,163.805187 Z" id="Path-84" stroke="none" fill="#FFB391" fill-rule="evenodd"></path>
                                <path d="M116.701819,101.410574 L127.219524,110.724693 C129.653612,112.880238 130.214094,116.460599 128.555181,119.256876 C126.678543,122.420153 124.051296,125.072225 120.905809,126.97853 L102.156715,138.341309 C99.7510195,139.799267 96.6247407,139.11572 95.0470273,136.786808 C93.427027,134.395474 93.7942386,131.179813 95.9116568,129.215272 L116.701819,109.926163 L116.701819,109.926163 L116.701819,101.410574 Z" id="Path-85" stroke="none" fill="#FFB391" fill-rule="evenodd"></path>
                                <path d="M41.7463071,201.941455 C54.4127175,203.540093 64.6452971,201.571132 72.444046,196.03457 L73.6816252,191.511227 C75.545684,193.22393 75.6880008,197.488044 74.1085754,204.303571 C71.7394374,214.52686 53.0331049,217.924292 40.0681489,216.103409 C27.1031929,214.282526 11.2347313,204.991211 9.25750297,196.03457 C8.57811117,192.956995 8.19113913,192.564778 10.7980592,185.835382 C12.5360058,181.349118 14.1947678,178.989864 15.7743449,178.757621 L14.2249056,183.520148 C19.9060962,194.20238 29.0798967,200.342816 41.7463071,201.941455 Z" id="Path-98" stroke="none" fill="#779CF7" fill-rule="evenodd"></path>
                                <path d="M15.7105301,178.757621 L14.1751779,183.520148 C19.8047163,194.20238 28.8951104,200.342816 41.4463604,201.941455 C44.9315789,202.385363 48.2308415,202.554189 51.3441483,202.447934 L51.3439312,216.377863 C47.364106,216.712476 43.354052,216.609487 39.7834597,216.103409 C26.9363784,214.282526 11.2121897,204.991211 9.25293789,196.03457 C8.57972299,192.956995 8.19626922,192.564778 10.7794877,185.835382 C12.5016333,181.349118 14.1453141,178.989864 15.7105301,178.757621 Z" id="Combined-Shape" stroke="none" fill="#497AF3" fill-rule="evenodd"></path>
                                <path d="M10.4589789,195.461197 C12.9572229,192.814911 16.9797581,192.308599 20.0558736,194.253223 C25.7021396,197.82268 30.4532406,200.105714 34.3091765,201.102324 L10.4589789,195.461197 Z" id="Path-102" stroke="none" fill="#18233D" fill-rule="evenodd"></path>
                                <ellipse id="Oval" stroke="none" fill="#18233D" fill-rule="evenodd" cx="63.2701308" cy="206.258794" rx="1.70358555" ry="1.71882328"></ellipse>
                                <path d="M41.1271693,202.44955 C41.1271693,202.44955 32.8563196,201.370344 26.2081917,198.52464 C22.9970783,197.150136 19.7114095,195.391117 16.3511853,193.247585 C14.1553626,191.84682 11.2446953,192.435852 9.76627764,194.580161 C8.1675432,196.898978 8.50344325,200.038083 10.5566375,201.966102 C16.8171694,207.845102 22.3494767,211.592385 27.1535593,213.20795 C35.6783044,216.074737 42.0835903,216.571734 49.6017477,216.571734 L53.0486175,213.20795 L53.0486175,204.215124 C45.1009854,203.038075 41.1271693,202.44955 41.1271693,202.44955 Z" id="Path-101" stroke="none" fill="#779CF7" fill-rule="evenodd"></path>
                                <path d="M40.7860904,201.102324 C46.4039778,201.102324 49.7915096,201.102324 50.9486858,201.102324 C52.68445,201.102324 55.3812168,202.494623 54.6198644,208.852527 C53.858512,215.210432 52.4347384,216.571734 50.4874045,216.571734 C49.189182,216.571734 45.5000249,216.10419 39.4199332,215.169103 L47.2014268,214.423268 C49.3747182,214.214964 51.0920911,212.489439 51.2901012,210.315186 L51.5550664,207.405732 C51.7652996,205.097262 50.2029339,203.001058 47.9306414,202.542892 L40.7860904,201.102324 L40.7860904,201.102324 Z" id="Path-99" stroke="none" fill="#FFFFFF" fill-rule="evenodd"></path>
                                <ellipse id="Oval" stroke="none" fill="#18233D" fill-rule="evenodd" cx="46.2342754" cy="209.69644" rx="1.70358555" ry="1.71882328"></ellipse>
                                <ellipse id="Oval" stroke="none" fill="#18233D" fill-rule="evenodd" cx="32.605591" cy="206.258794" rx="1.70358555" ry="1.71882328"></ellipse>
                                <path d="M46.3742004,208.715264 C46.3077849,209.065388 46.5377763,209.40306 46.8879005,209.469475 C46.9198055,209.475528 46.952122,209.479162 46.9845743,209.480349 L52.3841495,209.677817 C52.6744871,209.688435 52.9267608,209.479938 52.9710082,209.192795 C53.0120073,208.926732 52.8295567,208.677809 52.5634933,208.636809 C52.5563581,208.63571 52.5491993,208.634769 52.5420223,208.633988 L47.2605141,208.058891 C46.8390949,208.013003 46.4532036,208.29878 46.3742004,208.715264 Z" id="Path-100" stroke="none" fill="#D7E3FF" fill-rule="evenodd"></path>
                                <ellipse id="Oval" stroke="none" fill="#18233D" fill-rule="evenodd" cx="18.9769066" cy="201.102324" rx="1.70358555" ry="1.71882328"></ellipse>
                                <path d="M119.260382,120.31763 L127.94892,128.011902 C129.959688,129.79257 130.422695,132.750259 129.052289,135.060228 C127.502023,137.673369 125.331688,139.864212 122.733242,141.438985 L107.244861,150.825629 C105.257547,152.030029 102.674969,151.46536 101.37164,149.541475 C100.033379,147.566026 100.336728,144.90961 102.0859,143.286729 L119.260382,127.352247 L119.260382,127.352247 L119.260382,120.31763 Z" id="Path-85" stroke="none" fill="#FFB391" fill-rule="evenodd"></path>
                                <line x1="104.156184" y1="135.787039" x2="122.895625" y2="123.755276" id="Path-86" stroke="#18233D" stroke-width="2.4634368" fill="none" stroke-linecap="round"></line>
                                <line x1="46.2342754" y1="161.569389" x2="36.0127621" y2="171.882328" id="Path-87" stroke="#18233D" stroke-width="2.4634368" fill="none" stroke-linecap="round"></line>
                                <path d="M85.9817447,48.1270519 L146.180821,48.1270519 C149.315456,48.1270519 151.856579,50.6681755 151.856579,53.8028103 L151.856579,68.2336427 C151.856579,71.3682775 149.315456,73.9094011 146.180821,73.9094011 L85.9817447,73.9094011 C82.8471099,73.9094011 80.3059863,71.3682775 80.3059863,68.2336427 L80.3059863,53.8028103 C80.3059863,50.6681755 82.8471099,48.1270519 85.9817447,48.1270519 Z" id="Rectangle" stroke="none" fill="#0ACC94" fill-rule="evenodd"></path>
                                <line x1="105.859769" y1="56.7211683" x2="119.488454" y2="56.7211683" id="Path-96" stroke="#FFFFFF" stroke-width="3.40545503" fill="none"></line>
                                <line x1="105.859769" y1="61.8776382" x2="129.709967" y2="61.8776382" id="Path-96" stroke="#FFFFFF" stroke-width="3.40545503" fill="none"></line>
                                <line x1="105.859769" y1="67.034108" x2="110.970526" y2="67.034108" id="Path-96" stroke="#FFFFFF" stroke-width="3.40545503" fill="none"></line>
                                <ellipse id="Oval" stroke="none" fill="#FFFFFF" fill-rule="evenodd" cx="93.0828779" cy="61.0182265" rx="7.66613496" ry="7.73470477"></ellipse>
                                <g id="Group" stroke="none" stroke-width="1" fill="none" fill-rule="evenodd" transform="translate(129.971299, 16.874981)">
                                    <path d="M72.5075379,181.909297 L52.8898906,134.588938 C49.3770026,126.115388 44.7137346,118.16607 39.0315488,110.965084 L31.6532925,101.614682 C24.1654919,92.1254547 21.4048991,79.7435329 24.1525982,67.9722655 L25.1576292,63.6666671 L25.1576292,63.6666671 L1.87775827,9.21455527 C0.877016044,6.87379797 1.70724095,4.15249257 3.84419182,2.76899313 C5.90974227,1.43171957 8.66275836,1.96487832 10.0797326,3.97658983 L37.0549105,42.2738812 L37.0549105,42.2738812 C39.028593,37.7311892 44.3111582,35.6485954 48.8538503,37.6222779 C50.1776504,38.1974349 51.3430708,39.0836136 52.2511135,40.2055364 L56.1268176,44.994123 L56.1268176,44.994123 C58.2166944,41.2924875 62.9116428,39.9858989 66.6132783,42.0757757 C67.4940887,42.5730654 68.2682422,43.2390928 68.891475,44.0357765 L74.3552498,51.0201652 L74.3552498,51.0201652 C78.8840248,49.9471682 83.561317,52.0977312 85.6949278,56.2340135 L86.275814,57.360137 C89.050916,62.7400335 90.6238993,68.658681 90.8859048,74.7064765 L92.4224482,110.174053 L92.4224482,110.174053 L118.380181,162.615753 L72.5075379,181.909297 Z" id="Path-88" fill="#FFB391"></path>
                                    <path d="M32.4314933,81.1515153 L37.0549105,88.9729137 L35.0349612,87.9192828 C30.4226081,85.5134215 27.2797397,81.0024867 26.6206559,75.842295 L25.1576292,64.3877606 L25.1576292,64.3877606 L32.4314933,81.1515153 Z" id="Path-95" fill="#FF9B6F"></path>
                                    <line x1="25.1576292" y1="63.6666671" x2="32.4314933" y2="81.1515153" id="Path-89" stroke="#18233D" stroke-width="2.4634368" stroke-linecap="round"></line>
                                    <path d="M29.7907257,73.9238042 L29.7907257,75.1957206 C29.7907257,78.1124462 31.1318435,80.867194 33.4276578,82.6662283 L33.4276578,82.6662283 L33.4276578,82.6662283 L29.7907257,73.9238042 Z" id="Path-90" fill="#18233D"></path>
                                    <line x1="37.0549105" y1="41.7689769" x2="44.5430205" y2="55.565076" id="Path-91" stroke="#18233D" stroke-width="2.4634368" stroke-linecap="round"></line>
                                    <line x1="56.1268176" y1="44.994123" x2="59.7176512" y2="51.3621593" id="Path-92" stroke="#18233D" stroke-width="2.4634368" stroke-linecap="round"></line>
                                    <line x1="73.9129944" y1="50.6048028" x2="77.503828" y2="56.9728391" id="Path-92" stroke="#18233D" stroke-width="2.4634368" stroke-linecap="round"></line>
                                </g>
                            </g>
                        </g>
                    </g>
                </g>
            </g>
        </g>
    </g>
</svg>