<?xml version="1.0" encoding="UTF-8"?>
<svg width="287px" height="287px" viewBox="0 0 287 287" version="1.1" xmlns="http://www.w3.org/2000/svg" xmlns:xlink="http://www.w3.org/1999/xlink">
    <!-- Generator: Sketch 62 (91390) - https://sketch.com -->
    <title>Group 15</title>
    <desc>Created with Sketch.</desc>
    <defs>
        <radialGradient cx="50%" cy="50%" fx="50%" fy="50%" r="55.6584757%" gradientTransform="translate(0.500000,0.500000),scale(0.998701,1.000000),rotate(39.815248),scale(1.000000,0.781840),translate(-0.500000,-0.500000)" id="radialGradient-1">
            <stop stop-color="#FFFFFF" offset="0%"></stop>
            <stop stop-color="#FFFFFF" offset="47.2550676%"></stop>
            <stop stop-color="#F8F7FE" offset="100%"></stop>
        </radialGradient>
        <ellipse id="path-2" cx="143.373471" cy="143.187287" rx="143.373471" ry="143.187287"></ellipse>
    </defs>
    <g id="GetCarbon-Main-Website-V2" stroke="none" stroke-width="1" fill="none" fill-rule="evenodd">
        <g id="GetCarbon-Digital-wallets-(v2)" transform="translate(-969.000000, -2115.000000)">
            <g id="Group-18" transform="translate(184.000000, 2115.000000)">
                <g id="Group-15" transform="translate(785.000000, 0.000000)">
                    <mask id="mask-3" fill="white">
                        <use xlink:href="#path-2"></use>
                    </mask>
                    <use id="Mask" fill="url(#radialGradient-1)" xlink:href="#path-2"></use>
                    <g mask="url(#mask-3)">
                        <g transform="translate(-4.649950, 37.892898)">
                            <rect id="Rectangle" stroke="#18233D" stroke-width="1.25" fill="#FFFFFF" fill-rule="evenodd" x="139.193522" y="26.8180876" width="95.4689684" height="116.705365" rx="7.2"></rect>
                            <line x1="156.320354" y1="45.0537965" x2="211.388193" y2="45.0537965" id="Path-198" stroke="#18233D" stroke-width="1.25" fill="none" stroke-linecap="round"></line>
                            <line x1="156.320354" y1="54.3416205" x2="183.48849" y2="54.3416205" id="Path-198" stroke="#18233D" stroke-width="1.25" fill="none" stroke-linecap="round"></line>
                            <line x1="156.320354" y1="63.6294446" x2="202.088292" y2="63.6294446" id="Path-198" stroke="#18233D" stroke-width="1.25" fill="none" stroke-linecap="round"></line>
                            <line x1="156.320354" y1="72.9172686" x2="174.188589" y2="72.9172686" id="Path-198" stroke="#18233D" stroke-width="1.25" fill="none" stroke-linecap="round"></line>
                            <line x1="156.320354" y1="82.2050926" x2="192.788391" y2="82.2050926" id="Path-198" stroke="#18233D" stroke-width="1.25" fill="none" stroke-linecap="round"></line>
                            <g id="Group-5" stroke="none" stroke-width="1" fill="none" fill-rule="evenodd" transform="translate(202.737838, 0.000000)">
                                <g id="Group-12" transform="translate(71.609236, 144.148453)"></g>
                                <g id="Group-4">
                                    <g id="Group-8" transform="translate(0.000000, 105.139592)">
                                        <path d="M81.3882543,24.0947995 L23.6171116,4.53243001 L2.60534852,0.191611517 C1.76224598,0.0174350288 0.935986053,0.554175375 0.752413844,1.39528214 C0.564670277,2.25550159 1.06277569,3.11720309 1.90189909,3.38384344 L12.9159361,6.88367048 L12.9159361,6.88367048 C11.4500444,7.79942541 10.7170986,8.67894158 10.7170986,9.522219 C10.7170986,10.7871351 9.21230601,12.5018387 9.4433824,13.9057801 C9.67445879,15.3097214 10.0096188,16.8600679 10.3633587,19.4338991 C10.5875701,21.0652738 13.4705696,22.5499839 19.0123571,23.8880294 C19.5379625,24.0149601 20.0860205,23.7929573 20.3751358,23.3360276 C20.6569955,22.8905649 20.5980665,22.3101871 20.2324216,21.9304691 L19.5789955,21.2518938 L19.5789955,21.2518938 C23.5460775,22.4739646 27.0878659,22.1060159 30.2043607,20.1480478 L71.6168731,42.388714 C81.9108364,47.917106 94.7146609,44.8376132 101.368919,35.2329452 L101.368919,35.2329452 L101.368919,35.2329452 L89.6875876,22.2853 L81.3882543,24.0947995 Z" id="Path-38" fill="#FFD1AB"></path>
                                        <polygon id="Path-48" fill="#CF8B54" transform="translate(86.320456, 29.264257) rotate(-8.000000) translate(-86.320456, -29.264257) " points="97.6227906 38.5403947 75.0181216 19.9881193 84.0401629 23.4377243"></polygon>
                                        <path d="M10.0499441,10.9068401 L21.6880497,17.6985957 C22.8453823,18.7618378 23.2058073,19.7543539 22.7693248,20.676144 C22.3328423,21.5979342 21.4446961,21.781216 20.1048864,21.2259896" id="Path-41" stroke="#FFFFFF" stroke-width="1.25" stroke-linecap="round"></path>
                                        <path d="M12.2045746,6.60902617 L22.846286,13.6549876 C23.677207,14.5487591 23.8986752,15.45654 23.5106907,16.3783301 C23.1227063,17.3001202 22.308382,17.568452 21.067718,17.1833255" id="Path-41" stroke="#FFFFFF" stroke-width="1.25" stroke-linecap="round"></path>
                                        <path d="M25.4422594,7.32532849 C24.2837044,7.32532849 23.1251495,7.32532849 21.9665946,7.32532849 C18.9643082,7.32532849 16.2579698,9.13478142 15.1106534,11.9091982 L13.7669041,15.158625 C13.4546083,15.9138122 13.7711035,16.7824469 14.4960203,17.159716 C15.2363578,17.5450104 16.1465494,17.3417606 16.6526571,16.6781293 L20.4104493,11.7507422 L20.4104493,11.7507422 C22.9095235,14.0234287 25.4411065,15.6042039 28.0051982,16.493068" id="Path-40" stroke="#FFFFFF" stroke-width="1.25" fill="#FFD1AB" stroke-linecap="round"></path>
                                        <line x1="10.4533372" y1="16.3381444" x2="19.7179177" y2="21.0714358" id="Path-41" stroke="#FFFFFF" stroke-width="1.25" stroke-linecap="round"></line>
                                    </g>
                                    <path d="M93.8663112,118.121863 C91.7310511,116.027919 89.0503369,119.022713 86.145046,122.032775 C83.2397551,125.042838 81.5416833,124.77007 84.6446396,127.959741 C87.7475959,131.149412 97.7170707,146.49316 100.124247,145.091625 C102.531422,143.69009 103.429616,138.238541 105.155084,138.237767 C106.880553,138.236992 109.563912,137.744191 106.882903,132.991999 C104.201893,128.239807 96.0015713,120.215807 93.8663112,118.121863 Z" id="Path-5" fill="#85A9FF" transform="translate(95.504032, 131.302326) rotate(-14.000000) translate(-95.504032, -131.302326) "></path>
                                </g>
                            </g>
                            <g id="Group-6" stroke="none" stroke-width="1" fill="none" fill-rule="evenodd" transform="translate(0.000000, 41.982389)">
                                <path d="M114.323966,124.687205 L159.97782,92.0224007 C162.673126,89.1674247 165.771921,86.634961 169.274206,84.4250097 C170.601113,83.5877273 173.132342,83.1895962 176.86789,83.2306164 L184.63541,80.8899698 C185.142286,80.7372287 185.689234,80.9363216 185.979315,81.3791612 C186.211075,81.7329659 186.112137,82.2076591 185.758332,82.4394182 C185.725707,82.4607892 185.691498,82.4796366 185.656001,82.4957961 L176.86789,86.4965546 L176.86789,86.4965546 L184.454266,84.4250097 L190.669061,83.4346118 C191.443808,83.3111472 192.216579,83.6668797 192.626596,84.3357311 C192.92028,84.8148102 192.769987,85.441258 192.290908,85.7349416 C192.221482,85.7775006 192.147199,85.8115713 192.069651,85.8364223 L185.490153,87.9448924 L185.490153,87.9448924 L179.978256,89.7112384 L188.392383,88.3129965 L195.299977,85.9365042 C196.097787,85.6620249 196.96776,86.08167 197.249569,86.8769212 C197.537199,87.6886006 197.154553,88.5852473 196.369504,88.9391579 L189.530215,92.0224007 L189.530215,92.0224007 L167.823751,98.1785819 C146.846971,119.831435 133.049925,133.41273 126.432616,138.922467 L114.323966,124.687205 Z" id="Path-10" fill="#FFB391"></path>
                                <path d="M70.1198368,73.1080979 C80.1171834,76.1278201 90.0995383,84.569773 100.066902,98.4339565 C110.034265,112.29814 115.819597,120.48923 117.422896,123.007227 L122.358351,115.696828 L139.164984,129.180356 C126.088158,140.647455 117.046107,145.165067 112.038833,142.733194 C101.507605,137.618513 93.8529465,127.678205 81.3937769,111.146946 C75.2211471,102.956886 70.4635131,97.4351609 67.9869994,92.0634505 C63.6169479,82.58454 64.3278937,76.2660891 70.1198368,73.1080979 Z" id="Path-16" fill="#779CF7" transform="translate(102.166523, 108.239771) rotate(15.000000) translate(-102.166523, -108.239771) "></path>
                                <path d="M43.8917484,144.330512 C37.1159214,151.030078 35.3223201,168.212694 38.5109446,195.878358 C41.6995691,223.544023 44.2526718,245.289243 46.1702529,261.11402 C55.1224665,264.114989 63.3004745,265.615473 70.7042769,265.615473 C78.1080793,265.615473 91.2745952,264.114989 110.203825,261.11402 L105.371091,166.325381 C104.961719,158.296003 103.127728,150.403404 99.9547737,143.016196 L99.9547737,143.016196 L99.9547737,143.016196 L43.8917484,144.330512 Z" id="Path-184" fill="#18233D"></path>
                                <path d="M55.1270884,65.0581777 C37.3070571,71.759369 28.3970414,78.5967912 28.3970414,85.5704441 C28.3970414,92.544097 32.8520492,105.498255 41.7620649,124.432917 C39.6000592,139.346068 38.5190563,148.234916 38.5190563,151.09946 C38.5190563,155.396277 82.3797167,158.425209 97.6933294,147.692552 C104.395562,143.583444 95.1961051,123.445889 95.1961051,110.045565 C100.46353,103.879696 100.040535,97.7456057 91.0800207,81.8492606 C87.4299069,75.3737989 84.4152733,67.8257342 79.2378505,65.0842867 C77.0406466,63.9208664 72.9690109,63.9121634 67.0229433,65.0581777 L55.1270884,65.0581777 Z" id="Path-9" fill="#85A9FF"></path>
                                <path d="M54.2306279,64.7315395 L48.3036463,67.2098679 L59.8746098,85.9414623 L67.7873205,71.9971032 C77.2002916,75.2192715 81.9067772,76.8303556 81.9067772,76.8303556 C81.9067772,76.8303556 79.5948727,72.2765892 74.9710637,63.1690563 L54.2306279,64.7315395 Z" id="Path-185" stroke="#FFFFFF" stroke-width="1.25" stroke-linecap="round"></path>
                                <g id="Group-3" transform="translate(33.369893, 0.000000)">
                                    <path d="M6.08982443,62.5166754 C2.27720463,34.7075971 3.18378485,17.3799471 8.80956506,10.5337254 C14.4353453,3.68750379 22.8377241,1.61877311 34.0167017,4.32753338 C38.1174347,3.42695476 41.2362457,4.01598806 43.3731348,6.09463328 C46.5784685,9.2126011 48.0194846,16.3495245 41.1117315,21.5826581 C37.5500596,24.2808878 44.3651763,44.272106 49.4981976,55.9792665 C47.665013,58.8997233 33.1955553,61.0788596 6.08982443,62.5166754 Z" id="Path-5" fill="#18233D" transform="translate(26.638937, 32.846171) rotate(7.000000) translate(-26.638937, -32.846171) "></path>
                                    <path d="M21.9274847,36.2876915 C24.299874,53.5556449 22.2957693,63.8727337 15.9151705,67.2389577 L39.9851149,76.8303556 L42.366382,65.0581777 C39.7228481,59.3920749 37.68995,50.5134362 36.2676877,38.4222615 L21.9274847,36.2876915 Z" id="Path-2" fill="#FFB391"></path>
                                    <path d="M35.5314243,33.151122 L37.8759691,49.9293949 C30.0510211,45.900396 24.8760802,41.3198853 22.3511464,36.1878628 L35.4468913,33.1051788 C35.4750283,33.1204546 35.5032059,33.135769 35.5314243,33.151122 Z" id="Combined-Shape" fill="#CF8B54"></path>
                                    <path d="M47.0133637,16.7745139 C51.5162253,33.7916969 51.147262,43.5890603 45.9064738,46.166604 C38.0452915,50.0329195 23.4402992,38.6071398 21.6999961,36.9936126 C17.9421702,38.2764503 15.3662325,37.8578288 13.9721828,35.7377478 C11.8811083,32.5576264 12.160858,28.7673749 18.3690234,28.7673749 C24.5771888,28.7673749 38.046918,21.939959 39.4153059,13.3684664 C42.5823478,11.9998457 45.1150338,13.1351949 47.0133637,16.7745139 Z" id="Path" fill="#FFB391"></path>
                                    <path d="M45.4668534,20.2784158 C42.3868569,21.0700252 41.8487756,23.1384587 43.8526094,26.4837165 C45.2545399,28.6534476 46.6374539,30.8541542 48.0013514,33.0858363 L44.8999765,33.0858363" id="Path-4" stroke="#18233D" stroke-width="1.25" stroke-linecap="round"></path>
                                    <line x1="14.9337538" y1="33.0858363" x2="20.2672372" y2="34.1531214" id="Path-6" stroke="#18233D" stroke-width="1.25" stroke-linecap="round"></line>
                                    <path d="M31.5147521,22.8418138 C33.8404368,22.8412786 35.7755911,22.8417627 37.3202152,22.8432661" id="Path-7" stroke="#18233D" stroke-width="1.25" stroke-linecap="round" transform="translate(34.417484, 22.842435) rotate(-16.000000) translate(-34.417484, -22.842435) "></path>
                                    <ellipse id="Oval" fill="#18233D" cx="37.3343844" cy="25.614841" rx="1.0666967" ry="1.06728504"></ellipse>
                                    <ellipse id="Oval" fill="#18233D" cx="45.867958" cy="23.4802709" rx="1.0666967" ry="1.06728504"></ellipse>
                                    <path d="M41.6011712,37.3549765 L46.9346547,37.3549765 C46.8390579,38.7780232 46.0804637,39.4895466 44.658872,39.4895466 C43.2372803,39.4895466 42.2180467,38.7780232 41.6011712,37.3549765 Z" id="Path-8" fill="#FFFFFF"></path>
                                </g>
                                <path d="M34.3264307,107.463715 C52.9834512,110.51286 62.9639396,112.037432 64.267896,112.037432 C65.2883956,112.037432 76.1170478,115.400372 96.7538526,122.126252 C98.2225113,129.273137 100.188769,136.525303 100.137779,141.601283 C95.4003768,143.092699 89.9821477,144.018152 83.8835756,144.37769 C68.3190064,145.295291 52.2928663,134.199502 35.8051554,111.090323 C35.3417483,109.981803 34.9005505,108.902889 34.4810469,107.853098 Z" id="Combined-Shape" fill="#58627A"></path>
                                <path d="M99.9547737,107.038884 L137.721097,73.5002572 L149.318061,56.7759293 L158.172459,46.5065961 C158.806861,45.7708167 159.916452,45.6856768 160.65568,46.3160562 C161.424546,46.9717094 161.600167,48.0902116 161.069239,48.9499511 L152.978438,62.0514963 L152.978438,62.0514963 C155.946922,61.418099 157.588697,62.5253745 157.903763,65.3733228 C158.376361,69.6452452 160.715035,67.7661013 160.715035,71.468713 C160.715035,75.1713247 161.628234,76.2385007 159.319318,77.7414295 C157.780041,78.7433821 153.752236,80.8116525 147.235905,83.9462407 L114.708856,119.976305 L99.9547737,107.038884 Z" id="Path-12" fill="#FFB391"></path>
                                <path d="M28.3970414,83.0427755 C25.1142418,89.5693455 24.6099249,109.371001 59.8936705,130.174381 C83.4161676,144.043301 103.365045,139.577979 119.740302,116.778415 L102.352882,102.940652 L86.4187483,116.778415 C71.8275151,105.405055 60.866585,96.7300441 53.5359581,90.7533825 C42.5400178,81.78839 31.679841,76.5162055 28.3970414,83.0427755 Z" id="Path-11" fill="#85A9FF"></path>
                                <polyline id="Path-14" stroke="#FFFFFF" stroke-width="1.25" stroke-linecap="round" points="91.7068537 111.205674 81.9067772 117.593208 80.5301228 124.777871"></polyline>
                                <path d="M81.9067772,117.991772 C80.6004025,116.782785 67.9287262,106.099348 43.8917484,85.9414623" id="Path-15" stroke="#FFFFFF" stroke-width="1.25" stroke-linecap="round"></path>
                            </g>
                        </g>
                    </g>
                </g>
            </g>
        </g>
    </g>
</svg>