<?xml version="1.0" encoding="UTF-8"?>
<svg width="388px" height="240px" viewBox="0 0 388 240" version="1.1" xmlns="http://www.w3.org/2000/svg" xmlns:xlink="http://www.w3.org/1999/xlink">
    <!-- Generator: Sketch 62 (91390) - https://sketch.com -->
    <title>Group 9</title>
    <desc>Created with Sketch.</desc>
    <g id="GetCarbon-Main-Website-V2" stroke="none" stroke-width="1" fill="none" fill-rule="evenodd">
        <g id="GetCarbon-Digital-wallets-(v2)" transform="translate(-863.000000, -1288.000000)">
            <g id="Group-17" transform="translate(181.000000, 1281.000000)">
                <g id="Group-9" transform="translate(682.000000, 7.000000)">
                    <ellipse id="Oval" stroke-opacity="0.431381119" stroke="#F0EFF2" stroke-width="33.6" fill="#FFFFFF" cx="177.253175" cy="128.137766" rx="94.7690241" ry="94.7868405"></ellipse>
                    <g id="Group-10" transform="translate(0.000000, 19.308430)">
                        <path d="M35.6496171,48.322703 L134.58363,48.322703 C154.27237,48.322703 170.233247,64.2835802 170.233247,83.9723201 C170.233247,103.66106 154.27237,119.621937 134.58363,119.621937 L128.751256,119.621937 L128.751256,119.621937 L142.44252,140.775791 L131.635935,140.775791 L112.44812,119.621937 L35.6496171,119.621937 C15.9608772,119.621937 2.41117522e-15,103.66106 0,83.9723201 C-2.41117522e-15,64.2835802 15.9608772,48.322703 35.6496171,48.322703 Z" id="Rectangle" fill="#D7E3FF"></path>
                        <path d="M124.370479,120.461937 L47.9344906,120.461937 C37.858161,120.461937 28.7357568,116.377698 22.1324349,109.774376 C15.529113,103.171054 11.4448735,94.0486496 11.4448735,83.9723201 C11.4448735,73.8959906 15.529113,64.7735863 22.1324349,58.1702644 C28.7357568,51.5669425 37.858161,47.482703 47.9344906,47.482703 L146.868503,47.482703 C156.944833,47.482703 166.067237,51.5669425 172.670559,58.1702644 C179.273881,64.7735863 183.35812,73.8959906 183.35812,83.9723201 C183.35812,94.0486496 179.273881,103.171054 172.670559,109.774376 C166.067237,116.377698 156.944833,120.461937 146.868503,120.461937 L141.87613,120.461937 L141.87613,139.029806 L124.370479,120.461937 Z" id="Rectangle" stroke="#18233D" stroke-width="1.68" fill="#FFFFFF" stroke-linecap="round"></path>
                        <g id="Group-11" transform="translate(25.132666, 0.000000)">
                            <path d="M29.4790855,80.8335577 C29.7163071,80.8316547 29.954509,80.8307032 30.1936912,80.8307032 C33.898971,80.8307032 37.5063528,81.0590479 41.0158365,81.5157372 C55.0302231,83.3394307 65.9125436,94.6266615 67.2232666,108.698296 L67.4509092,111.142217 L67.4509092,111.142217 L1.8947529,111.142217 C0.570297249,95.7841553 11.9467827,82.2603029 27.3048444,80.9358473 C28.0279853,80.8734847 28.7532836,80.8393533 29.4790855,80.8335577 Z" id="Path-153" fill="#85A9FF"></path>
                            <g id="Group-8" transform="translate(12.490909, 0.000000)">
                                <g id="Group">
                                    <ellipse id="Oval" fill="#18233D" cx="24.8756067" cy="12.7681192" rx="12.5913565" ry="12.7681192"></ellipse>
                                    <ellipse id="Oval" fill="#E5E9F3" cx="23.3400754" cy="24.9134032" rx="9.82740017" ry="9.96536129"></ellipse>
                                    <path d="M8.91796231,54.1194544 C10.4402203,59.9132492 10.8207848,65.6770691 10.0596558,71.410914 C8.91796231,80.0116814 7.34337965,82.0160284 4.91370009,83.0661756 L18.0180143,106.504799 L31.9390506,82.4433405 C27.358704,82.1221243 25.0685307,78.6952688 25.0685307,72.1627738 C25.0685307,65.6302789 25.5246995,58.3925682 26.437037,50.4496415 L8.91796231,54.1194544 Z" id="Path-103" fill="#FFD1AB"></path>
                                    <path d="M8.48156439,89.2307556 C13.1662037,92.703352 19.7307967,92.703352 28.1753433,89.2307556 L18.0180143,106.504799 L8.48156439,89.2307556 Z" id="Path-157" fill="#D7E3FF"></path>
                                    <path d="M3.87211549,51.0540406 C-0.880047458,43.6162695 -2.86136876,27.5975669 7.48608063,24.5070256 C18.5334132,11.2481521 33.4459138,16.8934657 36.4420654,28.160509 C39.438217,39.4275522 35.7326828,53.2329614 27.0602832,55.1432727 C18.3878835,57.0535841 8.62427844,58.4918118 3.87211549,51.0540406 Z" id="Path-105" fill="#18233D"></path>
                                    <path d="M25.8839432,57.5299967 C25.7249704,58.8106548 25.5316858,61.7086721 25.2128693,66.8262943 C24.9452811,71.1216039 25.0335029,74.2203698 25.4775349,76.1225918 C16.4661343,71.999921 11.4348302,68.7440898 10.3836225,66.3550982 C10.4559859,63.8728509 10.3788069,61.6156681 10.1520854,59.5835499 L25.8839432,57.5299967 Z" id="Path" fill="#CF8B54"></path>
                                    <path d="M4.92415032,42.640578 C7.76479487,40.9694947 10.1340323,37.344165 12.0318625,31.7645891 C10.9241886,37.2776994 22.9893165,42.8184098 31.9904109,43.8080396 C32.2867644,43.7174452 32.6003478,43.6688461 32.9248237,43.6688461 C34.7549377,43.6688461 36.2385381,45.2148848 36.2385381,47.1220202 C36.2385381,49.0291556 34.7549377,50.5751943 32.9248237,50.5751943 C32.0715397,50.5751943 31.2935827,50.2391076 30.7062026,49.6870343 C28.0217574,57.7834474 22.3753758,68.1750615 16.0331033,67.2026718 C11.4485843,66.4997787 7.85091057,60.5813874 5.24008214,49.4474977 C5.01506274,49.497767 4.78156647,49.5242282 4.54213943,49.5242282 C2.7120255,49.5242282 1.22842502,47.9781895 1.22842502,46.0710541 C1.22842502,44.1639187 2.7120255,42.61788 4.54213943,42.61788 C4.67133666,42.61788 4.79880697,42.625585 4.92415032,42.640578 L4.92415032,42.640578 Z" id="Path" fill="#FFD1AB"></path>
                                    <path d="M17.7270393,54.7221158 C18.0006433,54.8205767 18.1426398,55.1222366 18.0441974,55.395892 C17.945755,55.6695475 17.6441518,55.8115707 17.3705478,55.7131098 L14.2504992,54.5903089 L14.4384436,54.090329 C16.0626965,49.7694033 16.6604577,46.8067959 16.2634066,45.2805865 C16.1901841,44.9991291 16.3589489,44.711593 16.6403534,44.6383567 C16.921758,44.5651203 17.20924,44.7339169 17.2824626,45.0153743 C17.7346566,46.7535455 17.1677516,49.7119603 15.6100062,53.9602665 L17.7270393,54.7221158 Z" id="Path-104" fill="#18233D" fill-rule="nonzero"></path>
                                    <path d="M20.6895863,42.8068525 C20.4279455,42.9337389 20.1130012,42.824459 19.9861386,42.5627689 C19.8592761,42.3010788 19.9685355,41.9860753 20.2301764,41.8591889 C22.3325339,40.8396213 24.4872668,41.0360302 26.6254754,42.4274636 C26.8692042,42.5860694 26.9382341,42.9122632 26.7796581,43.1560378 C26.6210821,43.3998124 26.2949496,43.4688553 26.0512209,43.3102495 C24.2134419,42.1143198 22.4491969,41.9535048 20.6895863,42.8068525 Z" id="Path-109" fill="#18233D" fill-rule="nonzero"></path>
                                    <path d="M8.82838162,42.797727 C8.56683931,42.9248165 8.25181032,42.8157811 8.12474469,42.5541896 C7.99767906,42.2925981 8.10669396,41.9775099 8.36823627,41.8504204 C10.4720232,40.8281412 12.6268558,41.021423 14.7637106,42.4097638 C15.0075547,42.5681923 15.0768218,42.8943357 14.9184231,43.1382256 C14.7600245,43.3821155 14.4339423,43.4513957 14.1900983,43.2929672 C12.3540371,42.1000558 10.589806,41.9418097 8.82838162,42.797727 Z" id="Path-109" fill="#18233D" fill-rule="nonzero" transform="translate(11.537578, 42.291055) rotate(-6.000000) translate(-11.537578, -42.291055) "></path>
                                    <ellipse id="Oval" fill="#18233D" cx="23.0329692" cy="45.1555434" rx="1" ry="1"></ellipse>
                                    <ellipse id="Oval" fill="#18233D" cx="11.977144" cy="45.1555434" rx="1" ry="1"></ellipse>
                                    <path d="M14.1268877,57.7317452 L19.7483007,57.3008274 C19.2159337,59.2123746 18.2790315,60.1681481 16.9375942,60.1681481 C15.5961569,60.1681481 14.6592548,59.3560138 14.1268877,57.7317452 Z" id="Path-110" fill="#FFFFFF"></path>
                                    <path d="M32.1076134,48.480642 C31.832144,48.5750797 31.5333637,48.425103 31.440269,48.1456597 C31.3471742,47.8662164 31.4950182,47.5631261 31.7704877,47.4686884 L33.6131252,46.8369874 C33.8885947,46.7425497 34.187375,46.8925264 34.2804697,47.1719697 C34.3735644,47.451413 34.2257205,47.7545033 33.950251,47.848941 L32.1076134,48.480642 Z" id="Path-107" fill="#18233D" fill-rule="nonzero"></path>
                                    <path d="M3.23962544,47.2349719 C2.96415596,47.3294095 2.66537565,47.1794328 2.57228094,46.8999896 C2.47918623,46.6205463 2.62703019,46.3174559 2.90249967,46.2230183 L4.7451372,45.5913172 C5.02060668,45.4968795 5.31938699,45.6468562 5.4124817,45.9262995 C5.50557641,46.2057428 5.35773245,46.5088332 5.08226297,46.6032708 L3.23962544,47.2349719 Z" id="Path-107" fill="#18233D" fill-rule="nonzero" transform="translate(3.992381, 46.413145) scale(-1, 1) translate(-3.992381, -46.413145) "></path>
                                    <path d="M15.3553128,29.8960839 C18.614389,35.633015 23.7328266,39.1624138 30.7106255,40.4842802" id="Path-108" stroke="#FFFFFF" stroke-width="1.68" stroke-linecap="round"></path>
                                </g>
                            </g>
                            <path d="M21.4147133,75.7787843 C18.3388523,77.9242174 17.0248721,81.8268323 18.1767662,85.3957178 L20.19889,91.6608148 C21.5170111,95.7447174 25.318608,98.5124196 29.6099602,98.5124196 C33.879916,98.5124196 37.641007,95.703176 38.8527566,91.6087669 L40.7866147,85.0744077 C41.8002279,81.649486 40.5996661,77.9540407 37.766689,75.7787843 L37.766689,75.7787843 L37.766689,75.7787843" id="Path-154" stroke="#18233D" stroke-width="1.68" stroke-linecap="round"></path>
                            <path d="M28.7290909,99.1368635 C28.7290909,104.372188 32.9731602,108.616257 38.2084849,108.616257 L38.7436931,108.616257 C44.2746052,108.616257 48.7582953,104.132567 48.7582953,98.6016553 L48.7582953,68.1016007 C48.7582953,65.3663476 50.975656,63.1489869 53.7109091,63.1489869 L53.7109091,63.1489869 L53.7109091,63.1489869" id="Path-155" stroke="#18233D" stroke-width="1.68" stroke-linecap="round"></path>
                            <path d="M25.4648843,97.2494398 L24.9818182,99.3444957 L27.8963637,100.400181 L29.0628525,103.564339 L30.716964,102.984657 L30.3819071,100.137479 L32.4763637,99.3444957 L31.8648712,97.2494398 C30.7149104,97.6164799 29.6122771,97.7999999 28.5569715,97.7999999 C27.5016658,97.7999999 26.4709701,97.6164799 25.4648843,97.2494398 Z" id="Path-156" fill="#4385FF"></path>
                            <polygon id="Path-158" fill="#4385FF" points="53.7109091 63.6834593 58.7072728 59.3600477 58.7072728 68.2009058"></polygon>
                            <rect id="Rectangle" fill="#18233D" x="57.4581819" y="58.0970679" width="1.24909091" height="11.3668176" rx="0.624545455"></rect>
                        </g>
                        <line x1="111.855263" y1="66.8464058" x2="140.762796" y2="66.8464058" id="Path-199" stroke="#18233D" stroke-width="1.68" stroke-linecap="round"></line>
                        <line x1="111.855263" y1="79.73246" x2="153.610588" y2="79.73246" id="Path-199" stroke="#18233D" stroke-width="1.68" stroke-linecap="round"></line>
                        <line x1="111.855263" y1="92.6185141" x2="127.915003" y2="92.6185141" id="Path-199" stroke="#18233D" stroke-width="1.68" stroke-linecap="round"></line>
                    </g>
                    <g id="Group-10" transform="translate(294.596024, 56.000000) scale(-1, 1) translate(-294.596024, -56.000000) translate(203.096024, 0.000000)">
                        <path d="M47.6548055,19.1774371 L147.148188,19.1774371 C166.682462,19.1774371 182.51812,35.013095 182.51812,54.547369 C182.51812,74.0816431 166.682462,89.917301 147.148188,89.917301 L141.03613,89.917301 L141.03613,89.917301 L141.03613,111.535042 L130.407613,111.535042 L124.732993,89.917301 L47.6548055,89.917301 C28.1205314,89.917301 12.2848735,74.0816431 12.2848735,54.547369 C12.2848735,35.013095 28.1205314,19.1774371 47.6548055,19.1774371 Z" id="Rectangle" fill="#D7E3FF"></path>
                        <path d="M112.087563,90.757301 L35.369932,90.757301 C25.3708354,90.757301 16.3183524,86.7043663 9.76564353,80.1516575 C3.21293469,73.5989487 -0.84,64.5464657 -0.84,54.547369 C-0.84,44.5482724 3.21293469,35.4957894 9.76564353,28.9430806 C16.3183524,22.3903717 25.3708354,18.3374371 35.369932,18.3374371 L134.863315,18.3374371 C144.862412,18.3374371 153.914895,22.3903717 160.467603,28.9430806 C167.020312,35.4957894 171.073247,44.5482724 171.073247,54.547369 C171.073247,64.5464657 167.020312,73.5989487 160.467603,80.1516575 C153.914895,86.7043663 144.862412,90.757301 134.863315,90.757301 L129.591256,90.757301 L129.591256,109.177438 L112.087563,90.757301 Z" id="Rectangle" stroke="#18233D" stroke-width="1.68" fill="#FFFFFF" stroke-linecap="round"></path>
                        <g id="Group-6" transform="translate(93.146494, 0.000000)">
                            <g id="Group-2">
                                <path d="M17.1049156,47.2688969 C19.4712294,46.9864231 21.9865273,46.8451862 24.6508093,46.8451862 C30.3142841,46.8451862 35.6976136,47.4833817 40.8007981,48.7597728 C48.2579741,50.6249391 53.7305527,56.9868037 54.4603412,64.6389751 L55.0684409,71.0151816 L55.0684409,71.0151816 L1.54691893,71.0151816 L1.18186825,66.8808423 C0.319599605,57.1153223 7.37051331,48.4309211 17.1049156,47.2688969 Z" id="Path-153" fill="#18233D"></path>
                                <polygon id="Path-160" fill="#FFFFFF" points="35.5292893 46.8451862 37.5915413 48.2055853 33.0320997 71.0151816 18.5567339 71.0151816 14.8406085 48.2055853 18.0974553 46.8451862"></polygon>
                                <polygon id="Path-161" fill="#D7E3FF" points="16.9308333 62.1276157 25.3790976 57.8311792 34.7190676 61.3095243 37.5915413 48.2055853 35.5292893 46.8451862 16.1488889 46.8451862 14.8406085 48.2055853"></polygon>
                                <g id="Group" transform="translate(11.590475, 0.000000)">
                                    <path d="M5.50230037,25.1767032 C6.74154602,29.7250223 7.05135744,34.2498101 6.43173461,38.7510665 C5.50230037,45.5029512 5.50230037,48.1201135 4.00016401,49.1992941 L11.8591904,58.7781034 L18.3408854,59.5856567 L26.0010661,49.1992941 C23.7956789,48.2332791 22.6929853,45.1861602 22.6929853,40.0579372 C22.6929853,34.9297143 22.8430735,29.2450718 23.14325,23.0040097 L5.50230037,25.1767032 Z" id="Path-103" fill="#FFD1AB"></path>
                                    <path d="M3.15222678,24.0687175 C-0.716432445,18.229823 -1.91671165,7.21997451 6.50698006,4.79379812 C7.07902956,-3.50714859 26.2492096,0.080866204 28.6883283,8.92586492 C31.127447,17.7708636 26.1089027,30.2943189 19.048842,31.793976 C11.9887813,33.2936331 7.02088601,29.9076119 3.15222678,24.0687175 Z" id="Path-105" fill="#18233D"></path>
                                    <path d="M23.1285924,28.4768331 C22.9844689,29.5964361 22.509775,34.9378237 22.6603375,40.339664 C22.6944585,41.563848 22.8505435,42.9901991 23.1285924,44.6187175 C13.063453,40.0037535 7.60299772,36.758553 6.74722652,34.8831161 C6.80613638,32.9344706 6.69155036,31.061477 6.50698006,29.4661975 L23.1285924,28.4768331 Z" id="Path" fill="#CF8B54"></path>
                                    <path d="M5.27753855,17.2012323 C7.59006148,15.8893771 8.24995225,13.3060151 9.79494523,8.92586492 C13.7886223,15.1264175 17.5936072,15.6495087 24.1236122,17.1902649 C23.6993838,28.4163029 24.8587366,18.2548238 26.0428777,18.3803688 C26.2841343,18.3092493 26.5394175,18.2710973 26.8035681,18.2710973 C28.2934343,18.2710973 29.5012096,19.4847885 29.5012096,20.9819523 C29.5012096,22.4791162 28.2934343,23.6928073 26.8035681,23.6928073 C26.1089233,23.6928073 25.4756011,23.4289682 24.9974244,22.9955726 C22.8120609,29.3515226 18.2154326,37.5092808 13.0522909,36.7459229 C9.32010786,36.1941288 6.3912997,31.5479973 4.26586638,22.8075286 C4.08268171,22.8469916 3.89259616,22.8677645 3.69768247,22.8677645 C2.20781623,22.8677645 1.000041,21.6540734 1.000041,20.1569095 C1.000041,18.6597456 2.20781623,17.4460545 3.69768247,17.4460545 C3.80285985,17.4460545 3.78010592,21.8060225 4.26586638,21.6384604 C4.58970668,21.5267523 4.92693074,20.0476763 5.27753855,17.2012323 Z" id="Path" fill="#FFD1AB"></path>
                                    <path d="M13.5856003,27.1775627 C12.9007525,26.6687129 12.0491875,26.6030104 11.0309053,26.9804553 C9.5034819,27.5466226 8.49725614,28.3699349 9.00036902,28.7136821 C9.3357776,28.9428469 10.931862,28.6947342 13.7886223,27.9693439 C16.5966995,28.5164495 18.2507483,28.6532259 18.7507688,28.3796731 C19.5007995,27.9693439 16.6732502,26.9445337 15.8369326,26.7442812 C15.2793876,26.6107795 14.5289434,26.7552067 13.5856003,27.1775627 Z" id="Path-124" fill="#18233D"></path>
                                    <path d="M14.4587695,26.8397587 C14.7334792,26.9350897 14.878909,27.2351089 14.7835959,27.5098703 C14.6882828,27.7846317 14.38832,27.9300888 14.1136102,27.8347578 L11.4661463,26.9160232 L11.6647665,26.4064985 C12.9776381,23.038561 13.4600965,20.7327431 13.1462611,19.5694522 C13.0705097,19.2886651 13.2366812,18.999622 13.5174155,18.9238563 C13.7981499,18.8480906 14.0871387,19.0142934 14.1628901,19.2950805 C14.5357499,20.6771567 14.0855453,22.9818952 12.8416796,26.278589 L14.4587695,26.8397587 Z" id="Path-104" fill="#18233D" fill-rule="nonzero"></path>
                                    <path d="M16.8790601,17.7203347 C16.615656,17.8452711 16.302284,17.7299406 16.1791242,17.4627368 C16.0559644,17.195533 16.1696549,16.8776404 16.433059,16.752704 C18.1719493,15.9279226 19.9557431,16.0869491 21.7214376,17.210739 C21.9677474,17.3675048 22.0421444,17.6971425 21.8876079,17.9470055 C21.7330714,18.1968684 21.4081212,18.2723386 21.1618114,18.1155728 C19.6907186,17.1792844 18.2841357,17.0538865 16.8790601,17.7203347 Z" id="Path-109" fill="#18233D" fill-rule="nonzero"></path>
                                    <path d="M7.22344165,17.704562 C6.95987864,17.8291531 6.64665387,17.7134119 6.52383454,17.4460468 C6.40101521,17.1786818 6.5151105,16.8609386 6.77867351,16.7363475 C8.51573369,15.9152073 10.2993831,16.0784669 12.0668083,17.2063962 C12.3129301,17.3634654 12.3869323,17.6931946 12.2320966,17.9428669 C12.077261,18.1925392 11.7522207,18.2676089 11.5060989,18.1105397 C10.0327042,17.1702537 8.62608966,17.0415046 7.22344165,17.704562 Z" id="Path-109" fill="#18233D" fill-rule="nonzero" transform="translate(9.393727, 17.206908) rotate(-6.000000) translate(-9.393727, -17.206908) "></path>
                                    <ellipse id="Oval" fill="#18233D" cx="18.7507688" cy="19.4382035" rx="1" ry="1"></ellipse>
                                    <ellipse id="Oval" fill="#18233D" cx="9.75039977" cy="19.4382035" rx="1" ry="1"></ellipse>
                                    <path d="M11.5004715,29.3109347 L16.0767732,28.9726501 C15.6433818,30.4732774 14.8806648,31.223591 13.7886223,31.223591 C12.6965799,31.223591 11.9338629,30.5860389 11.5004715,29.3109347 Z" id="Path-110" fill="#FFFFFF"></path>
                                    <path d="M26.1642008,22.1607229 C25.8877363,22.2521195 25.5905797,22.0988592 25.5004828,21.8184066 C25.410386,21.5379539 25.5614668,21.2365106 25.8379313,21.1451141 L27.3379928,20.649208 C27.6144573,20.5578115 27.911614,20.7110718 28.0017108,20.9915244 C28.0918076,21.271977 27.9407268,21.5734203 27.6642623,21.6648169 L26.1642008,22.1607229 Z" id="Path-107" fill="#18233D" fill-rule="nonzero"></path>
                                    <path d="M2.66323725,21.182831 C2.38677277,21.2742275 2.08961611,21.1209672 1.99951928,20.8405146 C1.90942245,20.560062 2.06050328,20.2586187 2.33696776,20.1672221 L3.83702926,19.6713161 C4.11349374,19.5799195 4.4106504,19.7331798 4.50074723,20.0136324 C4.59084406,20.2940851 4.43976323,20.5955284 4.16329875,20.6869249 L2.66323725,21.182831 Z" id="Path-107" fill="#18233D" fill-rule="nonzero" transform="translate(3.250133, 20.427074) scale(-1, 1) translate(-3.250133, -20.427074) "></path>
                                    <path d="M12.5005125,7.45902698 C15.1536739,11.9627062 19.3205114,14.7334001 25.0010251,15.7711086" id="Path-108" stroke="#FFFFFF" stroke-width="1.05" stroke-linecap="round"></path>
                                </g>
                                <polygon id="Path-2" fill="#18233D" points="23.4496656 58.7781034 30.4953989 58.9301839 32.4938081 60.2859991 29.3525848 64.080656 24.9876055 64.080656 20.9715322 60.2859991"></polygon>
                                <polygon id="Path-3" fill="#18233D" points="24.9876055 64.080656 23.1175623 71.0151816 30.2857344 71.0151816 29.3525848 64.080656"></polygon>
                            </g>
                            <polyline id="Path-162" stroke="#FFFFFF" stroke-width="1.05" stroke-linecap="round" points="42.7030395 49.5417124 44.9672728 60.7830968 38.5433767 62.6939055 43.8074354 68.3178565 40.6938019 71.915389"></polyline>
                            <polyline id="Path-162" stroke="#FFFFFF" stroke-width="1.05" stroke-linecap="round" transform="translate(11.241818, 59.130431) scale(-1, 1) translate(-11.241818, -59.130431) " points="12.189533 47.9435926 14.4537662 59.184977 8.02987014 61.0957857 13.2939288 66.7197367 10.1802954 70.3172692"></polyline>
                        </g>
                        <line x1="48.1792208" y1="42.3501735" x2="77.0867533" y2="42.3501735" id="Path-199" stroke="#18233D" stroke-width="1.68" stroke-linecap="round"></line>
                        <line x1="35.3314286" y1="55.1351315" x2="77.0867533" y2="55.1351315" id="Path-199" stroke="#18233D" stroke-width="1.68" stroke-linecap="round"></line>
                        <line x1="61.027013" y1="67.9200896" x2="77.0867533" y2="67.9200896" id="Path-199" stroke="#18233D" stroke-width="1.68" stroke-linecap="round"></line>
                    </g>
                </g>
            </g>
        </g>
    </g>
</svg>