<?xml version="1.0" encoding="UTF-8"?>
<svg width="197px" height="65px" viewBox="0 0 197 65" version="1.1" xmlns="http://www.w3.org/2000/svg" xmlns:xlink="http://www.w3.org/1999/xlink">
    <!-- Generator: Sketch 61.2 (89653) - https://sketch.com -->
    <title>Carbon App Store (White)</title>
    <desc>Created with Sketch.</desc>
    <g id="GetCarbon-Main-Website-V2" stroke="none" stroke-width="1" fill="none" fill-rule="evenodd">
        <g id="GetCarbon-Landingpage-(v2)" transform="translate(-284.000000, -583.000000)">
            <g id="Group-13" transform="translate(78.000000, 583.000000)">
                <g id="Carbon-App-Store-(White)" transform="translate(206.000000, 0.000000)">
                    <rect id="Rectangle" fill="#FFFFFF" fill-rule="nonzero" x="0" y="0" width="196.128" height="64.224" rx="8.78112"></rect>
                    <g id="Group" transform="translate(64.946880, 23.904000)" fill="#3B2F85" font-family="Helvetica" font-size="24.48" font-weight="normal">
                        <text id="A">
                            <tspan x="0" y="24">A</tspan>
                        </text>
                        <text id="p">
                            <tspan x="17.06112" y="24">p</tspan>
                        </text>
                        <text id="p">
                            <tspan x="31.11264" y="24">p</tspan>
                        </text>
                        <text id="S">
                            <tspan x="50.06016" y="24">S</tspan>
                        </text>
                        <text id="t">
                            <tspan x="65.95632" y="24">t</tspan>
                        </text>
                        <text id="o">
                            <tspan x="72.38592" y="24">o</tspan>
                        </text>
                        <text id="r">
                            <tspan x="86.04576" y="24">r</tspan>
                        </text>
                        <text id="e">
                            <tspan x="94.7376" y="24">e</tspan>
                        </text>
                    </g>
                    <g id="Group" transform="translate(66.156480, 9.492480)" fill="#3B2F85" font-family="ProductSans-Regular, Product Sans" font-size="14.4" font-weight="normal">
                        <text id="D">
                            <tspan x="0" y="14">D</tspan>
                        </text>
                        <text id="o">
                            <tspan x="9.7344" y="14">o</tspan>
                        </text>
                        <text id="wn">
                            <tspan x="17.6544" y="14">wn</tspan>
                        </text>
                        <text id="l">
                            <tspan x="36.3168" y="14">l</tspan>
                        </text>
                        <text id="o">
                            <tspan x="39.1824" y="14">o</tspan>
                        </text>
                        <text id="a">
                            <tspan x="47.2464" y="14">a</tspan>
                        </text>
                        <text id="d">
                            <tspan x="54.5184" y="14">d</tspan>
                        </text>
                        <text id="o">
                            <tspan x="65.9808" y="14">o</tspan>
                        </text>
                        <text id="n">
                            <tspan x="73.9008" y="14">n</tspan>
                        </text>
                        <text id="t">
                            <tspan x="84.8736" y="14">t</tspan>
                        </text>
                        <text id="he">
                            <tspan x="90.0432" y="14">he</tspan>
                        </text>
                    </g>
                    <path d="M46.81152,32.10912 C46.76832,27.42336 50.64768,25.1424 50.82624,25.03584 C48.6288,21.83328 45.216,21.39552 44.02656,21.36096 C41.16672,21.07296 38.3904,23.07168 36.93312,23.07168 C35.47584,23.07168 33.18912,21.38976 30.78432,21.43872 C27.67392,21.48768 24.76224,23.29056 23.16384,26.08704 C19.86912,31.78944 22.32864,40.17024 25.48512,44.78112 C27.06336,47.04192 28.90944,49.56192 31.32576,49.47264 C33.68736,49.37472 34.57152,47.9664 37.42272,47.9664 C40.27392,47.9664 41.07744,49.47264 43.53984,49.4064 C46.07712,49.36608 47.67264,47.13984 49.19616,44.85888 C50.3325039,43.2517407 51.2073261,41.4748798 51.78816,39.59424 C51.72768,39.5712 46.86336,37.7136 46.8144,32.10624 L46.81152,32.10912 Z M42.15744,18.32832 C43.42752,16.73856 44.29728,14.58432 44.05536,12.384 C42.21792,12.46464 39.9168,13.65696 38.58336,15.20928 C37.4112,16.58016 36.36288,18.82368 36.6336,20.93472 C38.70144,21.09024 40.82112,19.89216 42.1488,18.34272 L42.15744,18.32832 Z" id="Shape" fill="#3B2F85" fill-rule="nonzero"></path>
                </g>
            </g>
        </g>
    </g>
</svg>