<?xml version="1.0" encoding="UTF-8"?>
<svg width="527px" height="588px" viewBox="0 0 527 588" version="1.1" xmlns="http://www.w3.org/2000/svg" xmlns:xlink="http://www.w3.org/1999/xlink">
    <!-- Generator: Sketch 58 (84663) - https://sketch.com -->
    <title>Fund transfer</title>
    <desc>Created with Sketch.</desc>
    <defs>
        <linearGradient x1="47.7093755%" y1="51.7422877%" x2="51.6576879%" y2="48.5649336%" id="linearGradient-1">
            <stop stop-color="#F1948A" offset="5.882353%"></stop>
            <stop stop-color="#F5B7B1" offset="43.14%"></stop>
        </linearGradient>
        <linearGradient x1="-0.221698965%" y1="49.7915971%" x2="99.8999676%" y2="49.7915971%" id="linearGradient-2">
            <stop stop-color="#F1948A" offset="5.882353%"></stop>
            <stop stop-color="#F5B7B1" offset="81.18%"></stop>
        </linearGradient>
        <linearGradient x1="0.0409090909%" y1="49.9439141%" x2="100.519886%" y2="49.9439141%" id="linearGradient-3">
            <stop stop-color="#F1948A" offset="5.882353%"></stop>
            <stop stop-color="#F5B7B1" offset="81.18%"></stop>
        </linearGradient>
        <filter x="-40.5%" y="-27.0%" width="181.0%" height="153.9%" filterUnits="objectBoundingBox" id="filter-4">
            <feOffset dx="0" dy="-20" in="SourceAlpha" result="shadowOffsetOuter1"></feOffset>
            <feGaussianBlur stdDeviation="25" in="shadowOffsetOuter1" result="shadowBlurOuter1"></feGaussianBlur>
            <feColorMatrix values="0 0 0 0 0.518993433   0 0 0 0 0.186533044   0 0 0 0 0.186533044  0 0 0 0.0749562937 0" type="matrix" in="shadowBlurOuter1" result="shadowMatrixOuter1"></feColorMatrix>
            <feMerge>
                <feMergeNode in="shadowMatrixOuter1"></feMergeNode>
                <feMergeNode in="SourceGraphic"></feMergeNode>
            </feMerge>
        </filter>
        <linearGradient x1="0.0454897345%" y1="49.9144295%" x2="99.9584512%" y2="49.9144295%" id="linearGradient-5">
            <stop stop-color="#F1948A" offset="5.882353%"></stop>
            <stop stop-color="#F5B7B1" offset="68.24%"></stop>
        </linearGradient>
        <linearGradient x1="-0.0383512545%" y1="50.2117647%" x2="99.9546595%" y2="50.2117647%" id="linearGradient-6">
            <stop stop-color="#F1948A" offset="5.882353%"></stop>
            <stop stop-color="#F5B7B1" offset="68.24%"></stop>
        </linearGradient>
        <linearGradient x1="-1.49443501%" y1="50.820695%" x2="99.1841105%" y2="50.820695%" id="linearGradient-7">
            <stop stop-color="#F1948A" offset="5.882353%"></stop>
            <stop stop-color="#F5B7B1" offset="68.24%"></stop>
        </linearGradient>
    </defs>
    <g id="Iteration-2" stroke="none" stroke-width="1" fill="none" fill-rule="evenodd">
        <g id="Fund-transfer" transform="translate(-1.000000, 15.000000)" fill-rule="nonzero">
            <g id="Group-25" transform="translate(102.000000, 146.603069) scale(1, -1) translate(-102.000000, -146.603069) translate(0.000000, 60.103069)">
                <rect id="Rectangle" fill="#88DBD5" transform="translate(25.909461, 15.602021) rotate(108.624000) translate(-25.909461, -15.602021) " x="19.9094608" y="9.60202064" width="12" height="12" rx="3"></rect>
                <rect id="Rectangle" fill="#FFC884" transform="translate(10.500000, 160.692018) rotate(61.072400) translate(-10.500000, -160.692018) " x="3" y="153.192018" width="15" height="15" rx="3"></rect>
                <rect id="Rectangle" fill="#FFC884" transform="translate(195.618662, 82.262569) rotate(20.440500) translate(-195.618662, -82.262569) " x="189.618662" y="76.2625691" width="12" height="12" rx="3"></rect>
                <rect id="Rectangle" fill="#B8A7FF" transform="translate(195.307982, 8.000000) rotate(87.179700) translate(-195.307982, -8.000000) " x="187.807982" y="0.5" width="15" height="15" rx="3"></rect>
                <rect id="Rectangle" fill="#B8A7FF" transform="translate(164.181707, 164.373979) rotate(23.118600) translate(-164.181707, -164.373979) " x="158.181707" y="158.373979" width="12" height="12" rx="3"></rect>
            </g>
            <g id="Group_74_-Copy" transform="translate(15.000000, 94.603069)">
                <path d="M51.1160229,28.4488959 L203.652604,36.1102875 C203.652604,36.1102875 211.044323,71.991667 212.365321,93.889646 C213.686319,115.787625 209.465546,140.587359 217.913717,188.86882 C224.24993,226.333108 249.327326,323.688073 251.97018,380.147871 C254.613033,436.607669 242.212493,479.611119 242.212493,479.611119 L75.1583239,428.944456 C75.1583239,428.944456 94.1567666,390.690392 88.3476635,342.93677 C76.9934319,248.484863 68.0166866,188.858677 64.5838375,157.726505 C58.7744844,106.279263 57.713925,33.1982823 51.1160229,28.4488959 Z" id="Shape_423_" fill="#FDEDEC" transform="translate(151.727854, 254.030007) rotate(-13.000000) translate(-151.727854, -254.030007) "></path>
                <path d="M204.832052,16.4542468 C204.832052,16.4542468 209.318246,14.0800804 210.373805,13.2886618 C212.748809,11.4420126 214.860071,11.9698154 216.971279,11.7061283 C219.082487,11.4424412 219.082344,9.3318012 219.082344,9.3318012 L226.207463,5.3748334 L239.138578,3.26506845 C239.138578,3.26506845 242.048978,113.546203 243.898586,147.316568 C245.748194,181.086932 254.7231,213.538629 267.393919,264.722506 C280.064739,315.906382 276.641765,430.672198 278.753562,439.114901 C281.129262,447.557622 279.545879,448.085175 279.545879,448.085175 C279.545879,448.085175 279.017983,446.765989 273.73999,447.820952 C268.461997,448.875915 265.559026,448.348058 258.961767,453.096552 C252.364507,457.845045 239.697296,459.954828 239.697296,459.954828 C239.697296,459.954828 239.420821,274.218493 221.471759,220.395959 C203.522714,166.837255 207.212592,96.3948964 205.099491,68.6926039 C202.986408,41.2541415 200.081794,16.4539254 200.081794,16.4539254 C200.081794,16.4539254 203.776475,16.9818354 204.832052,16.4542468 Z" id="Shape_422_" fill="url(#linearGradient-1)" transform="translate(240.072290, 231.609948) rotate(-13.000000) translate(-240.072290, -231.609948) "></path>
                <path d="M144.867547,54.7223789 C144.603643,54.7223789 144.603643,54.7223789 144.867547,54.7223789 C143.020224,54.7223789 142.228407,53.1392204 141.700529,52.0838647 C141.43659,51.5561868 141.172652,51.028509 140.908748,51.0284911 L140.908748,51.0284911 C140.644845,51.0284732 140.380978,51.5561154 140.11711,52.0837575 C139.589357,52.8752118 138.533851,54.4581203 136.950414,54.1941832 C135.103092,54.1940582 134.311275,52.6110246 134.0473,51.5556868 C133.783361,51.0280089 133.519422,50.5003311 133.255519,50.5003132 C132.991616,50.5002954 132.727748,51.0279375 132.199978,51.5555618 C131.672225,52.3470161 130.616719,53.9299246 129.033282,53.6659875 C127.185959,53.6658625 126.394142,52.0828289 126.130168,51.0274911 C125.866229,50.4998132 125.60229,49.9721354 125.338387,49.9721175 C125.074483,49.9720997 124.810616,50.4997418 124.282845,51.0273661 C123.755092,51.8188204 122.699587,53.4017289 121.116149,53.1377918 C119.268827,53.1376668 118.47701,51.5546332 118.213035,50.4992954 C117.949096,49.9716175 117.685158,49.4439397 117.421254,49.4439218 L117.421254,49.4439218 C117.157351,49.443904 116.893484,49.9715461 116.629616,50.4991882 C116.101863,51.2906425 115.046357,52.873551 113.46292,52.6096139 C111.615598,52.6094889 110.823781,51.0264553 110.559806,49.9711175 C110.295867,49.4434397 110.031928,48.9157618 109.768025,48.9157439 C109.504122,48.9157261 109.240254,49.4433682 108.712484,49.9709925 C108.184731,50.7624468 107.129225,52.3453553 105.545788,52.0814182 C103.698465,52.0812932 102.906648,50.4982596 102.642674,49.4429218 C102.378735,48.9152439 102.114796,48.3875661 101.850893,48.3875482 C101.58699,48.3875304 101.323122,48.9151725 100.795351,49.4427968 C100.267598,50.2342511 99.2120926,51.8171596 97.6286554,51.5532225 C95.7813329,51.5530975 94.9895161,49.9700639 94.7255414,48.9147261 C94.4616025,48.3870482 94.1976635,47.8593704 93.9337603,47.8593525 C93.6698571,47.8593347 93.4059896,48.3869768 92.8782189,48.9146011 C92.350466,49.7060553 91.2949602,51.2889639 89.711523,51.0250268 C87.8642005,51.0249017 87.0723837,49.4418682 86.808409,48.3865304 C86.5444701,47.8588525 86.2805311,47.3311747 86.0166279,47.3311568 C85.7527247,47.3311389 85.4888572,47.8587811 84.9610865,48.3864054 C84.4333336,49.1778596 83.37781,50.4969382 81.7943906,50.496831 C79.9470681,50.496706 79.1552513,48.9136725 78.8912766,47.8583346 C78.6273377,47.3306568 78.3633987,46.8029789 78.0994955,46.8029611 C77.8355923,46.8029432 77.5717248,47.3305854 77.0439541,47.8582096 C76.5162012,48.6496639 75.4606954,50.2325725 73.8772582,49.9686353 C72.0299357,49.9685103 71.2381189,48.3854768 70.9741442,47.3301389 C70.7102053,46.8024611 70.4462663,46.2747832 70.1823631,46.2747654 L70.1823631,46.2747654 C69.9184599,46.2747475 69.6545924,46.8023896 69.3907249,47.3300318 C68.862972,48.1214861 67.8074663,49.7043946 66.2240291,49.4404575 C64.3767065,49.4403325 63.5848897,47.8572989 63.320915,46.8019611 C63.0569761,46.2742832 62.7930372,45.7466054 62.5291339,45.7465875 L62.5291339,45.7465875 C62.2652307,45.7465696 62.0013632,46.2742118 61.7374957,46.8018539 C61.2097428,47.5933082 60.1542371,49.1762167 58.5707999,48.9122796 C56.7234773,48.9121546 55.9316605,47.329121 55.6676859,46.2737832 C55.4037469,45.7461054 55.139808,45.2184275 54.8759048,45.2184096 C54.6120015,45.2183918 54.348134,45.7460339 53.8203633,46.2736582 C53.2926104,47.0651125 52.2371047,48.648021 50.6536675,48.3840839 C48.8063449,48.3839589 48.0145281,46.8009253 47.7505535,45.7455875 C47.4866145,45.2179096 47.2226756,44.6902318 46.9587724,44.6902139 C46.9587724,44.6902139 46.9587724,44.6902139 46.9587724,44.6902139 C46.6948691,44.6901961 46.4310016,45.2178382 46.1671341,45.7454803 C45.6393812,46.5369346 44.5838755,48.1198432 43.0004383,47.855906 C41.1531157,47.855781 40.3612989,46.2727475 40.0973243,45.2174096 C39.8333853,44.6897318 39.5694464,44.1620539 39.3055432,44.1620361 C39.04164,44.1620182 38.7777724,44.6896603 38.2500017,45.2172846 C37.7222488,46.0087389 36.6667431,47.5916474 35.0833059,47.3277103 C33.2359833,47.3275853 32.4441665,45.7445518 32.1801919,44.6892139 C31.9162529,44.1615361 31.652314,43.6338582 31.3884108,43.6338404 C31.1245076,43.6338225 30.86064,44.1614646 30.3328693,44.6890889 C29.8051164,45.4805432 28.7496107,47.0634517 27.1661735,46.7995146 C25.3188509,46.7993896 24.5270341,45.216356 24.2630595,44.1610182 C23.9991205,43.6333403 23.7351816,43.1056625 23.4712784,43.1056446 C23.2073752,43.1056268 22.9435076,43.6332689 22.6796401,44.160911 C22.1518873,44.9523653 21.0963815,46.5352739 19.5129443,46.2713367 C17.6656218,46.2712117 16.8738049,44.6881782 16.6098303,43.6328403 C16.3458914,43.1051625 16.0819524,42.5774846 15.8178885,42.5774668 L15.8178885,40.2029968 C17.665211,40.2029968 18.45701,41.5223254 18.9848879,42.5776811 C19.2488268,43.1053589 19.5127657,43.6330368 19.776669,43.6330546 C20.0405722,43.6330725 20.3044397,43.1054303 20.8322104,42.5778061 C21.3599633,41.7863518 22.4154691,40.2034432 23.9989062,40.4673804 C25.8462288,40.4675054 26.6380456,42.0505389 26.9020203,43.1058768 C27.1659592,43.6335546 27.4298981,44.1612325 27.6938014,44.1612503 C27.9577046,44.1612682 28.2215721,43.6336261 28.7493428,43.1060018 C29.2770957,42.3145475 30.3326015,40.731639 31.9160386,40.9955761 C33.7633612,40.9957011 34.555178,42.5787347 34.8191527,43.6340725 C35.0830916,44.1617503 35.3470306,44.6894282 35.6109338,44.6894461 C35.874837,44.6894639 36.1387045,44.1618218 36.6664752,43.6341975 C37.1942281,42.8427432 38.2497339,41.2598347 39.833171,41.5237718 C41.6804936,41.5238968 42.4723104,43.1069304 42.7362851,44.1622682 C43.000224,44.6899461 43.264163,45.2176239 43.5280662,45.2176418 C43.7919694,45.2176596 44.0558369,44.6900175 44.5836076,44.1623932 C45.1113605,43.3709389 46.1668663,41.7880304 47.7503035,42.0519675 C49.597626,42.0520925 50.3894428,43.6351261 50.6534175,44.6904639 C50.9173564,45.2181418 51.1812954,45.7458196 51.4451986,45.7458375 C51.7091018,45.7458553 51.9729693,45.2182132 52.50074,44.6905889 C53.0284929,43.8991347 54.0839987,42.3162261 55.6674359,42.5801633 C57.5147584,42.5802883 58.3065752,44.1633218 58.5705499,45.2186596 C58.8344888,45.7463375 59.0984278,46.2740153 59.362331,46.2740332 C59.6262342,46.2740511 59.8901017,45.7464089 60.4178724,45.2187847 C60.9456253,44.4273304 62.0011489,43.1082518 63.5845683,43.108359 C65.4318908,43.108484 66.2237076,44.6915175 66.4876823,45.7468554 C66.7516212,46.2745332 67.0155602,46.8022111 67.2794634,46.8022289 C67.5433666,46.8022468 67.8072341,46.2746046 68.0711016,45.7469625 C68.5988545,44.9555082 69.6543602,43.3725997 71.2377974,43.6365368 C73.08512,43.6366618 73.8769368,45.2196954 74.1409115,46.2750332 C74.4048504,46.8027111 74.6687893,47.3303889 74.9326926,47.3304068 C75.1965958,47.3304246 75.4604633,46.8027825 75.988234,46.2751582 C76.5159869,45.483704 77.5714926,43.9007954 79.1549298,44.1647325 C81.0022524,44.1648575 81.7940692,45.7478911 82.0580439,46.8032289 C82.3219828,47.3309068 82.5859217,47.8585846 82.849825,47.8586025 C83.1137282,47.8586204 83.3775957,47.3309782 83.6414632,46.8033361 C84.1692161,46.0118818 85.2247218,44.4289733 86.808159,44.6929104 C88.6554816,44.6930354 89.4472984,46.276069 89.711273,47.3314068 C89.975212,47.8590847 90.2391509,48.3867625 90.5030541,48.3867804 C90.5030541,48.3867804 91.0308249,47.8591561 91.5585956,47.3315318 C92.0863485,46.5400775 93.1418542,44.957169 94.7252914,45.2211061 C96.572614,45.2212311 97.3644308,46.8042647 97.6284054,47.8596025 C97.8923444,48.3872804 98.1562833,48.9149582 98.4201865,48.9149761 C98.6840898,48.9149939 98.9479573,48.3873518 99.475728,47.8597275 C100.003481,47.0682732 101.059004,45.7491947 102.642424,45.7493018 C104.489746,45.7494268 105.281563,47.3324604 105.545538,48.3877982 C105.809477,48.9154761 106.073416,49.4431539 106.337319,49.4431718 C106.601222,49.4431897 106.86509,48.9155475 107.39286,48.3879232 C107.920613,47.596469 108.976119,46.0135604 110.559556,46.2774976 C112.406879,46.2776226 113.198696,47.8606561 113.46267,48.915994 C113.726609,49.4436718 113.990548,49.9713497 114.254451,49.9713675 C114.518355,49.9713854 114.782222,49.4437432 115.309993,48.916119 C115.837746,48.1246647 116.893251,46.5417561 118.476689,46.8056933 C120.324011,46.8058183 121.115828,48.3888518 121.379803,49.4441897 C121.643742,49.9718675 121.907681,50.4995454 122.171584,50.4995632 C122.435487,50.4995811 122.699354,49.971939 123.227125,49.4443147 C123.754878,48.6528604 124.810384,47.0699518 126.393821,47.333889 C128.241144,47.334014 129.03296,48.9170475 129.296935,49.9723854 C129.560874,50.5000632 129.824813,51.0277411 130.088716,51.0277589 C130.352619,51.0277768 130.616487,50.5001347 131.144258,49.9725104 C131.67201,49.1810561 132.727516,47.5981476 134.310953,47.8620847 C136.158276,47.8622097 136.950093,49.4452433 137.214067,50.5005811 C137.478006,51.028259 137.741945,51.5559368 138.005849,51.5559547 C138.269752,51.5559725 138.533619,51.0283304 139.06139,50.5007061 C139.589143,49.7092518 140.644649,48.1263433 142.228086,48.3902804 C144.075408,48.3904054 144.867225,49.973439 145.1312,51.0287768 C145.395139,51.5564547 145.659078,52.0841325 145.922981,52.0841504 C146.186884,52.0841682 146.450752,51.5565261 146.978522,51.0289018 C147.506275,50.2374475 148.561781,48.654539 150.145218,48.9184761 L149.881494,51.5567582 C149.61759,51.5567404 149.353723,52.0843825 148.825952,52.6120068 C147.242586,53.4033896 146.450966,54.7223789 144.867547,54.7223789 Z" id="Shape_421_" fill="#F5B7B1" transform="translate(82.981553, 47.462688) rotate(-13.000000) translate(-82.981553, -47.462688) "></path>
                <path d="M0.144251098,35.6543012 C0.144251098,35.6543012 9.11669281,31.6974584 12.2834958,31.1700127 C15.4502987,30.642567 19.4086864,28.2683649 23.1033315,28.2686149 C26.7979766,28.2688649 28.645192,26.68601 33.3953786,25.6310114 C38.1455652,24.5760129 42.6318128,22.9933365 42.6318128,22.9933365 L189.098655,31.1819772 C189.098655,31.1819772 183.028952,32.2368865 178.278784,33.5557151 C173.26473,35.1383557 171.681525,38.3042086 170.098159,39.0955914 C167.195313,40.4145449 164.02842,39.6228407 160.070033,41.9970428 C156.111645,44.3712449 154.000455,44.8985835 151.361423,44.8985835 C148.722391,44.8985835 148.458398,43.579237 148.458398,43.579237 L0.144251098,35.6543012 Z" id="Shape_420_" fill="#FADBD8" transform="translate(94.621453, 33.945960) rotate(-13.000000) translate(-94.621453, -33.945960) "></path>
                <path d="M268.017505,461.441059 C267.753602,461.441059 267.489699,461.441059 267.225796,461.441059 C265.378438,460.913221 265.114427,459.330223 264.850453,458.274885 C264.586496,457.483377 264.58646,456.955717 264.322557,456.955699 C264.058654,456.955682 263.794768,457.219494 263.003094,457.7471 C262.211438,458.538536 260.891993,459.593767 259.308538,459.066 C257.46118,458.538215 257.19717,456.955217 256.933195,455.899879 C256.669238,455.108372 256.669203,454.580712 256.405299,454.580694 C256.141396,454.580676 255.877511,454.844488 255.085837,455.372094 C254.294181,456.163531 252.974736,457.218761 251.391281,456.690994 C249.543923,456.163209 249.279912,454.580212 249.015938,453.524874 C248.751981,452.733366 248.751945,452.205706 248.488042,452.205688 C248.224139,452.20567 247.960253,452.469482 247.168579,452.997089 C246.376923,453.788525 245.057479,454.843756 243.474024,454.315989 C241.626665,453.788204 241.362655,452.205206 241.09868,451.149868 C240.834724,450.35836 240.834688,449.8307 240.570785,449.830682 C240.306881,449.830664 240.042996,450.094477 239.251322,450.622083 C238.459666,451.413519 237.140221,452.46875 235.556766,451.940983 C233.709408,451.413198 233.445398,449.8302 233.181423,448.774862 C232.917466,447.983354 232.91743,447.455694 232.653527,447.455677 C232.389624,447.455659 232.125739,447.719471 231.334065,448.247077 C230.542409,449.038514 229.222964,450.093744 227.639509,449.565977 C225.792151,449.038192 225.52814,447.455194 225.264165,446.399857 C225.000209,445.608349 225.000173,445.080689 224.73627,445.080671 C224.472367,445.080653 224.208481,445.344465 223.416807,445.872072 C222.625151,446.663508 221.305706,447.718739 219.722251,447.190972 C217.874893,446.663187 217.610883,445.080189 217.346908,444.024851 C217.082951,443.233343 217.082916,442.705683 216.819012,442.705665 C216.555109,442.705647 216.291224,442.96946 215.49955,443.497066 C214.707894,444.288502 213.388449,445.343733 211.804994,444.815966 C209.957636,444.288181 209.693625,442.705183 209.429651,441.649845 C209.165694,440.858337 209.165658,440.330677 208.901755,440.33066 C208.637852,440.330642 208.373966,440.594454 207.582292,441.12206 C206.790636,441.913497 205.471192,442.968727 203.887737,442.44096 C202.304282,441.913193 201.776368,440.330177 201.512393,439.27484 C201.248436,438.483332 201.248401,437.955672 200.984498,437.955654 C200.720594,437.955636 200.456709,438.219448 199.665035,438.747055 C198.873379,439.538491 197.553934,440.593722 195.970479,440.065955 C194.387024,439.538187 193.859111,437.955172 193.595136,436.899834 C193.331179,436.108326 193.331143,435.580666 193.06724,435.580648 C192.803337,435.58063 192.539452,435.844442 192.011681,436.372067 C191.220025,437.163503 189.90058,438.218734 188.317125,437.690967 C186.73367,437.1632 186.205756,435.580184 185.941782,434.524846 C185.677825,433.733338 185.677789,433.205678 185.413886,433.20566 C185.149983,433.205642 184.886097,433.469455 184.094423,433.997061 C183.302767,434.788497 181.983323,435.843728 180.399868,435.315961 C178.552509,434.788176 178.288499,433.205178 178.024524,432.14984 C177.760567,431.358332 177.760532,430.830672 177.496629,430.830655 C177.232725,430.830637 176.96884,431.094449 176.177166,431.622055 C175.38551,432.413492 174.066065,433.468722 172.48261,432.940955 C170.635252,432.41317 170.371242,430.830172 170.107267,429.774835 C169.84331,428.983327 169.843274,428.455667 169.579371,428.455649 C169.315468,428.455631 169.051583,428.719443 168.259909,429.24705 C167.468253,430.038486 166.148808,431.093717 164.565353,430.56595 C162.717995,430.038165 162.453984,428.455167 162.190009,427.399829 C161.926053,426.608321 161.926017,426.080661 161.662114,426.080643 C161.398211,426.080625 161.134325,426.344438 160.342651,426.872044 C159.550995,427.66348 158.23155,428.718711 156.648095,428.190944 C154.800737,427.663159 154.536727,426.080161 154.272752,425.024823 C154.008795,424.233315 154.00876,423.705655 153.744856,423.705638 C153.480953,423.70562 153.217068,423.969432 152.425394,424.497038 C151.633738,425.288475 150.314293,426.343705 148.730838,425.815938 C147.147383,425.288171 146.619469,423.705155 146.355495,422.649818 C146.091538,421.85831 146.091502,421.33065 145.827599,421.330632 C145.563696,421.330614 145.29981,421.594426 144.508136,422.122033 C143.71648,422.913469 142.397036,423.9687 140.813581,423.440933 C138.966222,422.913148 138.702212,421.33015 138.438237,420.274812 C138.17428,419.483304 138.174245,418.955644 137.910342,418.955626 L138.701873,416.31738 C140.549231,416.845165 140.813241,418.428163 141.077216,419.4835 C141.341173,420.275008 141.341208,420.802668 141.605112,420.802686 C141.869015,420.802704 142.1329,420.538892 142.924574,420.011285 C143.71623,419.219849 145.035675,418.164618 146.61913,418.692385 C148.466488,419.22017 148.730499,420.803168 148.994473,421.858506 C149.25843,422.650014 149.258466,423.177674 149.522369,423.177692 C149.786272,423.17771 150.050158,422.913898 150.841832,422.386291 C151.633488,421.594855 152.952932,420.539624 154.536387,421.067391 C156.383746,421.595176 156.647756,423.178174 156.911731,424.233512 C157.175688,425.02502 157.175723,425.55268 157.439626,425.552698 C157.70353,425.552715 157.967415,425.288903 158.759089,424.761297 C159.550745,423.96986 160.87019,422.91463 162.453645,423.442397 C164.301003,423.970182 164.565013,425.55318 164.828988,426.608518 C165.092945,427.400025 165.092981,427.927685 165.356884,427.927703 C165.620787,427.927721 165.884672,427.663909 166.676346,427.136303 C167.468003,426.344866 168.787447,425.289635 170.370902,425.817403 C172.218261,426.345188 172.482271,427.928185 172.746246,428.983523 C173.010202,429.775031 173.010238,430.302691 173.274141,430.302709 C173.538044,430.302727 173.80193,430.038915 174.593604,429.511308 C175.38526,428.719872 176.704705,427.664641 178.28816,428.192408 C180.135518,428.720193 180.399528,430.303191 180.663503,431.358529 C180.92746,432.150037 180.927495,432.677697 181.191399,432.677715 C181.455302,432.677732 181.719187,432.41392 182.510861,431.886314 C183.302517,431.094877 184.621962,430.039647 186.205417,430.567414 C188.052775,431.095199 188.316786,432.678197 188.58076,433.733535 C188.844717,434.525042 188.844753,435.052702 189.108656,435.05272 C189.372559,435.052738 189.636445,434.788926 190.164215,434.261302 C190.955871,433.469865 192.275316,432.414635 193.858771,432.942402 C195.442226,433.470169 195.97014,435.053185 196.234115,436.108522 C196.498071,436.90003 196.498107,437.42769 196.76201,437.427708 C197.025913,437.427726 197.289799,437.163914 198.081473,436.636307 C198.873129,435.844871 200.192574,434.78964 201.776029,435.317407 C203.359484,435.845175 203.887397,437.42819 204.151372,438.483528 C204.415329,439.275036 204.415364,439.802696 204.679268,439.802714 C204.943171,439.802732 205.207056,439.53892 205.99873,439.011313 C206.790386,438.219877 208.109831,437.164646 209.693286,437.692413 C211.540644,438.220198 211.804655,439.803196 212.068629,440.858534 C212.332586,441.650042 212.332622,442.177702 212.596525,442.17772 C212.860428,442.177737 213.124314,441.913925 213.915988,441.386319 C214.707644,440.594882 216.027088,439.539652 217.610543,440.067419 C219.457902,440.595204 219.721912,442.178202 219.985887,443.23354 C220.249844,444.025047 220.249879,444.552707 220.513782,444.552725 C220.777686,444.552743 221.041571,444.288931 221.833245,443.761324 C222.624901,442.969888 223.944346,441.914657 225.527801,442.442425 C227.375159,442.97021 227.639169,444.553207 227.903144,445.608545 C228.167101,446.400053 228.167137,446.927713 228.43104,446.927731 C228.694943,446.927749 228.958828,446.663937 229.750502,446.13633 C230.542159,445.344894 231.861603,444.289663 233.445058,444.81743 C235.292417,445.345215 235.556427,446.928213 235.820402,447.983551 C236.084358,448.775059 236.084394,449.302719 236.348297,449.302737 C236.612201,449.302754 236.876086,449.038942 237.66776,448.511336 C238.459416,447.719899 239.778861,446.664669 241.362316,447.192436 C243.209674,447.720221 243.473684,449.303219 243.737659,450.358557 C244.001616,451.150064 244.001651,451.677724 244.265555,451.677742 C244.529458,451.67776 244.793343,451.413948 245.585017,450.886342 C246.376673,450.094905 247.696118,449.039674 249.279573,449.567442 C250.863028,450.095209 251.390942,451.678224 251.654916,452.733562 C251.918873,453.52507 251.918909,454.05273 252.182812,454.052748 C252.446715,454.052766 252.710601,453.788954 253.502275,453.261347 C254.293931,452.469911 255.613375,451.41468 257.19683,451.942447 C259.044189,452.470232 259.308199,454.05323 259.572174,455.108568 C259.836131,455.900076 259.836166,456.427736 260.100069,456.427754 C260.363973,456.427772 260.627858,456.163959 261.419532,455.636353 C262.211188,454.844917 263.530633,453.789686 265.114088,454.317453 C266.961446,454.845238 267.225457,456.428236 267.489431,457.483574 C267.753388,458.275081 267.753424,458.802741 268.017327,458.802759 C268.28123,458.802777 268.545115,458.538965 269.336789,458.011359 C270.128446,457.219922 271.44789,456.164692 273.031345,456.692459 L272.239814,459.330705 C271.975911,459.330687 271.712026,459.594499 270.920352,460.122106 C270.128678,460.649712 269.337022,461.441059 268.017505,461.441059 Z" id="Shape_466_" fill="#F5B7B1" transform="translate(205.470843, 438.879220) rotate(-13.000000) translate(-205.470843, -438.879220) "></path>
                <path d="M235.601047,455.826877 L225.044811,454.243182 C225.044704,452.660202 220.812109,302.804479 214.47611,268.506151 C212.100053,254.78683 208.404336,238.95678 204.972559,223.654408 C201.276824,207.560528 197.845047,192.258157 195.996938,180.649512 C194.676886,172.734523 194.147741,152.947237 193.882284,129.99401 C193.617327,114.428022 193.088342,97.0152064 192.559482,81.4492009 C191.23793,51.372492 187.277578,24.7253945 187.013657,24.4615467 L197.042015,24.9898852 C197.30599,26.0452231 201.266181,50.3178506 202.587769,80.9222195 C203.380532,96.4882429 203.645632,114.16487 203.910588,129.730858 C204.439859,151.364954 204.705138,171.679881 206.025136,178.80338 C207.873244,190.412025 211.305004,205.450567 215.00072,221.280617 C218.432516,236.846819 222.128232,252.676869 224.50429,266.396189 C231.368167,301.749873 235.601047,449.758787 235.601047,455.826877 Z" id="Shape_418_" fill="#F5B7B1" transform="translate(211.307352, 240.144212) rotate(-13.000000) translate(-211.307352, -240.144212) "></path>
                <path d="M91.3608923,445.197906 L81.5962409,441.767456 C81.8601263,441.503644 102.70607,405.888005 82.3775932,288.746111 C79.7375431,273.707623 77.6251923,257.08619 75.5128772,240.992418 C73.6646082,227.009303 71.8163928,213.817678 70.2322592,203.264371 C68.1202298,191.391878 62.3109481,140.999956 60.4609648,101.689162 C59.1394129,71.6124528 55.7070639,47.867521 55.4431428,47.6036731 L65.7354042,48.1320296 C65.9993788,49.1873674 69.4315672,70.5578293 70.7531726,101.426028 C72.3391099,138.626165 78.1484094,189.281917 80.2604745,201.68207 C82.1085292,212.499224 83.9567446,225.690849 85.8050136,239.673964 C87.9173287,255.767737 90.0296617,272.125339 92.6696939,286.899998 C113.526334,409.318527 92.1525127,443.87881 91.3608923,445.197906 Z" id="Shape_417_" fill="#F5B7B1" transform="translate(78.611292, 246.400790) rotate(-13.000000) translate(-78.611292, -246.400790) "></path>
                <ellipse id="Shape_416_" fill="#F5B7B1" transform="translate(152.108565, 245.025423) rotate(-22.677078) translate(-152.108565, -245.025423) " cx="152.108565" cy="245.025423" rx="68.0869878" ry="79.9452773"></ellipse>
                <path d="M194.142347,182.212659 C194.142347,182.212659 192.031621,189.599756 184.114881,194.87582 C176.198142,200.151884 171.711662,198.304771 172.239736,202.262256 C172.767793,205.955912 192.561606,221.787051 199.160062,234.715167 C205.758517,247.643284 210.24614,266.375517 210.510132,267.694685 C210.774125,269.013853 217.635912,273.499427 218.955143,269.278236 C220.538276,265.057063 217.369527,236.827039 212.617929,217.039468 C207.866332,197.251897 194.142347,182.212659 194.142347,182.212659 Z" id="Shape_414_" fill="url(#linearGradient-2)" transform="translate(195.782269, 226.630174) rotate(-13.000000) translate(-195.782269, -226.630174) "></path>
                <ellipse id="Shape_410_" fill="#FADBD8" transform="translate(99.981639, 110.907648) rotate(-22.677078) translate(-99.981639, -110.907648) " cx="99.9816388" cy="110.907648" rx="19.528826" ry="22.9545846"></ellipse>
                <path d="M44.5778962,134.613017 C44.5778962,134.613017 44.0491254,120.365804 43.7845793,110.867906 C43.5200511,101.633838 41.4076467,84.2209159 41.4076467,84.2209159 L46.6856754,83.693613 C46.685729,84.485103 48.7980977,101.370366 49.0626438,110.868263 C49.3271899,120.366161 49.8559606,134.613017 49.8559606,134.613017 L44.5778962,134.613017 Z" id="Shape_468_" fill="#F5B7B1" transform="translate(45.631804, 109.153315) rotate(-13.000000) translate(-45.631804, -109.153315) "></path>
                <polygon id="Shape_472_" fill="#F5B7B1" transform="translate(33.214418, 71.955793) rotate(-20.805165) translate(-33.214418, -71.955793) " points="30.5746495 63.2492422 35.8524012 63.2497832 35.8541865 80.6623435 30.5764348 80.6618025"></polygon>
                <polygon id="Shape_473_" fill="#F5B7B1" transform="translate(41.398389, 73.198470) rotate(-20.741168) translate(-41.398389, -73.198470) " points="38.7585184 64.7553315 44.0365319 64.7558712 44.0382588 81.6416082 38.7602453 81.6410685"></polygon>
                <path d="M146.619054,117.953233 C146.619054,117.953233 145.562584,105.289321 145.297431,86.8212039 C145.296163,68.0892741 140.016706,47.7740072 140.016706,47.5101772 L145.030778,46.1913666 C145.294735,46.9828744 150.574174,67.2981413 150.575496,86.821561 C150.576728,105.025831 151.897083,117.42593 151.897083,117.42593 L146.619054,117.953233 Z" id="Shape_474_" fill="#F5B7B1" transform="translate(145.956895, 82.072300) rotate(-13.000000) translate(-145.956895, -82.072300) "></path>
                <path d="M142.477146,118.134145 L137.199082,118.134145 C137.199064,117.869957 137.461753,99.9295356 136.669097,85.9464922 C135.876441,71.9634488 131.652489,49.8014434 131.652489,49.8014434 L136.930482,48.7464806 C137.194439,49.5379884 141.418373,71.4361638 142.211047,85.6830372 C142.7398,99.6660627 142.477128,117.870315 142.477146,118.134145 Z" id="Shape_475_" fill="#F5B7B1" transform="translate(137.097432, 83.440313) rotate(-13.000000) translate(-137.097432, -83.440313) "></path>
                <path d="M253.821873,434.79882 L248.543791,434.534633 C248.543791,434.534633 249.071008,425.828279 248.014359,410.526068 C246.957711,395.223857 246.956978,384.406827 247.220399,377.283435 C247.220114,373.062155 247.219917,370.160025 246.955889,368.313197 L252.2339,367.522064 C252.497946,369.632722 252.49816,372.798682 252.498464,377.283792 C252.498946,384.407202 252.235757,394.960384 253.292388,409.998765 C254.085151,425.564788 253.821837,434.27116 253.821873,434.79882 Z" id="Shape_465_" fill="#F5B7B1" transform="translate(250.409842, 401.160442) rotate(-13.000000) translate(-250.409842, -401.160442) "></path>
                <path d="M138.247913,429.676858 L133.233627,427.829708 C133.233627,427.565878 140.093914,410.153563 140.620256,388.519539 C141.147188,375.591905 140.354174,356.332261 140.354157,356.068431 L145.632203,355.804959 C145.632221,356.068789 146.425234,375.328432 145.898321,388.519896 C145.37205,411.20924 138.511763,428.885385 138.247913,429.676858 Z" id="Shape_29_" fill="#F5B7B1" transform="translate(139.656331, 392.740908) rotate(-13.000000) translate(-139.656331, -392.740908) "></path>
                <path d="M94.5427359,267.940952 L247.343434,278.768321 C247.343434,278.768321 249.719599,294.070622 251.8322,314.385674 C253.680737,332.326239 253.945765,348.947547 254.2099,352.377355 C255.00211,359.764648 254.738885,369.79017 254.738885,369.79017 L102.200322,332.843649 C102.200322,332.843649 99.8236933,310.681769 98.5033379,298.281669 C97.4470821,288.783718 94.5427359,267.940952 94.5427359,267.940952 Z" id="Shape_402_" fill="#FDEDEC" transform="translate(174.661788, 318.865561) rotate(-13.000000) translate(-174.661788, -318.865561) "></path>
                <path d="M243.135654,251.415222 L275.858743,237.962106 C275.858743,237.962106 282.721816,261.44344 284.833899,274.107423 C289.586032,301.809894 289.587925,329.775873 289.587925,329.775873 L251.059322,348.505196 C251.059322,348.505196 247.096845,290.462329 245.776615,279.90904 C244.720019,265.398319 243.135654,251.415222 243.135654,251.415222 Z" id="Shape_401_" fill="url(#linearGradient-3)" transform="translate(266.361789, 293.233651) rotate(-13.000000) translate(-266.361789, -293.233651) "></path>
                <polygon id="Shape_400_" fill="#FFFF99" transform="translate(159.386045, 272.164142) rotate(-13.000000) translate(-159.386045, -272.164142) " points="236.974548 286.284297 83.6457933 271.763272 81.7975422 258.043987 235.654103 272.565048"></polygon>
                <polygon id="Shape_399_" fill="#FFFF99" transform="translate(187.016768, 351.348924) rotate(-13.000000) translate(-187.016768, -351.348924) " points="262.626898 372.064749 111.672415 344.880044 109.824129 330.6331 264.209407 358.609526"></polygon>
                <polygon id="Shape_398_" fill="#F4C83B" transform="translate(252.027004, 252.272032) rotate(-13.000000) translate(-252.027004, -252.272032) " points="234.874179 264.934782 233.817637 251.215551 267.068657 239.609281 270.236371 252.537165"></polygon>
                <polygon id="Shape_397_" fill="#F4C83B" transform="translate(280.934573, 336.983710) rotate(-13.000000) translate(-280.934573, -336.983710) " points="261.802535 350.56966 260.745976 336.586599 300.066663 323.39776 301.123169 336.589331"></polygon>
            </g>
            <g id="Group_74_-Copy-3" filter="url(#filter-4)" transform="translate(318.731496, 295.500000) rotate(-138.000000) translate(-318.731496, -295.500000) translate(153.231496, 47.000000)">
                <path d="M51.1160229,28.4488959 L203.652604,36.1102875 C203.652604,36.1102875 211.044323,71.991667 212.365321,93.889646 C213.686319,115.787625 209.465546,140.587359 217.913717,188.86882 C224.24993,226.333108 249.327326,323.688073 251.97018,380.147871 C254.613033,436.607669 242.212493,479.611119 242.212493,479.611119 L75.1583239,428.944456 C75.1583239,428.944456 94.1567666,390.690392 88.3476635,342.93677 C76.9934319,248.484863 68.0166866,188.858677 64.5838375,157.726505 C58.7744844,106.279263 57.713925,33.1982823 51.1160229,28.4488959 Z" id="Shape_423_" fill="#FDEDEC" transform="translate(151.727854, 254.030007) rotate(-13.000000) translate(-151.727854, -254.030007) "></path>
                <path d="M204.832052,16.4542468 C204.832052,16.4542468 209.318246,14.0800804 210.373805,13.2886618 C212.748809,11.4420126 214.860071,11.9698154 216.971279,11.7061283 C219.082487,11.4424412 219.082344,9.3318012 219.082344,9.3318012 L226.207463,5.3748334 L239.138578,3.26506845 C239.138578,3.26506845 242.048978,113.546203 243.898586,147.316568 C245.748194,181.086932 254.7231,213.538629 267.393919,264.722506 C280.064739,315.906382 276.641765,430.672198 278.753562,439.114901 C281.129262,447.557622 279.545879,448.085175 279.545879,448.085175 C279.545879,448.085175 279.017983,446.765989 273.73999,447.820952 C268.461997,448.875915 265.559026,448.348058 258.961767,453.096552 C252.364507,457.845045 239.697296,459.954828 239.697296,459.954828 C239.697296,459.954828 239.420821,274.218493 221.471759,220.395959 C203.522714,166.837255 207.212592,96.3948964 205.099491,68.6926039 C202.986408,41.2541415 200.081794,16.4539254 200.081794,16.4539254 C200.081794,16.4539254 203.776475,16.9818354 204.832052,16.4542468 Z" id="Shape_422_" fill="url(#linearGradient-1)" transform="translate(240.072290, 231.609948) rotate(-13.000000) translate(-240.072290, -231.609948) "></path>
                <path d="M144.867547,54.7223789 C144.603643,54.7223789 144.603643,54.7223789 144.867547,54.7223789 C143.020224,54.7223789 142.228407,53.1392204 141.700529,52.0838647 C141.43659,51.5561868 141.172652,51.028509 140.908748,51.0284911 L140.908748,51.0284911 C140.644845,51.0284732 140.380978,51.5561154 140.11711,52.0837575 C139.589357,52.8752118 138.533851,54.4581203 136.950414,54.1941832 C135.103092,54.1940582 134.311275,52.6110246 134.0473,51.5556868 C133.783361,51.0280089 133.519422,50.5003311 133.255519,50.5003132 C132.991616,50.5002954 132.727748,51.0279375 132.199978,51.5555618 C131.672225,52.3470161 130.616719,53.9299246 129.033282,53.6659875 C127.185959,53.6658625 126.394142,52.0828289 126.130168,51.0274911 C125.866229,50.4998132 125.60229,49.9721354 125.338387,49.9721175 C125.074483,49.9720997 124.810616,50.4997418 124.282845,51.0273661 C123.755092,51.8188204 122.699587,53.4017289 121.116149,53.1377918 C119.268827,53.1376668 118.47701,51.5546332 118.213035,50.4992954 C117.949096,49.9716175 117.685158,49.4439397 117.421254,49.4439218 L117.421254,49.4439218 C117.157351,49.443904 116.893484,49.9715461 116.629616,50.4991882 C116.101863,51.2906425 115.046357,52.873551 113.46292,52.6096139 C111.615598,52.6094889 110.823781,51.0264553 110.559806,49.9711175 C110.295867,49.4434397 110.031928,48.9157618 109.768025,48.9157439 C109.504122,48.9157261 109.240254,49.4433682 108.712484,49.9709925 C108.184731,50.7624468 107.129225,52.3453553 105.545788,52.0814182 C103.698465,52.0812932 102.906648,50.4982596 102.642674,49.4429218 C102.378735,48.9152439 102.114796,48.3875661 101.850893,48.3875482 C101.58699,48.3875304 101.323122,48.9151725 100.795351,49.4427968 C100.267598,50.2342511 99.2120926,51.8171596 97.6286554,51.5532225 C95.7813329,51.5530975 94.9895161,49.9700639 94.7255414,48.9147261 C94.4616025,48.3870482 94.1976635,47.8593704 93.9337603,47.8593525 C93.6698571,47.8593347 93.4059896,48.3869768 92.8782189,48.9146011 C92.350466,49.7060553 91.2949602,51.2889639 89.711523,51.0250268 C87.8642005,51.0249017 87.0723837,49.4418682 86.808409,48.3865304 C86.5444701,47.8588525 86.2805311,47.3311747 86.0166279,47.3311568 C85.7527247,47.3311389 85.4888572,47.8587811 84.9610865,48.3864054 C84.4333336,49.1778596 83.37781,50.4969382 81.7943906,50.496831 C79.9470681,50.496706 79.1552513,48.9136725 78.8912766,47.8583346 C78.6273377,47.3306568 78.3633987,46.8029789 78.0994955,46.8029611 C77.8355923,46.8029432 77.5717248,47.3305854 77.0439541,47.8582096 C76.5162012,48.6496639 75.4606954,50.2325725 73.8772582,49.9686353 C72.0299357,49.9685103 71.2381189,48.3854768 70.9741442,47.3301389 C70.7102053,46.8024611 70.4462663,46.2747832 70.1823631,46.2747654 L70.1823631,46.2747654 C69.9184599,46.2747475 69.6545924,46.8023896 69.3907249,47.3300318 C68.862972,48.1214861 67.8074663,49.7043946 66.2240291,49.4404575 C64.3767065,49.4403325 63.5848897,47.8572989 63.320915,46.8019611 C63.0569761,46.2742832 62.7930372,45.7466054 62.5291339,45.7465875 L62.5291339,45.7465875 C62.2652307,45.7465696 62.0013632,46.2742118 61.7374957,46.8018539 C61.2097428,47.5933082 60.1542371,49.1762167 58.5707999,48.9122796 C56.7234773,48.9121546 55.9316605,47.329121 55.6676859,46.2737832 C55.4037469,45.7461054 55.139808,45.2184275 54.8759048,45.2184096 C54.6120015,45.2183918 54.348134,45.7460339 53.8203633,46.2736582 C53.2926104,47.0651125 52.2371047,48.648021 50.6536675,48.3840839 C48.8063449,48.3839589 48.0145281,46.8009253 47.7505535,45.7455875 C47.4866145,45.2179096 47.2226756,44.6902318 46.9587724,44.6902139 C46.9587724,44.6902139 46.9587724,44.6902139 46.9587724,44.6902139 C46.6948691,44.6901961 46.4310016,45.2178382 46.1671341,45.7454803 C45.6393812,46.5369346 44.5838755,48.1198432 43.0004383,47.855906 C41.1531157,47.855781 40.3612989,46.2727475 40.0973243,45.2174096 C39.8333853,44.6897318 39.5694464,44.1620539 39.3055432,44.1620361 C39.04164,44.1620182 38.7777724,44.6896603 38.2500017,45.2172846 C37.7222488,46.0087389 36.6667431,47.5916474 35.0833059,47.3277103 C33.2359833,47.3275853 32.4441665,45.7445518 32.1801919,44.6892139 C31.9162529,44.1615361 31.652314,43.6338582 31.3884108,43.6338404 C31.1245076,43.6338225 30.86064,44.1614646 30.3328693,44.6890889 C29.8051164,45.4805432 28.7496107,47.0634517 27.1661735,46.7995146 C25.3188509,46.7993896 24.5270341,45.216356 24.2630595,44.1610182 C23.9991205,43.6333403 23.7351816,43.1056625 23.4712784,43.1056446 C23.2073752,43.1056268 22.9435076,43.6332689 22.6796401,44.160911 C22.1518873,44.9523653 21.0963815,46.5352739 19.5129443,46.2713367 C17.6656218,46.2712117 16.8738049,44.6881782 16.6098303,43.6328403 C16.3458914,43.1051625 16.0819524,42.5774846 15.8178885,42.5774668 L15.8178885,40.2029968 C17.665211,40.2029968 18.45701,41.5223254 18.9848879,42.5776811 C19.2488268,43.1053589 19.5127657,43.6330368 19.776669,43.6330546 C20.0405722,43.6330725 20.3044397,43.1054303 20.8322104,42.5778061 C21.3599633,41.7863518 22.4154691,40.2034432 23.9989062,40.4673804 C25.8462288,40.4675054 26.6380456,42.0505389 26.9020203,43.1058768 C27.1659592,43.6335546 27.4298981,44.1612325 27.6938014,44.1612503 C27.9577046,44.1612682 28.2215721,43.6336261 28.7493428,43.1060018 C29.2770957,42.3145475 30.3326015,40.731639 31.9160386,40.9955761 C33.7633612,40.9957011 34.555178,42.5787347 34.8191527,43.6340725 C35.0830916,44.1617503 35.3470306,44.6894282 35.6109338,44.6894461 C35.874837,44.6894639 36.1387045,44.1618218 36.6664752,43.6341975 C37.1942281,42.8427432 38.2497339,41.2598347 39.833171,41.5237718 C41.6804936,41.5238968 42.4723104,43.1069304 42.7362851,44.1622682 C43.000224,44.6899461 43.264163,45.2176239 43.5280662,45.2176418 C43.7919694,45.2176596 44.0558369,44.6900175 44.5836076,44.1623932 C45.1113605,43.3709389 46.1668663,41.7880304 47.7503035,42.0519675 C49.597626,42.0520925 50.3894428,43.6351261 50.6534175,44.6904639 C50.9173564,45.2181418 51.1812954,45.7458196 51.4451986,45.7458375 C51.7091018,45.7458553 51.9729693,45.2182132 52.50074,44.6905889 C53.0284929,43.8991347 54.0839987,42.3162261 55.6674359,42.5801633 C57.5147584,42.5802883 58.3065752,44.1633218 58.5705499,45.2186596 C58.8344888,45.7463375 59.0984278,46.2740153 59.362331,46.2740332 C59.6262342,46.2740511 59.8901017,45.7464089 60.4178724,45.2187847 C60.9456253,44.4273304 62.0011489,43.1082518 63.5845683,43.108359 C65.4318908,43.108484 66.2237076,44.6915175 66.4876823,45.7468554 C66.7516212,46.2745332 67.0155602,46.8022111 67.2794634,46.8022289 C67.5433666,46.8022468 67.8072341,46.2746046 68.0711016,45.7469625 C68.5988545,44.9555082 69.6543602,43.3725997 71.2377974,43.6365368 C73.08512,43.6366618 73.8769368,45.2196954 74.1409115,46.2750332 C74.4048504,46.8027111 74.6687893,47.3303889 74.9326926,47.3304068 C75.1965958,47.3304246 75.4604633,46.8027825 75.988234,46.2751582 C76.5159869,45.483704 77.5714926,43.9007954 79.1549298,44.1647325 C81.0022524,44.1648575 81.7940692,45.7478911 82.0580439,46.8032289 C82.3219828,47.3309068 82.5859217,47.8585846 82.849825,47.8586025 C83.1137282,47.8586204 83.3775957,47.3309782 83.6414632,46.8033361 C84.1692161,46.0118818 85.2247218,44.4289733 86.808159,44.6929104 C88.6554816,44.6930354 89.4472984,46.276069 89.711273,47.3314068 C89.975212,47.8590847 90.2391509,48.3867625 90.5030541,48.3867804 C90.5030541,48.3867804 91.0308249,47.8591561 91.5585956,47.3315318 C92.0863485,46.5400775 93.1418542,44.957169 94.7252914,45.2211061 C96.572614,45.2212311 97.3644308,46.8042647 97.6284054,47.8596025 C97.8923444,48.3872804 98.1562833,48.9149582 98.4201865,48.9149761 C98.6840898,48.9149939 98.9479573,48.3873518 99.475728,47.8597275 C100.003481,47.0682732 101.059004,45.7491947 102.642424,45.7493018 C104.489746,45.7494268 105.281563,47.3324604 105.545538,48.3877982 C105.809477,48.9154761 106.073416,49.4431539 106.337319,49.4431718 C106.601222,49.4431897 106.86509,48.9155475 107.39286,48.3879232 C107.920613,47.596469 108.976119,46.0135604 110.559556,46.2774976 C112.406879,46.2776226 113.198696,47.8606561 113.46267,48.915994 C113.726609,49.4436718 113.990548,49.9713497 114.254451,49.9713675 C114.518355,49.9713854 114.782222,49.4437432 115.309993,48.916119 C115.837746,48.1246647 116.893251,46.5417561 118.476689,46.8056933 C120.324011,46.8058183 121.115828,48.3888518 121.379803,49.4441897 C121.643742,49.9718675 121.907681,50.4995454 122.171584,50.4995632 C122.435487,50.4995811 122.699354,49.971939 123.227125,49.4443147 C123.754878,48.6528604 124.810384,47.0699518 126.393821,47.333889 C128.241144,47.334014 129.03296,48.9170475 129.296935,49.9723854 C129.560874,50.5000632 129.824813,51.0277411 130.088716,51.0277589 C130.352619,51.0277768 130.616487,50.5001347 131.144258,49.9725104 C131.67201,49.1810561 132.727516,47.5981476 134.310953,47.8620847 C136.158276,47.8622097 136.950093,49.4452433 137.214067,50.5005811 C137.478006,51.028259 137.741945,51.5559368 138.005849,51.5559547 C138.269752,51.5559725 138.533619,51.0283304 139.06139,50.5007061 C139.589143,49.7092518 140.644649,48.1263433 142.228086,48.3902804 C144.075408,48.3904054 144.867225,49.973439 145.1312,51.0287768 C145.395139,51.5564547 145.659078,52.0841325 145.922981,52.0841504 C146.186884,52.0841682 146.450752,51.5565261 146.978522,51.0289018 C147.506275,50.2374475 148.561781,48.654539 150.145218,48.9184761 L149.881494,51.5567582 C149.61759,51.5567404 149.353723,52.0843825 148.825952,52.6120068 C147.242586,53.4033896 146.450966,54.7223789 144.867547,54.7223789 Z" id="Shape_421_" fill="#F5B7B1" transform="translate(82.981553, 47.462688) rotate(-13.000000) translate(-82.981553, -47.462688) "></path>
                <path d="M0.144251098,35.6543012 C0.144251098,35.6543012 9.11669281,31.6974584 12.2834958,31.1700127 C15.4502987,30.642567 19.4086864,28.2683649 23.1033315,28.2686149 C26.7979766,28.2688649 28.645192,26.68601 33.3953786,25.6310114 C38.1455652,24.5760129 42.6318128,22.9933365 42.6318128,22.9933365 L189.098655,31.1819772 C189.098655,31.1819772 183.028952,32.2368865 178.278784,33.5557151 C173.26473,35.1383557 171.681525,38.3042086 170.098159,39.0955914 C167.195313,40.4145449 164.02842,39.6228407 160.070033,41.9970428 C156.111645,44.3712449 154.000455,44.8985835 151.361423,44.8985835 C148.722391,44.8985835 148.458398,43.579237 148.458398,43.579237 L0.144251098,35.6543012 Z" id="Shape_420_" fill="#FADBD8" transform="translate(94.621453, 33.945960) rotate(-13.000000) translate(-94.621453, -33.945960) "></path>
                <path d="M268.017505,461.441059 C267.753602,461.441059 267.489699,461.441059 267.225796,461.441059 C265.378438,460.913221 265.114427,459.330223 264.850453,458.274885 C264.586496,457.483377 264.58646,456.955717 264.322557,456.955699 C264.058654,456.955682 263.794768,457.219494 263.003094,457.7471 C262.211438,458.538536 260.891993,459.593767 259.308538,459.066 C257.46118,458.538215 257.19717,456.955217 256.933195,455.899879 C256.669238,455.108372 256.669203,454.580712 256.405299,454.580694 C256.141396,454.580676 255.877511,454.844488 255.085837,455.372094 C254.294181,456.163531 252.974736,457.218761 251.391281,456.690994 C249.543923,456.163209 249.279912,454.580212 249.015938,453.524874 C248.751981,452.733366 248.751945,452.205706 248.488042,452.205688 C248.224139,452.20567 247.960253,452.469482 247.168579,452.997089 C246.376923,453.788525 245.057479,454.843756 243.474024,454.315989 C241.626665,453.788204 241.362655,452.205206 241.09868,451.149868 C240.834724,450.35836 240.834688,449.8307 240.570785,449.830682 C240.306881,449.830664 240.042996,450.094477 239.251322,450.622083 C238.459666,451.413519 237.140221,452.46875 235.556766,451.940983 C233.709408,451.413198 233.445398,449.8302 233.181423,448.774862 C232.917466,447.983354 232.91743,447.455694 232.653527,447.455677 C232.389624,447.455659 232.125739,447.719471 231.334065,448.247077 C230.542409,449.038514 229.222964,450.093744 227.639509,449.565977 C225.792151,449.038192 225.52814,447.455194 225.264165,446.399857 C225.000209,445.608349 225.000173,445.080689 224.73627,445.080671 C224.472367,445.080653 224.208481,445.344465 223.416807,445.872072 C222.625151,446.663508 221.305706,447.718739 219.722251,447.190972 C217.874893,446.663187 217.610883,445.080189 217.346908,444.024851 C217.082951,443.233343 217.082916,442.705683 216.819012,442.705665 C216.555109,442.705647 216.291224,442.96946 215.49955,443.497066 C214.707894,444.288502 213.388449,445.343733 211.804994,444.815966 C209.957636,444.288181 209.693625,442.705183 209.429651,441.649845 C209.165694,440.858337 209.165658,440.330677 208.901755,440.33066 C208.637852,440.330642 208.373966,440.594454 207.582292,441.12206 C206.790636,441.913497 205.471192,442.968727 203.887737,442.44096 C202.304282,441.913193 201.776368,440.330177 201.512393,439.27484 C201.248436,438.483332 201.248401,437.955672 200.984498,437.955654 C200.720594,437.955636 200.456709,438.219448 199.665035,438.747055 C198.873379,439.538491 197.553934,440.593722 195.970479,440.065955 C194.387024,439.538187 193.859111,437.955172 193.595136,436.899834 C193.331179,436.108326 193.331143,435.580666 193.06724,435.580648 C192.803337,435.58063 192.539452,435.844442 192.011681,436.372067 C191.220025,437.163503 189.90058,438.218734 188.317125,437.690967 C186.73367,437.1632 186.205756,435.580184 185.941782,434.524846 C185.677825,433.733338 185.677789,433.205678 185.413886,433.20566 C185.149983,433.205642 184.886097,433.469455 184.094423,433.997061 C183.302767,434.788497 181.983323,435.843728 180.399868,435.315961 C178.552509,434.788176 178.288499,433.205178 178.024524,432.14984 C177.760567,431.358332 177.760532,430.830672 177.496629,430.830655 C177.232725,430.830637 176.96884,431.094449 176.177166,431.622055 C175.38551,432.413492 174.066065,433.468722 172.48261,432.940955 C170.635252,432.41317 170.371242,430.830172 170.107267,429.774835 C169.84331,428.983327 169.843274,428.455667 169.579371,428.455649 C169.315468,428.455631 169.051583,428.719443 168.259909,429.24705 C167.468253,430.038486 166.148808,431.093717 164.565353,430.56595 C162.717995,430.038165 162.453984,428.455167 162.190009,427.399829 C161.926053,426.608321 161.926017,426.080661 161.662114,426.080643 C161.398211,426.080625 161.134325,426.344438 160.342651,426.872044 C159.550995,427.66348 158.23155,428.718711 156.648095,428.190944 C154.800737,427.663159 154.536727,426.080161 154.272752,425.024823 C154.008795,424.233315 154.00876,423.705655 153.744856,423.705638 C153.480953,423.70562 153.217068,423.969432 152.425394,424.497038 C151.633738,425.288475 150.314293,426.343705 148.730838,425.815938 C147.147383,425.288171 146.619469,423.705155 146.355495,422.649818 C146.091538,421.85831 146.091502,421.33065 145.827599,421.330632 C145.563696,421.330614 145.29981,421.594426 144.508136,422.122033 C143.71648,422.913469 142.397036,423.9687 140.813581,423.440933 C138.966222,422.913148 138.702212,421.33015 138.438237,420.274812 C138.17428,419.483304 138.174245,418.955644 137.910342,418.955626 L138.701873,416.31738 C140.549231,416.845165 140.813241,418.428163 141.077216,419.4835 C141.341173,420.275008 141.341208,420.802668 141.605112,420.802686 C141.869015,420.802704 142.1329,420.538892 142.924574,420.011285 C143.71623,419.219849 145.035675,418.164618 146.61913,418.692385 C148.466488,419.22017 148.730499,420.803168 148.994473,421.858506 C149.25843,422.650014 149.258466,423.177674 149.522369,423.177692 C149.786272,423.17771 150.050158,422.913898 150.841832,422.386291 C151.633488,421.594855 152.952932,420.539624 154.536387,421.067391 C156.383746,421.595176 156.647756,423.178174 156.911731,424.233512 C157.175688,425.02502 157.175723,425.55268 157.439626,425.552698 C157.70353,425.552715 157.967415,425.288903 158.759089,424.761297 C159.550745,423.96986 160.87019,422.91463 162.453645,423.442397 C164.301003,423.970182 164.565013,425.55318 164.828988,426.608518 C165.092945,427.400025 165.092981,427.927685 165.356884,427.927703 C165.620787,427.927721 165.884672,427.663909 166.676346,427.136303 C167.468003,426.344866 168.787447,425.289635 170.370902,425.817403 C172.218261,426.345188 172.482271,427.928185 172.746246,428.983523 C173.010202,429.775031 173.010238,430.302691 173.274141,430.302709 C173.538044,430.302727 173.80193,430.038915 174.593604,429.511308 C175.38526,428.719872 176.704705,427.664641 178.28816,428.192408 C180.135518,428.720193 180.399528,430.303191 180.663503,431.358529 C180.92746,432.150037 180.927495,432.677697 181.191399,432.677715 C181.455302,432.677732 181.719187,432.41392 182.510861,431.886314 C183.302517,431.094877 184.621962,430.039647 186.205417,430.567414 C188.052775,431.095199 188.316786,432.678197 188.58076,433.733535 C188.844717,434.525042 188.844753,435.052702 189.108656,435.05272 C189.372559,435.052738 189.636445,434.788926 190.164215,434.261302 C190.955871,433.469865 192.275316,432.414635 193.858771,432.942402 C195.442226,433.470169 195.97014,435.053185 196.234115,436.108522 C196.498071,436.90003 196.498107,437.42769 196.76201,437.427708 C197.025913,437.427726 197.289799,437.163914 198.081473,436.636307 C198.873129,435.844871 200.192574,434.78964 201.776029,435.317407 C203.359484,435.845175 203.887397,437.42819 204.151372,438.483528 C204.415329,439.275036 204.415364,439.802696 204.679268,439.802714 C204.943171,439.802732 205.207056,439.53892 205.99873,439.011313 C206.790386,438.219877 208.109831,437.164646 209.693286,437.692413 C211.540644,438.220198 211.804655,439.803196 212.068629,440.858534 C212.332586,441.650042 212.332622,442.177702 212.596525,442.17772 C212.860428,442.177737 213.124314,441.913925 213.915988,441.386319 C214.707644,440.594882 216.027088,439.539652 217.610543,440.067419 C219.457902,440.595204 219.721912,442.178202 219.985887,443.23354 C220.249844,444.025047 220.249879,444.552707 220.513782,444.552725 C220.777686,444.552743 221.041571,444.288931 221.833245,443.761324 C222.624901,442.969888 223.944346,441.914657 225.527801,442.442425 C227.375159,442.97021 227.639169,444.553207 227.903144,445.608545 C228.167101,446.400053 228.167137,446.927713 228.43104,446.927731 C228.694943,446.927749 228.958828,446.663937 229.750502,446.13633 C230.542159,445.344894 231.861603,444.289663 233.445058,444.81743 C235.292417,445.345215 235.556427,446.928213 235.820402,447.983551 C236.084358,448.775059 236.084394,449.302719 236.348297,449.302737 C236.612201,449.302754 236.876086,449.038942 237.66776,448.511336 C238.459416,447.719899 239.778861,446.664669 241.362316,447.192436 C243.209674,447.720221 243.473684,449.303219 243.737659,450.358557 C244.001616,451.150064 244.001651,451.677724 244.265555,451.677742 C244.529458,451.67776 244.793343,451.413948 245.585017,450.886342 C246.376673,450.094905 247.696118,449.039674 249.279573,449.567442 C250.863028,450.095209 251.390942,451.678224 251.654916,452.733562 C251.918873,453.52507 251.918909,454.05273 252.182812,454.052748 C252.446715,454.052766 252.710601,453.788954 253.502275,453.261347 C254.293931,452.469911 255.613375,451.41468 257.19683,451.942447 C259.044189,452.470232 259.308199,454.05323 259.572174,455.108568 C259.836131,455.900076 259.836166,456.427736 260.100069,456.427754 C260.363973,456.427772 260.627858,456.163959 261.419532,455.636353 C262.211188,454.844917 263.530633,453.789686 265.114088,454.317453 C266.961446,454.845238 267.225457,456.428236 267.489431,457.483574 C267.753388,458.275081 267.753424,458.802741 268.017327,458.802759 C268.28123,458.802777 268.545115,458.538965 269.336789,458.011359 C270.128446,457.219922 271.44789,456.164692 273.031345,456.692459 L272.239814,459.330705 C271.975911,459.330687 271.712026,459.594499 270.920352,460.122106 C270.128678,460.649712 269.337022,461.441059 268.017505,461.441059 Z" id="Shape_466_" fill="#F5B7B1" transform="translate(205.470843, 438.879220) rotate(-13.000000) translate(-205.470843, -438.879220) "></path>
                <path d="M235.601047,455.826877 L225.044811,454.243182 C225.044704,452.660202 220.812109,302.804479 214.47611,268.506151 C212.100053,254.78683 208.404336,238.95678 204.972559,223.654408 C201.276824,207.560528 197.845047,192.258157 195.996938,180.649512 C194.676886,172.734523 194.147741,152.947237 193.882284,129.99401 C193.617327,114.428022 193.088342,97.0152064 192.559482,81.4492009 C191.23793,51.372492 187.277578,24.7253945 187.013657,24.4615467 L197.042015,24.9898852 C197.30599,26.0452231 201.266181,50.3178506 202.587769,80.9222195 C203.380532,96.4882429 203.645632,114.16487 203.910588,129.730858 C204.439859,151.364954 204.705138,171.679881 206.025136,178.80338 C207.873244,190.412025 211.305004,205.450567 215.00072,221.280617 C218.432516,236.846819 222.128232,252.676869 224.50429,266.396189 C231.368167,301.749873 235.601047,449.758787 235.601047,455.826877 Z" id="Shape_418_" fill="#F5B7B1" transform="translate(211.307352, 240.144212) rotate(-13.000000) translate(-211.307352, -240.144212) "></path>
                <path d="M91.3608923,445.197906 L81.5962409,441.767456 C81.8601263,441.503644 102.70607,405.888005 82.3775932,288.746111 C79.7375431,273.707623 77.6251923,257.08619 75.5128772,240.992418 C73.6646082,227.009303 71.8163928,213.817678 70.2322592,203.264371 C68.1202298,191.391878 62.3109481,140.999956 60.4609648,101.689162 C59.1394129,71.6124528 55.7070639,47.867521 55.4431428,47.6036731 L65.7354042,48.1320296 C65.9993788,49.1873674 69.4315672,70.5578293 70.7531726,101.426028 C72.3391099,138.626165 78.1484094,189.281917 80.2604745,201.68207 C82.1085292,212.499224 83.9567446,225.690849 85.8050136,239.673964 C87.9173287,255.767737 90.0296617,272.125339 92.6696939,286.899998 C113.526334,409.318527 92.1525127,443.87881 91.3608923,445.197906 Z" id="Shape_417_" fill="#F5B7B1" transform="translate(78.611292, 246.400790) rotate(-13.000000) translate(-78.611292, -246.400790) "></path>
                <ellipse id="Shape_416_" fill="#F5B7B1" transform="translate(152.108565, 245.025423) rotate(-22.677078) translate(-152.108565, -245.025423) " cx="152.108565" cy="245.025423" rx="68.0869878" ry="79.9452773"></ellipse>
                <path d="M194.142347,182.212659 C194.142347,182.212659 192.031621,189.599756 184.114881,194.87582 C176.198142,200.151884 171.711662,198.304771 172.239736,202.262256 C172.767793,205.955912 192.561606,221.787051 199.160062,234.715167 C205.758517,247.643284 210.24614,266.375517 210.510132,267.694685 C210.774125,269.013853 217.635912,273.499427 218.955143,269.278236 C220.538276,265.057063 217.369527,236.827039 212.617929,217.039468 C207.866332,197.251897 194.142347,182.212659 194.142347,182.212659 Z" id="Shape_414_" fill="url(#linearGradient-2)" transform="translate(195.782269, 226.630174) rotate(-13.000000) translate(-195.782269, -226.630174) "></path>
                <ellipse id="Shape_410_" fill="#FADBD8" transform="translate(99.981639, 110.907648) rotate(-22.677078) translate(-99.981639, -110.907648) " cx="99.9816388" cy="110.907648" rx="19.528826" ry="22.9545846"></ellipse>
                <path d="M44.5778962,134.613017 C44.5778962,134.613017 44.0491254,120.365804 43.7845793,110.867906 C43.5200511,101.633838 41.4076467,84.2209159 41.4076467,84.2209159 L46.6856754,83.693613 C46.685729,84.485103 48.7980977,101.370366 49.0626438,110.868263 C49.3271899,120.366161 49.8559606,134.613017 49.8559606,134.613017 L44.5778962,134.613017 Z" id="Shape_468_" fill="#F5B7B1" transform="translate(45.631804, 109.153315) rotate(-13.000000) translate(-45.631804, -109.153315) "></path>
                <polygon id="Shape_472_" fill="#F5B7B1" transform="translate(33.214418, 71.955793) rotate(-20.805165) translate(-33.214418, -71.955793) " points="30.5746495 63.2492422 35.8524012 63.2497832 35.8541865 80.6623435 30.5764348 80.6618025"></polygon>
                <polygon id="Shape_473_" fill="#F5B7B1" transform="translate(41.398389, 73.198470) rotate(-20.741168) translate(-41.398389, -73.198470) " points="38.7585184 64.7553315 44.0365319 64.7558712 44.0382588 81.6416082 38.7602453 81.6410685"></polygon>
                <path d="M146.619054,117.953233 C146.619054,117.953233 145.562584,105.289321 145.297431,86.8212039 C145.296163,68.0892741 140.016706,47.7740072 140.016706,47.5101772 L145.030778,46.1913666 C145.294735,46.9828744 150.574174,67.2981413 150.575496,86.821561 C150.576728,105.025831 151.897083,117.42593 151.897083,117.42593 L146.619054,117.953233 Z" id="Shape_474_" fill="#F5B7B1" transform="translate(145.956895, 82.072300) rotate(-13.000000) translate(-145.956895, -82.072300) "></path>
                <path d="M142.477146,118.134145 L137.199082,118.134145 C137.199064,117.869957 137.461753,99.9295356 136.669097,85.9464922 C135.876441,71.9634488 131.652489,49.8014434 131.652489,49.8014434 L136.930482,48.7464806 C137.194439,49.5379884 141.418373,71.4361638 142.211047,85.6830372 C142.7398,99.6660627 142.477128,117.870315 142.477146,118.134145 Z" id="Shape_475_" fill="#F5B7B1" transform="translate(137.097432, 83.440313) rotate(-13.000000) translate(-137.097432, -83.440313) "></path>
                <path d="M253.821873,434.79882 L248.543791,434.534633 C248.543791,434.534633 249.071008,425.828279 248.014359,410.526068 C246.957711,395.223857 246.956978,384.406827 247.220399,377.283435 C247.220114,373.062155 247.219917,370.160025 246.955889,368.313197 L252.2339,367.522064 C252.497946,369.632722 252.49816,372.798682 252.498464,377.283792 C252.498946,384.407202 252.235757,394.960384 253.292388,409.998765 C254.085151,425.564788 253.821837,434.27116 253.821873,434.79882 Z" id="Shape_465_" fill="#F5B7B1" transform="translate(250.409842, 401.160442) rotate(-13.000000) translate(-250.409842, -401.160442) "></path>
                <path d="M138.247913,429.676858 L133.233627,427.829708 C133.233627,427.565878 140.093914,410.153563 140.620256,388.519539 C141.147188,375.591905 140.354174,356.332261 140.354157,356.068431 L145.632203,355.804959 C145.632221,356.068789 146.425234,375.328432 145.898321,388.519896 C145.37205,411.20924 138.511763,428.885385 138.247913,429.676858 Z" id="Shape_29_" fill="#F5B7B1" transform="translate(139.656331, 392.740908) rotate(-13.000000) translate(-139.656331, -392.740908) "></path>
                <path d="M94.5427359,267.940952 L247.343434,278.768321 C247.343434,278.768321 249.719599,294.070622 251.8322,314.385674 C253.680737,332.326239 253.945765,348.947547 254.2099,352.377355 C255.00211,359.764648 254.738885,369.79017 254.738885,369.79017 L102.200322,332.843649 C102.200322,332.843649 99.8236933,310.681769 98.5033379,298.281669 C97.4470821,288.783718 94.5427359,267.940952 94.5427359,267.940952 Z" id="Shape_402_" fill="#FDEDEC" transform="translate(174.661788, 318.865561) rotate(-13.000000) translate(-174.661788, -318.865561) "></path>
                <path d="M243.135654,251.415222 L275.858743,237.962106 C275.858743,237.962106 282.721816,261.44344 284.833899,274.107423 C289.586032,301.809894 289.587925,329.775873 289.587925,329.775873 L251.059322,348.505196 C251.059322,348.505196 247.096845,290.462329 245.776615,279.90904 C244.720019,265.398319 243.135654,251.415222 243.135654,251.415222 Z" id="Shape_401_" fill="url(#linearGradient-3)" transform="translate(266.361789, 293.233651) rotate(-13.000000) translate(-266.361789, -293.233651) "></path>
                <polygon id="Shape_400_" fill="#FFFF99" transform="translate(159.386045, 272.164142) rotate(-13.000000) translate(-159.386045, -272.164142) " points="236.974548 286.284297 83.6457933 271.763272 81.7975422 258.043987 235.654103 272.565048"></polygon>
                <polygon id="Shape_399_" fill="#FFFF99" transform="translate(187.016768, 351.348924) rotate(-13.000000) translate(-187.016768, -351.348924) " points="262.626898 372.064749 111.672415 344.880044 109.824129 330.6331 264.209407 358.609526"></polygon>
                <polygon id="Shape_398_" fill="#F4C83B" transform="translate(252.027004, 252.272032) rotate(-13.000000) translate(-252.027004, -252.272032) " points="234.874179 264.934782 233.817637 251.215551 267.068657 239.609281 270.236371 252.537165"></polygon>
                <polygon id="Shape_397_" fill="#F4C83B" transform="translate(280.934573, 336.983710) rotate(-13.000000) translate(-280.934573, -336.983710) " points="261.802535 350.56966 260.745976 336.586599 300.066663 323.39776 301.123169 336.589331"></polygon>
            </g>
            <g id="Card_group" transform="translate(481.500000, 106.103069)">
                <path d="M29.05,19.25 L6.5,23.4 C5.2,23.6 3.9,22.65 3.6,21.35 L1,9.6 C0.7,8.3 1.55,7 2.85,6.7 L25.25,0.5 C26.55,0.1 27.85,1 28.15,2.45 L30.9,15.95 C31.15,17.45 30.35,18.95 29.05,19.25 Z" id="Shape_5_" fill="url(#linearGradient-5)"></path>
                <path d="M28.55,19.25 L6,23.4 C4.7,23.6 3.4,22.65 3.1,21.35 L0.5,9.6 C0.2,8.3 1.05,7 2.35,6.7 L24.75,0.5 C26.05,0.1 27.35,1 27.65,2.45 L30.4,15.95 C30.65,17.45 29.85,18.95 28.55,19.25 Z" id="Shape_4_" fill="#FDEDEC"></path>
                <polygon id="Shape_3_" fill="url(#linearGradient-6)" points="28.75 7.95 1.55 14.35 0.85 11.1 27.95 4.15"></polygon>
                <path d="M24.9,13.1 C25,12.85 25.3,12.8 25.45,12.95 C25.65,13.1 26,13.15 26.2,13.05 C26.45,12.95 26.65,13.1 26.75,13.35 C26.8,13.6 27.05,13.9 27.3,14 C27.55,14.1 27.65,14.4 27.55,14.65 C27.45,14.9 27.45,15.3 27.6,15.55 C27.7,15.8 27.65,16.1 27.45,16.2 C27.25,16.3 27,16.6 27,16.9 C26.95,17.15 26.75,17.35 26.5,17.25 C26.25,17.15 25.95,17.25 25.75,17.4 C25.55,17.55 25.3,17.5 25.15,17.3 C25,17.05 24.7,16.9 24.45,16.85 C24.2,16.85 24.05,16.6 24.05,16.35 C24.05,16.1 23.95,15.7 23.75,15.55 C23.55,15.35 23.55,15.05 23.7,14.9 C23.85,14.7 23.95,14.35 23.95,14.05 C23.9,13.8 24.05,13.55 24.3,13.5 C24.45,13.55 24.75,13.35 24.9,13.1 Z" id="Shape_2_" fill="url(#linearGradient-7)"></path>
            </g>
        </g>
    </g>
</svg>