<?xml version="1.0" encoding="UTF-8"?>
<svg width="197px" height="65px" viewBox="0 0 197 65" version="1.1" xmlns="http://www.w3.org/2000/svg" xmlns:xlink="http://www.w3.org/1999/xlink">
    <!-- Generator: Sketch 61.2 (89653) - https://sketch.com -->
    <title>Carbon Play Store (White)</title>
    <desc>Created with Sketch.</desc>
    <g id="GetCarbon-Main-Website-V2" stroke="none" stroke-width="1" fill="none" fill-rule="evenodd">
        <g id="GetCarbon-Landingpage-(v2)" transform="translate(-78.000000, -583.000000)">
            <g id="Group-13" transform="translate(78.000000, 583.000000)">
                <g id="Carbon-Play-Store-(White)">
                    <rect id="Rectangle" fill="#FFFFFF" fill-rule="nonzero" x="0" y="0" width="196.128" height="64.224" rx="8.78112"></rect>
                    <g id="Group" transform="translate(69.842880, 23.040000)" fill="#3B2F85" font-family="Helvetica" font-size="24.48" font-weight="normal">
                        <text id="P">
                            <tspan x="0" y="24">P</tspan>
                        </text>
                        <text id="l">
                            <tspan x="14.2704" y="24">l</tspan>
                        </text>
                        <text id="a">
                            <tspan x="19.60704" y="24">a</tspan>
                        </text>
                        <text id="y">
                            <tspan x="32.16672" y="24">y</tspan>
                        </text>
                        <text id="S">
                            <tspan x="49.6944" y="24">S</tspan>
                        </text>
                        <text id="t">
                            <tspan x="64.68768" y="24">t</tspan>
                        </text>
                        <text id="o">
                            <tspan x="72.02016" y="24">o</tspan>
                        </text>
                        <text id="r">
                            <tspan x="85.68" y="24">r</tspan>
                        </text>
                        <text id="e">
                            <tspan x="94.36896" y="24">e</tspan>
                        </text>
                    </g>
                    <g id="Group" transform="translate(71.052480, 8.628480)" fill="#3B2F85" font-family="ProductSans-Regular, Product Sans" font-size="14.4" font-weight="normal">
                        <text id="G">
                            <tspan x="0" y="14">G</tspan>
                        </text>
                        <text id="e">
                            <tspan x="11.4624" y="14">e</tspan>
                        </text>
                        <text id="t">
                            <tspan x="18.9648" y="14">t</tspan>
                        </text>
                        <text id="i">
                            <tspan x="27.2304" y="14">i</tspan>
                        </text>
                        <text id="t">
                            <tspan x="30.3264" y="14">t</tspan>
                        </text>
                        <text id="o">
                            <tspan x="38.592" y="14">o</tspan>
                        </text>
                        <text id="n">
                            <tspan x="46.512" y="14">n</tspan>
                        </text>
                    </g>
                    <path d="M39.53088,31.0608 L20.99808,12.528 C20.8355023,13.0189328 20.7604413,13.5346115 20.77632,14.05152 L20.77632,48.0672 C20.7428559,48.8579377 21.0186672,49.6306227 21.54528,50.22144 L39.53088,31.0608 Z" id="Path" fill="#3B2F85" fill-rule="nonzero"></path>
                    <path d="M54.63936,29.13696 L48.096,25.39584 L42.10272,31.32864 L47.97216,37.19808 L54.63936,33.60096 C56.7936,32.36832 56.7936,30.36672 54.63936,29.13696 Z" id="Path" fill="#3B2F85" fill-rule="nonzero"></path>
                    <path d="M22.31424,50.90688 C22.95648,51.06816 23.72544,50.92992 24.61824,50.5296 L46.44,37.97568 L40.93632,32.472 L22.31424,50.90688 Z" id="Path" fill="#3B2F85" fill-rule="nonzero"></path>
                    <path d="M46.08,24.08832 L24.624,11.89728 C23.70528,11.38752 22.92192,11.28384 22.27104,11.49696 L40.64544,29.87136 L46.08,24.08832 Z" id="Path" fill="#3B2F85" fill-rule="nonzero"></path>
                    <polygon id="Path" fill="#3B2F85" fill-rule="nonzero" points="21.53952 50.23008 21.54528 50.22432 21.54528 50.22432"></polygon>
                </g>
            </g>
        </g>
    </g>
</svg>