<svg xmlns="http://www.w3.org/2000/svg" width="64" height="31" viewBox="0 0 64 31">
    <g fill="#AB2923" fill-rule="nonzero">
        <path d="M28.827 6.33v.641c0 2.388.015 4.775-.005 7.162-.02 2.395-2.351 4.254-4.689 3.767-1.66-.346-2.8-1.833-2.808-3.718-.01-2.404.009-4.81.013-7.214 0-.202-.018-.404-.027-.607h-3.44v5.969a1.08 1.08 0 0 1-.215-.473c-.272-1.279-.857-2.406-1.686-3.405-2.27-2.736-5.975-3.804-9.278-2.578C3.466 7.072.638 9.927.612 13.864c-.03 4.405-.009 8.81-.007 13.216 0 .116.03.232.046.353H4.06v-6.94c.986.407 1.929.815 2.886 1.185 4.068 1.576 9.27-.807 10.643-5.665.076-.267.13-.54.193-.811.082.067.101.117.1.167-.022 2.304 1.107 3.9 3.1 4.912 2.139 1.085 4.402 1.25 6.708.66 1.91-.487 3.438-1.48 4.165-3.428.011-.029.068-.041.156-.092v3.897h3.4v-4.827c0-5.23-.001-10.461.001-15.692 0-.244.025-.488.038-.732h-3.476V6.33h-3.147zm-13.064 7.432c-1.435.083-2.87.173-4.306.233-.39.017-.592.163-.73.526-.482 1.276-.995 2.54-1.498 3.809-.054.136-.123.267-.253.548l-1.95-7.952c-.304.889-.588 1.669-.831 2.462-.1.324-.236.438-.589.414-1.202-.083-2.406-.126-3.61-.185l-.014-.13c.17-.018.339-.042.509-.051.91-.05 1.82-.106 2.731-.14.342-.013.516-.138.626-.483.355-1.115.755-2.217 1.138-3.324.025-.072.061-.141.148-.34l2.032 7.78c.154-.355.273-.621.386-.89.31-.743.602-1.494.94-2.223.076-.162.315-.355.477-.354 1.841.012 3.682.059 5.524.099.043 0 .086.026.129.04l.005.08c-.288.027-.575.064-.864.081zM60.729 7.558c-2.052-1.678-4.427-2.092-6.988-1.683-3.475.554-6.227 3.078-6.944 6.417-.166.772-.167 1.58-.231 2.234-.311-.273-.69-.632-1.097-.956-1.083-.863-2.354-1.287-3.686-1.59a5.705 5.705 0 0 1-1.461-.558c-.54-.297-.856-.8-.76-1.445.1-.666.517-1.1 1.15-1.312.594-.198 1.14-.056 1.652.276.144.094.299.242.45.245 1.183.02 2.366.011 3.71.011-.34-.586-.557-1.088-.885-1.503-1.872-2.368-5.977-2.654-8.177-.59-2.088 1.958-1.812 5.258.602 6.764.678.424 1.438.723 2.178 1.038.741.316 1.522.542 2.252.88.658.305 1.125.835 1.05 1.613-.075.791-.58 1.29-1.324 1.543-.584.2-1.182.162-1.665-.19-.499-.366-.906-.858-1.354-1.293-.12-.117-.239-.328-.362-.33-1.082-.027-2.165-.016-3.252-.016.18 2.49 2.289 4.732 4.775 5.034 1.591.194 3.154.078 4.551-.87 1.37-.93 2.248-2.166 2.45-3.91 2.383 4.751 7.267 5.399 10.476 4.49 3.475-.982 5.42-3.722 5.691-5.85-1.037 0-2.07.026-3.1-.01-.44-.017-.676.135-.929.49-1.274 1.796-3.054 2.489-5.193 2.115-2.026-.354-3.438-1.51-4.051-3.527-.093-.306-.129-.629-.201-.997h13.732v-.422c-.04-.167-.094-.333-.12-.503-.342-2.2-1.175-4.152-2.94-5.595zm-9.555 3.46c1.02-1.507 2.424-2.057 4.06-2.058 1.624 0 2.98.612 4.007 2.058h-8.067zM63.15 25.36a2.419 2.419 0 0 0-3.486-.259c-.915.889-1.02 2.354-.191 3.28.454.507 1.029.79 1.704.835.792.052 1.46-.228 1.98-.898.075.983-.154 1.51-.824 1.82-.985.454-1.841.233-2.55-.616l-.53.488c.614.335 1.152.63 1.691.923h.843c.347-.149.76-.224 1.025-.464.382-.345.656-.808.976-1.221v-4.636l-.576-.025-.062.773zm-1.845 3.307c-1.021-.007-1.817-.82-1.82-1.855-.002-.984.823-1.796 1.82-1.791 1.082.005 1.892.797 1.882 1.839-.01.981-.878 1.815-1.882 1.807zM55.146 28.955c0-.88-.03-1.757.008-2.63.047-1.099 1.203-1.688 2.095-1.092.464.31.636.777.64 1.314.005.804.001 1.608.001 2.432.368.098.547.056.537-.314-.02-.806.005-1.614-.026-2.42-.028-.75-.422-1.303-1.1-1.6-.8-.353-1.532-.204-2.15.52l-.065-.554c-.351-.114-.484-.015-.481.33a190.63 190.63 0 0 1 0 3.684c-.005.41.165.475.541.33zM52.819 28.995c.157.014.337-.225.645-.455-.325-.206-.525-.431-.68-.404-.173.03-.306.29-.456.45.163.146.316.392.49.409z"/>
    </g>
</svg>
